G04*
G04 #@! TF.GenerationSoftware,Altium Limited,Altium Designer,20.2.6 (244)*
G04*
G04 Layer_Physical_Order=2*
G04 Layer_Color=36540*
%FSLAX25Y25*%
%MOIN*%
G70*
G04*
G04 #@! TF.SameCoordinates,568CAEEB-50F0-44EC-8363-EC95FF72310B*
G04*
G04*
G04 #@! TF.FilePolarity,Positive*
G04*
G01*
G75*
%ADD120C,0.06000*%
%ADD122C,0.06299*%
%ADD125O,0.03937X0.06299*%
%ADD126O,0.03937X0.08268*%
%ADD127C,0.02000*%
%ADD128C,0.02500*%
G36*
X211187Y123771D02*
Y1744D01*
X210856Y1413D01*
X133074D01*
X132781Y2013D01*
X133079Y2401D01*
X133378Y3123D01*
X133480Y3898D01*
Y4079D01*
X130486D01*
X127492D01*
Y3898D01*
X127594Y3123D01*
X127893Y2401D01*
X128191Y2013D01*
X127897Y1413D01*
X99019D01*
X98726Y2013D01*
X99024Y2401D01*
X99323Y3123D01*
X99425Y3898D01*
Y4079D01*
X96431D01*
X93436D01*
Y3898D01*
X93539Y3123D01*
X93838Y2401D01*
X94135Y2013D01*
X93842Y1413D01*
X38342D01*
X12325Y27429D01*
X4419D01*
X1213Y30636D01*
Y91648D01*
X4865Y95300D01*
X7067D01*
X7623Y95069D01*
X9132Y94871D01*
X10641Y95069D01*
X11198Y95300D01*
X39000D01*
Y95862D01*
X39061Y95924D01*
X40736D01*
X41238Y96023D01*
X41664Y96308D01*
X59528Y114172D01*
X59813Y114598D01*
X59913Y115100D01*
Y136271D01*
X62800Y139159D01*
X79687D01*
Y139100D01*
X79787Y138598D01*
X80072Y138172D01*
X80498Y137887D01*
X81000Y137787D01*
X192713D01*
X193215Y137887D01*
X193641Y138172D01*
X194628Y139159D01*
X195800D01*
X211187Y123771D01*
D02*
G37*
%LPC*%
G36*
X100700Y135422D02*
X100003Y135284D01*
X99411Y134889D01*
X99016Y134297D01*
X98983Y134130D01*
X98302Y133654D01*
X98209Y133672D01*
X97512Y133534D01*
X96921Y133139D01*
X96526Y132547D01*
X96387Y131850D01*
X96526Y131153D01*
X96921Y130561D01*
X97512Y130166D01*
X98209Y130028D01*
X98907Y130166D01*
X99498Y130561D01*
X99893Y131153D01*
X99926Y131320D01*
X100608Y131796D01*
X100700Y131778D01*
X101397Y131916D01*
X101989Y132311D01*
X102384Y132903D01*
X102522Y133600D01*
X102384Y134297D01*
X101989Y134889D01*
X101397Y135284D01*
X100700Y135422D01*
D02*
G37*
G36*
X116189Y136022D02*
X115492Y135884D01*
X114900Y135489D01*
X114505Y134897D01*
X114367Y134200D01*
X114505Y133503D01*
X114900Y132911D01*
X115492Y132516D01*
X116189Y132378D01*
X116886Y132516D01*
X117478Y132911D01*
X117873Y133503D01*
X118011Y134200D01*
X117873Y134897D01*
X117478Y135489D01*
X116886Y135884D01*
X116189Y136022D01*
D02*
G37*
G36*
X87326Y134149D02*
X86629Y134010D01*
X86037Y133615D01*
X85642Y133024D01*
X85504Y132326D01*
X85642Y131629D01*
X86037Y131037D01*
X86629Y130642D01*
X87326Y130504D01*
X88024Y130642D01*
X88615Y131037D01*
X89131Y130731D01*
X89303Y130616D01*
X90000Y130478D01*
X90697Y130616D01*
X91289Y131011D01*
X91684Y131603D01*
X91822Y132300D01*
X91684Y132997D01*
X91289Y133589D01*
X90697Y133984D01*
X90000Y134122D01*
X89303Y133984D01*
X88711Y133589D01*
X88195Y133896D01*
X88024Y134010D01*
X87326Y134149D01*
D02*
G37*
G36*
X132715Y133861D02*
X132018Y133722D01*
X131426Y133327D01*
X131031Y132736D01*
X130893Y132039D01*
X131031Y131341D01*
X131426Y130750D01*
X132018Y130355D01*
X132715Y130216D01*
X133412Y130355D01*
X134003Y130750D01*
X134399Y131341D01*
X134537Y132039D01*
X134399Y132736D01*
X134003Y133327D01*
X133412Y133722D01*
X132715Y133861D01*
D02*
G37*
G36*
X99700Y128722D02*
X99003Y128584D01*
X98411Y128189D01*
X98389D01*
X97797Y128584D01*
X97100Y128722D01*
X96403Y128584D01*
X95811Y128189D01*
X95416Y127597D01*
X95278Y126900D01*
X95416Y126203D01*
X95811Y125611D01*
X96227Y125333D01*
X96250Y125264D01*
Y124736D01*
X96227Y124667D01*
X95811Y124389D01*
X95416Y123797D01*
X95278Y123100D01*
X95416Y122403D01*
X95811Y121811D01*
X96403Y121416D01*
X97100Y121278D01*
X97797Y121416D01*
X98358Y121791D01*
X98411Y121711D01*
X99003Y121316D01*
X99700Y121178D01*
X100397Y121316D01*
X100989Y121711D01*
X101384Y122303D01*
X101522Y123000D01*
X101384Y123697D01*
X100989Y124289D01*
X100489Y124623D01*
X100438Y124950D01*
X100489Y125277D01*
X100989Y125611D01*
X101384Y126203D01*
X101522Y126900D01*
X101384Y127597D01*
X100989Y128189D01*
X100397Y128584D01*
X99700Y128722D01*
D02*
G37*
G36*
X82100Y130831D02*
X81403Y130692D01*
X80811Y130297D01*
X80416Y129706D01*
X80278Y129008D01*
X80416Y128311D01*
X80811Y127720D01*
X81403Y127325D01*
X82100Y127186D01*
X82797Y127325D01*
X83389Y127720D01*
X83784Y128311D01*
X83922Y129008D01*
X83784Y129706D01*
X83389Y130297D01*
X82797Y130692D01*
X82100Y130831D01*
D02*
G37*
G36*
X124947Y129647D02*
X124249Y129508D01*
X123658Y129113D01*
X123263Y128522D01*
X123124Y127824D01*
X123263Y127127D01*
X123658Y126536D01*
X124249Y126141D01*
X124947Y126002D01*
X125644Y126141D01*
X126235Y126536D01*
X126630Y127127D01*
X126769Y127824D01*
X126630Y128522D01*
X126235Y129113D01*
X125644Y129508D01*
X124947Y129647D01*
D02*
G37*
G36*
X82100Y125529D02*
X81403Y125390D01*
X80811Y124995D01*
X80294Y125252D01*
X80097Y125384D01*
X79400Y125522D01*
X78703Y125384D01*
X78111Y124989D01*
X77716Y124397D01*
X77578Y123700D01*
X77716Y123003D01*
X78111Y122411D01*
X78703Y122016D01*
X79400Y121878D01*
X80097Y122016D01*
X80689Y122411D01*
X81206Y122154D01*
X81403Y122023D01*
X82100Y121884D01*
X82797Y122023D01*
X83389Y122418D01*
X83784Y123009D01*
X83922Y123706D01*
X83784Y124404D01*
X83389Y124995D01*
X82797Y125390D01*
X82100Y125529D01*
D02*
G37*
G36*
X93100Y127122D02*
X92403Y126984D01*
X91811Y126589D01*
X91416Y125997D01*
X91278Y125300D01*
X91416Y124603D01*
X91811Y124011D01*
X92403Y123616D01*
X93100Y123478D01*
X93797Y123616D01*
X94389Y124011D01*
X94784Y124603D01*
X94922Y125300D01*
X94784Y125997D01*
X94389Y126589D01*
X93797Y126984D01*
X93100Y127122D01*
D02*
G37*
G36*
X160400Y124572D02*
X159703Y124434D01*
X159111Y124039D01*
X158716Y123447D01*
X158578Y122750D01*
X158716Y122053D01*
X159111Y121461D01*
X159703Y121066D01*
X160400Y120928D01*
X161097Y121066D01*
X161689Y121461D01*
X162084Y122053D01*
X162222Y122750D01*
X162084Y123447D01*
X161689Y124039D01*
X161097Y124434D01*
X160400Y124572D01*
D02*
G37*
G36*
X131200Y128437D02*
X130503Y128298D01*
X129911Y127903D01*
X129516Y127312D01*
X129378Y126614D01*
X129516Y125917D01*
X129911Y125326D01*
X130485Y124942D01*
X130503Y124836D01*
Y124428D01*
X130485Y124322D01*
X129911Y123939D01*
X129516Y123347D01*
X129378Y122650D01*
X129516Y121953D01*
X129911Y121361D01*
X130503Y120966D01*
X131200Y120828D01*
X131579Y120291D01*
X131616Y120103D01*
X132011Y119511D01*
X132603Y119116D01*
X133300Y118978D01*
X133997Y119116D01*
X134589Y119511D01*
X134984Y120103D01*
X135122Y120800D01*
X134984Y121497D01*
X134589Y122089D01*
X134173Y122367D01*
X134150Y122436D01*
Y122964D01*
X134173Y123033D01*
X134589Y123311D01*
X134984Y123903D01*
X135122Y124600D01*
X134984Y125297D01*
X134589Y125889D01*
X133997Y126284D01*
X133300Y126422D01*
X133228Y126408D01*
X133022Y126614D01*
X132884Y127312D01*
X132489Y127903D01*
X131897Y128298D01*
X131200Y128437D01*
D02*
G37*
G36*
X150945Y120532D02*
X150248Y120393D01*
X149656Y119998D01*
X149261Y119407D01*
X149123Y118710D01*
X149261Y118012D01*
X149656Y117421D01*
X150248Y117026D01*
X150945Y116887D01*
X151642Y117026D01*
X152234Y117421D01*
X152629Y118012D01*
X152767Y118710D01*
X152629Y119407D01*
X152234Y119998D01*
X151642Y120393D01*
X150945Y120532D01*
D02*
G37*
G36*
X144724Y118622D02*
X144027Y118484D01*
X143435Y118089D01*
X143040Y117497D01*
X142902Y116800D01*
X143040Y116103D01*
X143435Y115511D01*
X144027Y115116D01*
X144724Y114978D01*
X145421Y115116D01*
X146013Y115511D01*
X146408Y116103D01*
X146546Y116800D01*
X146408Y117497D01*
X146013Y118089D01*
X145421Y118484D01*
X144724Y118622D01*
D02*
G37*
G36*
X125723D02*
X125025Y118484D01*
X124434Y118089D01*
X124039Y117497D01*
X123900Y116800D01*
X124039Y116103D01*
X124219Y115834D01*
X124433Y115510D01*
X124066Y115065D01*
X123933Y114976D01*
X123538Y114385D01*
X123399Y113688D01*
X123538Y112990D01*
X123933Y112399D01*
X124524Y112004D01*
X125222Y111865D01*
X125919Y112004D01*
X126510Y112399D01*
X126905Y112990D01*
X127044Y113688D01*
X126905Y114385D01*
X126726Y114654D01*
X126512Y114978D01*
X126879Y115423D01*
X127011Y115511D01*
X127407Y116103D01*
X127545Y116800D01*
X127407Y117497D01*
X127011Y118089D01*
X126420Y118484D01*
X125723Y118622D01*
D02*
G37*
G36*
X152400Y114722D02*
X151703Y114584D01*
X151111Y114189D01*
X150716Y113597D01*
X150578Y112900D01*
X150716Y112203D01*
X151111Y111611D01*
X151703Y111216D01*
X152400Y111078D01*
X153097Y111216D01*
X153689Y111611D01*
X154084Y112203D01*
X154222Y112900D01*
X154084Y113597D01*
X153689Y114189D01*
X153097Y114584D01*
X152400Y114722D01*
D02*
G37*
G36*
X85800Y117822D02*
X85103Y117684D01*
X84511Y117289D01*
X84116Y116697D01*
X83978Y116000D01*
X84116Y115303D01*
X84511Y114711D01*
X85103Y114316D01*
X85443Y114249D01*
X85514Y113987D01*
X85507Y113624D01*
X85004Y113289D01*
X84609Y112697D01*
X84471Y112000D01*
X84609Y111303D01*
X85004Y110711D01*
X85596Y110316D01*
X86293Y110178D01*
X86990Y110316D01*
X87582Y110711D01*
X87977Y111303D01*
X88116Y112000D01*
X87977Y112697D01*
X87582Y113289D01*
X86990Y113684D01*
X86650Y113751D01*
X86579Y114013D01*
X86586Y114376D01*
X87089Y114711D01*
X87484Y115303D01*
X87622Y116000D01*
X87484Y116697D01*
X87089Y117289D01*
X86497Y117684D01*
X85800Y117822D01*
D02*
G37*
G36*
X189175Y115496D02*
X188455Y115401D01*
X187785Y115124D01*
X187209Y114682D01*
X186767Y114106D01*
X186490Y113436D01*
X186395Y112716D01*
X186490Y111997D01*
X186767Y111327D01*
X187209Y110751D01*
X187785Y110309D01*
X188455Y110032D01*
X189175Y109937D01*
X189894Y110032D01*
X190565Y110309D01*
X191140Y110751D01*
X191582Y111327D01*
X191860Y111997D01*
X191955Y112716D01*
X191860Y113436D01*
X191582Y114106D01*
X191140Y114682D01*
X190565Y115124D01*
X189894Y115401D01*
X189175Y115496D01*
D02*
G37*
G36*
X133512Y116445D02*
X132815Y116306D01*
X132223Y115911D01*
X131828Y115320D01*
X131690Y114623D01*
X131828Y113925D01*
X132223Y113334D01*
X132635Y113059D01*
X132706Y112489D01*
X132676Y112365D01*
X132410Y112187D01*
X132015Y111596D01*
X131876Y110898D01*
X132015Y110201D01*
X132410Y109610D01*
X133001Y109215D01*
X133698Y109076D01*
X134396Y109215D01*
X134987Y109610D01*
X135382Y110201D01*
X135521Y110898D01*
X135382Y111596D01*
X134987Y112187D01*
X134575Y112462D01*
X134504Y113031D01*
X134534Y113156D01*
X134801Y113334D01*
X135196Y113925D01*
X135334Y114623D01*
X135196Y115320D01*
X134801Y115911D01*
X134209Y116306D01*
X133512Y116445D01*
D02*
G37*
G36*
X97100Y111612D02*
X96403Y111473D01*
X95811Y111078D01*
X95416Y110487D01*
X95278Y109789D01*
X95416Y109092D01*
X95811Y108501D01*
X96403Y108106D01*
X97100Y107967D01*
X97797Y108106D01*
X98389Y108501D01*
X98784Y109092D01*
X98922Y109789D01*
X98784Y110487D01*
X98389Y111078D01*
X97797Y111473D01*
X97100Y111612D01*
D02*
G37*
G36*
X152400Y110129D02*
X151703Y109991D01*
X151111Y109596D01*
X150716Y109004D01*
X150578Y108307D01*
X150716Y107610D01*
X151111Y107018D01*
X151703Y106623D01*
X152400Y106485D01*
X153097Y106623D01*
X153689Y107018D01*
X154084Y107610D01*
X154222Y108307D01*
X154084Y109004D01*
X153689Y109596D01*
X153097Y109991D01*
X152400Y110129D01*
D02*
G37*
G36*
X125300Y109172D02*
X124603Y109034D01*
X124011Y108639D01*
X123616Y108047D01*
X123478Y107350D01*
X123616Y106653D01*
X124011Y106061D01*
X124603Y105666D01*
X125300Y105528D01*
X125997Y105666D01*
X126589Y106061D01*
X126984Y106653D01*
X127122Y107350D01*
X126984Y108047D01*
X126589Y108639D01*
X125997Y109034D01*
X125300Y109172D01*
D02*
G37*
G36*
X152400Y104863D02*
X151703Y104724D01*
X151111Y104329D01*
X150716Y103738D01*
X150578Y103041D01*
X150716Y102343D01*
X151111Y101752D01*
X151703Y101357D01*
X152400Y101218D01*
X153097Y101357D01*
X153689Y101752D01*
X154084Y102343D01*
X154222Y103041D01*
X154084Y103738D01*
X153689Y104329D01*
X153097Y104724D01*
X152400Y104863D01*
D02*
G37*
G36*
X94191Y106240D02*
X85529D01*
Y98760D01*
X94191D01*
Y100531D01*
X93797D01*
Y104469D01*
X94191D01*
Y106240D01*
D02*
G37*
G36*
X122290Y103731D02*
X121593Y103592D01*
X121002Y103197D01*
X120607Y102606D01*
X120468Y101909D01*
X120607Y101211D01*
X121002Y100620D01*
X121593Y100225D01*
X122290Y100086D01*
X122444Y100117D01*
X122566Y99503D01*
X122961Y98911D01*
X123553Y98516D01*
X124250Y98378D01*
X124947Y98516D01*
X125539Y98911D01*
X125934Y99503D01*
X126072Y100200D01*
X125934Y100897D01*
X125539Y101489D01*
X124947Y101884D01*
X124250Y102022D01*
X124096Y101992D01*
X123974Y102606D01*
X123579Y103197D01*
X122988Y103592D01*
X122290Y103731D01*
D02*
G37*
G36*
X129860Y104083D02*
X129163Y103944D01*
X128572Y103549D01*
X128177Y102958D01*
X128038Y102260D01*
X128177Y101563D01*
X128473Y101119D01*
X128376Y100605D01*
X128287Y100440D01*
X127761Y100089D01*
X127366Y99497D01*
X127228Y98800D01*
X127366Y98103D01*
X127761Y97511D01*
X128353Y97116D01*
X129050Y96978D01*
X129747Y97116D01*
X130339Y97511D01*
X130734Y98103D01*
X130771Y98289D01*
X131408Y98416D01*
X131611Y98111D01*
X132203Y97716D01*
X132900Y97578D01*
X133597Y97716D01*
X134189Y98111D01*
X134584Y98703D01*
X134722Y99400D01*
X134584Y100097D01*
X134189Y100689D01*
X133597Y101084D01*
X132900Y101222D01*
X132203Y101084D01*
X131883Y100870D01*
X131752Y100783D01*
X131731Y100780D01*
X131323Y101189D01*
X131343Y101263D01*
X131544Y101563D01*
X131683Y102260D01*
X131544Y102958D01*
X131149Y103549D01*
X130558Y103944D01*
X129860Y104083D01*
D02*
G37*
G36*
X138629Y100122D02*
X137931Y99984D01*
X137340Y99589D01*
X136945Y98997D01*
X136806Y98300D01*
X136945Y97603D01*
X137340Y97011D01*
X137931Y96616D01*
X138629Y96478D01*
X139326Y96616D01*
X139917Y97011D01*
X140313Y97603D01*
X140451Y98300D01*
X140313Y98997D01*
X139917Y99589D01*
X139326Y99984D01*
X138629Y100122D01*
D02*
G37*
G36*
X113136Y102785D02*
X112438Y102646D01*
X111847Y102251D01*
X111452Y101660D01*
X111313Y100962D01*
X111452Y100265D01*
X111847Y99674D01*
X112438Y99279D01*
X113136Y99140D01*
X113178Y99148D01*
X113316Y98453D01*
X113711Y97861D01*
X114303Y97466D01*
X115000Y97328D01*
X115697Y97466D01*
X116289Y97861D01*
X116623Y98361D01*
X116830Y98422D01*
X117153Y98232D01*
X117388Y98048D01*
X117516Y97403D01*
X117911Y96811D01*
X118503Y96416D01*
X119200Y96278D01*
X119897Y96416D01*
X120489Y96811D01*
X120884Y97403D01*
X121022Y98100D01*
X120884Y98797D01*
X120489Y99389D01*
X119897Y99784D01*
X119200Y99922D01*
X118877Y100470D01*
X118922Y100700D01*
X118784Y101397D01*
X118389Y101989D01*
X117797Y102384D01*
X117100Y102522D01*
X116403Y102384D01*
X115811Y101989D01*
X115468Y101475D01*
X115155Y101462D01*
X114844Y101538D01*
X114820Y101660D01*
X114425Y102251D01*
X113833Y102646D01*
X113136Y102785D01*
D02*
G37*
G36*
X67800Y97501D02*
X67103Y97362D01*
X66511Y96967D01*
X66116Y96376D01*
X65978Y95678D01*
X66116Y94981D01*
X66511Y94390D01*
X67103Y93995D01*
X67800Y93856D01*
X68497Y93995D01*
X69089Y94390D01*
X69484Y94981D01*
X69622Y95678D01*
X69484Y96376D01*
X69089Y96967D01*
X68497Y97362D01*
X67800Y97501D01*
D02*
G37*
G36*
X101500Y97122D02*
X100803Y96984D01*
X100211Y96589D01*
X99816Y95997D01*
X99740Y95612D01*
X99452Y95058D01*
X98754Y94919D01*
X98163Y94524D01*
X97768Y93933D01*
X97629Y93235D01*
X97768Y92538D01*
X97939Y92282D01*
X97578Y91742D01*
X97174Y91822D01*
X96477Y91684D01*
X95885Y91289D01*
X95490Y90697D01*
X95352Y90000D01*
X95490Y89303D01*
X95885Y88711D01*
X96477Y88316D01*
X97174Y88178D01*
X97871Y88316D01*
X98463Y88711D01*
X98858Y89303D01*
X98996Y90000D01*
X98858Y90697D01*
X98687Y90953D01*
X99047Y91493D01*
X99452Y91413D01*
X100149Y91552D01*
X100740Y91947D01*
X101136Y92538D01*
X101212Y92923D01*
X101500Y93478D01*
X102197Y93616D01*
X102789Y94011D01*
X103184Y94603D01*
X103322Y95300D01*
X103184Y95997D01*
X102789Y96589D01*
X102197Y96984D01*
X101500Y97122D01*
D02*
G37*
G36*
X87257Y91822D02*
X86560Y91684D01*
X85969Y91289D01*
X85574Y90697D01*
X85435Y90000D01*
X85574Y89303D01*
X85969Y88711D01*
X86560Y88316D01*
X87257Y88178D01*
X87955Y88316D01*
X88546Y88711D01*
X88941Y89303D01*
X89080Y90000D01*
X88941Y90697D01*
X88546Y91289D01*
X87955Y91684D01*
X87257Y91822D01*
D02*
G37*
G36*
X114500Y87622D02*
X113803Y87484D01*
X113211Y87089D01*
X113164Y87018D01*
X112599Y87395D01*
X111901Y87534D01*
X111204Y87395D01*
X110613Y87000D01*
X110218Y86409D01*
X110079Y85712D01*
X110218Y85014D01*
X110613Y84423D01*
X111204Y84028D01*
X111901Y83889D01*
X112599Y84028D01*
X113190Y84423D01*
X113238Y84494D01*
X113803Y84116D01*
X114500Y83978D01*
X115197Y84116D01*
X115771Y84500D01*
X115810Y84441D01*
X116402Y84046D01*
X117099Y83907D01*
X117797Y84046D01*
X118388Y84441D01*
X118783Y85032D01*
X118921Y85729D01*
X118783Y86427D01*
X118388Y87018D01*
X117797Y87413D01*
X117099Y87552D01*
X116402Y87413D01*
X115828Y87030D01*
X115789Y87089D01*
X115197Y87484D01*
X114500Y87622D01*
D02*
G37*
G36*
X106685Y87772D02*
X105987Y87634D01*
X105396Y87239D01*
X105001Y86647D01*
X104862Y85950D01*
X105001Y85253D01*
X105396Y84661D01*
X105987Y84266D01*
X106685Y84128D01*
X107382Y84266D01*
X107973Y84661D01*
X108369Y85253D01*
X108507Y85950D01*
X108369Y86647D01*
X107973Y87239D01*
X107382Y87634D01*
X106685Y87772D01*
D02*
G37*
G36*
X138567Y87748D02*
X137870Y87609D01*
X137278Y87214D01*
X136883Y86623D01*
X136745Y85926D01*
X136883Y85228D01*
X137278Y84637D01*
X137870Y84242D01*
X138567Y84103D01*
X139265Y84242D01*
X139856Y84637D01*
X140251Y85228D01*
X140390Y85926D01*
X140251Y86623D01*
X139856Y87214D01*
X139265Y87609D01*
X138567Y87748D01*
D02*
G37*
G36*
X134000Y86622D02*
X133303Y86484D01*
X132711Y86089D01*
X132316Y85497D01*
X132178Y84800D01*
X132316Y84103D01*
X132711Y83511D01*
X133303Y83116D01*
X134000Y82978D01*
X134697Y83116D01*
X135289Y83511D01*
X135684Y84103D01*
X135822Y84800D01*
X135684Y85497D01*
X135289Y86089D01*
X134697Y86484D01*
X134000Y86622D01*
D02*
G37*
G36*
X51837Y92774D02*
X43963D01*
Y84900D01*
X45229D01*
X45432Y84300D01*
X44941Y83922D01*
X44275Y83056D01*
X43857Y82046D01*
X43846Y81963D01*
X47900D01*
X51954D01*
X51943Y82046D01*
X51525Y83056D01*
X50859Y83922D01*
X50368Y84300D01*
X50571Y84900D01*
X51837D01*
Y92774D01*
D02*
G37*
G36*
X70600Y83522D02*
X69903Y83384D01*
X69311Y82989D01*
X68916Y82397D01*
X68778Y81700D01*
X68916Y81003D01*
X69311Y80411D01*
X69903Y80016D01*
X70600Y79878D01*
X71297Y80016D01*
X71889Y80411D01*
X72284Y81003D01*
X72422Y81700D01*
X72284Y82397D01*
X71889Y82989D01*
X71297Y83384D01*
X70600Y83522D01*
D02*
G37*
G36*
X103500Y82722D02*
X102803Y82584D01*
X102211Y82189D01*
X101816Y81597D01*
X101678Y80900D01*
X101816Y80203D01*
X102211Y79611D01*
X102803Y79216D01*
X103500Y79078D01*
X104197Y79216D01*
X104789Y79611D01*
X105184Y80203D01*
X105322Y80900D01*
X105184Y81597D01*
X104789Y82189D01*
X104197Y82584D01*
X103500Y82722D01*
D02*
G37*
G36*
X189175Y84079D02*
X188455Y83984D01*
X187785Y83706D01*
X187209Y83265D01*
X186767Y82689D01*
X186490Y82019D01*
X186395Y81299D01*
X186490Y80580D01*
X186767Y79909D01*
X187209Y79334D01*
X187785Y78892D01*
X188455Y78614D01*
X189175Y78519D01*
X189894Y78614D01*
X190565Y78892D01*
X191140Y79334D01*
X191582Y79909D01*
X191860Y80580D01*
X191955Y81299D01*
X191860Y82019D01*
X191582Y82689D01*
X191140Y83265D01*
X190565Y83706D01*
X189894Y83984D01*
X189175Y84079D01*
D02*
G37*
G36*
X87277Y81882D02*
X86482Y81723D01*
X85808Y81273D01*
X85358Y80599D01*
X85200Y79804D01*
X85358Y79009D01*
X85808Y78335D01*
X86482Y77885D01*
X87277Y77727D01*
X88072Y77885D01*
X88746Y78335D01*
X89196Y79009D01*
X89355Y79804D01*
X89196Y80599D01*
X88746Y81273D01*
X88072Y81723D01*
X87277Y81882D01*
D02*
G37*
G36*
X138443Y81292D02*
X137745Y81154D01*
X137154Y80759D01*
X136759Y80168D01*
X136620Y79470D01*
X136759Y78773D01*
X137154Y78181D01*
X137745Y77786D01*
X138443Y77648D01*
X139140Y77786D01*
X139731Y78181D01*
X140126Y78773D01*
X140265Y79470D01*
X140126Y80168D01*
X139731Y80759D01*
X139140Y81154D01*
X138443Y81292D01*
D02*
G37*
G36*
X51954Y79963D02*
X48900D01*
Y76909D01*
X48983Y76920D01*
X49993Y77338D01*
X50859Y78004D01*
X51525Y78870D01*
X51943Y79880D01*
X51954Y79963D01*
D02*
G37*
G36*
X46900D02*
X43846D01*
X43857Y79880D01*
X44275Y78870D01*
X44941Y78004D01*
X45807Y77338D01*
X46817Y76920D01*
X46900Y76909D01*
Y79963D01*
D02*
G37*
G36*
X14762Y77627D02*
X14065Y77488D01*
X13474Y77093D01*
X13079Y76502D01*
X12954Y75876D01*
X12469Y75972D01*
X11772Y75834D01*
X11181Y75439D01*
X10786Y74847D01*
X10647Y74150D01*
X10786Y73453D01*
X11181Y72861D01*
X11772Y72466D01*
X12469Y72328D01*
X13167Y72466D01*
X13758Y72861D01*
X14153Y73453D01*
X14277Y74078D01*
X14762Y73982D01*
X15460Y74121D01*
X16051Y74516D01*
X16446Y75107D01*
X16585Y75804D01*
X16446Y76502D01*
X16051Y77093D01*
X15460Y77488D01*
X14762Y77627D01*
D02*
G37*
G36*
X40600Y74222D02*
X39903Y74084D01*
X39311Y73689D01*
X38916Y73097D01*
X38778Y72400D01*
X38916Y71703D01*
X39311Y71111D01*
X39903Y70716D01*
X40600Y70578D01*
X41297Y70716D01*
X41889Y71111D01*
X42284Y71703D01*
X42422Y72400D01*
X42284Y73097D01*
X41889Y73689D01*
X41297Y74084D01*
X40600Y74222D01*
D02*
G37*
G36*
X119400Y73822D02*
X118703Y73684D01*
X118111Y73289D01*
X117716Y72697D01*
X117578Y72000D01*
X117716Y71303D01*
X118111Y70711D01*
X118703Y70316D01*
X119400Y70178D01*
X120097Y70316D01*
X120689Y70711D01*
X121084Y71303D01*
X121222Y72000D01*
X121084Y72697D01*
X120689Y73289D01*
X120097Y73684D01*
X119400Y73822D01*
D02*
G37*
G36*
X21562Y73262D02*
X20865Y73123D01*
X20274Y72728D01*
X19879Y72137D01*
X19740Y71439D01*
X19879Y70742D01*
X20274Y70151D01*
X20865Y69756D01*
X21562Y69617D01*
X22260Y69756D01*
X22851Y70151D01*
X23246Y70742D01*
X23385Y71439D01*
X23246Y72137D01*
X22851Y72728D01*
X22260Y73123D01*
X21562Y73262D01*
D02*
G37*
G36*
X107000Y74022D02*
X106303Y73884D01*
X105711Y73489D01*
X105316Y72897D01*
X105178Y72200D01*
X105316Y71503D01*
X105711Y70911D01*
X105637Y70806D01*
X105611Y70789D01*
X105216Y70197D01*
X105178Y70005D01*
X105033Y69506D01*
X104526Y69569D01*
X104325Y69609D01*
X103628Y69470D01*
X103037Y69075D01*
X102642Y68484D01*
X102503Y67787D01*
X102642Y67089D01*
X103037Y66498D01*
X103628Y66103D01*
X104325Y65964D01*
X105023Y66103D01*
X105614Y66498D01*
X106009Y67089D01*
X106047Y67282D01*
X106192Y67781D01*
X106699Y67717D01*
X106900Y67678D01*
X107597Y67816D01*
X108189Y68211D01*
X108584Y68803D01*
X108722Y69500D01*
X108584Y70197D01*
X108189Y70789D01*
X108263Y70894D01*
X108289Y70911D01*
X108684Y71503D01*
X108822Y72200D01*
X108684Y72897D01*
X108289Y73489D01*
X107697Y73884D01*
X107000Y74022D01*
D02*
G37*
G36*
X97070Y73459D02*
X96275Y73300D01*
X95601Y72850D01*
X95150Y72176D01*
X94992Y71381D01*
X95150Y70586D01*
X95601Y69912D01*
X96275Y69462D01*
X97070Y69304D01*
X97865Y69462D01*
X98538Y69912D01*
X98989Y70586D01*
X99147Y71381D01*
X98989Y72176D01*
X98538Y72850D01*
X97865Y73300D01*
X97070Y73459D01*
D02*
G37*
G36*
X134400Y70822D02*
X133703Y70684D01*
X133111Y70289D01*
X132716Y69697D01*
X132578Y69000D01*
X132716Y68303D01*
X133111Y67711D01*
X133703Y67316D01*
X134400Y67178D01*
X135097Y67316D01*
X135689Y67711D01*
X136084Y68303D01*
X136222Y69000D01*
X136084Y69697D01*
X135689Y70289D01*
X135097Y70684D01*
X134400Y70822D01*
D02*
G37*
G36*
X114402Y69621D02*
X113704Y69482D01*
X113113Y69087D01*
X112718Y68496D01*
X112579Y67798D01*
X112718Y67101D01*
X113113Y66510D01*
X113704Y66115D01*
X114402Y65976D01*
X115099Y66115D01*
X115690Y66510D01*
X116085Y67101D01*
X116224Y67798D01*
X116085Y68496D01*
X115690Y69087D01*
X115099Y69482D01*
X114402Y69621D01*
D02*
G37*
G36*
X34350Y69544D02*
X33652Y69406D01*
X33061Y69011D01*
X32666Y68419D01*
X32527Y67722D01*
X32666Y67024D01*
X33061Y66433D01*
X33652Y66038D01*
X34350Y65899D01*
X34794Y65988D01*
X34879Y65561D01*
X35274Y64969D01*
X35865Y64574D01*
X36563Y64436D01*
X37260Y64574D01*
X37851Y64969D01*
X38247Y65561D01*
X38385Y66258D01*
X38247Y66956D01*
X37851Y67547D01*
X37260Y67942D01*
X36563Y68081D01*
X36118Y67992D01*
X36033Y68419D01*
X35638Y69011D01*
X35047Y69406D01*
X34350Y69544D01*
D02*
G37*
G36*
X132770Y63759D02*
X132073Y63621D01*
X131482Y63226D01*
X130937Y63490D01*
X130797Y63584D01*
X130100Y63722D01*
X129403Y63584D01*
X128811Y63189D01*
X128416Y62597D01*
X128278Y61900D01*
X128416Y61203D01*
X128811Y60611D01*
X129403Y60216D01*
X130100Y60078D01*
X130797Y60216D01*
X131389Y60611D01*
X131933Y60347D01*
X132073Y60253D01*
X132770Y60115D01*
X133468Y60253D01*
X134059Y60648D01*
X134454Y61240D01*
X134593Y61937D01*
X134454Y62634D01*
X134059Y63226D01*
X133468Y63621D01*
X132770Y63759D01*
D02*
G37*
G36*
X11528Y69851D02*
X10831Y69712D01*
X10239Y69317D01*
X9844Y68726D01*
X9706Y68028D01*
X9844Y67331D01*
X10239Y66739D01*
X10831Y66344D01*
X11115Y66288D01*
X11242Y65651D01*
X10905Y65426D01*
X10510Y64834D01*
X10371Y64137D01*
X10510Y63440D01*
X10905Y62848D01*
X11496Y62453D01*
X12193Y62315D01*
X12891Y62453D01*
X13482Y62848D01*
X13877Y63440D01*
X14016Y64137D01*
X13877Y64834D01*
X13482Y65426D01*
X12891Y65821D01*
X12606Y65877D01*
X12480Y66514D01*
X12817Y66739D01*
X13212Y67331D01*
X13351Y68028D01*
X13212Y68726D01*
X12817Y69317D01*
X12226Y69712D01*
X11528Y69851D01*
D02*
G37*
G36*
X175600Y63403D02*
Y60500D01*
X178503D01*
X178497Y60544D01*
X178094Y61517D01*
X177453Y62353D01*
X176617Y62994D01*
X175644Y63397D01*
X175600Y63403D01*
D02*
G37*
G36*
X173600D02*
X173556Y63397D01*
X172583Y62994D01*
X171747Y62353D01*
X171106Y61517D01*
X170703Y60544D01*
X170697Y60500D01*
X173600D01*
Y63403D01*
D02*
G37*
G36*
X122000Y63922D02*
X121303Y63784D01*
X120711Y63389D01*
X120316Y62797D01*
X120178Y62100D01*
X120316Y61403D01*
X120711Y60811D01*
X121303Y60416D01*
X122000Y60278D01*
X122697Y60416D01*
X123289Y60811D01*
X123684Y61403D01*
X123822Y62100D01*
X123684Y62797D01*
X123289Y63389D01*
X122697Y63784D01*
X122000Y63922D01*
D02*
G37*
G36*
X65600Y61222D02*
X64903Y61084D01*
X64311Y60689D01*
X63916Y60097D01*
X63778Y59400D01*
X63916Y58703D01*
X64311Y58111D01*
X64903Y57716D01*
X65600Y57578D01*
X66297Y57716D01*
X66889Y58111D01*
X67284Y58703D01*
X67422Y59400D01*
X67284Y60097D01*
X66889Y60689D01*
X66297Y61084D01*
X65600Y61222D01*
D02*
G37*
G36*
X168387Y63287D02*
X160813D01*
Y55713D01*
X168387D01*
Y63287D01*
D02*
G37*
G36*
X204600Y63320D02*
X203611Y63190D01*
X202690Y62808D01*
X201899Y62201D01*
X201292Y61410D01*
X200910Y60489D01*
X200780Y59500D01*
X200910Y58511D01*
X201292Y57590D01*
X201899Y56799D01*
X202690Y56192D01*
X203611Y55810D01*
X204600Y55680D01*
X205589Y55810D01*
X206510Y56192D01*
X207301Y56799D01*
X207908Y57590D01*
X208290Y58511D01*
X208420Y59500D01*
X208290Y60489D01*
X207908Y61410D01*
X207301Y62201D01*
X206510Y62808D01*
X205589Y63190D01*
X204600Y63320D01*
D02*
G37*
G36*
X194600D02*
X193611Y63190D01*
X192690Y62808D01*
X191899Y62201D01*
X191292Y61410D01*
X190910Y60489D01*
X190780Y59500D01*
X190910Y58511D01*
X191292Y57590D01*
X191899Y56799D01*
X192690Y56192D01*
X193611Y55810D01*
X194600Y55680D01*
X195589Y55810D01*
X196510Y56192D01*
X197301Y56799D01*
X197908Y57590D01*
X198290Y58511D01*
X198420Y59500D01*
X198290Y60489D01*
X197908Y61410D01*
X197301Y62201D01*
X196510Y62808D01*
X195589Y63190D01*
X194600Y63320D01*
D02*
G37*
G36*
X184600D02*
X183611Y63190D01*
X182690Y62808D01*
X181899Y62201D01*
X181292Y61410D01*
X180910Y60489D01*
X180780Y59500D01*
X180910Y58511D01*
X181292Y57590D01*
X181899Y56799D01*
X182690Y56192D01*
X183611Y55810D01*
X184600Y55680D01*
X185589Y55810D01*
X186510Y56192D01*
X187301Y56799D01*
X187908Y57590D01*
X188290Y58511D01*
X188420Y59500D01*
X188290Y60489D01*
X187908Y61410D01*
X187301Y62201D01*
X186510Y62808D01*
X185589Y63190D01*
X184600Y63320D01*
D02*
G37*
G36*
X178503Y58500D02*
X175600D01*
Y55597D01*
X175644Y55603D01*
X176617Y56006D01*
X177453Y56647D01*
X178094Y57483D01*
X178497Y58456D01*
X178503Y58500D01*
D02*
G37*
G36*
X173600D02*
X170697D01*
X170703Y58456D01*
X171106Y57483D01*
X171747Y56647D01*
X172583Y56006D01*
X173556Y55603D01*
X173600Y55597D01*
Y58500D01*
D02*
G37*
G36*
X88200Y58222D02*
X87503Y58084D01*
X86911Y57689D01*
X86516Y57097D01*
X86378Y56400D01*
X86516Y55703D01*
X86911Y55111D01*
X87503Y54716D01*
X88200Y54578D01*
X88897Y54716D01*
X89489Y55111D01*
X89884Y55703D01*
X90022Y56400D01*
X89884Y57097D01*
X89489Y57689D01*
X88897Y58084D01*
X88200Y58222D01*
D02*
G37*
G36*
X17200D02*
X16503Y58084D01*
X15911Y57689D01*
X15516Y57097D01*
X15378Y56400D01*
X15516Y55703D01*
X15911Y55111D01*
X16503Y54716D01*
X17200Y54578D01*
X17897Y54716D01*
X18489Y55111D01*
X18884Y55703D01*
X19022Y56400D01*
X18884Y57097D01*
X18489Y57689D01*
X17897Y58084D01*
X17200Y58222D01*
D02*
G37*
G36*
X29400Y55022D02*
X28703Y54884D01*
X28111Y54489D01*
X27716Y53897D01*
X27578Y53200D01*
X27716Y52503D01*
X28111Y51911D01*
X28703Y51516D01*
X29400Y51378D01*
X30097Y51516D01*
X30689Y51911D01*
X31084Y52503D01*
X31222Y53200D01*
X31084Y53897D01*
X30689Y54489D01*
X30097Y54884D01*
X29400Y55022D01*
D02*
G37*
G36*
X70601Y53937D02*
X69806Y53779D01*
X69133Y53329D01*
X68682Y52655D01*
X68524Y51860D01*
X68682Y51065D01*
X69133Y50391D01*
X69806Y49941D01*
X70601Y49782D01*
X71396Y49941D01*
X72070Y50391D01*
X72521Y51065D01*
X72679Y51860D01*
X72521Y52655D01*
X72070Y53329D01*
X71396Y53779D01*
X70601Y53937D01*
D02*
G37*
G36*
X17100Y53322D02*
X16403Y53184D01*
X15811Y52789D01*
X15416Y52197D01*
X15278Y51500D01*
X15416Y50803D01*
X15811Y50211D01*
X16403Y49816D01*
X17100Y49678D01*
X17797Y49816D01*
X18389Y50211D01*
X18784Y50803D01*
X18922Y51500D01*
X18784Y52197D01*
X18389Y52789D01*
X17797Y53184D01*
X17100Y53322D01*
D02*
G37*
G36*
X95100Y53222D02*
X94403Y53084D01*
X93811Y52689D01*
X93416Y52097D01*
X93278Y51400D01*
X93416Y50703D01*
X93811Y50111D01*
X94403Y49716D01*
X95100Y49578D01*
X95797Y49716D01*
X96389Y50111D01*
X96784Y50703D01*
X96922Y51400D01*
X96784Y52097D01*
X96389Y52689D01*
X95797Y53084D01*
X95100Y53222D01*
D02*
G37*
G36*
X37197Y49852D02*
X36499Y49714D01*
X35908Y49319D01*
X35835Y49209D01*
X35271Y49587D01*
X34573Y49725D01*
X33876Y49587D01*
X33285Y49192D01*
X32890Y48600D01*
X32751Y47903D01*
X32890Y47205D01*
X33285Y46614D01*
X33876Y46219D01*
X34573Y46080D01*
X35271Y46219D01*
X35862Y46614D01*
X35935Y46723D01*
X36499Y46346D01*
X37197Y46207D01*
X37894Y46346D01*
X38485Y46741D01*
X38881Y47332D01*
X39019Y48030D01*
X38881Y48727D01*
X38485Y49319D01*
X37894Y49714D01*
X37197Y49852D01*
D02*
G37*
G36*
X17200Y46922D02*
X16503Y46784D01*
X15911Y46389D01*
X15516Y45797D01*
X15378Y45100D01*
X15516Y44403D01*
X15911Y43811D01*
X16503Y43416D01*
X17200Y43278D01*
X17897Y43416D01*
X18489Y43811D01*
X18884Y44403D01*
X19022Y45100D01*
X18884Y45797D01*
X18489Y46389D01*
X17897Y46784D01*
X17200Y46922D01*
D02*
G37*
G36*
X128600Y42847D02*
X127903Y42709D01*
X127311Y42314D01*
X126916Y41722D01*
X126778Y41025D01*
X126916Y40328D01*
X127311Y39736D01*
X127903Y39341D01*
X128600Y39202D01*
X129297Y39341D01*
X129889Y39736D01*
X130284Y40328D01*
X130422Y41025D01*
X130284Y41722D01*
X129889Y42314D01*
X129297Y42709D01*
X128600Y42847D01*
D02*
G37*
G36*
X79019Y41722D02*
X78322Y41584D01*
X77731Y41189D01*
X77336Y40597D01*
X77197Y39900D01*
X77336Y39203D01*
X77731Y38611D01*
X78322Y38216D01*
X79019Y38078D01*
X79717Y38216D01*
X80308Y38611D01*
X80703Y39203D01*
X80842Y39900D01*
X80703Y40597D01*
X80308Y41189D01*
X79717Y41584D01*
X79019Y41722D01*
D02*
G37*
G36*
X101049Y39520D02*
X100352Y39382D01*
X99760Y38987D01*
X99365Y38396D01*
X99226Y37698D01*
X99365Y37001D01*
X99760Y36410D01*
X100352Y36014D01*
X101049Y35876D01*
X101746Y36014D01*
X102338Y36410D01*
X102733Y37001D01*
X102871Y37698D01*
X102733Y38396D01*
X102338Y38987D01*
X101746Y39382D01*
X101049Y39520D01*
D02*
G37*
G36*
X89000Y39422D02*
X88303Y39284D01*
X87711Y38889D01*
X87316Y38297D01*
X87178Y37600D01*
X87316Y36903D01*
X87711Y36311D01*
X88303Y35916D01*
X89000Y35778D01*
X89697Y35916D01*
X90289Y36311D01*
X90684Y36903D01*
X90822Y37600D01*
X90684Y38297D01*
X90289Y38889D01*
X89697Y39284D01*
X89000Y39422D01*
D02*
G37*
G36*
X149867Y38322D02*
X149170Y38184D01*
X148579Y37789D01*
X148183Y37197D01*
X148045Y36500D01*
X148183Y35803D01*
X148579Y35211D01*
X149170Y34816D01*
X149867Y34678D01*
X150565Y34816D01*
X151156Y35211D01*
X151551Y35803D01*
X151690Y36500D01*
X151551Y37197D01*
X151156Y37789D01*
X150565Y38184D01*
X149867Y38322D01*
D02*
G37*
G36*
X124497Y38269D02*
X123799Y38130D01*
X123208Y37735D01*
X122813Y37144D01*
X122674Y36446D01*
X122813Y35749D01*
X123208Y35158D01*
X123799Y34763D01*
X124497Y34624D01*
X125194Y34763D01*
X125785Y35158D01*
X126180Y35749D01*
X126319Y36446D01*
X126180Y37144D01*
X125785Y37735D01*
X125194Y38130D01*
X124497Y38269D01*
D02*
G37*
G36*
X34067Y40839D02*
X33370Y40700D01*
X32779Y40305D01*
X32384Y39713D01*
X32245Y39016D01*
X32384Y38319D01*
X32779Y37727D01*
X32833Y37691D01*
Y36970D01*
X32711Y36889D01*
X32316Y36297D01*
X32178Y35600D01*
X32316Y34903D01*
X32711Y34311D01*
X33303Y33916D01*
X34000Y33778D01*
X34697Y33916D01*
X35289Y34311D01*
X35684Y34903D01*
X35822Y35600D01*
X35684Y36297D01*
X35289Y36889D01*
X35235Y36925D01*
Y37646D01*
X35356Y37727D01*
X35751Y38319D01*
X35890Y39016D01*
X35751Y39713D01*
X35356Y40305D01*
X34765Y40700D01*
X34067Y40839D01*
D02*
G37*
G36*
X67800Y37577D02*
X67005Y37419D01*
X66331Y36969D01*
X65881Y36295D01*
X65723Y35500D01*
X65881Y34705D01*
X66331Y34031D01*
X67005Y33581D01*
X67800Y33423D01*
X68595Y33581D01*
X69269Y34031D01*
X69719Y34705D01*
X69877Y35500D01*
X69719Y36295D01*
X69269Y36969D01*
X68595Y37419D01*
X67800Y37577D01*
D02*
G37*
G36*
X83535Y26306D02*
X82838Y26167D01*
X82247Y25772D01*
X81852Y25181D01*
X81713Y24484D01*
X81852Y23786D01*
X82247Y23195D01*
X82838Y22800D01*
X83535Y22661D01*
X84233Y22800D01*
X84824Y23195D01*
X85219Y23786D01*
X85358Y24484D01*
X85219Y25181D01*
X84824Y25772D01*
X84233Y26167D01*
X83535Y26306D01*
D02*
G37*
G36*
X131486Y25791D02*
Y21827D01*
X133480D01*
Y22992D01*
X133378Y23767D01*
X133079Y24489D01*
X132603Y25109D01*
X131983Y25585D01*
X131486Y25791D01*
D02*
G37*
G36*
X97431D02*
Y21827D01*
X99425D01*
Y22992D01*
X99323Y23767D01*
X99024Y24489D01*
X98548Y25109D01*
X97928Y25585D01*
X97431Y25791D01*
D02*
G37*
G36*
X95431D02*
X94934Y25585D01*
X94314Y25109D01*
X93838Y24489D01*
X93539Y23767D01*
X93436Y22992D01*
Y21827D01*
X95431D01*
Y25791D01*
D02*
G37*
G36*
X129486D02*
X128989Y25585D01*
X128369Y25109D01*
X127893Y24489D01*
X127594Y23767D01*
X127492Y22992D01*
Y21827D01*
X129486D01*
Y25791D01*
D02*
G37*
G36*
X152377Y23853D02*
X151680Y23715D01*
X151089Y23320D01*
X150694Y22728D01*
X150555Y22031D01*
X150694Y21334D01*
X151089Y20742D01*
X151680Y20347D01*
X152377Y20209D01*
X153075Y20347D01*
X153666Y20742D01*
X154061Y21334D01*
X154200Y22031D01*
X154061Y22728D01*
X153666Y23320D01*
X153075Y23715D01*
X152377Y23853D01*
D02*
G37*
G36*
X114400Y21721D02*
X113742Y21589D01*
X113183Y21217D01*
X112811Y20658D01*
X112706Y20132D01*
X112094D01*
X111989Y20658D01*
X111617Y21217D01*
X111058Y21589D01*
X110400Y21721D01*
X109742Y21589D01*
X109183Y21217D01*
X108810Y20658D01*
X108679Y20000D01*
X108810Y19342D01*
X109183Y18783D01*
X109742Y18410D01*
X110400Y18280D01*
X111058Y18410D01*
X111617Y18783D01*
X111989Y19342D01*
X112094Y19868D01*
X112706D01*
X112811Y19342D01*
X113183Y18783D01*
X113742Y18410D01*
X114400Y18280D01*
X115058Y18410D01*
X115617Y18783D01*
X115989Y19342D01*
X116121Y20000D01*
X115989Y20658D01*
X115617Y21217D01*
X115058Y21589D01*
X114400Y21721D01*
D02*
G37*
G36*
X102080Y20966D02*
X101274Y20805D01*
X100590Y20348D01*
X100133Y19665D01*
X100048Y19235D01*
X100025Y19119D01*
X99425Y19178D01*
X99425Y19253D01*
Y19827D01*
X97431D01*
Y15863D01*
X97928Y16068D01*
X98548Y16544D01*
X99024Y17164D01*
X99323Y17887D01*
X99414Y18577D01*
X99425Y18661D01*
X100016Y18641D01*
X100036Y18543D01*
X100133Y18052D01*
X100590Y17368D01*
X101274Y16911D01*
X102080Y16751D01*
X102887Y16911D01*
X103570Y17368D01*
X104027Y18052D01*
X104188Y18858D01*
X104027Y19665D01*
X103570Y20348D01*
X102887Y20805D01*
X102080Y20966D01*
D02*
G37*
G36*
X83751Y21461D02*
X83053Y21322D01*
X82462Y20927D01*
X82067Y20336D01*
X81928Y19639D01*
X82067Y18941D01*
X82462Y18350D01*
X83053Y17955D01*
X83751Y17816D01*
X84448Y17955D01*
X85040Y18350D01*
X85435Y18941D01*
X85573Y19639D01*
X85435Y20336D01*
X85040Y20927D01*
X84448Y21322D01*
X83751Y21461D01*
D02*
G37*
G36*
X133480Y19827D02*
X131486D01*
Y15863D01*
X131983Y16068D01*
X132603Y16544D01*
X133079Y17164D01*
X133378Y17887D01*
X133480Y18661D01*
Y19827D01*
D02*
G37*
G36*
X95431D02*
X93436D01*
Y18661D01*
X93539Y17887D01*
X93838Y17164D01*
X94314Y16544D01*
X94934Y16068D01*
X95431Y15863D01*
Y19827D01*
D02*
G37*
G36*
X124836Y20966D02*
X124030Y20805D01*
X123346Y20348D01*
X122889Y19665D01*
X122729Y18858D01*
X122889Y18052D01*
X123346Y17368D01*
X124030Y16911D01*
X124836Y16751D01*
X125643Y16911D01*
X126326Y17368D01*
X126783Y18052D01*
X126881Y18543D01*
X126900Y18641D01*
X127492Y18661D01*
X127503Y18577D01*
X127594Y17887D01*
X127893Y17164D01*
X128369Y16544D01*
X128989Y16068D01*
X129486Y15863D01*
Y19827D01*
X127492D01*
Y19253D01*
X127492Y19178D01*
X126892Y19119D01*
X126869Y19235D01*
X126783Y19665D01*
X126326Y20348D01*
X125643Y20805D01*
X124836Y20966D01*
D02*
G37*
G36*
X150200Y16822D02*
X149503Y16684D01*
X148911Y16289D01*
X148516Y15697D01*
X148378Y15000D01*
X148516Y14303D01*
X148911Y13711D01*
X149503Y13316D01*
X150200Y13178D01*
X150897Y13316D01*
X151489Y13711D01*
X151884Y14303D01*
X152022Y15000D01*
X151884Y15697D01*
X151489Y16289D01*
X150897Y16684D01*
X150200Y16822D01*
D02*
G37*
G36*
X59585Y20774D02*
X51711D01*
Y12900D01*
X52977D01*
X53181Y12300D01*
X52689Y11923D01*
X52024Y11056D01*
X51606Y10046D01*
X51595Y9963D01*
X55648D01*
X59911D01*
X60289Y10105D01*
X60531Y9742D01*
X61205Y9292D01*
X62000Y9134D01*
X62795Y9292D01*
X63469Y9742D01*
X63919Y10416D01*
X64077Y11211D01*
X63919Y12006D01*
X63469Y12680D01*
X62795Y13130D01*
X62000Y13288D01*
X61205Y13130D01*
X60531Y12680D01*
X60081Y12006D01*
X59923Y11211D01*
X59982Y10911D01*
X59405Y10736D01*
X59273Y11056D01*
X58608Y11923D01*
X58116Y12300D01*
X58320Y12900D01*
X59585D01*
Y20774D01*
D02*
G37*
G36*
X131486Y9059D02*
Y6079D01*
X133480D01*
Y6260D01*
X133378Y7035D01*
X133079Y7757D01*
X132603Y8377D01*
X131983Y8853D01*
X131486Y9059D01*
D02*
G37*
G36*
X97431D02*
Y6079D01*
X99425D01*
Y6260D01*
X99323Y7035D01*
X99024Y7757D01*
X98548Y8377D01*
X97928Y8853D01*
X97431Y9059D01*
D02*
G37*
G36*
X95431Y9059D02*
X94934Y8853D01*
X94314Y8377D01*
X93838Y7757D01*
X93539Y7035D01*
X93436Y6260D01*
Y6079D01*
X95431D01*
Y9059D01*
D02*
G37*
G36*
X129486D02*
X128989Y8853D01*
X128369Y8377D01*
X127893Y7757D01*
X127594Y7035D01*
X127492Y6260D01*
Y6079D01*
X129486D01*
Y9059D01*
D02*
G37*
G36*
X59702Y7963D02*
X56648D01*
Y4909D01*
X56732Y4920D01*
X57741Y5338D01*
X58608Y6004D01*
X59273Y6870D01*
X59691Y7880D01*
X59702Y7963D01*
D02*
G37*
G36*
X54648D02*
X51595D01*
X51606Y7880D01*
X52024Y6870D01*
X52689Y6004D01*
X53556Y5338D01*
X54565Y4920D01*
X54648Y4909D01*
Y7963D01*
D02*
G37*
%LPD*%
D120*
X174600Y59500D02*
D03*
D122*
X47900Y80963D02*
D03*
X55648Y8963D02*
D03*
D125*
X130486Y5079D02*
D03*
X96431D02*
D03*
D126*
X130486Y20827D02*
D03*
X96431D02*
D03*
D127*
X104949Y36500D02*
D03*
X83513Y39354D02*
D03*
X147218Y39788D02*
D03*
X33000Y64700D02*
D03*
Y61200D02*
D03*
X49594Y57700D02*
D03*
X45959D02*
D03*
X134800Y93500D02*
D03*
X33000Y57700D02*
D03*
X31200Y72164D02*
D03*
X27100Y30700D02*
D03*
X144650Y127824D02*
D03*
X154760Y120747D02*
D03*
X124900Y89800D02*
D03*
X144650Y30192D02*
D03*
X116758Y52206D02*
D03*
X112400Y48121D02*
D03*
X115508Y45100D02*
D03*
X119754Y52206D02*
D03*
Y49191D02*
D03*
X112443Y45207D02*
D03*
X67100Y123500D02*
D03*
X73273Y120327D02*
D03*
X64100Y123500D02*
D03*
Y120500D02*
D03*
X67100Y126500D02*
D03*
X64100D02*
D03*
X70100D02*
D03*
X76100Y120500D02*
D03*
X93327Y134071D02*
D03*
X84300Y101300D02*
D03*
X162501Y103673D02*
D03*
X162394Y110970D02*
D03*
X71287Y66590D02*
D03*
X120400Y135900D02*
D03*
X125200Y133800D02*
D03*
X148100Y6500D02*
D03*
Y3500D02*
D03*
X145100Y6500D02*
D03*
Y3500D02*
D03*
X142100Y6500D02*
D03*
Y3500D02*
D03*
X139100Y6500D02*
D03*
Y3500D02*
D03*
X62737Y66423D02*
D03*
X62700Y70665D02*
D03*
X79019Y53700D02*
D03*
X78000Y60328D02*
D03*
X74497Y56820D02*
D03*
X64100Y39500D02*
D03*
X61100D02*
D03*
X58100D02*
D03*
X94454Y45207D02*
D03*
X94515Y48500D02*
D03*
X74600Y30900D02*
D03*
Y27300D02*
D03*
X78000D02*
D03*
Y30900D02*
D03*
X60422Y99500D02*
D03*
X57421D02*
D03*
X54422D02*
D03*
X131322Y39927D02*
D03*
X21861Y33229D02*
D03*
X24600Y33200D02*
D03*
X76100Y105500D02*
D03*
Y102500D02*
D03*
Y99500D02*
D03*
Y96500D02*
D03*
X121100Y9500D02*
D03*
Y6500D02*
D03*
Y3500D02*
D03*
X118100Y9500D02*
D03*
Y6500D02*
D03*
Y3500D02*
D03*
X115100Y9500D02*
D03*
Y6500D02*
D03*
Y3500D02*
D03*
X112100Y9500D02*
D03*
Y6500D02*
D03*
Y3500D02*
D03*
X109100Y9500D02*
D03*
Y6500D02*
D03*
Y3500D02*
D03*
X106100Y9500D02*
D03*
Y6500D02*
D03*
Y3500D02*
D03*
X46100Y21500D02*
D03*
Y18500D02*
D03*
Y15500D02*
D03*
Y12500D02*
D03*
Y9500D02*
D03*
Y6500D02*
D03*
Y3500D02*
D03*
X43100Y21500D02*
D03*
Y18500D02*
D03*
Y15500D02*
D03*
Y12500D02*
D03*
Y9500D02*
D03*
Y6500D02*
D03*
Y3500D02*
D03*
X40100Y21500D02*
D03*
Y18500D02*
D03*
Y15500D02*
D03*
Y12500D02*
D03*
Y9500D02*
D03*
Y6500D02*
D03*
Y3500D02*
D03*
X13100Y54500D02*
D03*
Y51500D02*
D03*
Y48500D02*
D03*
Y45500D02*
D03*
X7100Y87500D02*
D03*
Y84500D02*
D03*
Y81500D02*
D03*
Y78500D02*
D03*
Y75500D02*
D03*
X4100Y87500D02*
D03*
Y84500D02*
D03*
Y81500D02*
D03*
Y78500D02*
D03*
Y75500D02*
D03*
X181100Y123500D02*
D03*
Y120500D02*
D03*
Y117500D02*
D03*
Y114500D02*
D03*
Y111500D02*
D03*
Y108500D02*
D03*
Y105500D02*
D03*
Y102500D02*
D03*
Y99500D02*
D03*
Y96500D02*
D03*
Y93500D02*
D03*
Y90500D02*
D03*
Y87500D02*
D03*
Y84500D02*
D03*
Y81500D02*
D03*
Y78500D02*
D03*
X178100Y123500D02*
D03*
Y120500D02*
D03*
Y117500D02*
D03*
Y114500D02*
D03*
Y111500D02*
D03*
Y108500D02*
D03*
Y105500D02*
D03*
Y102500D02*
D03*
Y99500D02*
D03*
Y96500D02*
D03*
Y93500D02*
D03*
Y90500D02*
D03*
Y87500D02*
D03*
Y84500D02*
D03*
Y81500D02*
D03*
Y78500D02*
D03*
X175100Y123500D02*
D03*
Y120500D02*
D03*
Y117500D02*
D03*
Y114500D02*
D03*
Y111500D02*
D03*
Y108500D02*
D03*
Y105500D02*
D03*
Y102500D02*
D03*
Y99500D02*
D03*
Y96500D02*
D03*
Y93500D02*
D03*
Y90500D02*
D03*
Y87500D02*
D03*
Y84500D02*
D03*
Y81500D02*
D03*
Y78500D02*
D03*
X172100Y123500D02*
D03*
Y120500D02*
D03*
Y117500D02*
D03*
Y114500D02*
D03*
Y111500D02*
D03*
Y108500D02*
D03*
Y105500D02*
D03*
Y102500D02*
D03*
Y99500D02*
D03*
Y96500D02*
D03*
Y93500D02*
D03*
Y90500D02*
D03*
Y87500D02*
D03*
Y84500D02*
D03*
Y81500D02*
D03*
Y78500D02*
D03*
X199100Y36500D02*
D03*
Y33500D02*
D03*
Y30500D02*
D03*
Y27500D02*
D03*
X196100Y36500D02*
D03*
Y33500D02*
D03*
Y30500D02*
D03*
Y27500D02*
D03*
X193100Y36500D02*
D03*
Y33500D02*
D03*
Y30500D02*
D03*
Y27500D02*
D03*
X190100Y36500D02*
D03*
Y33500D02*
D03*
Y30500D02*
D03*
Y27500D02*
D03*
X187100Y36500D02*
D03*
Y33500D02*
D03*
Y30500D02*
D03*
Y27500D02*
D03*
X184100Y36500D02*
D03*
Y33500D02*
D03*
Y30500D02*
D03*
Y27500D02*
D03*
X181100Y36500D02*
D03*
Y33500D02*
D03*
Y30500D02*
D03*
Y27500D02*
D03*
X178100Y36500D02*
D03*
Y33500D02*
D03*
Y30500D02*
D03*
Y27500D02*
D03*
X175100Y36500D02*
D03*
Y33500D02*
D03*
Y30500D02*
D03*
Y27500D02*
D03*
X109376Y114746D02*
D03*
X112376Y111747D02*
D03*
X109376D02*
D03*
X136200Y44400D02*
D03*
Y47800D02*
D03*
X143149Y47778D02*
D03*
X20600Y54100D02*
D03*
X44400Y49900D02*
D03*
X41000D02*
D03*
X123119Y69000D02*
D03*
X108789Y64709D02*
D03*
X112800Y73200D02*
D03*
X116600Y77300D02*
D03*
X119500Y80200D02*
D03*
X123189Y76900D02*
D03*
X152377Y90000D02*
D03*
X99557Y73081D02*
D03*
X104884Y30500D02*
D03*
X87300Y83300D02*
D03*
X134500Y72800D02*
D03*
X139067Y69000D02*
D03*
X131290Y55869D02*
D03*
X147684D02*
D03*
X139067Y61937D02*
D03*
X84300Y104800D02*
D03*
X100920Y103105D02*
D03*
X98750Y106551D02*
D03*
X95970Y106637D02*
D03*
X95947Y98205D02*
D03*
X98600Y98200D02*
D03*
X101400D02*
D03*
X106288Y99562D02*
D03*
X112474Y35489D02*
D03*
X117200Y30000D02*
D03*
X121376Y111747D02*
D03*
X115376D02*
D03*
X118376D02*
D03*
X112376Y114746D02*
D03*
X115376D02*
D03*
X118376D02*
D03*
X121376D02*
D03*
Y117746D02*
D03*
X118376D02*
D03*
X115376D02*
D03*
X112376D02*
D03*
X109376D02*
D03*
Y120747D02*
D03*
X112376D02*
D03*
X115376D02*
D03*
X118376D02*
D03*
X121376D02*
D03*
Y123747D02*
D03*
X118376D02*
D03*
X115376D02*
D03*
X112376D02*
D03*
X109376D02*
D03*
D128*
X95544Y63189D02*
D03*
M02*
