G04*
G04 #@! TF.GenerationSoftware,Altium Limited,Altium Designer,20.2.6 (244)*
G04*
G04 Layer_Color=8388736*
%FSLAX25Y25*%
%MOIN*%
G70*
G04*
G04 #@! TF.SameCoordinates,568CAEEB-50F0-44EC-8363-EC95FF72310B*
G04*
G04*
G04 #@! TF.FilePolarity,Negative*
G04*
G01*
G75*
G04:AMPARAMS|DCode=55|XSize=12mil|YSize=19.68mil|CornerRadius=3mil|HoleSize=0mil|Usage=FLASHONLY|Rotation=0.000|XOffset=0mil|YOffset=0mil|HoleType=Round|Shape=RoundedRectangle|*
%AMROUNDEDRECTD55*
21,1,0.01200,0.01369,0,0,0.0*
21,1,0.00600,0.01968,0,0,0.0*
1,1,0.00600,0.00300,-0.00684*
1,1,0.00600,-0.00300,-0.00684*
1,1,0.00600,-0.00300,0.00684*
1,1,0.00600,0.00300,0.00684*
%
%ADD55ROUNDEDRECTD55*%
%ADD63R,0.09461X0.04934*%
%ADD64R,0.04934X0.04737*%
%ADD65R,0.07887X0.09461*%
%ADD66R,0.01981X0.05918*%
G04:AMPARAMS|DCode=67|XSize=55.24mil|YSize=59.18mil|CornerRadius=15.81mil|HoleSize=0mil|Usage=FLASHONLY|Rotation=0.000|XOffset=0mil|YOffset=0mil|HoleType=Round|Shape=RoundedRectangle|*
%AMROUNDEDRECTD67*
21,1,0.05524,0.02756,0,0,0.0*
21,1,0.02362,0.05918,0,0,0.0*
1,1,0.03162,0.01181,-0.01378*
1,1,0.03162,-0.01181,-0.01378*
1,1,0.03162,-0.01181,0.01378*
1,1,0.03162,0.01181,0.01378*
%
%ADD67ROUNDEDRECTD67*%
G04:AMPARAMS|DCode=68|XSize=59.18mil|YSize=55.24mil|CornerRadius=15.81mil|HoleSize=0mil|Usage=FLASHONLY|Rotation=0.000|XOffset=0mil|YOffset=0mil|HoleType=Round|Shape=RoundedRectangle|*
%AMROUNDEDRECTD68*
21,1,0.05918,0.02362,0,0,0.0*
21,1,0.02756,0.05524,0,0,0.0*
1,1,0.03162,0.01378,-0.01181*
1,1,0.03162,-0.01378,-0.01181*
1,1,0.03162,-0.01378,0.01181*
1,1,0.03162,0.01378,0.01181*
%
%ADD68ROUNDEDRECTD68*%
G04:AMPARAMS|DCode=69|XSize=41.47mil|YSize=55.24mil|CornerRadius=12.37mil|HoleSize=0mil|Usage=FLASHONLY|Rotation=45.000|XOffset=0mil|YOffset=0mil|HoleType=Round|Shape=RoundedRectangle|*
%AMROUNDEDRECTD69*
21,1,0.04147,0.03051,0,0,45.0*
21,1,0.01673,0.05524,0,0,45.0*
1,1,0.02473,0.01670,-0.00487*
1,1,0.02473,0.00487,-0.01670*
1,1,0.02473,-0.01670,0.00487*
1,1,0.02473,-0.00487,0.01670*
%
%ADD69ROUNDEDRECTD69*%
G04:AMPARAMS|DCode=70|XSize=41.47mil|YSize=55.24mil|CornerRadius=12.37mil|HoleSize=0mil|Usage=FLASHONLY|Rotation=135.000|XOffset=0mil|YOffset=0mil|HoleType=Round|Shape=RoundedRectangle|*
%AMROUNDEDRECTD70*
21,1,0.04147,0.03051,0,0,135.0*
21,1,0.01673,0.05524,0,0,135.0*
1,1,0.02473,0.00487,0.01670*
1,1,0.02473,0.01670,0.00487*
1,1,0.02473,-0.00487,-0.01670*
1,1,0.02473,-0.01670,-0.00487*
%
%ADD70ROUNDEDRECTD70*%
G04:AMPARAMS|DCode=71|XSize=39.5mil|YSize=78.87mil|CornerRadius=11.87mil|HoleSize=0mil|Usage=FLASHONLY|Rotation=90.000|XOffset=0mil|YOffset=0mil|HoleType=Round|Shape=RoundedRectangle|*
%AMROUNDEDRECTD71*
21,1,0.03950,0.05512,0,0,90.0*
21,1,0.01575,0.07887,0,0,90.0*
1,1,0.02375,0.02756,0.00787*
1,1,0.02375,0.02756,-0.00787*
1,1,0.02375,-0.02756,-0.00787*
1,1,0.02375,-0.02756,0.00787*
%
%ADD71ROUNDEDRECTD71*%
G04:AMPARAMS|DCode=72|XSize=22mil|YSize=48mil|CornerRadius=8mil|HoleSize=0mil|Usage=FLASHONLY|Rotation=0.000|XOffset=0mil|YOffset=0mil|HoleType=Round|Shape=RoundedRectangle|*
%AMROUNDEDRECTD72*
21,1,0.02200,0.03200,0,0,0.0*
21,1,0.00600,0.04800,0,0,0.0*
1,1,0.01600,0.00300,-0.01600*
1,1,0.01600,-0.00300,-0.01600*
1,1,0.01600,-0.00300,0.01600*
1,1,0.01600,0.00300,0.01600*
%
%ADD72ROUNDEDRECTD72*%
G04:AMPARAMS|DCode=73|XSize=22mil|YSize=48mil|CornerRadius=8mil|HoleSize=0mil|Usage=FLASHONLY|Rotation=270.000|XOffset=0mil|YOffset=0mil|HoleType=Round|Shape=RoundedRectangle|*
%AMROUNDEDRECTD73*
21,1,0.02200,0.03200,0,0,270.0*
21,1,0.00600,0.04800,0,0,270.0*
1,1,0.01600,-0.01600,-0.00300*
1,1,0.01600,-0.01600,0.00300*
1,1,0.01600,0.01600,0.00300*
1,1,0.01600,0.01600,-0.00300*
%
%ADD73ROUNDEDRECTD73*%
%ADD74R,0.11824X0.11430*%
%ADD75R,0.07690X0.09461*%
%ADD76R,0.09461X0.07690*%
G04:AMPARAMS|DCode=77|XSize=28mil|YSize=28mil|CornerRadius=9mil|HoleSize=0mil|Usage=FLASHONLY|Rotation=180.000|XOffset=0mil|YOffset=0mil|HoleType=Round|Shape=RoundedRectangle|*
%AMROUNDEDRECTD77*
21,1,0.02800,0.01000,0,0,180.0*
21,1,0.01000,0.02800,0,0,180.0*
1,1,0.01800,-0.00500,0.00500*
1,1,0.01800,0.00500,0.00500*
1,1,0.01800,0.00500,-0.00500*
1,1,0.01800,-0.00500,-0.00500*
%
%ADD77ROUNDEDRECTD77*%
%ADD78O,0.08674X0.03556*%
G04:AMPARAMS|DCode=79|XSize=63.12mil|YSize=70.99mil|CornerRadius=17.78mil|HoleSize=0mil|Usage=FLASHONLY|Rotation=90.000|XOffset=0mil|YOffset=0mil|HoleType=Round|Shape=RoundedRectangle|*
%AMROUNDEDRECTD79*
21,1,0.06312,0.03543,0,0,90.0*
21,1,0.02756,0.07099,0,0,90.0*
1,1,0.03556,0.01772,0.01378*
1,1,0.03556,0.01772,-0.01378*
1,1,0.03556,-0.01772,-0.01378*
1,1,0.03556,-0.01772,0.01378*
%
%ADD79ROUNDEDRECTD79*%
G04:AMPARAMS|DCode=80|XSize=63.12mil|YSize=102.49mil|CornerRadius=17.78mil|HoleSize=0mil|Usage=FLASHONLY|Rotation=90.000|XOffset=0mil|YOffset=0mil|HoleType=Round|Shape=RoundedRectangle|*
%AMROUNDEDRECTD80*
21,1,0.06312,0.06693,0,0,90.0*
21,1,0.02756,0.10249,0,0,90.0*
1,1,0.03556,0.03347,0.01378*
1,1,0.03556,0.03347,-0.01378*
1,1,0.03556,-0.03347,-0.01378*
1,1,0.03556,-0.03347,0.01378*
%
%ADD80ROUNDEDRECTD80*%
%ADD81R,0.04343X0.04540*%
%ADD82R,0.04343X0.04540*%
G04:AMPARAMS|DCode=83|XSize=28mil|YSize=28mil|CornerRadius=9mil|HoleSize=0mil|Usage=FLASHONLY|Rotation=270.000|XOffset=0mil|YOffset=0mil|HoleType=Round|Shape=RoundedRectangle|*
%AMROUNDEDRECTD83*
21,1,0.02800,0.01000,0,0,270.0*
21,1,0.01000,0.02800,0,0,270.0*
1,1,0.01800,-0.00500,-0.00500*
1,1,0.01800,-0.00500,0.00500*
1,1,0.01800,0.00500,0.00500*
1,1,0.01800,0.00500,-0.00500*
%
%ADD83ROUNDEDRECTD83*%
%ADD84R,0.01981X0.03950*%
%ADD85R,0.03950X0.01981*%
%ADD86R,0.07690X0.07690*%
%ADD87R,0.05918X0.01981*%
%ADD88R,0.09461X0.07887*%
%ADD89R,0.07800X0.13800*%
%ADD90R,0.03950X0.11430*%
%ADD91R,0.04934X0.02769*%
%ADD92R,0.05328X0.03950*%
G04:AMPARAMS|DCode=93|XSize=67.06mil|YSize=19.81mil|CornerRadius=6.95mil|HoleSize=0mil|Usage=FLASHONLY|Rotation=90.000|XOffset=0mil|YOffset=0mil|HoleType=Round|Shape=RoundedRectangle|*
%AMROUNDEDRECTD93*
21,1,0.06706,0.00591,0,0,90.0*
21,1,0.05315,0.01981,0,0,90.0*
1,1,0.01391,0.00295,0.02657*
1,1,0.01391,0.00295,-0.02657*
1,1,0.01391,-0.00295,-0.02657*
1,1,0.01391,-0.00295,0.02657*
%
%ADD93ROUNDEDRECTD93*%
G04:AMPARAMS|DCode=94|XSize=168mil|YSize=168mil|CornerRadius=20mil|HoleSize=0mil|Usage=FLASHONLY|Rotation=90.000|XOffset=0mil|YOffset=0mil|HoleType=Round|Shape=RoundedRectangle|*
%AMROUNDEDRECTD94*
21,1,0.16800,0.12800,0,0,90.0*
21,1,0.12800,0.16800,0,0,90.0*
1,1,0.04000,0.06400,0.06400*
1,1,0.04000,0.06400,-0.06400*
1,1,0.04000,-0.06400,-0.06400*
1,1,0.04000,-0.06400,0.06400*
%
%ADD94ROUNDEDRECTD94*%
G04:AMPARAMS|DCode=95|XSize=34.58mil|YSize=17.84mil|CornerRadius=6.46mil|HoleSize=0mil|Usage=FLASHONLY|Rotation=90.000|XOffset=0mil|YOffset=0mil|HoleType=Round|Shape=RoundedRectangle|*
%AMROUNDEDRECTD95*
21,1,0.03458,0.00492,0,0,90.0*
21,1,0.02165,0.01784,0,0,90.0*
1,1,0.01292,0.00246,0.01083*
1,1,0.01292,0.00246,-0.01083*
1,1,0.01292,-0.00246,-0.01083*
1,1,0.01292,-0.00246,0.01083*
%
%ADD95ROUNDEDRECTD95*%
G04:AMPARAMS|DCode=96|XSize=34.58mil|YSize=17.84mil|CornerRadius=6.46mil|HoleSize=0mil|Usage=FLASHONLY|Rotation=180.000|XOffset=0mil|YOffset=0mil|HoleType=Round|Shape=RoundedRectangle|*
%AMROUNDEDRECTD96*
21,1,0.03458,0.00492,0,0,180.0*
21,1,0.02165,0.01784,0,0,180.0*
1,1,0.01292,-0.01083,0.00246*
1,1,0.01292,0.01083,0.00246*
1,1,0.01292,0.01083,-0.00246*
1,1,0.01292,-0.01083,-0.00246*
%
%ADD96ROUNDEDRECTD96*%
G04:AMPARAMS|DCode=97|XSize=27.69mil|YSize=31.62mil|CornerRadius=8.92mil|HoleSize=0mil|Usage=FLASHONLY|Rotation=0.000|XOffset=0mil|YOffset=0mil|HoleType=Round|Shape=RoundedRectangle|*
%AMROUNDEDRECTD97*
21,1,0.02769,0.01378,0,0,0.0*
21,1,0.00984,0.03162,0,0,0.0*
1,1,0.01784,0.00492,-0.00689*
1,1,0.01784,-0.00492,-0.00689*
1,1,0.01784,-0.00492,0.00689*
1,1,0.01784,0.00492,0.00689*
%
%ADD97ROUNDEDRECTD97*%
%ADD98O,0.03556X0.01784*%
%ADD99O,0.01784X0.03556*%
G04:AMPARAMS|DCode=100|XSize=27.69mil|YSize=31.62mil|CornerRadius=8.92mil|HoleSize=0mil|Usage=FLASHONLY|Rotation=270.000|XOffset=0mil|YOffset=0mil|HoleType=Round|Shape=RoundedRectangle|*
%AMROUNDEDRECTD100*
21,1,0.02769,0.01378,0,0,270.0*
21,1,0.00984,0.03162,0,0,270.0*
1,1,0.01784,-0.00689,-0.00492*
1,1,0.01784,-0.00689,0.00492*
1,1,0.01784,0.00689,0.00492*
1,1,0.01784,0.00689,-0.00492*
%
%ADD100ROUNDEDRECTD100*%
G04:AMPARAMS|DCode=101|XSize=31.62mil|YSize=47.37mil|CornerRadius=9.91mil|HoleSize=0mil|Usage=FLASHONLY|Rotation=0.000|XOffset=0mil|YOffset=0mil|HoleType=Round|Shape=RoundedRectangle|*
%AMROUNDEDRECTD101*
21,1,0.03162,0.02756,0,0,0.0*
21,1,0.01181,0.04737,0,0,0.0*
1,1,0.01981,0.00591,-0.01378*
1,1,0.01981,-0.00591,-0.01378*
1,1,0.01981,-0.00591,0.01378*
1,1,0.01981,0.00591,0.01378*
%
%ADD101ROUNDEDRECTD101*%
G04:AMPARAMS|DCode=102|XSize=31.62mil|YSize=47.37mil|CornerRadius=9.91mil|HoleSize=0mil|Usage=FLASHONLY|Rotation=90.000|XOffset=0mil|YOffset=0mil|HoleType=Round|Shape=RoundedRectangle|*
%AMROUNDEDRECTD102*
21,1,0.03162,0.02756,0,0,90.0*
21,1,0.01181,0.04737,0,0,90.0*
1,1,0.01981,0.01378,0.00591*
1,1,0.01981,0.01378,-0.00591*
1,1,0.01981,-0.01378,-0.00591*
1,1,0.01981,-0.01378,0.00591*
%
%ADD102ROUNDEDRECTD102*%
G04:AMPARAMS|DCode=103|XSize=31.62mil|YSize=43mil|CornerRadius=9.91mil|HoleSize=0mil|Usage=FLASHONLY|Rotation=180.000|XOffset=0mil|YOffset=0mil|HoleType=Round|Shape=RoundedRectangle|*
%AMROUNDEDRECTD103*
21,1,0.03162,0.02319,0,0,180.0*
21,1,0.01181,0.04300,0,0,180.0*
1,1,0.01981,-0.00591,0.01159*
1,1,0.01981,0.00591,0.01159*
1,1,0.01981,0.00591,-0.01159*
1,1,0.01981,-0.00591,-0.01159*
%
%ADD103ROUNDEDRECTD103*%
%ADD104R,0.06706X0.08674*%
%ADD105C,0.06800*%
%ADD106R,0.06800X0.06800*%
%ADD107C,0.07099*%
%ADD108R,0.07099X0.07099*%
%ADD109C,0.03359*%
%ADD110O,0.04737X0.07099*%
%ADD111O,0.04737X0.09068*%
%ADD112C,0.06899*%
%ADD113C,0.04537*%
%ADD114C,0.02800*%
D55*
X116032Y62168D02*
D03*
X118000D02*
D03*
X119969D02*
D03*
Y67861D02*
D03*
X118000D02*
D03*
X116032D02*
D03*
D63*
X20865Y172893D02*
D03*
Y184507D02*
D03*
Y153893D02*
D03*
Y165507D02*
D03*
X89860Y96693D02*
D03*
Y108307D02*
D03*
D64*
X14861Y178700D02*
D03*
Y159700D02*
D03*
X95864Y102500D02*
D03*
D65*
X57314Y169100D02*
D03*
X38416Y169100D02*
D03*
D66*
X50818Y178931D02*
D03*
X48849D02*
D03*
X46881D02*
D03*
X44912D02*
D03*
D67*
X69205Y179382D02*
D03*
Y163240D02*
D03*
X111725D02*
D03*
Y179382D02*
D03*
D68*
X74717Y154185D02*
D03*
X84658D02*
D03*
X96272D02*
D03*
X106213D02*
D03*
D69*
X79330Y195635D02*
D03*
D70*
X101600D02*
D03*
D71*
X7265Y196391D02*
D03*
Y176300D02*
D03*
Y161700D02*
D03*
Y141609D02*
D03*
D72*
X110305Y39615D02*
D03*
X112274D02*
D03*
X114242D02*
D03*
X116211D02*
D03*
X118179D02*
D03*
X120148D02*
D03*
X122116D02*
D03*
Y57915D02*
D03*
X120148D02*
D03*
X118179D02*
D03*
X116211D02*
D03*
X114242D02*
D03*
X112274D02*
D03*
X110305D02*
D03*
D73*
X125361Y42859D02*
D03*
Y44828D02*
D03*
Y46796D02*
D03*
Y48765D02*
D03*
Y50733D02*
D03*
Y52702D02*
D03*
Y54670D02*
D03*
X107061D02*
D03*
Y52702D02*
D03*
Y50733D02*
D03*
Y48765D02*
D03*
Y46796D02*
D03*
Y44828D02*
D03*
Y42859D02*
D03*
D74*
X116211Y48765D02*
D03*
X139450Y47780D02*
D03*
D75*
X79519Y68371D02*
D03*
Y86481D02*
D03*
D76*
X69731Y8766D02*
D03*
X87842D02*
D03*
D77*
X36563Y63537D02*
D03*
Y59537D02*
D03*
X152377Y15874D02*
D03*
Y19874D02*
D03*
X87200Y31800D02*
D03*
Y35800D02*
D03*
X94650Y33700D02*
D03*
Y29700D02*
D03*
X91190Y33682D02*
D03*
Y29682D02*
D03*
X61508Y19911D02*
D03*
Y23911D02*
D03*
X65000Y19913D02*
D03*
Y23913D02*
D03*
X55800Y53200D02*
D03*
Y57200D02*
D03*
X87200Y39700D02*
D03*
Y43700D02*
D03*
X104100Y61500D02*
D03*
Y65500D02*
D03*
X110844Y66829D02*
D03*
Y62829D02*
D03*
X125500Y62888D02*
D03*
Y66888D02*
D03*
X108474Y30636D02*
D03*
Y34636D02*
D03*
X120306Y34455D02*
D03*
Y30455D02*
D03*
X123670D02*
D03*
Y34455D02*
D03*
X141680Y30351D02*
D03*
Y34351D02*
D03*
X147718D02*
D03*
Y30351D02*
D03*
X128354Y92100D02*
D03*
Y96100D02*
D03*
X124900D02*
D03*
Y92100D02*
D03*
X131822D02*
D03*
Y96100D02*
D03*
X60300Y53100D02*
D03*
Y57100D02*
D03*
X62700Y3700D02*
D03*
Y7700D02*
D03*
X98500Y43700D02*
D03*
Y39700D02*
D03*
X98507Y35811D02*
D03*
Y31811D02*
D03*
X81300Y59900D02*
D03*
Y55900D02*
D03*
D78*
X146836Y109370D02*
D03*
Y105039D02*
D03*
Y100709D02*
D03*
Y96378D02*
D03*
Y92047D02*
D03*
Y87717D02*
D03*
Y83386D02*
D03*
Y79055D02*
D03*
Y74725D02*
D03*
D79*
X149805Y127677D02*
D03*
Y69000D02*
D03*
D80*
X187600Y133221D02*
D03*
Y69000D02*
D03*
D81*
X139621Y14081D02*
D03*
X143362Y23333D02*
D03*
D82*
X147102Y14081D02*
D03*
D83*
X57420Y27200D02*
D03*
X61420D02*
D03*
X61441Y33976D02*
D03*
X57441D02*
D03*
X61441Y30478D02*
D03*
X57441D02*
D03*
X60700Y43269D02*
D03*
X64700D02*
D03*
X91300Y22500D02*
D03*
X87300D02*
D03*
X91300Y26000D02*
D03*
X87300D02*
D03*
X31200Y62900D02*
D03*
X27200D02*
D03*
X31200Y59500D02*
D03*
X27200D02*
D03*
X31200Y66300D02*
D03*
X27200D02*
D03*
X31200Y56100D02*
D03*
X27200D02*
D03*
X31200Y69700D02*
D03*
X27200D02*
D03*
X75580Y43499D02*
D03*
X71580D02*
D03*
X40600Y69300D02*
D03*
X36600D02*
D03*
X27200Y47125D02*
D03*
X31200D02*
D03*
X63600Y82059D02*
D03*
X67600D02*
D03*
X27200Y43725D02*
D03*
X31200D02*
D03*
X27200Y40225D02*
D03*
X31200D02*
D03*
X27200Y36725D02*
D03*
X31200D02*
D03*
X27200Y33225D02*
D03*
X31200D02*
D03*
X71580Y39900D02*
D03*
X75580D02*
D03*
X92304Y114756D02*
D03*
X96304D02*
D03*
Y118256D02*
D03*
X92304D02*
D03*
X140396Y104050D02*
D03*
X136396D02*
D03*
X140428Y100518D02*
D03*
X136428D02*
D03*
X136396Y107550D02*
D03*
X140396D02*
D03*
X136428Y111050D02*
D03*
X140428D02*
D03*
X136428Y114550D02*
D03*
X140428D02*
D03*
X136428Y118065D02*
D03*
X140428D02*
D03*
X140544Y124677D02*
D03*
X136544D02*
D03*
X140544Y128179D02*
D03*
X136544D02*
D03*
X132400Y33600D02*
D03*
X136400D02*
D03*
X144650Y61000D02*
D03*
X148650D02*
D03*
X131600Y82200D02*
D03*
X135600D02*
D03*
X131600Y78700D02*
D03*
X135600D02*
D03*
X64665Y62168D02*
D03*
X68665D02*
D03*
X92300Y129700D02*
D03*
X96300D02*
D03*
X104475Y97021D02*
D03*
X108475D02*
D03*
X108400Y93200D02*
D03*
X104400D02*
D03*
X101340Y83177D02*
D03*
X97340D02*
D03*
X89860D02*
D03*
X93860D02*
D03*
D84*
X73395Y23200D02*
D03*
X75363D02*
D03*
X77332D02*
D03*
X79300D02*
D03*
Y35011D02*
D03*
X77332D02*
D03*
X75363D02*
D03*
X73395D02*
D03*
D85*
X82253Y26153D02*
D03*
Y28121D02*
D03*
Y30090D02*
D03*
Y32058D02*
D03*
X70442D02*
D03*
Y30090D02*
D03*
Y28121D02*
D03*
Y26153D02*
D03*
D86*
X76347Y29105D02*
D03*
D87*
X85931Y125453D02*
D03*
Y123484D02*
D03*
Y121516D02*
D03*
Y119547D02*
D03*
D88*
X76100Y131949D02*
D03*
X76100Y113051D02*
D03*
D89*
X4900Y37698D02*
D03*
Y62000D02*
D03*
D90*
X67328Y71477D02*
D03*
X58272D02*
D03*
D91*
X41966Y64559D02*
D03*
Y59441D02*
D03*
X50234Y62000D02*
D03*
D92*
X36610Y52300D02*
D03*
X50390D02*
D03*
Y42194D02*
D03*
X36610D02*
D03*
Y32000D02*
D03*
X50390D02*
D03*
D93*
X126647Y24921D02*
D03*
X125466D02*
D03*
X123498D02*
D03*
X122317D02*
D03*
X120348D02*
D03*
X118379D02*
D03*
X116411D02*
D03*
X114443D02*
D03*
X112474D02*
D03*
X110505D02*
D03*
X108537D02*
D03*
X106569D02*
D03*
X104600D02*
D03*
X103419D02*
D03*
X101450D02*
D03*
X100269D02*
D03*
D94*
X115427Y117756D02*
D03*
D95*
X104600Y104518D02*
D03*
X106569D02*
D03*
X108537D02*
D03*
X110505D02*
D03*
X112474D02*
D03*
X114443D02*
D03*
X116411D02*
D03*
X118379D02*
D03*
X120348D02*
D03*
X122317D02*
D03*
X124285D02*
D03*
X126253D02*
D03*
Y130994D02*
D03*
X124285D02*
D03*
X122317D02*
D03*
X120348D02*
D03*
X118379D02*
D03*
X116411D02*
D03*
X114443D02*
D03*
X112474D02*
D03*
X110505D02*
D03*
X108537D02*
D03*
X106569D02*
D03*
X104600D02*
D03*
D96*
X128665Y106929D02*
D03*
Y108898D02*
D03*
Y110866D02*
D03*
Y112835D02*
D03*
Y114803D02*
D03*
Y116772D02*
D03*
Y118740D02*
D03*
Y120709D02*
D03*
Y122677D02*
D03*
Y124646D02*
D03*
Y126614D02*
D03*
Y128583D02*
D03*
X102189D02*
D03*
Y126614D02*
D03*
Y124646D02*
D03*
Y122677D02*
D03*
Y120709D02*
D03*
Y118740D02*
D03*
Y116772D02*
D03*
Y114803D02*
D03*
Y112835D02*
D03*
Y110866D02*
D03*
Y108898D02*
D03*
Y106929D02*
D03*
D97*
X115478Y82529D02*
D03*
Y72061D02*
D03*
X122195Y82529D02*
D03*
Y72061D02*
D03*
D98*
X131182Y52702D02*
D03*
Y50733D02*
D03*
Y48765D02*
D03*
Y46796D02*
D03*
Y44828D02*
D03*
Y42859D02*
D03*
X147718D02*
D03*
Y44828D02*
D03*
Y46796D02*
D03*
Y48765D02*
D03*
Y50733D02*
D03*
Y52702D02*
D03*
D99*
X134529Y39513D02*
D03*
X136497D02*
D03*
X138466D02*
D03*
X140434D02*
D03*
X142403D02*
D03*
X144371D02*
D03*
Y56048D02*
D03*
X142403D02*
D03*
X140434D02*
D03*
X138466D02*
D03*
X136497D02*
D03*
X134529D02*
D03*
D100*
X100834Y90000D02*
D03*
X90366D02*
D03*
D101*
X135700Y64195D02*
D03*
X131960Y74006D02*
D03*
X139440D02*
D03*
D102*
X97206Y55600D02*
D03*
X87394Y51860D02*
D03*
Y59340D02*
D03*
X65552Y55947D02*
D03*
Y48466D02*
D03*
X75363Y52206D02*
D03*
D103*
X99340Y66689D02*
D03*
X95600D02*
D03*
X91860D02*
D03*
Y78089D02*
D03*
X99340D02*
D03*
D104*
X17300Y34300D02*
D03*
X17221Y65531D02*
D03*
D105*
X204600Y59500D02*
D03*
X194600D02*
D03*
X184600D02*
D03*
X174600D02*
D03*
D106*
X164600D02*
D03*
D107*
X47900Y80963D02*
D03*
X55648Y8963D02*
D03*
D108*
X47900Y88837D02*
D03*
X55648Y16837D02*
D03*
D109*
X102080Y18858D02*
D03*
X124836D02*
D03*
D110*
X130486Y5079D02*
D03*
X96431D02*
D03*
D111*
X130486Y20827D02*
D03*
X96431D02*
D03*
D112*
X78654Y166783D02*
D03*
X102276D02*
D03*
D113*
X189175Y112716D02*
D03*
Y81299D02*
D03*
D114*
X138629Y98300D02*
D03*
M02*
