G04*
G04 #@! TF.GenerationSoftware,Altium Limited,Altium Designer,20.2.6 (244)*
G04*
G04 Layer_Physical_Order=3*
G04 Layer_Color=16440176*
%FSLAX25Y25*%
%MOIN*%
G70*
G04*
G04 #@! TF.SameCoordinates,568CAEEB-50F0-44EC-8363-EC95FF72310B*
G04*
G04*
G04 #@! TF.FilePolarity,Positive*
G04*
G01*
G75*
%ADD10C,0.00500*%
%ADD14C,0.00600*%
%ADD18C,0.00700*%
%ADD120C,0.06000*%
%ADD122C,0.06299*%
%ADD125O,0.03937X0.06299*%
%ADD126O,0.03937X0.08268*%
%ADD127C,0.02000*%
%ADD128C,0.02500*%
G36*
X211187Y123771D02*
Y1744D01*
X210856Y1413D01*
X133074D01*
X132781Y2013D01*
X133079Y2401D01*
X133378Y3123D01*
X133480Y3898D01*
Y4079D01*
X130486D01*
X127492D01*
Y3898D01*
X127594Y3123D01*
X127893Y2401D01*
X128191Y2013D01*
X127897Y1413D01*
X99019D01*
X98726Y2013D01*
X99024Y2401D01*
X99323Y3123D01*
X99425Y3898D01*
Y4079D01*
X96431D01*
X93436D01*
Y3898D01*
X93539Y3123D01*
X93838Y2401D01*
X94135Y2013D01*
X93842Y1413D01*
X38342D01*
X12325Y27429D01*
X4419D01*
X1213Y30636D01*
Y91648D01*
X4865Y95300D01*
X7067D01*
X7623Y95069D01*
X9132Y94871D01*
X10641Y95069D01*
X11198Y95300D01*
X39000D01*
Y95862D01*
X39061Y95924D01*
X40736D01*
X41238Y96023D01*
X41664Y96308D01*
X59528Y114172D01*
X59813Y114598D01*
X59913Y115100D01*
Y136271D01*
X62800Y139159D01*
X79687D01*
Y139100D01*
X79787Y138598D01*
X80072Y138172D01*
X80498Y137887D01*
X81000Y137787D01*
X192713D01*
X193215Y137887D01*
X193641Y138172D01*
X194628Y139159D01*
X195800D01*
X211187Y123771D01*
D02*
G37*
%LPC*%
G36*
X132715Y133861D02*
X132018Y133722D01*
X131426Y133327D01*
X131031Y132736D01*
X130893Y132039D01*
X131031Y131341D01*
X131426Y130750D01*
X132018Y130355D01*
X132715Y130216D01*
X133412Y130355D01*
X134003Y130750D01*
X134399Y131341D01*
X134537Y132039D01*
X134399Y132736D01*
X134003Y133327D01*
X133412Y133722D01*
X132715Y133861D01*
D02*
G37*
G36*
X82100Y130831D02*
X81403Y130692D01*
X80811Y130297D01*
X80416Y129706D01*
X80278Y129008D01*
X80416Y128311D01*
X80811Y127720D01*
X81403Y127325D01*
X82100Y127186D01*
X82797Y127325D01*
X83389Y127720D01*
X83784Y128311D01*
X83922Y129008D01*
X83784Y129706D01*
X83389Y130297D01*
X82797Y130692D01*
X82100Y130831D01*
D02*
G37*
G36*
X112164Y136808D02*
X98220D01*
X97816Y136727D01*
X97472Y136498D01*
X92059Y131085D01*
X91593Y131467D01*
X91684Y131603D01*
X91822Y132300D01*
X91684Y132997D01*
X91289Y133589D01*
X90697Y133984D01*
X90000Y134122D01*
X89303Y133984D01*
X88711Y133589D01*
X88195Y133896D01*
X88024Y134010D01*
X87326Y134149D01*
X86629Y134010D01*
X86037Y133615D01*
X85642Y133024D01*
X85504Y132326D01*
X85642Y131629D01*
X86037Y131037D01*
X86629Y130642D01*
X87326Y130504D01*
X88024Y130642D01*
X88615Y131037D01*
X89131Y130731D01*
X89303Y130616D01*
X90000Y130478D01*
X90697Y130616D01*
X90833Y130707D01*
X91215Y130241D01*
X90902Y129928D01*
X90893Y129914D01*
X88602Y127623D01*
X88373Y127280D01*
X88292Y126875D01*
Y118410D01*
X87163Y117281D01*
X87089Y117289D01*
X86497Y117684D01*
X85800Y117822D01*
X85103Y117684D01*
X84511Y117289D01*
X84116Y116697D01*
X83978Y116000D01*
X84116Y115303D01*
X84511Y114711D01*
X85103Y114316D01*
X85443Y114249D01*
X85514Y113987D01*
X85507Y113624D01*
X85004Y113289D01*
X84609Y112697D01*
X84471Y112000D01*
X84609Y111303D01*
X85004Y110711D01*
X85596Y110316D01*
X86293Y110178D01*
X86990Y110316D01*
X87582Y110711D01*
X87977Y111303D01*
X88116Y112000D01*
X87977Y112697D01*
X87582Y113289D01*
X86990Y113684D01*
X86650Y113751D01*
X86579Y114013D01*
X86586Y114376D01*
X87089Y114711D01*
X87163Y114719D01*
X90991Y110891D01*
X91334Y110662D01*
X91739Y110582D01*
X94823D01*
X95316Y109982D01*
X95278Y109789D01*
X95416Y109092D01*
X95811Y108501D01*
X96403Y108106D01*
X97100Y107967D01*
X97797Y108106D01*
X98389Y108501D01*
X98544Y108733D01*
X99297Y108829D01*
X108092Y100034D01*
Y95794D01*
X108173Y95389D01*
X108402Y95046D01*
X111342Y92106D01*
Y87423D01*
X111204Y87395D01*
X110613Y87000D01*
X110218Y86409D01*
X110079Y85712D01*
X110183Y85190D01*
X108247Y83254D01*
X107693Y83483D01*
Y84474D01*
X107973Y84661D01*
X108369Y85253D01*
X108507Y85950D01*
X108369Y86647D01*
X107973Y87239D01*
X107382Y87634D01*
X106685Y87772D01*
X105987Y87634D01*
X105396Y87239D01*
X105001Y86647D01*
X104862Y85950D01*
X105001Y85253D01*
X105396Y84661D01*
X105577Y84540D01*
Y82468D01*
X105417Y82329D01*
X104789Y82189D01*
X104197Y82584D01*
X103500Y82722D01*
X102803Y82584D01*
X102346Y82278D01*
X97029Y87595D01*
X97102Y87888D01*
X97275Y88198D01*
X97871Y88316D01*
X98463Y88711D01*
X98858Y89303D01*
X98996Y90000D01*
X98858Y90697D01*
X98687Y90953D01*
X99047Y91493D01*
X99452Y91413D01*
X100149Y91552D01*
X100740Y91947D01*
X101136Y92538D01*
X101212Y92923D01*
X101500Y93478D01*
X102197Y93616D01*
X102789Y94011D01*
X103184Y94603D01*
X103322Y95300D01*
X103184Y95997D01*
X102789Y96589D01*
X102197Y96984D01*
X101500Y97122D01*
X100803Y96984D01*
X100211Y96589D01*
X99816Y95997D01*
X99740Y95612D01*
X99452Y95058D01*
X98754Y94919D01*
X98163Y94524D01*
X97768Y93933D01*
X97629Y93235D01*
X97768Y92538D01*
X97939Y92282D01*
X97578Y91742D01*
X97174Y91822D01*
X96477Y91684D01*
X95885Y91289D01*
X95490Y90697D01*
X95372Y90101D01*
X95062Y89928D01*
X94769Y89855D01*
X86418Y98206D01*
X86648Y98760D01*
X94191D01*
Y100531D01*
X93797D01*
Y104469D01*
X94191D01*
Y106240D01*
X85529D01*
Y99879D01*
X84975Y99649D01*
X83260Y101364D01*
Y122241D01*
X83263Y122258D01*
X83269Y122280D01*
X83277Y122300D01*
X83287Y122321D01*
X83299Y122342D01*
X83315Y122365D01*
X83321Y122372D01*
X83389Y122418D01*
X83784Y123009D01*
X83922Y123706D01*
X83784Y124404D01*
X83389Y124995D01*
X82797Y125390D01*
X82100Y125529D01*
X81403Y125390D01*
X81222Y125270D01*
X80689Y124989D01*
X80097Y125384D01*
X79400Y125522D01*
X78703Y125384D01*
X78111Y124989D01*
X77716Y124397D01*
X77578Y123700D01*
X77716Y123003D01*
X78111Y122411D01*
X78703Y122016D01*
X79400Y121878D01*
X80097Y122016D01*
X80340Y122179D01*
X80940Y121858D01*
Y100884D01*
X81029Y100440D01*
X81280Y100064D01*
X100582Y80762D01*
X100352Y80208D01*
X92294D01*
X91889Y80127D01*
X91546Y79898D01*
X90510Y78862D01*
X89765D01*
X89287Y79462D01*
X89355Y79804D01*
X89196Y80599D01*
X88746Y81273D01*
X88072Y81723D01*
X87277Y81882D01*
X86482Y81723D01*
X85808Y81273D01*
X85358Y80599D01*
X85200Y79804D01*
X85268Y79462D01*
X84790Y78862D01*
X66078D01*
X65674Y78781D01*
X65330Y78552D01*
X63986Y77208D01*
X50808D01*
X50604Y77808D01*
X50859Y78004D01*
X51525Y78870D01*
X51943Y79880D01*
X51954Y79963D01*
X47900D01*
X43846D01*
X43857Y79880D01*
X44275Y78870D01*
X44787Y78203D01*
X44639Y77624D01*
X44570Y77537D01*
X44461Y77512D01*
X43671Y78302D01*
X43328Y78531D01*
X42923Y78612D01*
X14037D01*
X13633Y78531D01*
X13289Y78302D01*
X11721Y76734D01*
X11492Y76391D01*
X11412Y75986D01*
Y75708D01*
X11407Y75696D01*
X11396Y75672D01*
X11377Y75639D01*
X11356Y75608D01*
X11258Y75490D01*
X11181Y75439D01*
X10786Y74847D01*
X10647Y74150D01*
X10786Y73453D01*
X11181Y72861D01*
X11742Y72486D01*
X11817Y72413D01*
X11949Y71845D01*
X11352Y71248D01*
X11123Y70905D01*
X11042Y70500D01*
Y69754D01*
X10831Y69712D01*
X10239Y69317D01*
X9844Y68726D01*
X9706Y68028D01*
X9844Y67331D01*
X10239Y66739D01*
X10831Y66344D01*
X10943Y66322D01*
X11127Y66239D01*
X11120Y65699D01*
X11113Y65647D01*
X11101Y65626D01*
X11080Y65595D01*
X10982Y65478D01*
X10905Y65426D01*
X10510Y64834D01*
X10371Y64137D01*
X10510Y63440D01*
X10905Y62848D01*
X11496Y62453D01*
X12193Y62315D01*
X12891Y62453D01*
X13482Y62848D01*
X13877Y63440D01*
X14016Y64137D01*
X13877Y64834D01*
X13482Y65426D01*
X13817Y65922D01*
X19162Y71267D01*
X19813Y71069D01*
X19879Y70742D01*
X20274Y70151D01*
X20865Y69756D01*
X21562Y69617D01*
X22260Y69756D01*
X22851Y70151D01*
X23246Y70742D01*
X23385Y71439D01*
X23246Y72137D01*
X23008Y72492D01*
X23303Y73092D01*
X38442D01*
X38823Y72628D01*
X38778Y72400D01*
X38916Y71703D01*
X39311Y71111D01*
X39903Y70716D01*
X40600Y70578D01*
X41297Y70716D01*
X41889Y71111D01*
X42284Y71703D01*
X42350Y72036D01*
X42680Y72173D01*
X43084Y72092D01*
X71698D01*
X72103Y72173D01*
X72446Y72402D01*
X73791Y73747D01*
X92190D01*
X92595Y73827D01*
X92939Y74056D01*
X93774Y74892D01*
X102013D01*
X102242Y74338D01*
X99680Y71776D01*
X99230Y71841D01*
X99034Y71947D01*
X98989Y72176D01*
X98538Y72850D01*
X97865Y73300D01*
X97070Y73459D01*
X96275Y73300D01*
X95601Y72850D01*
X95150Y72176D01*
X94992Y71381D01*
X95150Y70586D01*
X95601Y69912D01*
X96275Y69462D01*
X97070Y69304D01*
X97865Y69462D01*
X98538Y69912D01*
X98655Y70087D01*
X99255Y69905D01*
Y64597D01*
X92115Y57458D01*
X89758D01*
X89746Y57462D01*
X89722Y57474D01*
X89689Y57493D01*
X89658Y57514D01*
X89540Y57611D01*
X89489Y57689D01*
X88897Y58084D01*
X88200Y58222D01*
X87503Y58084D01*
X86911Y57689D01*
X86516Y57097D01*
X86378Y56400D01*
X86516Y55703D01*
X86911Y55111D01*
X87503Y54716D01*
X88200Y54578D01*
X88897Y54716D01*
X89489Y55111D01*
X89541Y55190D01*
X89547Y55195D01*
X89601Y55243D01*
X89648Y55280D01*
X89689Y55307D01*
X89722Y55326D01*
X89746Y55338D01*
X89758Y55342D01*
X91035D01*
X91264Y54788D01*
X89352Y52876D01*
X89123Y52532D01*
X89042Y52128D01*
Y39457D01*
X89000Y39422D01*
X88303Y39284D01*
X87711Y38889D01*
X87316Y38297D01*
X87178Y37600D01*
X87316Y36903D01*
X87711Y36311D01*
X88303Y35916D01*
X89000Y35778D01*
X89697Y35916D01*
X90289Y36311D01*
X90684Y36903D01*
X90822Y37600D01*
X90799Y37720D01*
X90795Y37791D01*
X90796Y37829D01*
X90799Y37859D01*
X90804Y37881D01*
X90808Y37898D01*
X90813Y37911D01*
X90818Y37921D01*
X90821Y37925D01*
X90848Y37952D01*
X90863Y37975D01*
X90869Y37981D01*
X90885Y38008D01*
X91077Y38295D01*
X91158Y38700D01*
Y51689D01*
X102606Y63138D01*
X102835Y63481D01*
X102916Y63886D01*
Y65857D01*
X103516Y66178D01*
X103628Y66103D01*
X104325Y65964D01*
X105023Y66103D01*
X105208Y66227D01*
X105258Y66244D01*
X105464Y66364D01*
X105529Y66397D01*
X105677Y66462D01*
X105719Y66477D01*
X105758Y66488D01*
X105776Y66492D01*
X111364D01*
X111769Y66573D01*
X112112Y66802D01*
X112196Y66886D01*
X112935Y66776D01*
X113113Y66510D01*
X113307Y66380D01*
X113365Y65783D01*
X100040Y52458D01*
X96658D01*
X96646Y52462D01*
X96622Y52474D01*
X96589Y52493D01*
X96558Y52514D01*
X96441Y52611D01*
X96389Y52689D01*
X95797Y53084D01*
X95100Y53222D01*
X94403Y53084D01*
X93811Y52689D01*
X93416Y52097D01*
X93278Y51400D01*
X93416Y50703D01*
X93811Y50111D01*
X94403Y49716D01*
X95100Y49578D01*
X95797Y49716D01*
X96389Y50111D01*
X96441Y50190D01*
X96447Y50195D01*
X96501Y50243D01*
X96548Y50280D01*
X96589Y50307D01*
X96622Y50326D01*
X96646Y50338D01*
X96658Y50342D01*
X100478D01*
X100883Y50423D01*
X101226Y50652D01*
X120148Y69574D01*
X120377Y69917D01*
X120458Y70322D01*
Y70442D01*
X120462Y70454D01*
X120474Y70478D01*
X120493Y70511D01*
X120514Y70542D01*
X120611Y70660D01*
X120689Y70711D01*
X121084Y71303D01*
X121222Y72000D01*
X121084Y72697D01*
X120689Y73289D01*
X120097Y73684D01*
X119885Y73726D01*
X119687Y74377D01*
X123338Y78028D01*
X123892Y77798D01*
Y67050D01*
X123973Y66645D01*
X124202Y66302D01*
X128250Y62254D01*
X128255Y62243D01*
X128264Y62217D01*
X128274Y62180D01*
X128281Y62144D01*
X128296Y61992D01*
X128278Y61900D01*
X128416Y61203D01*
X128811Y60611D01*
X129403Y60216D01*
X130100Y60078D01*
X130797Y60216D01*
X131389Y60611D01*
X131933Y60347D01*
X132073Y60253D01*
X132770Y60115D01*
X133468Y60253D01*
X134059Y60648D01*
X134168Y60811D01*
X134940Y60887D01*
X139321Y56507D01*
Y31721D01*
X139402Y31317D01*
X139631Y30973D01*
X146811Y23793D01*
X147154Y23564D01*
X147559Y23483D01*
X149429D01*
X150528Y22385D01*
X150533Y22374D01*
X150542Y22348D01*
X150552Y22311D01*
X150559Y22275D01*
X150573Y22122D01*
X150555Y22031D01*
X150694Y21334D01*
X151089Y20742D01*
X151680Y20347D01*
X152377Y20209D01*
X153075Y20347D01*
X153666Y20742D01*
X154061Y21334D01*
X154200Y22031D01*
X154061Y22728D01*
X153666Y23320D01*
X153075Y23715D01*
X152377Y23853D01*
X152285Y23835D01*
X152277Y23835D01*
X152205Y23840D01*
X152146Y23847D01*
X152097Y23856D01*
X152060Y23866D01*
X152035Y23876D01*
X152024Y23881D01*
X150615Y25289D01*
X150272Y25519D01*
X149867Y25599D01*
X147997D01*
X141437Y32159D01*
Y56945D01*
X141356Y57349D01*
X141127Y57693D01*
X136431Y62388D01*
X136661Y62942D01*
X160813D01*
Y55713D01*
X168387D01*
Y62942D01*
X171582D01*
X171709Y62568D01*
X171739Y62342D01*
X171106Y61517D01*
X170703Y60544D01*
X170697Y60500D01*
X174600D01*
X178503D01*
X178497Y60544D01*
X178094Y61517D01*
X177461Y62342D01*
X177491Y62568D01*
X177618Y62942D01*
X179662D01*
X180469Y62135D01*
X180481Y62120D01*
X180522Y62048D01*
X180575Y61915D01*
X180630Y61724D01*
X180682Y61479D01*
X180723Y61199D01*
X180796Y60003D01*
X180797Y59631D01*
X180780Y59500D01*
X180910Y58511D01*
X181292Y57590D01*
X181899Y56799D01*
X182690Y56192D01*
X183611Y55810D01*
X184600Y55680D01*
X185589Y55810D01*
X186510Y56192D01*
X187301Y56799D01*
X187908Y57590D01*
X188290Y58511D01*
X188420Y59500D01*
X188290Y60489D01*
X187908Y61410D01*
X187301Y62201D01*
X186510Y62808D01*
X185589Y63190D01*
X184600Y63320D01*
X184479Y63304D01*
X183652Y63317D01*
X182909Y63376D01*
X182621Y63418D01*
X182376Y63470D01*
X182297Y63493D01*
X182128Y63742D01*
X182201Y63990D01*
X182512Y64342D01*
X188262D01*
X190469Y62135D01*
X190481Y62120D01*
X190522Y62048D01*
X190575Y61915D01*
X190630Y61724D01*
X190682Y61479D01*
X190723Y61199D01*
X190796Y60003D01*
X190797Y59631D01*
X190780Y59500D01*
X190910Y58511D01*
X191292Y57590D01*
X191899Y56799D01*
X192690Y56192D01*
X193611Y55810D01*
X194600Y55680D01*
X195589Y55810D01*
X196510Y56192D01*
X197301Y56799D01*
X197908Y57590D01*
X198290Y58511D01*
X198420Y59500D01*
X198290Y60489D01*
X197908Y61410D01*
X197301Y62201D01*
X196510Y62808D01*
X195589Y63190D01*
X194600Y63320D01*
X194479Y63304D01*
X193652Y63317D01*
X192909Y63376D01*
X192621Y63418D01*
X192376Y63470D01*
X192185Y63525D01*
X192052Y63578D01*
X191980Y63619D01*
X191965Y63631D01*
X189448Y66148D01*
X189105Y66377D01*
X188700Y66458D01*
X135851D01*
X135424Y66915D01*
X135494Y67581D01*
X135689Y67711D01*
X136084Y68303D01*
X136222Y69000D01*
X136150Y69367D01*
X136147Y69445D01*
X136128Y69524D01*
X136122Y69564D01*
X136121Y69581D01*
X142261Y75721D01*
X142490Y76064D01*
X142571Y76469D01*
Y100467D01*
X142490Y100872D01*
X142261Y101215D01*
X134748Y108728D01*
X134824Y109501D01*
X134987Y109610D01*
X135382Y110201D01*
X135521Y110898D01*
X135503Y110986D01*
X135507Y111030D01*
X135513Y111074D01*
X135521Y111110D01*
X135530Y111138D01*
X135539Y111161D01*
X135548Y111178D01*
X135552Y111184D01*
X140059Y115691D01*
X143212D01*
X143218Y115690D01*
X143237Y115684D01*
X143259Y115674D01*
X143285Y115661D01*
X143316Y115641D01*
X143352Y115614D01*
X143386Y115586D01*
X143435Y115511D01*
X144027Y115116D01*
X144724Y114978D01*
X145421Y115116D01*
X146013Y115511D01*
X146408Y116103D01*
X146411Y116118D01*
X147062Y116316D01*
X150444Y112934D01*
X150450Y112924D01*
X150512Y112812D01*
X150533Y112767D01*
X150644Y112474D01*
X150679Y112365D01*
X150687Y112349D01*
X150716Y112203D01*
X151111Y111611D01*
X151703Y111216D01*
X152400Y111078D01*
X153097Y111216D01*
X153689Y111611D01*
X154084Y112203D01*
X154222Y112900D01*
X154084Y113597D01*
X153689Y114189D01*
X153097Y114584D01*
X152400Y114722D01*
X151916Y114626D01*
X151867Y114622D01*
X151804Y114604D01*
X151772Y114597D01*
X149698Y116671D01*
X150081Y117137D01*
X150248Y117026D01*
X150945Y116887D01*
X151642Y117026D01*
X152234Y117421D01*
X152629Y118012D01*
X152767Y118710D01*
X152629Y119407D01*
X152234Y119998D01*
X151642Y120393D01*
X150945Y120532D01*
X150248Y120393D01*
X149656Y119998D01*
X149261Y119407D01*
X149123Y118710D01*
X149261Y118012D01*
X149373Y117845D01*
X148907Y117463D01*
X146971Y119398D01*
X146628Y119627D01*
X146224Y119708D01*
X137476D01*
X137174Y119648D01*
X136785Y119851D01*
X136574Y120017D01*
Y125077D01*
X136493Y125482D01*
X136264Y125825D01*
X134727Y127362D01*
X134384Y127591D01*
X133979Y127672D01*
X132758D01*
X132747Y127676D01*
X132722Y127688D01*
X132689Y127707D01*
X132658Y127728D01*
X132541Y127825D01*
X132489Y127903D01*
X131897Y128298D01*
X131200Y128437D01*
X130503Y128298D01*
X129911Y127903D01*
X129516Y127312D01*
X129378Y126614D01*
X129516Y125917D01*
X129911Y125326D01*
X130485Y124942D01*
X130503Y124836D01*
Y124428D01*
X130485Y124322D01*
X129911Y123939D01*
X129516Y123347D01*
X129378Y122650D01*
X129516Y121953D01*
X129911Y121361D01*
X130503Y120966D01*
X131200Y120828D01*
X131579Y120291D01*
X131616Y120103D01*
X132011Y119511D01*
X132603Y119116D01*
X132971Y119043D01*
X133169Y118392D01*
X130660Y115883D01*
X130431Y115540D01*
X130350Y115135D01*
Y114602D01*
X129796Y114373D01*
X127619Y116550D01*
X127616Y116554D01*
X127604Y116579D01*
X127589Y116616D01*
X127573Y116664D01*
X127559Y116715D01*
X127544Y116796D01*
X127545Y116800D01*
X127527Y116892D01*
X127516Y116989D01*
X127495Y117053D01*
X127407Y117497D01*
X127011Y118089D01*
X126420Y118484D01*
X125723Y118622D01*
X125025Y118484D01*
X124434Y118089D01*
X124039Y117497D01*
X123900Y116800D01*
X124039Y116103D01*
X124219Y115834D01*
X124433Y115510D01*
X124066Y115065D01*
X123933Y114976D01*
X123538Y114385D01*
X123399Y113688D01*
X123538Y112990D01*
X123933Y112399D01*
X124524Y112004D01*
X125027Y111904D01*
X125064Y111892D01*
X125115Y111886D01*
X125222Y111865D01*
X125251Y111871D01*
X125278Y111868D01*
X125338Y111857D01*
X125395Y111843D01*
X125441Y111829D01*
X125475Y111815D01*
X125497Y111804D01*
X125499Y111803D01*
X126490Y110812D01*
X126261Y110258D01*
X108638D01*
X103108Y115788D01*
Y124500D01*
X103027Y124905D01*
X102798Y125248D01*
X101533Y126513D01*
X101530Y126519D01*
X101523Y126540D01*
X101515Y126573D01*
X101507Y126617D01*
X101502Y126672D01*
X101500Y126740D01*
X101501Y126791D01*
X101522Y126900D01*
X101384Y127597D01*
X100989Y128189D01*
X100397Y128584D01*
X99700Y128722D01*
X99003Y128584D01*
X98411Y128189D01*
X98389D01*
X97797Y128584D01*
X97100Y128722D01*
X96403Y128584D01*
X96157Y128420D01*
X95672Y128817D01*
X95677Y128856D01*
X97198Y130377D01*
X97512Y130166D01*
X98209Y130028D01*
X98907Y130166D01*
X99498Y130561D01*
X99893Y131153D01*
X99926Y131320D01*
X100608Y131796D01*
X100700Y131778D01*
X101397Y131916D01*
X101989Y132311D01*
X102384Y132903D01*
X102522Y133600D01*
X102425Y134092D01*
X102787Y134692D01*
X111726D01*
X119342Y127076D01*
X119685Y126847D01*
X120090Y126767D01*
X123388D01*
X123400Y126762D01*
X123424Y126751D01*
X123457Y126732D01*
X123488Y126711D01*
X123606Y126613D01*
X123658Y126536D01*
X124249Y126141D01*
X124947Y126002D01*
X125644Y126141D01*
X126235Y126536D01*
X126630Y127127D01*
X126769Y127824D01*
X126630Y128522D01*
X126235Y129113D01*
X125644Y129508D01*
X124947Y129647D01*
X124249Y129508D01*
X123658Y129113D01*
X123606Y129034D01*
X123600Y129029D01*
X123546Y128982D01*
X123498Y128945D01*
X123457Y128917D01*
X123424Y128898D01*
X123400Y128886D01*
X123388Y128882D01*
X120528D01*
X117225Y132185D01*
X117284Y132782D01*
X117478Y132911D01*
X117873Y133503D01*
X118011Y134200D01*
X117873Y134897D01*
X117478Y135489D01*
X116886Y135884D01*
X116189Y136022D01*
X115492Y135884D01*
X114900Y135489D01*
X114771Y135295D01*
X114174Y135236D01*
X112912Y136498D01*
X112569Y136727D01*
X112164Y136808D01*
D02*
G37*
G36*
X160400Y124572D02*
X159703Y124434D01*
X159111Y124039D01*
X158716Y123447D01*
X158578Y122750D01*
X158716Y122053D01*
X159111Y121461D01*
X159703Y121066D01*
X160400Y120928D01*
X161097Y121066D01*
X161689Y121461D01*
X162084Y122053D01*
X162222Y122750D01*
X162084Y123447D01*
X161689Y124039D01*
X161097Y124434D01*
X160400Y124572D01*
D02*
G37*
G36*
X189175Y115496D02*
X188455Y115401D01*
X187785Y115124D01*
X187209Y114682D01*
X186767Y114106D01*
X186490Y113436D01*
X186395Y112716D01*
X186490Y111997D01*
X186767Y111327D01*
X187209Y110751D01*
X187785Y110309D01*
X188455Y110032D01*
X189175Y109937D01*
X189894Y110032D01*
X190565Y110309D01*
X191140Y110751D01*
X191582Y111327D01*
X191860Y111997D01*
X191955Y112716D01*
X191860Y113436D01*
X191582Y114106D01*
X191140Y114682D01*
X190565Y115124D01*
X189894Y115401D01*
X189175Y115496D01*
D02*
G37*
G36*
X152400Y110129D02*
X151703Y109991D01*
X151111Y109596D01*
X150716Y109004D01*
X150578Y108307D01*
X150716Y107610D01*
X151111Y107018D01*
X151703Y106623D01*
X152400Y106485D01*
X153097Y106623D01*
X153689Y107018D01*
X154084Y107610D01*
X154222Y108307D01*
X154084Y109004D01*
X153689Y109596D01*
X153097Y109991D01*
X152400Y110129D01*
D02*
G37*
G36*
Y104863D02*
X151703Y104724D01*
X151111Y104329D01*
X150716Y103738D01*
X150578Y103041D01*
X150716Y102343D01*
X151111Y101752D01*
X151703Y101357D01*
X152400Y101218D01*
X153097Y101357D01*
X153689Y101752D01*
X154084Y102343D01*
X154222Y103041D01*
X154084Y103738D01*
X153689Y104329D01*
X153097Y104724D01*
X152400Y104863D01*
D02*
G37*
G36*
X67800Y97501D02*
X67103Y97362D01*
X66511Y96967D01*
X66116Y96376D01*
X65978Y95678D01*
X66116Y94981D01*
X66511Y94390D01*
X67103Y93995D01*
X67800Y93856D01*
X68497Y93995D01*
X69089Y94390D01*
X69484Y94981D01*
X69622Y95678D01*
X69484Y96376D01*
X69089Y96967D01*
X68497Y97362D01*
X67800Y97501D01*
D02*
G37*
G36*
X87257Y91822D02*
X86560Y91684D01*
X85969Y91289D01*
X85574Y90697D01*
X85435Y90000D01*
X85451Y89920D01*
X85450Y89911D01*
X85445Y89883D01*
X85439Y89859D01*
X85431Y89838D01*
X85422Y89818D01*
X85411Y89798D01*
X85402Y89784D01*
X80438Y84820D01*
X72561D01*
X72117Y84732D01*
X71741Y84481D01*
X70816Y83556D01*
X70802Y83547D01*
X70782Y83535D01*
X70762Y83526D01*
X70741Y83519D01*
X70717Y83513D01*
X70689Y83508D01*
X70680Y83507D01*
X70600Y83522D01*
X69903Y83384D01*
X69311Y82989D01*
X68916Y82397D01*
X68778Y81700D01*
X68916Y81003D01*
X69311Y80411D01*
X69903Y80016D01*
X70600Y79878D01*
X71297Y80016D01*
X71889Y80411D01*
X72284Y81003D01*
X72422Y81700D01*
X72407Y81780D01*
X72408Y81789D01*
X72413Y81817D01*
X72419Y81841D01*
X72426Y81862D01*
X72435Y81882D01*
X72447Y81902D01*
X72456Y81916D01*
X73041Y82501D01*
X80918D01*
X81362Y82589D01*
X81738Y82841D01*
X87042Y88144D01*
X87055Y88153D01*
X87075Y88165D01*
X87095Y88174D01*
X87117Y88181D01*
X87141Y88187D01*
X87168Y88192D01*
X87178Y88193D01*
X87257Y88178D01*
X87955Y88316D01*
X88546Y88711D01*
X88941Y89303D01*
X89080Y90000D01*
X88941Y90697D01*
X88546Y91289D01*
X87955Y91684D01*
X87257Y91822D01*
D02*
G37*
G36*
X51837Y92774D02*
X43963D01*
Y84900D01*
X45229D01*
X45432Y84300D01*
X44941Y83922D01*
X44275Y83056D01*
X43857Y82046D01*
X43846Y81963D01*
X47900D01*
X51954D01*
X51943Y82046D01*
X51525Y83056D01*
X50859Y83922D01*
X50368Y84300D01*
X50571Y84900D01*
X51837D01*
Y92774D01*
D02*
G37*
G36*
X189175Y84079D02*
X188455Y83984D01*
X187785Y83706D01*
X187209Y83265D01*
X186767Y82689D01*
X186490Y82019D01*
X186395Y81299D01*
X186490Y80580D01*
X186767Y79909D01*
X187209Y79334D01*
X187785Y78892D01*
X188455Y78614D01*
X189175Y78519D01*
X189894Y78614D01*
X190565Y78892D01*
X191140Y79334D01*
X191582Y79909D01*
X191860Y80580D01*
X191955Y81299D01*
X191860Y82019D01*
X191582Y82689D01*
X191140Y83265D01*
X190565Y83706D01*
X189894Y83984D01*
X189175Y84079D01*
D02*
G37*
G36*
X34350Y69544D02*
X33652Y69406D01*
X33061Y69011D01*
X32666Y68419D01*
X32527Y67722D01*
X32666Y67024D01*
X33061Y66433D01*
X33652Y66038D01*
X34350Y65899D01*
X34794Y65988D01*
X34879Y65561D01*
X35274Y64969D01*
X35865Y64574D01*
X36563Y64436D01*
X37260Y64574D01*
X37851Y64969D01*
X38247Y65561D01*
X38385Y66258D01*
X38247Y66956D01*
X37851Y67547D01*
X37260Y67942D01*
X36563Y68081D01*
X36118Y67992D01*
X36033Y68419D01*
X35638Y69011D01*
X35047Y69406D01*
X34350Y69544D01*
D02*
G37*
G36*
X122000Y63922D02*
X121303Y63784D01*
X120711Y63389D01*
X120316Y62797D01*
X120178Y62100D01*
X120316Y61403D01*
X120711Y60811D01*
X121303Y60416D01*
X122000Y60278D01*
X122697Y60416D01*
X123289Y60811D01*
X123684Y61403D01*
X123822Y62100D01*
X123684Y62797D01*
X123289Y63389D01*
X122697Y63784D01*
X122000Y63922D01*
D02*
G37*
G36*
X65600Y61222D02*
X64903Y61084D01*
X64311Y60689D01*
X63916Y60097D01*
X63778Y59400D01*
X63916Y58703D01*
X64311Y58111D01*
X64903Y57716D01*
X65600Y57578D01*
X66297Y57716D01*
X66889Y58111D01*
X67284Y58703D01*
X67422Y59400D01*
X67284Y60097D01*
X66889Y60689D01*
X66297Y61084D01*
X65600Y61222D01*
D02*
G37*
G36*
X204600Y63320D02*
X203611Y63190D01*
X202690Y62808D01*
X201899Y62201D01*
X201292Y61410D01*
X200910Y60489D01*
X200780Y59500D01*
X200910Y58511D01*
X201292Y57590D01*
X201899Y56799D01*
X202690Y56192D01*
X203611Y55810D01*
X204600Y55680D01*
X205589Y55810D01*
X206510Y56192D01*
X207301Y56799D01*
X207908Y57590D01*
X208290Y58511D01*
X208420Y59500D01*
X208290Y60489D01*
X207908Y61410D01*
X207301Y62201D01*
X206510Y62808D01*
X205589Y63190D01*
X204600Y63320D01*
D02*
G37*
G36*
X178503Y58500D02*
X175600D01*
Y55597D01*
X175644Y55603D01*
X176617Y56006D01*
X177453Y56647D01*
X178094Y57483D01*
X178497Y58456D01*
X178503Y58500D01*
D02*
G37*
G36*
X173600D02*
X170697D01*
X170703Y58456D01*
X171106Y57483D01*
X171747Y56647D01*
X172583Y56006D01*
X173556Y55603D01*
X173600Y55597D01*
Y58500D01*
D02*
G37*
G36*
X17200Y58222D02*
X16503Y58084D01*
X15911Y57689D01*
X15516Y57097D01*
X15378Y56400D01*
X15516Y55703D01*
X15911Y55111D01*
X16503Y54716D01*
X17200Y54578D01*
X17897Y54716D01*
X18489Y55111D01*
X18884Y55703D01*
X19022Y56400D01*
X18884Y57097D01*
X18489Y57689D01*
X17897Y58084D01*
X17200Y58222D01*
D02*
G37*
G36*
X29400Y55022D02*
X28703Y54884D01*
X28111Y54489D01*
X27716Y53897D01*
X27578Y53200D01*
X27716Y52503D01*
X28111Y51911D01*
X28703Y51516D01*
X29400Y51378D01*
X30097Y51516D01*
X30689Y51911D01*
X31084Y52503D01*
X31222Y53200D01*
X31084Y53897D01*
X30689Y54489D01*
X30097Y54884D01*
X29400Y55022D01*
D02*
G37*
G36*
X70601Y53937D02*
X69806Y53779D01*
X69133Y53329D01*
X68682Y52655D01*
X68524Y51860D01*
X68682Y51065D01*
X69133Y50391D01*
X69806Y49941D01*
X70601Y49782D01*
X71396Y49941D01*
X72070Y50391D01*
X72521Y51065D01*
X72679Y51860D01*
X72521Y52655D01*
X72070Y53329D01*
X71396Y53779D01*
X70601Y53937D01*
D02*
G37*
G36*
X17100Y53322D02*
X16403Y53184D01*
X15811Y52789D01*
X15416Y52197D01*
X15278Y51500D01*
X15416Y50803D01*
X15811Y50211D01*
X16403Y49816D01*
X17100Y49678D01*
X17797Y49816D01*
X18389Y50211D01*
X18784Y50803D01*
X18922Y51500D01*
X18784Y52197D01*
X18389Y52789D01*
X17797Y53184D01*
X17100Y53322D01*
D02*
G37*
G36*
X37197Y49852D02*
X36499Y49714D01*
X35908Y49319D01*
X35835Y49209D01*
X35271Y49587D01*
X34573Y49725D01*
X33876Y49587D01*
X33285Y49192D01*
X32890Y48600D01*
X32751Y47903D01*
X32890Y47205D01*
X33285Y46614D01*
X33876Y46219D01*
X34573Y46080D01*
X35271Y46219D01*
X35862Y46614D01*
X35935Y46723D01*
X36499Y46346D01*
X37197Y46207D01*
X37894Y46346D01*
X38485Y46741D01*
X38881Y47332D01*
X39019Y48030D01*
X38881Y48727D01*
X38485Y49319D01*
X37894Y49714D01*
X37197Y49852D01*
D02*
G37*
G36*
X17200Y46922D02*
X16503Y46784D01*
X15911Y46389D01*
X15516Y45797D01*
X15378Y45100D01*
X15516Y44403D01*
X15911Y43811D01*
X16503Y43416D01*
X17200Y43278D01*
X17897Y43416D01*
X18489Y43811D01*
X18884Y44403D01*
X19022Y45100D01*
X18884Y45797D01*
X18489Y46389D01*
X17897Y46784D01*
X17200Y46922D01*
D02*
G37*
G36*
X128600Y42847D02*
X127903Y42709D01*
X127311Y42314D01*
X126916Y41722D01*
X126778Y41025D01*
X126911Y40356D01*
X124851Y38296D01*
X124839Y38291D01*
X124814Y38282D01*
X124777Y38272D01*
X124741Y38265D01*
X124588Y38251D01*
X124497Y38269D01*
X123799Y38130D01*
X123208Y37735D01*
X122813Y37144D01*
X122674Y36446D01*
X122813Y35749D01*
X123208Y35158D01*
X123799Y34763D01*
X124497Y34624D01*
X125194Y34763D01*
X125785Y35158D01*
X126180Y35749D01*
X126319Y36446D01*
X126301Y36539D01*
X126301Y36547D01*
X126306Y36619D01*
X126313Y36678D01*
X126322Y36727D01*
X126332Y36764D01*
X126341Y36789D01*
X126346Y36800D01*
X128604Y39057D01*
X128681Y39107D01*
X128710Y39123D01*
X129089Y39285D01*
X129181Y39318D01*
X129297Y39341D01*
X129889Y39736D01*
X130284Y40328D01*
X130422Y41025D01*
X130284Y41722D01*
X129889Y42314D01*
X129297Y42709D01*
X128600Y42847D01*
D02*
G37*
G36*
X79019Y41722D02*
X78322Y41584D01*
X77731Y41189D01*
X77336Y40597D01*
X77197Y39900D01*
X77336Y39203D01*
X77731Y38611D01*
X78322Y38216D01*
X79019Y38078D01*
X79717Y38216D01*
X80308Y38611D01*
X80703Y39203D01*
X80842Y39900D01*
X80703Y40597D01*
X80308Y41189D01*
X79717Y41584D01*
X79019Y41722D01*
D02*
G37*
G36*
X101049Y39520D02*
X100352Y39382D01*
X99760Y38987D01*
X99365Y38396D01*
X99226Y37698D01*
X99365Y37001D01*
X99760Y36410D01*
X100352Y36014D01*
X101049Y35876D01*
X101746Y36014D01*
X102338Y36410D01*
X102733Y37001D01*
X102871Y37698D01*
X102733Y38396D01*
X102338Y38987D01*
X101746Y39382D01*
X101049Y39520D01*
D02*
G37*
G36*
X149867Y38322D02*
X149170Y38184D01*
X148579Y37789D01*
X148183Y37197D01*
X148045Y36500D01*
X148183Y35803D01*
X148579Y35211D01*
X149170Y34816D01*
X149867Y34678D01*
X150565Y34816D01*
X151156Y35211D01*
X151551Y35803D01*
X151690Y36500D01*
X151551Y37197D01*
X151156Y37789D01*
X150565Y38184D01*
X149867Y38322D01*
D02*
G37*
G36*
X34067Y40839D02*
X33370Y40700D01*
X32779Y40305D01*
X32384Y39713D01*
X32245Y39016D01*
X32384Y38319D01*
X32779Y37727D01*
X32833Y37691D01*
Y36970D01*
X32711Y36889D01*
X32316Y36297D01*
X32178Y35600D01*
X32316Y34903D01*
X32711Y34311D01*
X33303Y33916D01*
X34000Y33778D01*
X34697Y33916D01*
X35289Y34311D01*
X35684Y34903D01*
X35822Y35600D01*
X35684Y36297D01*
X35289Y36889D01*
X35235Y36925D01*
Y37646D01*
X35356Y37727D01*
X35751Y38319D01*
X35890Y39016D01*
X35751Y39713D01*
X35356Y40305D01*
X34765Y40700D01*
X34067Y40839D01*
D02*
G37*
G36*
X67800Y37577D02*
X67005Y37419D01*
X66331Y36969D01*
X65881Y36295D01*
X65723Y35500D01*
X65881Y34705D01*
X66331Y34031D01*
X67005Y33581D01*
X67800Y33423D01*
X68595Y33581D01*
X69269Y34031D01*
X69719Y34705D01*
X69877Y35500D01*
X69719Y36295D01*
X69269Y36969D01*
X68595Y37419D01*
X67800Y37577D01*
D02*
G37*
G36*
X83535Y26306D02*
X82838Y26167D01*
X82247Y25772D01*
X81852Y25181D01*
X81713Y24484D01*
X81852Y23786D01*
X82247Y23195D01*
X82838Y22800D01*
X83535Y22661D01*
X84233Y22800D01*
X84824Y23195D01*
X85219Y23786D01*
X85358Y24484D01*
X85219Y25181D01*
X84824Y25772D01*
X84233Y26167D01*
X83535Y26306D01*
D02*
G37*
G36*
X131486Y25791D02*
Y21827D01*
X133480D01*
Y22992D01*
X133378Y23767D01*
X133079Y24489D01*
X132603Y25109D01*
X131983Y25585D01*
X131486Y25791D01*
D02*
G37*
G36*
X97431D02*
Y21827D01*
X99425D01*
Y22992D01*
X99323Y23767D01*
X99024Y24489D01*
X98548Y25109D01*
X97928Y25585D01*
X97431Y25791D01*
D02*
G37*
G36*
X129486D02*
X128989Y25585D01*
X128369Y25109D01*
X127893Y24489D01*
X127594Y23767D01*
X127492Y22992D01*
Y21827D01*
X129486D01*
Y25791D01*
D02*
G37*
G36*
X95431D02*
X94934Y25585D01*
X94314Y25109D01*
X93838Y24489D01*
X93539Y23767D01*
X93436Y22992D01*
Y21827D01*
X95431D01*
Y25791D01*
D02*
G37*
G36*
X114400Y21721D02*
X113742Y21589D01*
X113183Y21217D01*
X112811Y20658D01*
X112706Y20132D01*
X112094D01*
X111989Y20658D01*
X111617Y21217D01*
X111058Y21589D01*
X110400Y21721D01*
X109742Y21589D01*
X109183Y21217D01*
X108810Y20658D01*
X108679Y20000D01*
X108810Y19342D01*
X109183Y18783D01*
X109742Y18410D01*
X110400Y18280D01*
X111058Y18410D01*
X111617Y18783D01*
X111989Y19342D01*
X112094Y19868D01*
X112706D01*
X112811Y19342D01*
X113183Y18783D01*
X113742Y18410D01*
X114400Y18280D01*
X115058Y18410D01*
X115617Y18783D01*
X115989Y19342D01*
X116121Y20000D01*
X115989Y20658D01*
X115617Y21217D01*
X115058Y21589D01*
X114400Y21721D01*
D02*
G37*
G36*
X102080Y20966D02*
X101274Y20805D01*
X100590Y20348D01*
X100133Y19665D01*
X100048Y19235D01*
X100025Y19119D01*
X99425Y19178D01*
X99425Y19253D01*
Y19827D01*
X97431D01*
Y15863D01*
X97928Y16068D01*
X98548Y16544D01*
X99024Y17164D01*
X99323Y17887D01*
X99414Y18577D01*
X99425Y18661D01*
X100016Y18641D01*
X100036Y18543D01*
X100133Y18052D01*
X100590Y17368D01*
X101274Y16911D01*
X102080Y16751D01*
X102887Y16911D01*
X103570Y17368D01*
X104027Y18052D01*
X104188Y18858D01*
X104027Y19665D01*
X103570Y20348D01*
X102887Y20805D01*
X102080Y20966D01*
D02*
G37*
G36*
X83751Y21461D02*
X83053Y21322D01*
X82462Y20927D01*
X82067Y20336D01*
X81928Y19639D01*
X82067Y18941D01*
X82462Y18350D01*
X83053Y17955D01*
X83751Y17816D01*
X84448Y17955D01*
X85040Y18350D01*
X85435Y18941D01*
X85573Y19639D01*
X85435Y20336D01*
X85040Y20927D01*
X84448Y21322D01*
X83751Y21461D01*
D02*
G37*
G36*
X133480Y19827D02*
X131486D01*
Y15863D01*
X131983Y16068D01*
X132603Y16544D01*
X133079Y17164D01*
X133378Y17887D01*
X133480Y18661D01*
Y19827D01*
D02*
G37*
G36*
X95431D02*
X93436D01*
Y18661D01*
X93539Y17887D01*
X93838Y17164D01*
X94314Y16544D01*
X94934Y16068D01*
X95431Y15863D01*
Y19827D01*
D02*
G37*
G36*
X124836Y20966D02*
X124030Y20805D01*
X123346Y20348D01*
X122889Y19665D01*
X122729Y18858D01*
X122889Y18052D01*
X123346Y17368D01*
X124030Y16911D01*
X124836Y16751D01*
X125643Y16911D01*
X126326Y17368D01*
X126783Y18052D01*
X126881Y18543D01*
X126900Y18641D01*
X127492Y18661D01*
X127503Y18577D01*
X127594Y17887D01*
X127893Y17164D01*
X128369Y16544D01*
X128989Y16068D01*
X129486Y15863D01*
Y19827D01*
X127492D01*
Y19253D01*
X127492Y19178D01*
X126892Y19119D01*
X126869Y19235D01*
X126783Y19665D01*
X126326Y20348D01*
X125643Y20805D01*
X124836Y20966D01*
D02*
G37*
G36*
X150200Y16822D02*
X149503Y16684D01*
X148911Y16289D01*
X148516Y15697D01*
X148378Y15000D01*
X148516Y14303D01*
X148911Y13711D01*
X149503Y13316D01*
X150200Y13178D01*
X150897Y13316D01*
X151489Y13711D01*
X151884Y14303D01*
X152022Y15000D01*
X151884Y15697D01*
X151489Y16289D01*
X150897Y16684D01*
X150200Y16822D01*
D02*
G37*
G36*
X59585Y20774D02*
X51711D01*
Y12900D01*
X52977D01*
X53181Y12300D01*
X52689Y11923D01*
X52024Y11056D01*
X51606Y10046D01*
X51595Y9963D01*
X55648D01*
X59911D01*
X60289Y10105D01*
X60531Y9742D01*
X61205Y9292D01*
X62000Y9134D01*
X62795Y9292D01*
X63469Y9742D01*
X63919Y10416D01*
X64077Y11211D01*
X63919Y12006D01*
X63469Y12680D01*
X62795Y13130D01*
X62000Y13288D01*
X61205Y13130D01*
X60531Y12680D01*
X60081Y12006D01*
X59923Y11211D01*
X59982Y10911D01*
X59405Y10736D01*
X59273Y11056D01*
X58608Y11923D01*
X58116Y12300D01*
X58320Y12900D01*
X59585D01*
Y20774D01*
D02*
G37*
G36*
X131486Y9059D02*
Y6079D01*
X133480D01*
Y6260D01*
X133378Y7035D01*
X133079Y7757D01*
X132603Y8377D01*
X131983Y8853D01*
X131486Y9059D01*
D02*
G37*
G36*
X97431D02*
Y6079D01*
X99425D01*
Y6260D01*
X99323Y7035D01*
X99024Y7757D01*
X98548Y8377D01*
X97928Y8853D01*
X97431Y9059D01*
D02*
G37*
G36*
X129486Y9059D02*
X128989Y8853D01*
X128369Y8377D01*
X127893Y7757D01*
X127594Y7035D01*
X127492Y6260D01*
Y6079D01*
X129486D01*
Y9059D01*
D02*
G37*
G36*
X95431D02*
X94934Y8853D01*
X94314Y8377D01*
X93838Y7757D01*
X93539Y7035D01*
X93436Y6260D01*
Y6079D01*
X95431D01*
Y9059D01*
D02*
G37*
G36*
X59702Y7963D02*
X56648D01*
Y4909D01*
X56732Y4920D01*
X57741Y5338D01*
X58608Y6004D01*
X59273Y6870D01*
X59691Y7880D01*
X59702Y7963D01*
D02*
G37*
G36*
X54648D02*
X51595D01*
X51606Y7880D01*
X52024Y6870D01*
X52689Y6004D01*
X53556Y5338D01*
X54565Y4920D01*
X54648Y4909D01*
Y7963D01*
D02*
G37*
%LPD*%
G36*
X124232Y127124D02*
X124144Y127210D01*
X123970Y127354D01*
X123884Y127412D01*
X123798Y127462D01*
X123713Y127502D01*
X123629Y127534D01*
X123545Y127556D01*
X123461Y127570D01*
X123378Y127574D01*
Y128074D01*
X123461Y128079D01*
X123545Y128092D01*
X123629Y128115D01*
X123713Y128146D01*
X123798Y128187D01*
X123884Y128236D01*
X123970Y128295D01*
X124057Y128362D01*
X124144Y128439D01*
X124232Y128524D01*
Y127124D01*
D02*
G37*
G36*
X132002Y127229D02*
X132176Y127085D01*
X132263Y127026D01*
X132348Y126977D01*
X132433Y126936D01*
X132518Y126905D01*
X132602Y126882D01*
X132685Y126869D01*
X132768Y126864D01*
Y126364D01*
X132685Y126360D01*
X132602Y126346D01*
X132518Y126324D01*
X132433Y126292D01*
X132348Y126252D01*
X132263Y126202D01*
X132176Y126144D01*
X132089Y126076D01*
X132002Y126000D01*
X131914Y125914D01*
Y127314D01*
X132002Y127229D01*
D02*
G37*
G36*
X100697Y126734D02*
X100701Y126619D01*
X100711Y126511D01*
X100728Y126409D01*
X100752Y126314D01*
X100782Y126226D01*
X100818Y126144D01*
X100861Y126068D01*
X100911Y125999D01*
X100967Y125937D01*
X100600Y125596D01*
X100539Y125651D01*
X100471Y125700D01*
X100396Y125744D01*
X100314Y125783D01*
X100225Y125816D01*
X100129Y125844D01*
X100026Y125866D01*
X99916Y125883D01*
X99799Y125894D01*
X99675Y125900D01*
X100699Y126855D01*
X100697Y126734D01*
D02*
G37*
G36*
X82734Y122922D02*
X82674Y122850D01*
X82622Y122774D01*
X82576Y122696D01*
X82538Y122615D01*
X82506Y122531D01*
X82481Y122445D01*
X82464Y122356D01*
X82454Y122264D01*
X82450Y122170D01*
X81750D01*
X81747Y122264D01*
X81736Y122356D01*
X81718Y122445D01*
X81694Y122531D01*
X81662Y122615D01*
X81624Y122696D01*
X81578Y122774D01*
X81526Y122850D01*
X81467Y122922D01*
X81400Y122992D01*
X82800D01*
X82734Y122922D01*
D02*
G37*
G36*
X97715Y122298D02*
X97571Y122124D01*
X97512Y122037D01*
X97462Y121952D01*
X97422Y121867D01*
X97391Y121782D01*
X97368Y121698D01*
X97355Y121615D01*
X97350Y121532D01*
X96850D01*
X96846Y121615D01*
X96832Y121698D01*
X96810Y121782D01*
X96778Y121867D01*
X96737Y121952D01*
X96688Y122037D01*
X96630Y122124D01*
X96562Y122211D01*
X96486Y122298D01*
X96400Y122386D01*
X97800D01*
X97715Y122298D01*
D02*
G37*
G36*
X100314Y122198D02*
X100171Y122024D01*
X100112Y121938D01*
X100063Y121852D01*
X100022Y121767D01*
X99990Y121682D01*
X99968Y121598D01*
X99954Y121515D01*
X99950Y121432D01*
X99450D01*
X99445Y121515D01*
X99432Y121598D01*
X99410Y121682D01*
X99378Y121767D01*
X99338Y121852D01*
X99288Y121938D01*
X99230Y122024D01*
X99162Y122110D01*
X99085Y122198D01*
X99000Y122286D01*
X100400D01*
X100314Y122198D01*
D02*
G37*
G36*
X144010Y116100D02*
X143931Y116176D01*
X143851Y116244D01*
X143770Y116304D01*
X143687Y116356D01*
X143604Y116400D01*
X143519Y116436D01*
X143434Y116464D01*
X143347Y116484D01*
X143259Y116496D01*
X143170Y116500D01*
Y117100D01*
X143259Y117104D01*
X143347Y117116D01*
X143434Y117136D01*
X143519Y117164D01*
X143604Y117200D01*
X143687Y117244D01*
X143770Y117296D01*
X143851Y117356D01*
X143931Y117424D01*
X144010Y117500D01*
Y116100D01*
D02*
G37*
G36*
X126733Y116770D02*
X126775Y116539D01*
X126803Y116435D01*
X126835Y116338D01*
X126871Y116249D01*
X126912Y116167D01*
X126957Y116093D01*
X127006Y116026D01*
X127060Y115967D01*
X126745Y115574D01*
X126681Y115631D01*
X126612Y115681D01*
X126536Y115722D01*
X126455Y115757D01*
X126367Y115784D01*
X126273Y115803D01*
X126174Y115815D01*
X126068Y115820D01*
X125956Y115817D01*
X125839Y115807D01*
X126718Y116896D01*
X126733Y116770D01*
D02*
G37*
G36*
X86616Y116594D02*
X86696Y116522D01*
X86776Y116458D01*
X86857Y116403D01*
X86940Y116356D01*
X87023Y116318D01*
X87097Y116292D01*
X87151Y116307D01*
X87238Y116338D01*
X87322Y116377D01*
X87403Y116423D01*
X87481Y116476D01*
X87556Y116536D01*
X87628Y116604D01*
X88085Y116353D01*
X88021Y116283D01*
X87972Y116212D01*
X87937Y116141D01*
X87915Y116071D01*
X87908Y116000D01*
X87915Y115929D01*
X87937Y115859D01*
X87972Y115788D01*
X88021Y115717D01*
X88085Y115646D01*
X87628Y115396D01*
X87556Y115464D01*
X87481Y115524D01*
X87403Y115577D01*
X87322Y115623D01*
X87238Y115662D01*
X87151Y115693D01*
X87097Y115708D01*
X87023Y115682D01*
X86940Y115644D01*
X86857Y115597D01*
X86776Y115542D01*
X86696Y115479D01*
X86616Y115406D01*
X86538Y115326D01*
X86538Y116674D01*
X86616Y116594D01*
D02*
G37*
G36*
X134773Y115594D02*
X134717Y115532D01*
X134668Y115462D01*
X134625Y115387D01*
X134589Y115305D01*
X134559Y115217D01*
X134536Y115122D01*
X134520Y115020D01*
X134510Y114912D01*
X134507Y114798D01*
X134510Y114678D01*
X133477Y115622D01*
X133601Y115629D01*
X133829Y115659D01*
X133932Y115682D01*
X134028Y115711D01*
X134117Y115744D01*
X134200Y115783D01*
X134274Y115827D01*
X134342Y115876D01*
X134403Y115931D01*
X134773Y115594D01*
D02*
G37*
G36*
X151299Y113935D02*
X151370Y113886D01*
X151444Y113847D01*
X151523Y113818D01*
X151607Y113798D01*
X151695Y113789D01*
X151787Y113790D01*
X151883Y113800D01*
X151984Y113820D01*
X152089Y113850D01*
X151444Y112608D01*
X151402Y112739D01*
X151273Y113078D01*
X151229Y113174D01*
X151138Y113340D01*
X151091Y113410D01*
X151044Y113471D01*
X150996Y113524D01*
X151233Y113994D01*
X151299Y113935D01*
D02*
G37*
G36*
X126210Y113480D02*
X126210Y113367D01*
X126217Y113261D01*
X126231Y113160D01*
X126252Y113066D01*
X126280Y112978D01*
X126315Y112896D01*
X126358Y112821D01*
X126407Y112751D01*
X126464Y112688D01*
X126082Y112363D01*
X126021Y112417D01*
X125954Y112467D01*
X125879Y112511D01*
X125797Y112551D01*
X125708Y112586D01*
X125612Y112616D01*
X125508Y112642D01*
X125397Y112663D01*
X125153Y112690D01*
X126218Y113599D01*
X126210Y113480D01*
D02*
G37*
G36*
X135009Y111785D02*
X134949Y111719D01*
X134896Y111649D01*
X134848Y111573D01*
X134808Y111493D01*
X134773Y111407D01*
X134745Y111317D01*
X134724Y111222D01*
X134709Y111123D01*
X134700Y111018D01*
X134698Y110908D01*
X133708Y111898D01*
X133818Y111900D01*
X133923Y111909D01*
X134022Y111924D01*
X134117Y111945D01*
X134207Y111973D01*
X134293Y112007D01*
X134373Y112048D01*
X134449Y112095D01*
X134519Y112149D01*
X134585Y112209D01*
X135009Y111785D01*
D02*
G37*
G36*
X126102Y107965D02*
X126276Y107820D01*
X126363Y107762D01*
X126448Y107712D01*
X126533Y107672D01*
X126618Y107641D01*
X126702Y107618D01*
X126785Y107605D01*
X126868Y107600D01*
Y107100D01*
X126785Y107096D01*
X126702Y107082D01*
X126618Y107060D01*
X126533Y107028D01*
X126448Y106988D01*
X126363Y106938D01*
X126276Y106879D01*
X126189Y106812D01*
X126102Y106736D01*
X126014Y106650D01*
Y108050D01*
X126102Y107965D01*
D02*
G37*
G36*
X130829Y101988D02*
X130826Y101919D01*
X130830Y101851D01*
X130843Y101784D01*
X130863Y101717D01*
X130890Y101652D01*
X130925Y101587D01*
X130968Y101523D01*
X131019Y101460D01*
X131077Y101398D01*
X130723Y101044D01*
X130661Y101102D01*
X130598Y101153D01*
X130534Y101196D01*
X130469Y101231D01*
X130403Y101258D01*
X130337Y101278D01*
X130270Y101291D01*
X130202Y101295D01*
X130133Y101292D01*
X130064Y101281D01*
X130840Y102057D01*
X130829Y101988D01*
D02*
G37*
G36*
X133514Y98598D02*
X133370Y98424D01*
X133312Y98338D01*
X133263Y98252D01*
X133222Y98167D01*
X133191Y98082D01*
X133168Y97998D01*
X133154Y97915D01*
X133150Y97832D01*
X132650D01*
X132645Y97915D01*
X132632Y97998D01*
X132609Y98082D01*
X132578Y98167D01*
X132537Y98252D01*
X132488Y98338D01*
X132430Y98424D01*
X132362Y98510D01*
X132285Y98598D01*
X132200Y98686D01*
X133600D01*
X133514Y98598D01*
D02*
G37*
G36*
X115378Y98220D02*
X115351Y98197D01*
X115328Y98168D01*
X115307Y98133D01*
X115290Y98093D01*
X115275Y98046D01*
X115264Y97993D01*
X115256Y97935D01*
X115252Y97870D01*
X115250Y97800D01*
X114750D01*
X114748Y97870D01*
X114736Y97993D01*
X114725Y98046D01*
X114710Y98093D01*
X114693Y98133D01*
X114672Y98168D01*
X114649Y98197D01*
X114622Y98220D01*
X114592Y98237D01*
X115408D01*
X115378Y98220D01*
D02*
G37*
G36*
X120202Y97967D02*
X120223Y97742D01*
X120243Y97640D01*
X120268Y97544D01*
X120300Y97456D01*
X120337Y97373D01*
X120381Y97298D01*
X120430Y97230D01*
X120486Y97168D01*
X120132Y96814D01*
X120070Y96870D01*
X120002Y96919D01*
X119927Y96963D01*
X119844Y97000D01*
X119756Y97032D01*
X119660Y97057D01*
X119558Y97077D01*
X119448Y97091D01*
X119333Y97098D01*
X119210Y97100D01*
X120200Y98090D01*
X120202Y97967D01*
D02*
G37*
G36*
X121333Y104106D02*
X121174Y103312D01*
X121002Y103197D01*
X120607Y102606D01*
X120468Y101909D01*
X120607Y101211D01*
X121002Y100620D01*
X121593Y100225D01*
X122290Y100086D01*
X122444Y100117D01*
X122566Y99503D01*
X122961Y98911D01*
X123553Y98516D01*
X124250Y98378D01*
X124442Y98416D01*
X125042Y97923D01*
Y96735D01*
X125123Y96330D01*
X125352Y95987D01*
X125942Y95397D01*
Y89511D01*
X123312Y86880D01*
X122758Y87110D01*
Y95600D01*
X122677Y96005D01*
X122448Y96348D01*
X121050Y97746D01*
X121045Y97757D01*
X121036Y97783D01*
X121026Y97820D01*
X121019Y97856D01*
X121004Y98008D01*
X121022Y98100D01*
X120884Y98797D01*
X120489Y99389D01*
X119897Y99784D01*
X119200Y99922D01*
X118877Y100470D01*
X118922Y100700D01*
X118784Y101397D01*
X118389Y101989D01*
X117797Y102384D01*
X117100Y102522D01*
X116403Y102384D01*
X115811Y101989D01*
X115468Y101475D01*
X115155Y101462D01*
X114844Y101538D01*
X114820Y101660D01*
X114425Y102251D01*
X113833Y102646D01*
X113136Y102785D01*
X112438Y102646D01*
X111925Y102303D01*
X110541Y103688D01*
X110771Y104242D01*
X121231D01*
X121333Y104106D01*
D02*
G37*
G36*
X135286Y85732D02*
X135230Y85670D01*
X135181Y85602D01*
X135137Y85527D01*
X135100Y85444D01*
X135068Y85356D01*
X135043Y85260D01*
X135023Y85158D01*
X135009Y85049D01*
X135002Y84933D01*
X135000Y84810D01*
X134010Y85800D01*
X134133Y85802D01*
X134358Y85823D01*
X134460Y85843D01*
X134556Y85868D01*
X134644Y85900D01*
X134727Y85937D01*
X134802Y85981D01*
X134870Y86030D01*
X134932Y86086D01*
X135286Y85732D01*
D02*
G37*
G36*
X136865Y85321D02*
X136883Y85228D01*
X137278Y84637D01*
X137870Y84242D01*
X138567Y84103D01*
X138721Y84134D01*
X139321Y83641D01*
Y81845D01*
X138796Y81320D01*
X138785Y81315D01*
X138760Y81306D01*
X138723Y81296D01*
X138686Y81289D01*
X138534Y81274D01*
X138443Y81292D01*
X137745Y81154D01*
X137154Y80759D01*
X136759Y80168D01*
X136620Y79470D01*
X136759Y78773D01*
X137154Y78181D01*
X137745Y77786D01*
X138443Y77648D01*
X139140Y77786D01*
X139731Y78181D01*
X139855Y78367D01*
X140455Y78185D01*
Y76907D01*
X134493Y70945D01*
X134487Y70941D01*
X134380Y70885D01*
X134342Y70869D01*
X134058Y70774D01*
X133953Y70746D01*
X133908Y70724D01*
X133703Y70684D01*
X133111Y70289D01*
X132981Y70094D01*
X132214Y70013D01*
X130408Y71819D01*
Y82499D01*
X131794Y83886D01*
X132534Y83777D01*
X132711Y83511D01*
X133303Y83116D01*
X134000Y82978D01*
X134697Y83116D01*
X135289Y83511D01*
X135684Y84103D01*
X135822Y84800D01*
X135804Y84892D01*
X135804Y84900D01*
X135809Y84972D01*
X135816Y85032D01*
X135826Y85080D01*
X135834Y85113D01*
X136229Y85514D01*
X136865Y85321D01*
D02*
G37*
G36*
X102626Y80414D02*
X102607Y80440D01*
X102580Y80463D01*
X102545Y80484D01*
X102503Y80501D01*
X102453Y80516D01*
X102394Y80528D01*
X102329Y80538D01*
X102173Y80549D01*
X102084Y80550D01*
Y81250D01*
X102173Y81251D01*
X102329Y81262D01*
X102394Y81272D01*
X102453Y81284D01*
X102503Y81299D01*
X102545Y81317D01*
X102580Y81337D01*
X102607Y81360D01*
X102626Y81386D01*
Y80414D01*
D02*
G37*
G36*
X139728Y80402D02*
X139673Y80340D01*
X139623Y80272D01*
X139580Y80197D01*
X139542Y80115D01*
X139511Y80026D01*
X139485Y79930D01*
X139465Y79828D01*
X139452Y79719D01*
X139444Y79603D01*
X139443Y79480D01*
X138452Y80470D01*
X138575Y80472D01*
X138800Y80493D01*
X138902Y80513D01*
X138998Y80538D01*
X139087Y80570D01*
X139169Y80607D01*
X139244Y80651D01*
X139313Y80700D01*
X139375Y80756D01*
X139728Y80402D01*
D02*
G37*
G36*
X12724Y75635D02*
X12737Y75552D01*
X12760Y75468D01*
X12791Y75383D01*
X12832Y75298D01*
X12881Y75213D01*
X12940Y75126D01*
X13007Y75039D01*
X13084Y74952D01*
X13169Y74864D01*
X11769D01*
X11855Y74952D01*
X11999Y75126D01*
X12057Y75213D01*
X12107Y75298D01*
X12147Y75383D01*
X12179Y75468D01*
X12201Y75552D01*
X12215Y75635D01*
X12219Y75718D01*
X12719D01*
X12724Y75635D01*
D02*
G37*
G36*
X121642Y82585D02*
Y80738D01*
X111462Y70558D01*
X109253D01*
X108917Y71158D01*
X109029Y71342D01*
X109178D01*
X109582Y71423D01*
X109926Y71652D01*
X121088Y82814D01*
X121642Y82585D01*
D02*
G37*
G36*
X120015Y71198D02*
X119870Y71024D01*
X119812Y70938D01*
X119763Y70852D01*
X119722Y70767D01*
X119691Y70682D01*
X119668Y70598D01*
X119655Y70515D01*
X119650Y70432D01*
X119150D01*
X119146Y70515D01*
X119132Y70598D01*
X119109Y70682D01*
X119078Y70767D01*
X119037Y70852D01*
X118988Y70938D01*
X118930Y71024D01*
X118862Y71110D01*
X118786Y71198D01*
X118700Y71286D01*
X120100D01*
X120015Y71198D01*
D02*
G37*
G36*
X135530Y70133D02*
X135472Y70067D01*
X135423Y69997D01*
X135383Y69922D01*
X135352Y69842D01*
X135331Y69757D01*
X135319Y69668D01*
X135317Y69573D01*
X135324Y69474D01*
X135340Y69370D01*
X135365Y69262D01*
X134158Y69970D01*
X134288Y70004D01*
X134627Y70118D01*
X134723Y70159D01*
X134891Y70246D01*
X134963Y70293D01*
X135026Y70341D01*
X135081Y70391D01*
X135530Y70133D01*
D02*
G37*
G36*
X107702Y70114D02*
X107876Y69971D01*
X107963Y69912D01*
X108048Y69863D01*
X108133Y69822D01*
X108218Y69791D01*
X108302Y69768D01*
X108385Y69754D01*
X108468Y69750D01*
Y69250D01*
X108385Y69245D01*
X108302Y69232D01*
X108218Y69209D01*
X108133Y69178D01*
X108048Y69138D01*
X107963Y69088D01*
X107876Y69029D01*
X107790Y68962D01*
X107702Y68885D01*
X107614Y68800D01*
Y70200D01*
X107702Y70114D01*
D02*
G37*
G36*
X12350Y69449D02*
X12351Y69324D01*
X12386Y68845D01*
X12402Y68730D01*
X12466Y68396D01*
X12494Y68289D01*
X11362Y69014D01*
X11455Y69035D01*
X11538Y69063D01*
X11611Y69099D01*
X11674Y69143D01*
X11728Y69195D01*
X11772Y69256D01*
X11806Y69323D01*
X11830Y69399D01*
X11845Y69483D01*
X11850Y69575D01*
X12350Y69449D01*
D02*
G37*
G36*
X105246Y68203D02*
X105309Y68119D01*
X105376Y68044D01*
X105446Y67979D01*
X105518Y67924D01*
X105594Y67880D01*
X105672Y67845D01*
X105754Y67820D01*
X105838Y67805D01*
X105925Y67800D01*
X105799Y67300D01*
X105724Y67296D01*
X105645Y67286D01*
X105562Y67267D01*
X105474Y67242D01*
X105381Y67209D01*
X105183Y67122D01*
X105078Y67068D01*
X104854Y66938D01*
X105185Y68298D01*
X105246Y68203D01*
D02*
G37*
G36*
X12448Y65622D02*
X12461Y65539D01*
X12484Y65455D01*
X12515Y65370D01*
X12556Y65285D01*
X12605Y65200D01*
X12664Y65113D01*
X12731Y65026D01*
X12808Y64939D01*
X12893Y64851D01*
X11493D01*
X11579Y64939D01*
X11723Y65113D01*
X11781Y65200D01*
X11831Y65285D01*
X11871Y65370D01*
X11903Y65455D01*
X11925Y65539D01*
X11939Y65622D01*
X11943Y65705D01*
X12443D01*
X12448Y65622D01*
D02*
G37*
G36*
X129230Y63130D02*
X129298Y63081D01*
X129374Y63037D01*
X129456Y63000D01*
X129544Y62968D01*
X129640Y62943D01*
X129742Y62923D01*
X129851Y62909D01*
X129967Y62902D01*
X130090Y62900D01*
X129100Y61910D01*
X129098Y62033D01*
X129077Y62258D01*
X129057Y62360D01*
X129032Y62456D01*
X129000Y62544D01*
X128963Y62626D01*
X128919Y62702D01*
X128870Y62770D01*
X128814Y62832D01*
X129168Y63186D01*
X129230Y63130D01*
D02*
G37*
G36*
X191528Y62952D02*
X191706Y62852D01*
X191924Y62765D01*
X192182Y62690D01*
X192480Y62628D01*
X192818Y62578D01*
X193614Y62514D01*
X194570Y62500D01*
X191600Y59530D01*
X191599Y60028D01*
X191522Y61282D01*
X191472Y61620D01*
X191410Y61918D01*
X191335Y62176D01*
X191248Y62394D01*
X191148Y62572D01*
X191036Y62710D01*
X191390Y63064D01*
X191528Y62952D01*
D02*
G37*
G36*
X181528D02*
X181706Y62852D01*
X181924Y62765D01*
X182182Y62690D01*
X182480Y62628D01*
X182818Y62578D01*
X183614Y62514D01*
X184570Y62500D01*
X181600Y59530D01*
X181599Y60028D01*
X181522Y61282D01*
X181472Y61620D01*
X181410Y61918D01*
X181335Y62176D01*
X181248Y62394D01*
X181148Y62572D01*
X181036Y62710D01*
X181390Y63064D01*
X181528Y62952D01*
D02*
G37*
G36*
X89002Y57015D02*
X89176Y56871D01*
X89262Y56812D01*
X89348Y56762D01*
X89433Y56722D01*
X89518Y56691D01*
X89602Y56668D01*
X89685Y56655D01*
X89768Y56650D01*
Y56150D01*
X89685Y56146D01*
X89602Y56132D01*
X89518Y56109D01*
X89433Y56078D01*
X89348Y56037D01*
X89262Y55988D01*
X89176Y55929D01*
X89090Y55862D01*
X89002Y55786D01*
X88914Y55700D01*
Y57100D01*
X89002Y57015D01*
D02*
G37*
G36*
X95902Y52014D02*
X96076Y51871D01*
X96162Y51812D01*
X96248Y51762D01*
X96333Y51722D01*
X96418Y51691D01*
X96502Y51668D01*
X96585Y51654D01*
X96668Y51650D01*
Y51150D01*
X96585Y51145D01*
X96502Y51132D01*
X96418Y51109D01*
X96333Y51078D01*
X96248Y51038D01*
X96162Y50988D01*
X96076Y50929D01*
X95990Y50862D01*
X95902Y50785D01*
X95814Y50700D01*
Y52100D01*
X95902Y52014D01*
D02*
G37*
G36*
X90277Y38523D02*
X90216Y38457D01*
X90163Y38386D01*
X90116Y38312D01*
X90078Y38234D01*
X90046Y38151D01*
X90022Y38065D01*
X90004Y37975D01*
X89995Y37881D01*
X89992Y37782D01*
X89997Y37680D01*
X89080Y38597D01*
X89182Y38592D01*
X89281Y38595D01*
X89375Y38604D01*
X89465Y38622D01*
X89552Y38646D01*
X89634Y38677D01*
X89712Y38716D01*
X89786Y38763D01*
X89857Y38816D01*
X89923Y38877D01*
X90277Y38523D01*
D02*
G37*
G36*
X151507Y23261D02*
X151576Y23212D01*
X151651Y23168D01*
X151733Y23131D01*
X151822Y23099D01*
X151918Y23074D01*
X152020Y23054D01*
X152129Y23040D01*
X152245Y23033D01*
X152367Y23031D01*
X151377Y22041D01*
X151376Y22163D01*
X151355Y22388D01*
X151335Y22491D01*
X151309Y22587D01*
X151278Y22675D01*
X151240Y22757D01*
X151197Y22833D01*
X151147Y22901D01*
X151092Y22963D01*
X151445Y23317D01*
X151507Y23261D01*
D02*
G37*
G36*
X87247Y89000D02*
X87151Y88998D01*
X87057Y88988D01*
X86967Y88972D01*
X86879Y88949D01*
X86795Y88919D01*
X86714Y88882D01*
X86635Y88838D01*
X86560Y88788D01*
X86488Y88730D01*
X86418Y88666D01*
X85923Y89161D01*
X85988Y89230D01*
X86045Y89302D01*
X86096Y89378D01*
X86140Y89456D01*
X86176Y89538D01*
X86206Y89622D01*
X86229Y89710D01*
X86246Y89800D01*
X86255Y89894D01*
X86257Y89990D01*
X87247Y89000D01*
D02*
G37*
G36*
X71934Y82539D02*
X71870Y82470D01*
X71812Y82398D01*
X71762Y82322D01*
X71718Y82244D01*
X71681Y82162D01*
X71651Y82078D01*
X71628Y81990D01*
X71612Y81900D01*
X71602Y81806D01*
X71600Y81710D01*
X70610Y82700D01*
X70706Y82702D01*
X70800Y82712D01*
X70890Y82728D01*
X70978Y82751D01*
X71062Y82781D01*
X71144Y82818D01*
X71222Y82862D01*
X71298Y82912D01*
X71370Y82970D01*
X71439Y83034D01*
X71934Y82539D01*
D02*
G37*
G36*
X128927Y40080D02*
X128796Y40033D01*
X128361Y39846D01*
X128274Y39800D01*
X128128Y39706D01*
X128068Y39660D01*
X128017Y39613D01*
X127532Y39835D01*
X127591Y39902D01*
X127640Y39972D01*
X127679Y40047D01*
X127707Y40125D01*
X127725Y40207D01*
X127733Y40294D01*
X127731Y40384D01*
X127718Y40479D01*
X127695Y40577D01*
X127662Y40680D01*
X128927Y40080D01*
D02*
G37*
G36*
X125782Y37379D02*
X125727Y37317D01*
X125678Y37248D01*
X125634Y37173D01*
X125596Y37091D01*
X125565Y37002D01*
X125539Y36906D01*
X125520Y36804D01*
X125506Y36695D01*
X125498Y36579D01*
X125497Y36457D01*
X124507Y37446D01*
X124629Y37448D01*
X124854Y37470D01*
X124957Y37489D01*
X125052Y37515D01*
X125141Y37546D01*
X125223Y37584D01*
X125299Y37627D01*
X125367Y37677D01*
X125429Y37732D01*
X125782Y37379D01*
D02*
G37*
D10*
X106635Y81560D02*
Y85900D01*
X106685Y85950D01*
X88200Y56400D02*
X92553D01*
X100312Y64159D02*
Y70912D01*
X92553Y56400D02*
X100312Y64159D01*
X90100Y38700D02*
Y52128D01*
X101858Y63886D02*
Y70031D01*
X90100Y52128D02*
X101858Y63886D01*
X100478Y51400D02*
X119400Y70322D01*
X95100Y51400D02*
X100478D01*
X135176Y64000D02*
X180100D01*
X184600Y59500D01*
X135331Y65400D02*
X188700D01*
X194600Y59500D01*
X104225Y79150D02*
X106635Y81560D01*
X92294Y79150D02*
X104225D01*
X90948Y77804D02*
X92294Y79150D01*
X104639Y78150D02*
X111901Y85412D01*
Y85712D01*
X92708Y78150D02*
X104639D01*
X91362Y76804D02*
X92708Y78150D01*
X132900Y89316D02*
Y99400D01*
X127150Y83566D02*
X132900Y89316D01*
X89000Y37600D02*
X90100Y38700D01*
X99700Y116286D02*
Y123000D01*
Y116286D02*
X109465Y106520D01*
X99700Y126850D02*
Y126900D01*
Y126850D02*
X102050Y124500D01*
Y115350D02*
Y124500D01*
X97100Y117189D02*
X108989Y105300D01*
X97100Y117189D02*
Y123100D01*
X109465Y106520D02*
X122551D01*
X138700Y89500D02*
Y98200D01*
X134000Y84800D02*
X138700Y89500D01*
X128600Y40550D02*
Y41025D01*
X140379Y31721D02*
X147559Y24541D01*
X149867D02*
X152377Y22031D01*
X147559Y24541D02*
X149867D01*
X140379Y31721D02*
Y56945D01*
X100312Y70912D02*
X104350Y74950D01*
X105777Y73950D02*
X109209D01*
X101858Y70031D02*
X105777Y73950D01*
X104350Y74950D02*
X108794D01*
X109178Y72400D02*
X121700Y84922D01*
X107686Y72400D02*
X109178D01*
X120090Y127824D02*
X124947D01*
X98220Y135750D02*
X112164D01*
X120090Y127824D01*
X119400Y70322D02*
Y72000D01*
X124497Y36446D02*
X128600Y40550D01*
X108200Y109200D02*
X127093D01*
X102050Y115350D02*
X108200Y109200D01*
X89350Y126875D02*
X91650Y129175D01*
X89350Y117972D02*
Y126875D01*
X91350Y126025D02*
X97156Y131831D01*
X90350Y126439D02*
X92650Y128739D01*
Y128765D01*
X90350Y120827D02*
Y126439D01*
X91650Y129175D02*
Y129180D01*
X98220Y135750D01*
X92650Y128765D02*
X97484Y133600D01*
X100700D01*
X91350Y121383D02*
Y126025D01*
Y121383D02*
X111350Y101383D01*
X90350Y120827D02*
X110250Y100927D01*
X87378Y116000D02*
X89350Y117972D01*
X122700Y84772D02*
X127000Y89072D01*
Y95835D01*
X126100Y96735D02*
X127000Y95835D01*
X128000Y88658D02*
Y96767D01*
X127200Y97566D02*
X128000Y96767D01*
X123700Y84358D02*
X128000Y88658D01*
X126100Y96735D02*
Y101416D01*
X122216Y105300D02*
X126100Y101416D01*
X136560Y91561D02*
Y96200D01*
X127150Y70174D02*
Y83566D01*
X129350Y82937D02*
X137582Y91169D01*
X129350Y71381D02*
Y82937D01*
X124950Y84194D02*
X129100Y88344D01*
X123700Y79886D02*
Y84358D01*
X128250Y70926D02*
Y83251D01*
X130900Y88730D02*
Y101221D01*
X129100Y88344D02*
Y98750D01*
X126050Y68708D02*
Y83880D01*
X124950Y67050D02*
Y84194D01*
X126050Y83880D02*
X130900Y88730D01*
X128250Y83251D02*
X136560Y91561D01*
X137582Y91169D02*
Y96635D01*
X129050Y98800D02*
X129100Y98750D01*
X127200Y97566D02*
Y101872D01*
X122551Y106520D02*
X127200Y101872D01*
X129860Y102260D02*
X130900Y101221D01*
X122700Y80300D02*
Y84772D01*
X111900Y69500D02*
X122700Y80300D01*
X106900Y69500D02*
X111900D01*
X111364Y67550D02*
X123700Y79886D01*
X104562Y67550D02*
X111364D01*
X124950Y67050D02*
X130100Y61900D01*
X92922Y76950D02*
X105650D01*
X72144Y76804D02*
X91362D01*
X92190Y74804D02*
X93336Y75950D01*
X72558Y75804D02*
X91776D01*
X92922Y76950D01*
X66078Y77804D02*
X90948D01*
X73352Y74804D02*
X92190D01*
X93336Y75950D02*
X107319D01*
X138629Y98300D02*
X138700Y98371D01*
X130100Y110325D02*
X140379Y100046D01*
Y81406D02*
Y100046D01*
X138443Y79470D02*
X140379Y81406D01*
X138700Y98371D02*
Y100098D01*
X141513Y76469D02*
Y100467D01*
X134400Y69356D02*
X141513Y76469D01*
X131408Y110572D02*
X141513Y100467D01*
X125222Y113577D02*
X138700Y100098D01*
X136850Y97366D02*
Y99219D01*
Y97366D02*
X137582Y96635D01*
X136850Y99219D02*
X136900Y99269D01*
X135850Y96910D02*
Y98925D01*
Y96910D02*
X136560Y96200D01*
X127425Y107350D02*
X135850Y98925D01*
X136807Y99431D02*
X136900Y99269D01*
X136650Y99643D02*
X136807Y99431D01*
X127093Y109200D02*
X136518Y99775D01*
X136650Y99643D01*
X125300Y107350D02*
X127425D01*
X134400Y69000D02*
Y69356D01*
X11528Y68028D02*
X12100Y68600D01*
Y70500D01*
X16750Y75150D01*
X12469Y74150D02*
Y75986D01*
X14037Y77554D01*
X15049Y76091D02*
X16277D01*
X14762Y75804D02*
X15049Y76091D01*
X42923Y77554D02*
X44327Y76150D01*
X14037Y77554D02*
X42923D01*
X44327Y76150D02*
X64424D01*
X70904Y74150D02*
X72558Y75804D01*
X16277Y76091D02*
X16336Y76150D01*
X70490Y75150D02*
X72144Y76804D01*
X16750Y75150D02*
X42499D01*
X42085Y74150D02*
X43084Y73150D01*
X42913Y76150D02*
X43913Y75150D01*
X43499Y74150D02*
X70904D01*
X71698Y73150D02*
X73352Y74804D01*
X16336Y76150D02*
X42913D01*
X42499Y75150D02*
X43499Y74150D01*
X43084Y73150D02*
X71698D01*
X12193Y65793D02*
X20550Y74150D01*
X64424Y76150D02*
X66078Y77804D01*
X43913Y75150D02*
X70490D01*
X20550Y74150D02*
X42085D01*
X12193Y64137D02*
Y65793D01*
X104325Y67787D02*
X104562Y67550D01*
X109209Y73950D02*
X120550Y85291D01*
X108794Y74950D02*
X119550Y85706D01*
X107319Y75950D02*
X117099Y85729D01*
X105650Y76950D02*
X114500Y85800D01*
X121700Y84922D02*
Y95600D01*
X119550Y85706D02*
Y90156D01*
X120550Y85291D02*
Y92250D01*
X115000Y97800D02*
X120550Y92250D01*
X113200Y96506D02*
X119550Y90156D01*
X127150Y70174D02*
X140379Y56945D01*
X126050Y68708D02*
X132770Y61988D01*
X129350Y71381D02*
X135331Y65400D01*
X128250Y70926D02*
X135176Y64000D01*
X119200Y98100D02*
X121700Y95600D01*
X115000Y97800D02*
Y99150D01*
X115127Y86427D02*
Y86497D01*
X117726Y86498D02*
Y86586D01*
X113136Y100962D02*
X113200Y100898D01*
Y96506D02*
Y100898D01*
X112400Y86500D02*
Y92544D01*
X91739Y111639D02*
X97983D01*
X87378Y116000D02*
X91739Y111639D01*
X85800Y116000D02*
X87378D01*
X108989Y105300D02*
X122216D01*
X97983Y111639D02*
X109150Y100472D01*
X111350Y96705D02*
Y101383D01*
X110250Y96250D02*
Y100927D01*
X109150Y95794D02*
Y100472D01*
X85800Y116000D02*
X85800Y116000D01*
X146224Y118650D02*
X151974Y112900D01*
X152400D01*
X137476Y118650D02*
X146224D01*
X117814Y86586D02*
X117900Y86672D01*
Y90155D01*
X115200Y86500D02*
Y91300D01*
X111350Y96705D02*
X117900Y90155D01*
X110250Y96250D02*
X115200Y91300D01*
X109150Y95794D02*
X112400Y92544D01*
X131408Y110572D02*
Y115135D01*
X130100Y110325D02*
Y112573D01*
X133512Y114623D02*
Y114686D01*
X131408Y115135D02*
X135516Y119243D01*
X133979Y126614D02*
X135516Y125077D01*
X131182Y126614D02*
X133979D01*
X135516Y119243D02*
Y125077D01*
X133512Y114686D02*
X137476Y118650D01*
X125723Y116800D02*
X125873D01*
X130100Y112573D01*
X132770Y61937D02*
Y61988D01*
D14*
X139600Y116800D02*
X144724D01*
X125222Y113577D02*
Y113688D01*
X133698Y110898D02*
X139600Y116800D01*
D18*
X102084Y80900D02*
X103500D01*
X82100Y100884D02*
X102084Y80900D01*
X82100Y100884D02*
Y123706D01*
X70600Y81700D02*
X72561Y83661D01*
X80918D01*
X87257Y90000D01*
D120*
X194600Y59500D02*
D03*
X184600D02*
D03*
X174600D02*
D03*
D122*
X47900Y80963D02*
D03*
X55648Y8963D02*
D03*
D125*
X130486Y5079D02*
D03*
X96431D02*
D03*
D126*
X130486Y20827D02*
D03*
X96431D02*
D03*
D127*
X106685Y85950D02*
D03*
X104949Y36500D02*
D03*
X119400Y72000D02*
D03*
X95100Y51400D02*
D03*
X88200Y56400D02*
D03*
X83513Y39354D02*
D03*
X147218Y39788D02*
D03*
X103500Y80900D02*
D03*
X33000Y64700D02*
D03*
Y61200D02*
D03*
X49594Y57700D02*
D03*
X45959D02*
D03*
X89000Y37600D02*
D03*
X33000Y57700D02*
D03*
X31200Y72164D02*
D03*
X27100Y30700D02*
D03*
X99700Y123000D02*
D03*
Y126900D02*
D03*
X97100Y123100D02*
D03*
X144650Y127824D02*
D03*
X154760Y120747D02*
D03*
X134000Y84800D02*
D03*
X124900Y89800D02*
D03*
X128600Y41025D02*
D03*
X144650Y30192D02*
D03*
X152377Y22031D02*
D03*
X116758Y52206D02*
D03*
X112400Y48121D02*
D03*
X115508Y45100D02*
D03*
X119754Y52206D02*
D03*
Y49191D02*
D03*
X112443Y45207D02*
D03*
X106900Y69500D02*
D03*
X107000Y72200D02*
D03*
X67100Y123500D02*
D03*
X73273Y120327D02*
D03*
X64100Y123500D02*
D03*
Y120500D02*
D03*
X67100Y126500D02*
D03*
X64100D02*
D03*
X70100D02*
D03*
X76100Y120500D02*
D03*
X93327Y134071D02*
D03*
X84300Y101300D02*
D03*
X162501Y103673D02*
D03*
X162394Y110970D02*
D03*
X71287Y66590D02*
D03*
X120400Y135900D02*
D03*
X125200Y133800D02*
D03*
X148100Y6500D02*
D03*
Y3500D02*
D03*
X145100Y6500D02*
D03*
Y3500D02*
D03*
X142100Y6500D02*
D03*
Y3500D02*
D03*
X139100Y6500D02*
D03*
Y3500D02*
D03*
X62737Y66423D02*
D03*
X62700Y70665D02*
D03*
X79019Y53700D02*
D03*
X78000Y60328D02*
D03*
X74497Y56820D02*
D03*
X64100Y39500D02*
D03*
X61100D02*
D03*
X58100D02*
D03*
X94454Y45207D02*
D03*
X94515Y48500D02*
D03*
X74600Y30900D02*
D03*
Y27300D02*
D03*
X78000D02*
D03*
Y30900D02*
D03*
X124947Y127824D02*
D03*
X60422Y99500D02*
D03*
X57421D02*
D03*
X54422D02*
D03*
X144724Y116800D02*
D03*
X124497Y36446D02*
D03*
X131322Y39927D02*
D03*
X21861Y33229D02*
D03*
X24600Y33200D02*
D03*
X76100Y105500D02*
D03*
Y102500D02*
D03*
Y99500D02*
D03*
Y96500D02*
D03*
X121100Y9500D02*
D03*
Y6500D02*
D03*
Y3500D02*
D03*
X118100Y9500D02*
D03*
Y6500D02*
D03*
Y3500D02*
D03*
X115100Y9500D02*
D03*
Y6500D02*
D03*
Y3500D02*
D03*
X112100Y9500D02*
D03*
Y6500D02*
D03*
Y3500D02*
D03*
X109100Y9500D02*
D03*
Y6500D02*
D03*
Y3500D02*
D03*
X106100Y9500D02*
D03*
Y6500D02*
D03*
Y3500D02*
D03*
X46100Y21500D02*
D03*
Y18500D02*
D03*
Y15500D02*
D03*
Y12500D02*
D03*
Y9500D02*
D03*
Y6500D02*
D03*
Y3500D02*
D03*
X43100Y21500D02*
D03*
Y18500D02*
D03*
Y15500D02*
D03*
Y12500D02*
D03*
Y9500D02*
D03*
Y6500D02*
D03*
Y3500D02*
D03*
X40100Y21500D02*
D03*
Y18500D02*
D03*
Y15500D02*
D03*
Y12500D02*
D03*
Y9500D02*
D03*
Y6500D02*
D03*
Y3500D02*
D03*
X13100Y54500D02*
D03*
Y51500D02*
D03*
Y48500D02*
D03*
Y45500D02*
D03*
X7100Y87500D02*
D03*
Y84500D02*
D03*
Y81500D02*
D03*
Y78500D02*
D03*
Y75500D02*
D03*
X4100Y87500D02*
D03*
Y84500D02*
D03*
Y81500D02*
D03*
Y78500D02*
D03*
Y75500D02*
D03*
X181100Y123500D02*
D03*
Y120500D02*
D03*
Y117500D02*
D03*
Y114500D02*
D03*
Y111500D02*
D03*
Y108500D02*
D03*
Y105500D02*
D03*
Y102500D02*
D03*
Y99500D02*
D03*
Y96500D02*
D03*
Y93500D02*
D03*
Y90500D02*
D03*
Y87500D02*
D03*
Y84500D02*
D03*
Y81500D02*
D03*
Y78500D02*
D03*
X178100Y123500D02*
D03*
Y120500D02*
D03*
Y117500D02*
D03*
Y114500D02*
D03*
Y111500D02*
D03*
Y108500D02*
D03*
Y105500D02*
D03*
Y102500D02*
D03*
Y99500D02*
D03*
Y96500D02*
D03*
Y93500D02*
D03*
Y90500D02*
D03*
Y87500D02*
D03*
Y84500D02*
D03*
Y81500D02*
D03*
Y78500D02*
D03*
X175100Y123500D02*
D03*
Y120500D02*
D03*
Y117500D02*
D03*
Y114500D02*
D03*
Y111500D02*
D03*
Y108500D02*
D03*
Y105500D02*
D03*
Y102500D02*
D03*
Y99500D02*
D03*
Y96500D02*
D03*
Y93500D02*
D03*
Y90500D02*
D03*
Y87500D02*
D03*
Y84500D02*
D03*
Y81500D02*
D03*
Y78500D02*
D03*
X172100Y123500D02*
D03*
Y120500D02*
D03*
Y117500D02*
D03*
Y114500D02*
D03*
Y111500D02*
D03*
Y108500D02*
D03*
Y105500D02*
D03*
Y102500D02*
D03*
Y99500D02*
D03*
Y96500D02*
D03*
Y93500D02*
D03*
Y90500D02*
D03*
Y87500D02*
D03*
Y84500D02*
D03*
Y81500D02*
D03*
Y78500D02*
D03*
X199100Y36500D02*
D03*
Y33500D02*
D03*
Y30500D02*
D03*
Y27500D02*
D03*
X196100Y36500D02*
D03*
Y33500D02*
D03*
Y30500D02*
D03*
Y27500D02*
D03*
X193100Y36500D02*
D03*
Y33500D02*
D03*
Y30500D02*
D03*
Y27500D02*
D03*
X190100Y36500D02*
D03*
Y33500D02*
D03*
Y30500D02*
D03*
Y27500D02*
D03*
X187100Y36500D02*
D03*
Y33500D02*
D03*
Y30500D02*
D03*
Y27500D02*
D03*
X184100Y36500D02*
D03*
Y33500D02*
D03*
Y30500D02*
D03*
Y27500D02*
D03*
X181100Y36500D02*
D03*
Y33500D02*
D03*
Y30500D02*
D03*
Y27500D02*
D03*
X178100Y36500D02*
D03*
Y33500D02*
D03*
Y30500D02*
D03*
Y27500D02*
D03*
X175100Y36500D02*
D03*
Y33500D02*
D03*
Y30500D02*
D03*
Y27500D02*
D03*
X109376Y114746D02*
D03*
X112376Y111747D02*
D03*
X109376D02*
D03*
X12469Y74150D02*
D03*
X12193Y64137D02*
D03*
X14762Y75804D02*
D03*
X11528Y68028D02*
D03*
X100700Y133600D02*
D03*
X98209Y131850D02*
D03*
X129050Y98800D02*
D03*
X132900Y99400D02*
D03*
X136200Y44400D02*
D03*
Y47800D02*
D03*
X143149Y47778D02*
D03*
X20600Y54100D02*
D03*
X44400Y49900D02*
D03*
X41000D02*
D03*
X123119Y69000D02*
D03*
X108789Y64709D02*
D03*
X112800Y73200D02*
D03*
X116600Y77300D02*
D03*
X119500Y80200D02*
D03*
X123189Y76900D02*
D03*
X152377Y90000D02*
D03*
X99557Y73081D02*
D03*
X104884Y30500D02*
D03*
X87300Y83300D02*
D03*
X138629Y98300D02*
D03*
X82100Y123706D02*
D03*
X134500Y72800D02*
D03*
X134400Y69000D02*
D03*
X139067D02*
D03*
X70600Y81700D02*
D03*
X111901Y85712D02*
D03*
X104325Y67787D02*
D03*
X117099Y85729D02*
D03*
X114500Y85800D02*
D03*
X119200Y98100D02*
D03*
X113136Y100962D02*
D03*
X115000Y99150D02*
D03*
X138443Y79470D02*
D03*
X85800Y116000D02*
D03*
X87257Y90000D02*
D03*
X131290Y55869D02*
D03*
X147684D02*
D03*
X139067Y61937D02*
D03*
X84300Y104800D02*
D03*
X100920Y103105D02*
D03*
X98750Y106551D02*
D03*
X95970Y106637D02*
D03*
X95947Y98205D02*
D03*
X98600Y98200D02*
D03*
X101400D02*
D03*
X106288Y99562D02*
D03*
X112474Y35489D02*
D03*
X117200Y30000D02*
D03*
X121376Y111747D02*
D03*
X115376D02*
D03*
X118376D02*
D03*
X112376Y114746D02*
D03*
X115376D02*
D03*
X118376D02*
D03*
X121376D02*
D03*
Y117746D02*
D03*
X118376D02*
D03*
X115376D02*
D03*
X112376D02*
D03*
X109376D02*
D03*
Y120747D02*
D03*
X112376D02*
D03*
X115376D02*
D03*
X118376D02*
D03*
X121376D02*
D03*
Y123747D02*
D03*
X118376D02*
D03*
X115376D02*
D03*
X112376D02*
D03*
X109376D02*
D03*
X125300Y107350D02*
D03*
X125222Y113688D02*
D03*
X131200Y126614D02*
D03*
X129860Y102260D02*
D03*
X133698Y110898D02*
D03*
X133512Y114623D02*
D03*
X125723Y116800D02*
D03*
X152400Y112900D02*
D03*
X132770Y61937D02*
D03*
X130100Y61900D02*
D03*
D128*
X95544Y63189D02*
D03*
M02*
