G04*
G04 #@! TF.GenerationSoftware,Altium Limited,Altium Designer,20.2.6 (244)*
G04*
G04 Layer_Color=65535*
%FSLAX25Y25*%
%MOIN*%
G70*
G04*
G04 #@! TF.SameCoordinates,568CAEEB-50F0-44EC-8363-EC95FF72310B*
G04*
G04*
G04 #@! TF.FilePolarity,Positive*
G04*
G01*
G75*
%ADD10C,0.00500*%
%ADD11C,0.01968*%
%ADD12C,0.01000*%
%ADD13C,0.00984*%
%ADD14C,0.00600*%
%ADD15C,0.00787*%
%ADD16C,0.00800*%
%ADD17C,0.00100*%
%ADD18C,0.00700*%
%ADD19C,0.00394*%
G36*
X94950Y128800D02*
X94600D01*
Y130600D01*
X94950D01*
Y128800D01*
D02*
G37*
G36*
X94000D02*
X93650D01*
Y130600D01*
X94000D01*
Y128800D01*
D02*
G37*
G36*
X138394Y128429D02*
X139094D01*
Y127929D01*
X138394D01*
Y127129D01*
X137994D01*
Y129229D01*
X138394D01*
Y128429D01*
D02*
G37*
G36*
X139194Y125277D02*
X137894D01*
X137894Y125627D01*
X139194D01*
X139194Y125277D01*
D02*
G37*
G36*
X139194Y123727D02*
X137894D01*
Y124077D01*
X139194D01*
Y123727D01*
D02*
G37*
G36*
X94954Y118856D02*
X93654D01*
Y119206D01*
X94954D01*
Y118856D01*
D02*
G37*
G36*
X139078Y118665D02*
X137778D01*
Y119015D01*
X139078D01*
Y118665D01*
D02*
G37*
G36*
X94954Y117306D02*
X93654D01*
X93654Y117656D01*
X94954D01*
X94954Y117306D01*
D02*
G37*
G36*
X139078Y117115D02*
X137778D01*
X137778Y117465D01*
X139078D01*
X139078Y117115D01*
D02*
G37*
G36*
X94954Y115356D02*
X93654D01*
Y115706D01*
X94954D01*
Y115356D01*
D02*
G37*
G36*
X139078Y115150D02*
X137778D01*
Y115500D01*
X139078D01*
Y115150D01*
D02*
G37*
G36*
X94954Y113806D02*
X93654D01*
X93654Y114156D01*
X94954D01*
X94954Y113806D01*
D02*
G37*
G36*
X139078Y113600D02*
X137778D01*
X137778Y113950D01*
X139078D01*
X139078Y113600D01*
D02*
G37*
G36*
Y111650D02*
X137778D01*
Y112000D01*
X139078D01*
Y111650D01*
D02*
G37*
G36*
Y110100D02*
X137778D01*
X137778Y110450D01*
X139078D01*
X139078Y110100D01*
D02*
G37*
G36*
X139046Y108150D02*
X137746D01*
Y108500D01*
X139046D01*
Y108150D01*
D02*
G37*
G36*
Y106600D02*
X137746D01*
X137746Y106950D01*
X139046D01*
X139046Y106600D01*
D02*
G37*
G36*
Y104650D02*
X137746D01*
Y105000D01*
X139046D01*
Y104650D01*
D02*
G37*
G36*
Y103100D02*
X137746D01*
X137746Y103450D01*
X139046D01*
X139046Y103100D01*
D02*
G37*
G36*
X139078Y101118D02*
X137778D01*
Y101468D01*
X139078D01*
Y101118D01*
D02*
G37*
G36*
Y99568D02*
X137778D01*
X137778Y99918D01*
X139078D01*
X139078Y99568D01*
D02*
G37*
G36*
X107125Y96121D02*
X106775D01*
Y97921D01*
X107125D01*
Y96121D01*
D02*
G37*
G36*
X106175D02*
X105825D01*
Y97921D01*
X106175D01*
Y96121D01*
D02*
G37*
G36*
X132722Y94400D02*
X130922D01*
Y94750D01*
X132722D01*
Y94400D01*
D02*
G37*
G36*
X125800D02*
X124000D01*
Y94750D01*
X125800D01*
Y94400D01*
D02*
G37*
G36*
X107050Y93800D02*
X105750D01*
Y94150D01*
X107050D01*
Y93800D01*
D02*
G37*
G36*
X132722Y93450D02*
X130922D01*
Y93800D01*
X132722D01*
Y93450D01*
D02*
G37*
G36*
X129304D02*
X128954Y93450D01*
Y94750D01*
X129304Y94750D01*
Y93450D01*
D02*
G37*
G36*
X127753D02*
X127403D01*
Y94750D01*
X127753D01*
Y93450D01*
D02*
G37*
G36*
X125800D02*
X124000D01*
Y93800D01*
X125800D01*
Y93450D01*
D02*
G37*
G36*
X107050Y92250D02*
X105750D01*
X105750Y92600D01*
X107050D01*
X107050Y92250D01*
D02*
G37*
G36*
X96600Y88450D02*
X96000D01*
Y89650D01*
X94600D01*
Y90350D01*
X96000D01*
Y91550D01*
X96600D01*
Y88450D01*
D02*
G37*
G36*
X134250Y82800D02*
X132950D01*
Y83150D01*
X134250D01*
Y82800D01*
D02*
G37*
G36*
X99990Y82277D02*
X99640D01*
Y84077D01*
X99990D01*
Y82277D01*
D02*
G37*
G36*
X99040D02*
X98690D01*
Y84077D01*
X99040D01*
Y82277D01*
D02*
G37*
G36*
X92510D02*
X92160D01*
Y84077D01*
X92510D01*
Y82277D01*
D02*
G37*
G36*
X91560D02*
X91210D01*
Y84077D01*
X91560D01*
Y82277D01*
D02*
G37*
G36*
X134250Y81250D02*
X132950D01*
X132950Y81600D01*
X134250D01*
X134250Y81250D01*
D02*
G37*
G36*
X66250Y81159D02*
X65900D01*
Y82959D01*
X66250D01*
Y81159D01*
D02*
G37*
G36*
X65300D02*
X64950D01*
Y82959D01*
X65300D01*
Y81159D01*
D02*
G37*
G36*
X134250Y79300D02*
X132950D01*
Y79650D01*
X134250D01*
Y79300D01*
D02*
G37*
G36*
Y77750D02*
X132950D01*
X132950Y78100D01*
X134250D01*
X134250Y77750D01*
D02*
G37*
G36*
X122545Y76895D02*
X123745D01*
Y76295D01*
X120645D01*
Y76895D01*
X121845D01*
Y78295D01*
X122545D01*
Y76895D01*
D02*
G37*
G36*
X117028Y77695D02*
X115828D01*
Y76295D01*
X115128D01*
Y77695D01*
X113928D01*
Y78295D01*
X117028D01*
Y77695D01*
D02*
G37*
G36*
X39250Y69900D02*
X37950D01*
Y70250D01*
X39250D01*
Y69900D01*
D02*
G37*
G36*
X29850Y68800D02*
X29500D01*
Y70600D01*
X29850D01*
Y68800D01*
D02*
G37*
G36*
X28900D02*
X28550D01*
Y70600D01*
X28900D01*
Y68800D01*
D02*
G37*
G36*
X39250Y68350D02*
X37950D01*
X37950Y68700D01*
X39250D01*
X39250Y68350D01*
D02*
G37*
G36*
X29850Y65400D02*
X29500D01*
Y67200D01*
X29850D01*
Y65400D01*
D02*
G37*
G36*
X28900D02*
X28550D01*
Y67200D01*
X28900D01*
Y65400D01*
D02*
G37*
G36*
X126450Y64239D02*
X126100D01*
Y65539D01*
X126450D01*
Y64239D01*
D02*
G37*
G36*
X124900Y65539D02*
Y64239D01*
X124550Y64239D01*
Y65539D01*
X124900Y65539D01*
D02*
G37*
G36*
X111794Y64179D02*
X111444Y64179D01*
Y65479D01*
X111794Y65479D01*
Y64179D01*
D02*
G37*
G36*
X110244D02*
X109894D01*
Y65479D01*
X110244D01*
Y64179D01*
D02*
G37*
G36*
X105050Y62850D02*
X104700D01*
Y64150D01*
X105050D01*
Y62850D01*
D02*
G37*
G36*
X103500Y64150D02*
Y62850D01*
X103150Y62850D01*
Y64150D01*
X103500Y64150D01*
D02*
G37*
G36*
X29850Y62000D02*
X29500D01*
Y63800D01*
X29850D01*
Y62000D01*
D02*
G37*
G36*
X28900D02*
X28550D01*
Y63800D01*
X28900D01*
Y62000D01*
D02*
G37*
G36*
X67315Y61268D02*
X66965D01*
Y63068D01*
X67315D01*
Y61268D01*
D02*
G37*
G36*
X66365D02*
X66015D01*
Y63068D01*
X66365D01*
Y61268D01*
D02*
G37*
G36*
X37513Y60887D02*
X37163Y60887D01*
Y62187D01*
X37513Y62187D01*
Y60887D01*
D02*
G37*
G36*
X35963D02*
X35613D01*
Y62187D01*
X35963D01*
Y60887D01*
D02*
G37*
G36*
X147300Y60100D02*
X146950D01*
Y61900D01*
X147300D01*
Y60100D01*
D02*
G37*
G36*
X146350D02*
X146000D01*
Y61900D01*
X146350D01*
Y60100D01*
D02*
G37*
G36*
X29850Y58600D02*
X29500D01*
Y60400D01*
X29850D01*
Y58600D01*
D02*
G37*
G36*
X28900D02*
X28550D01*
Y60400D01*
X28900D01*
Y58600D01*
D02*
G37*
G36*
X82250Y57250D02*
X81900Y57250D01*
Y58550D01*
X82250Y58550D01*
Y57250D01*
D02*
G37*
G36*
X80700D02*
X80350D01*
Y58550D01*
X80700D01*
Y57250D01*
D02*
G37*
G36*
X56700Y55500D02*
X54900D01*
Y55850D01*
X56700D01*
Y55500D01*
D02*
G37*
G36*
X29850Y55200D02*
X29500D01*
Y57000D01*
X29850D01*
Y55200D01*
D02*
G37*
G36*
X28900D02*
X28550D01*
Y57000D01*
X28900D01*
Y55200D01*
D02*
G37*
G36*
X56700Y54550D02*
X54900D01*
Y54900D01*
X56700D01*
Y54550D01*
D02*
G37*
G36*
X61250Y54450D02*
X60900D01*
Y55750D01*
X61250D01*
Y54450D01*
D02*
G37*
G36*
X59700Y55750D02*
Y54450D01*
X59350Y54450D01*
Y55750D01*
X59700Y55750D01*
D02*
G37*
G36*
X29850Y46225D02*
X29500D01*
Y48025D01*
X29850D01*
Y46225D01*
D02*
G37*
G36*
X28900D02*
X28550D01*
Y48025D01*
X28900D01*
Y46225D01*
D02*
G37*
G36*
X63350Y43869D02*
X62050D01*
Y44219D01*
X63350D01*
Y43869D01*
D02*
G37*
G36*
X29850Y42825D02*
X29500D01*
Y44625D01*
X29850D01*
Y42825D01*
D02*
G37*
G36*
X28900D02*
X28550D01*
Y44625D01*
X28900D01*
Y42825D01*
D02*
G37*
G36*
X74230Y42599D02*
X73880D01*
Y44399D01*
X74230D01*
Y42599D01*
D02*
G37*
G36*
X73280D02*
X72930D01*
Y44399D01*
X73280D01*
Y42599D01*
D02*
G37*
G36*
X63350Y42319D02*
X62050D01*
X62050Y42669D01*
X63350D01*
X63350Y42319D01*
D02*
G37*
G36*
X88100Y42000D02*
X86300D01*
Y42350D01*
X88100D01*
Y42000D01*
D02*
G37*
G36*
X99450Y41050D02*
X99100Y41050D01*
Y42350D01*
X99450Y42350D01*
Y41050D01*
D02*
G37*
G36*
X97900D02*
X97550D01*
Y42350D01*
X97900D01*
Y41050D01*
D02*
G37*
G36*
X88100D02*
X86300D01*
Y41400D01*
X88100D01*
Y41050D01*
D02*
G37*
G36*
X29850Y39325D02*
X29500D01*
Y41125D01*
X29850D01*
Y39325D01*
D02*
G37*
G36*
X28900D02*
X28550D01*
Y41125D01*
X28900D01*
Y39325D01*
D02*
G37*
G36*
X74230Y39000D02*
X73880D01*
Y40800D01*
X74230D01*
Y39000D01*
D02*
G37*
G36*
X73280D02*
X72930D01*
Y40800D01*
X73280D01*
Y39000D01*
D02*
G37*
G36*
X29850Y35825D02*
X29500D01*
Y37625D01*
X29850D01*
Y35825D01*
D02*
G37*
G36*
X28900D02*
X28550D01*
Y37625D01*
X28900D01*
Y35825D01*
D02*
G37*
G36*
X60091Y34576D02*
X58791D01*
Y34926D01*
X60091D01*
Y34576D01*
D02*
G37*
G36*
X99457Y33161D02*
X99107Y33161D01*
Y34461D01*
X99457Y34461D01*
Y33161D01*
D02*
G37*
G36*
X97907D02*
X97557D01*
Y34461D01*
X97907D01*
Y33161D01*
D02*
G37*
G36*
X88150Y33150D02*
X87800Y33150D01*
Y34450D01*
X88150Y34450D01*
Y33150D01*
D02*
G37*
G36*
X86600D02*
X86250D01*
Y34450D01*
X86600D01*
Y33150D01*
D02*
G37*
G36*
X60091Y33026D02*
X58791D01*
X58791Y33376D01*
X60091D01*
X60091Y33026D01*
D02*
G37*
G36*
X135050Y32700D02*
X134700D01*
Y34500D01*
X135050D01*
Y32700D01*
D02*
G37*
G36*
X134100D02*
X133750D01*
Y34500D01*
X134100D01*
Y32700D01*
D02*
G37*
G36*
X148618Y32651D02*
X146818D01*
Y33001D01*
X148618D01*
Y32651D01*
D02*
G37*
G36*
X142579D02*
X140779D01*
Y33001D01*
X142579D01*
Y32651D01*
D02*
G37*
G36*
X29850Y32325D02*
X29500D01*
Y34125D01*
X29850D01*
Y32325D01*
D02*
G37*
G36*
X28900D02*
X28550D01*
Y34125D01*
X28900D01*
Y32325D01*
D02*
G37*
G36*
X109424Y31986D02*
X109074Y31986D01*
Y33286D01*
X109424Y33286D01*
Y31986D01*
D02*
G37*
G36*
X107874D02*
X107524D01*
Y33286D01*
X107874D01*
Y31986D01*
D02*
G37*
G36*
X124620Y31805D02*
X124270Y31805D01*
Y33105D01*
X124620Y33105D01*
Y31805D01*
D02*
G37*
G36*
X123070D02*
X122720D01*
Y33105D01*
X123070D01*
Y31805D01*
D02*
G37*
G36*
X121256D02*
X120906D01*
Y33105D01*
X121256D01*
Y31805D01*
D02*
G37*
G36*
X119706Y33105D02*
Y31805D01*
X119356Y31805D01*
Y33105D01*
X119706Y33105D01*
D02*
G37*
G36*
X148618Y31701D02*
X146818D01*
Y32051D01*
X148618D01*
Y31701D01*
D02*
G37*
G36*
X142579D02*
X140779D01*
Y32051D01*
X142579D01*
Y31701D01*
D02*
G37*
G36*
X95700Y31850D02*
X94900D01*
Y31150D01*
X94400D01*
Y31850D01*
X93600D01*
Y32250D01*
X95700D01*
Y31850D01*
D02*
G37*
G36*
X92240Y31832D02*
X91440D01*
Y31132D01*
X90940D01*
Y31832D01*
X90140D01*
Y32232D01*
X92240D01*
Y31832D01*
D02*
G37*
G36*
X60091Y31078D02*
X58791D01*
Y31428D01*
X60091D01*
Y31078D01*
D02*
G37*
G36*
Y29528D02*
X58791D01*
X58791Y29878D01*
X60091D01*
X60091Y29528D01*
D02*
G37*
G36*
X60070Y27800D02*
X58770D01*
X58770Y28150D01*
X60070D01*
X60070Y27800D01*
D02*
G37*
G36*
X89950Y26600D02*
X88650D01*
X88650Y26950D01*
X89950D01*
X89950Y26600D01*
D02*
G37*
G36*
X60070Y26250D02*
X58770D01*
Y26600D01*
X60070D01*
Y26250D01*
D02*
G37*
G36*
X89950Y25050D02*
X88650D01*
Y25400D01*
X89950D01*
Y25050D01*
D02*
G37*
G36*
Y23100D02*
X88650D01*
Y23450D01*
X89950D01*
Y23100D01*
D02*
G37*
G36*
X65900Y22213D02*
X64100D01*
Y22563D01*
X65900D01*
Y22213D01*
D02*
G37*
G36*
X62408Y22211D02*
X60608D01*
Y22561D01*
X62408D01*
Y22211D01*
D02*
G37*
G36*
X89950Y21550D02*
X88650D01*
X88650Y21900D01*
X89950D01*
X89950Y21550D01*
D02*
G37*
G36*
X65900Y21263D02*
X64100D01*
Y21613D01*
X65900D01*
Y21263D01*
D02*
G37*
G36*
X62408Y21261D02*
X60608D01*
Y21611D01*
X62408D01*
Y21261D01*
D02*
G37*
G36*
X153328Y17224D02*
X152978D01*
Y18524D01*
X153328D01*
Y17224D01*
D02*
G37*
G36*
X151778Y18524D02*
Y17224D01*
X151427Y17224D01*
Y18524D01*
X151778Y18524D01*
D02*
G37*
G36*
X63600Y6000D02*
X61800D01*
Y6350D01*
X63600D01*
Y6000D01*
D02*
G37*
G36*
Y5050D02*
X61800D01*
Y5400D01*
X63600D01*
Y5050D01*
D02*
G37*
G36*
X90856Y47943D02*
X91779D01*
Y47312D01*
X90856D01*
Y46400D01*
X90242D01*
Y47312D01*
X89320D01*
Y47943D01*
X90242D01*
Y48856D01*
X90856D01*
Y47943D01*
D02*
G37*
G36*
X133637Y128543D02*
X134559D01*
Y127912D01*
X133637D01*
Y127000D01*
X133023D01*
Y127912D01*
X132100D01*
Y128543D01*
X133023D01*
Y129456D01*
X133637D01*
Y128543D01*
D02*
G37*
G36*
X92447Y15743D02*
X93369D01*
Y15112D01*
X92447D01*
Y14200D01*
X91833D01*
Y15112D01*
X90910D01*
Y15743D01*
X91833D01*
Y16656D01*
X92447D01*
Y15743D01*
D02*
G37*
G36*
X73217Y91193D02*
X74140D01*
Y90562D01*
X73217D01*
Y89650D01*
X72603D01*
Y90562D01*
X71680D01*
Y91193D01*
X72603D01*
Y92106D01*
X73217D01*
Y91193D01*
D02*
G37*
G36*
X43745Y190772D02*
X43775D01*
X43808Y190770D01*
X43845Y190768D01*
X43885Y190762D01*
X43925Y190758D01*
X44012Y190745D01*
X44102Y190727D01*
X44190Y190705D01*
X44192D01*
X44200Y190702D01*
X44212Y190698D01*
X44227Y190692D01*
X44247Y190685D01*
X44270Y190677D01*
X44295Y190667D01*
X44320Y190657D01*
X44380Y190632D01*
X44442Y190603D01*
X44505Y190568D01*
X44563Y190530D01*
X44565D01*
X44570Y190525D01*
X44577Y190520D01*
X44587Y190513D01*
X44613Y190490D01*
X44647Y190463D01*
X44685Y190427D01*
X44722Y190387D01*
X44760Y190345D01*
X44795Y190297D01*
Y190295D01*
X44797Y190293D01*
X44802Y190285D01*
X44810Y190275D01*
X44815Y190262D01*
X44825Y190247D01*
X44842Y190213D01*
X44862Y190167D01*
X44885Y190115D01*
X44905Y190055D01*
X44922Y189990D01*
Y189988D01*
X44925Y189982D01*
X44927Y189972D01*
X44930Y189957D01*
X44932Y189943D01*
X44935Y189922D01*
X44940Y189898D01*
X44943Y189873D01*
X44947Y189842D01*
X44952Y189813D01*
X44958Y189743D01*
X44962Y189665D01*
X44965Y189580D01*
Y188655D01*
X42402D01*
Y189612D01*
X42405Y189640D01*
Y189673D01*
X42408Y189705D01*
X42412Y189780D01*
X42417Y189855D01*
X42427Y189927D01*
X42432Y189962D01*
X42440Y189992D01*
Y189995D01*
X42443Y190003D01*
X42445Y190015D01*
X42450Y190030D01*
X42455Y190050D01*
X42463Y190070D01*
X42472Y190095D01*
X42483Y190122D01*
X42507Y190182D01*
X42540Y190245D01*
X42577Y190310D01*
X42625Y190370D01*
X42627Y190373D01*
X42632Y190380D01*
X42643Y190390D01*
X42655Y190402D01*
X42672Y190420D01*
X42693Y190440D01*
X42717Y190460D01*
X42742Y190485D01*
X42772Y190507D01*
X42807Y190533D01*
X42843Y190558D01*
X42880Y190583D01*
X42922Y190608D01*
X42968Y190630D01*
X43062Y190673D01*
X43065D01*
X43075Y190677D01*
X43090Y190682D01*
X43110Y190688D01*
X43135Y190698D01*
X43165Y190705D01*
X43200Y190715D01*
X43238Y190725D01*
X43280Y190733D01*
X43327Y190743D01*
X43377Y190752D01*
X43430Y190760D01*
X43488Y190765D01*
X43545Y190770D01*
X43670Y190775D01*
X43672D01*
X43683D01*
X43697D01*
X43720D01*
X43745Y190772D01*
D02*
G37*
G36*
X44965Y187738D02*
X42955Y186392D01*
X44965D01*
Y186067D01*
X42402D01*
Y186415D01*
X44415Y187762D01*
X42402D01*
Y188087D01*
X44965D01*
Y187738D01*
D02*
G37*
G36*
X44613Y185567D02*
X44618Y185560D01*
X44630Y185545D01*
X44642Y185528D01*
X44660Y185505D01*
X44677Y185477D01*
X44697Y185445D01*
X44720Y185413D01*
X44745Y185375D01*
X44770Y185335D01*
X44818Y185248D01*
X44865Y185152D01*
X44908Y185053D01*
Y185050D01*
X44912Y185040D01*
X44918Y185028D01*
X44922Y185008D01*
X44930Y184983D01*
X44940Y184955D01*
X44947Y184923D01*
X44958Y184885D01*
X44967Y184845D01*
X44975Y184802D01*
X44985Y184757D01*
X44993Y184710D01*
X45002Y184613D01*
X45008Y184508D01*
Y184470D01*
X45005Y184445D01*
X45002Y184410D01*
X45000Y184372D01*
X44995Y184327D01*
X44987Y184280D01*
X44980Y184228D01*
X44967Y184175D01*
X44955Y184117D01*
X44940Y184057D01*
X44922Y183997D01*
X44900Y183938D01*
X44875Y183880D01*
X44847Y183820D01*
X44845Y183818D01*
X44840Y183808D01*
X44830Y183790D01*
X44818Y183770D01*
X44800Y183745D01*
X44780Y183715D01*
X44755Y183683D01*
X44727Y183648D01*
X44697Y183610D01*
X44662Y183572D01*
X44622Y183533D01*
X44583Y183495D01*
X44537Y183458D01*
X44488Y183420D01*
X44435Y183387D01*
X44380Y183355D01*
X44377Y183352D01*
X44365Y183347D01*
X44350Y183340D01*
X44325Y183330D01*
X44297Y183320D01*
X44262Y183305D01*
X44222Y183292D01*
X44180Y183277D01*
X44130Y183263D01*
X44077Y183250D01*
X44020Y183235D01*
X43960Y183225D01*
X43897Y183215D01*
X43832Y183207D01*
X43765Y183203D01*
X43695Y183200D01*
X43690D01*
X43677D01*
X43657D01*
X43633Y183203D01*
X43597Y183205D01*
X43560Y183207D01*
X43515Y183212D01*
X43468Y183220D01*
X43415Y183228D01*
X43360Y183238D01*
X43302Y183250D01*
X43242Y183265D01*
X43183Y183282D01*
X43120Y183305D01*
X43060Y183327D01*
X42997Y183355D01*
X42992Y183358D01*
X42983Y183362D01*
X42968Y183372D01*
X42945Y183385D01*
X42917Y183400D01*
X42887Y183420D01*
X42852Y183442D01*
X42815Y183470D01*
X42777Y183500D01*
X42737Y183535D01*
X42697Y183570D01*
X42658Y183613D01*
X42617Y183655D01*
X42580Y183703D01*
X42547Y183753D01*
X42515Y183805D01*
X42513Y183808D01*
X42507Y183818D01*
X42500Y183835D01*
X42490Y183858D01*
X42477Y183885D01*
X42465Y183917D01*
X42450Y183958D01*
X42435Y184000D01*
X42422Y184047D01*
X42408Y184100D01*
X42395Y184155D01*
X42382Y184215D01*
X42372Y184277D01*
X42365Y184343D01*
X42360Y184413D01*
X42358Y184483D01*
Y184510D01*
X42360Y184530D01*
Y184553D01*
X42362Y184582D01*
X42365Y184615D01*
X42370Y184650D01*
X42375Y184687D01*
X42380Y184728D01*
X42397Y184810D01*
X42420Y184897D01*
X42450Y184983D01*
Y184985D01*
X42455Y184993D01*
X42460Y185005D01*
X42467Y185020D01*
X42475Y185038D01*
X42487Y185060D01*
X42515Y185110D01*
X42550Y185168D01*
X42592Y185225D01*
X42643Y185283D01*
X42700Y185335D01*
X42702Y185337D01*
X42707Y185340D01*
X42717Y185347D01*
X42730Y185357D01*
X42745Y185368D01*
X42765Y185380D01*
X42788Y185392D01*
X42812Y185407D01*
X42840Y185425D01*
X42872Y185440D01*
X42908Y185455D01*
X42945Y185473D01*
X42985Y185487D01*
X43027Y185503D01*
X43072Y185518D01*
X43120Y185530D01*
X43202Y185225D01*
X43200D01*
X43195Y185222D01*
X43183Y185220D01*
X43170Y185215D01*
X43155Y185210D01*
X43135Y185203D01*
X43090Y185185D01*
X43042Y185165D01*
X42990Y185140D01*
X42940Y185113D01*
X42895Y185080D01*
X42893D01*
X42890Y185075D01*
X42877Y185065D01*
X42855Y185045D01*
X42830Y185018D01*
X42802Y184983D01*
X42772Y184940D01*
X42742Y184892D01*
X42715Y184835D01*
Y184833D01*
X42713Y184827D01*
X42707Y184820D01*
X42705Y184808D01*
X42700Y184792D01*
X42693Y184775D01*
X42687Y184755D01*
X42680Y184732D01*
X42670Y184680D01*
X42658Y184620D01*
X42650Y184553D01*
X42647Y184483D01*
Y184442D01*
X42650Y184423D01*
Y184400D01*
X42652Y184375D01*
X42658Y184345D01*
X42665Y184283D01*
X42677Y184215D01*
X42695Y184145D01*
X42720Y184080D01*
Y184078D01*
X42722Y184072D01*
X42727Y184065D01*
X42733Y184053D01*
X42740Y184037D01*
X42747Y184022D01*
X42770Y183983D01*
X42797Y183940D01*
X42827Y183895D01*
X42865Y183850D01*
X42908Y183808D01*
X42913Y183802D01*
X42927Y183790D01*
X42950Y183773D01*
X42983Y183750D01*
X43020Y183722D01*
X43062Y183697D01*
X43110Y183670D01*
X43160Y183648D01*
X43163D01*
X43170Y183642D01*
X43183Y183637D01*
X43202Y183633D01*
X43222Y183625D01*
X43250Y183617D01*
X43280Y183607D01*
X43312Y183600D01*
X43350Y183590D01*
X43390Y183580D01*
X43433Y183572D01*
X43477Y183565D01*
X43572Y183555D01*
X43675Y183550D01*
X43680D01*
X43690D01*
X43707D01*
X43733Y183553D01*
X43762D01*
X43795Y183557D01*
X43832Y183560D01*
X43875Y183565D01*
X43920Y183570D01*
X43965Y183580D01*
X44063Y183600D01*
X44157Y183630D01*
X44205Y183648D01*
X44250Y183668D01*
X44252Y183670D01*
X44260Y183672D01*
X44272Y183680D01*
X44287Y183690D01*
X44308Y183703D01*
X44327Y183718D01*
X44352Y183735D01*
X44380Y183755D01*
X44407Y183777D01*
X44435Y183802D01*
X44462Y183830D01*
X44493Y183862D01*
X44520Y183895D01*
X44545Y183930D01*
X44570Y183970D01*
X44592Y184010D01*
Y184012D01*
X44597Y184020D01*
X44602Y184032D01*
X44610Y184050D01*
X44618Y184070D01*
X44627Y184095D01*
X44638Y184123D01*
X44647Y184155D01*
X44657Y184187D01*
X44668Y184225D01*
X44685Y184308D01*
X44697Y184395D01*
X44700Y184440D01*
X44702Y184487D01*
Y184510D01*
X44700Y184525D01*
Y184545D01*
X44697Y184567D01*
X44695Y184595D01*
X44693Y184625D01*
X44682Y184690D01*
X44668Y184763D01*
X44647Y184840D01*
X44620Y184917D01*
Y184920D01*
X44615Y184927D01*
X44613Y184938D01*
X44605Y184952D01*
X44597Y184970D01*
X44587Y184990D01*
X44565Y185038D01*
X44537Y185088D01*
X44508Y185140D01*
X44472Y185193D01*
X44438Y185238D01*
X43960D01*
Y184485D01*
X43657D01*
Y185570D01*
X44610D01*
X44613Y185567D01*
D02*
G37*
G36*
X51365Y192087D02*
X50590Y191790D01*
Y190715D01*
X51365Y190435D01*
Y190077D01*
X48802Y191058D01*
Y191425D01*
X51365Y192473D01*
Y192087D01*
D02*
G37*
G36*
X52077Y188035D02*
X51850D01*
Y190118D01*
X52077D01*
Y188035D01*
D02*
G37*
G36*
X50570Y187943D02*
X50592Y187935D01*
X50620Y187927D01*
X50655Y187915D01*
X50695Y187900D01*
X50740Y187880D01*
X50788Y187860D01*
X50840Y187835D01*
X50893Y187808D01*
X50945Y187775D01*
X50997Y187740D01*
X51050Y187700D01*
X51100Y187660D01*
X51147Y187612D01*
X51190Y187563D01*
X51192Y187560D01*
X51200Y187550D01*
X51210Y187535D01*
X51225Y187513D01*
X51240Y187485D01*
X51257Y187452D01*
X51277Y187415D01*
X51297Y187375D01*
X51320Y187328D01*
X51337Y187275D01*
X51357Y187220D01*
X51372Y187160D01*
X51388Y187095D01*
X51398Y187030D01*
X51405Y186958D01*
X51407Y186885D01*
Y186845D01*
X51405Y186815D01*
X51402Y186780D01*
X51398Y186740D01*
X51392Y186695D01*
X51388Y186645D01*
X51377Y186592D01*
X51367Y186538D01*
X51352Y186483D01*
X51337Y186425D01*
X51317Y186370D01*
X51295Y186312D01*
X51270Y186260D01*
X51240Y186210D01*
X51237Y186207D01*
X51232Y186200D01*
X51222Y186185D01*
X51207Y186168D01*
X51192Y186145D01*
X51170Y186123D01*
X51145Y186095D01*
X51115Y186065D01*
X51082Y186032D01*
X51047Y186000D01*
X51007Y185968D01*
X50963Y185935D01*
X50915Y185905D01*
X50865Y185872D01*
X50810Y185845D01*
X50752Y185818D01*
X50747Y185815D01*
X50738Y185812D01*
X50720Y185805D01*
X50697Y185798D01*
X50668Y185787D01*
X50633Y185775D01*
X50592Y185763D01*
X50547Y185750D01*
X50497Y185738D01*
X50445Y185725D01*
X50388Y185715D01*
X50327Y185703D01*
X50265Y185695D01*
X50200Y185687D01*
X50133Y185685D01*
X50065Y185682D01*
X50060D01*
X50047D01*
X50025D01*
X49997Y185685D01*
X49962Y185687D01*
X49922Y185690D01*
X49877Y185695D01*
X49827Y185703D01*
X49775Y185710D01*
X49720Y185720D01*
X49660Y185732D01*
X49602Y185748D01*
X49542Y185765D01*
X49483Y185785D01*
X49425Y185808D01*
X49367Y185835D01*
X49365Y185837D01*
X49355Y185843D01*
X49338Y185850D01*
X49317Y185863D01*
X49292Y185880D01*
X49265Y185898D01*
X49233Y185920D01*
X49197Y185948D01*
X49163Y185975D01*
X49125Y186007D01*
X49088Y186045D01*
X49050Y186082D01*
X49013Y186125D01*
X48977Y186170D01*
X48943Y186217D01*
X48913Y186270D01*
X48910Y186273D01*
X48905Y186283D01*
X48897Y186298D01*
X48888Y186320D01*
X48877Y186345D01*
X48862Y186378D01*
X48850Y186413D01*
X48835Y186455D01*
X48820Y186497D01*
X48807Y186545D01*
X48792Y186598D01*
X48783Y186653D01*
X48772Y186710D01*
X48765Y186767D01*
X48760Y186830D01*
X48757Y186892D01*
Y186930D01*
X48760Y186958D01*
X48763Y186990D01*
X48768Y187028D01*
X48775Y187070D01*
X48783Y187118D01*
X48792Y187165D01*
X48805Y187217D01*
X48822Y187273D01*
X48840Y187325D01*
X48862Y187380D01*
X48890Y187435D01*
X48920Y187487D01*
X48955Y187538D01*
X48957Y187540D01*
X48965Y187550D01*
X48975Y187563D01*
X48990Y187580D01*
X49010Y187602D01*
X49035Y187625D01*
X49065Y187653D01*
X49097Y187682D01*
X49135Y187713D01*
X49175Y187742D01*
X49220Y187773D01*
X49270Y187803D01*
X49322Y187832D01*
X49380Y187860D01*
X49440Y187882D01*
X49505Y187905D01*
X49582Y187570D01*
X49580D01*
X49570Y187565D01*
X49555Y187560D01*
X49538Y187552D01*
X49515Y187545D01*
X49488Y187532D01*
X49460Y187520D01*
X49427Y187505D01*
X49362Y187468D01*
X49295Y187423D01*
X49233Y187370D01*
X49202Y187340D01*
X49177Y187310D01*
X49175Y187308D01*
X49172Y187302D01*
X49165Y187293D01*
X49158Y187280D01*
X49147Y187262D01*
X49137Y187242D01*
X49125Y187220D01*
X49112Y187192D01*
X49100Y187165D01*
X49088Y187133D01*
X49077Y187098D01*
X49068Y187060D01*
X49052Y186978D01*
X49050Y186933D01*
X49047Y186885D01*
Y186857D01*
X49050Y186835D01*
X49052Y186810D01*
X49055Y186780D01*
X49060Y186748D01*
X49065Y186713D01*
X49082Y186633D01*
X49093Y186592D01*
X49108Y186550D01*
X49125Y186510D01*
X49143Y186468D01*
X49165Y186427D01*
X49190Y186390D01*
X49193Y186388D01*
X49197Y186382D01*
X49205Y186372D01*
X49215Y186357D01*
X49230Y186343D01*
X49247Y186322D01*
X49268Y186302D01*
X49290Y186283D01*
X49317Y186258D01*
X49345Y186235D01*
X49377Y186213D01*
X49413Y186190D01*
X49447Y186168D01*
X49488Y186147D01*
X49527Y186130D01*
X49572Y186112D01*
X49575D01*
X49582Y186110D01*
X49595Y186105D01*
X49613Y186100D01*
X49635Y186095D01*
X49660Y186088D01*
X49690Y186080D01*
X49722Y186073D01*
X49758Y186065D01*
X49797Y186057D01*
X49880Y186045D01*
X49970Y186035D01*
X50063Y186032D01*
X50065D01*
X50077D01*
X50095D01*
X50117Y186035D01*
X50145D01*
X50180Y186038D01*
X50215Y186040D01*
X50257Y186045D01*
X50300Y186050D01*
X50345Y186055D01*
X50442Y186073D01*
X50540Y186095D01*
X50635Y186127D01*
X50638D01*
X50645Y186133D01*
X50657Y186137D01*
X50675Y186145D01*
X50695Y186155D01*
X50718Y186168D01*
X50770Y186200D01*
X50830Y186242D01*
X50890Y186293D01*
X50947Y186353D01*
X50972Y186388D01*
X50997Y186423D01*
X51000Y186425D01*
X51002Y186433D01*
X51007Y186442D01*
X51015Y186458D01*
X51025Y186475D01*
X51035Y186497D01*
X51045Y186522D01*
X51057Y186553D01*
X51068Y186583D01*
X51080Y186618D01*
X51097Y186690D01*
X51113Y186773D01*
X51115Y186815D01*
X51117Y186857D01*
Y186885D01*
X51115Y186905D01*
X51113Y186930D01*
X51110Y186958D01*
X51105Y186990D01*
X51097Y187025D01*
X51077Y187100D01*
X51065Y187140D01*
X51050Y187182D01*
X51030Y187223D01*
X51007Y187262D01*
X50982Y187302D01*
X50955Y187340D01*
X50952Y187343D01*
X50947Y187347D01*
X50937Y187360D01*
X50925Y187373D01*
X50907Y187388D01*
X50885Y187408D01*
X50860Y187427D01*
X50832Y187448D01*
X50800Y187470D01*
X50762Y187493D01*
X50722Y187515D01*
X50680Y187538D01*
X50633Y187557D01*
X50580Y187575D01*
X50525Y187592D01*
X50467Y187608D01*
X50552Y187947D01*
X50558D01*
X50570Y187943D01*
D02*
G37*
G36*
X51365Y183400D02*
X48802D01*
Y185252D01*
X49105D01*
Y183740D01*
X49887D01*
Y185158D01*
X50190D01*
Y183740D01*
X51063D01*
Y185312D01*
X51365D01*
Y183400D01*
D02*
G37*
G36*
X185483Y2362D02*
X160000D01*
Y12961D01*
X185483D01*
Y2362D01*
D02*
G37*
G36*
X50737Y28243D02*
X51659D01*
Y27612D01*
X50737D01*
Y26700D01*
X50123D01*
Y27612D01*
X49200D01*
Y28243D01*
X50123D01*
Y29156D01*
X50737D01*
Y28243D01*
D02*
G37*
G36*
X36537Y46343D02*
X37459D01*
Y45712D01*
X36537D01*
Y44800D01*
X35923D01*
Y45712D01*
X35000D01*
Y46343D01*
X35923D01*
Y47256D01*
X36537D01*
Y46343D01*
D02*
G37*
G36*
X50737Y48744D02*
X51659D01*
Y48112D01*
X50737D01*
Y47200D01*
X50123D01*
Y48112D01*
X49200D01*
Y48744D01*
X50123D01*
Y49656D01*
X50737D01*
Y48744D01*
D02*
G37*
G36*
X20600Y75804D02*
X14957D01*
Y94790D01*
X20600D01*
Y75804D01*
D02*
G37*
G36*
X28550Y8766D02*
X23034D01*
Y20401D01*
X28550D01*
Y8766D01*
D02*
G37*
G36*
X122437Y68243D02*
X123359D01*
Y67612D01*
X122437D01*
Y66700D01*
X121823D01*
Y67612D01*
X120900D01*
Y68243D01*
X121823D01*
Y69156D01*
X122437D01*
Y68243D01*
D02*
G37*
G36*
X115837Y87143D02*
X116759D01*
Y86512D01*
X115837D01*
Y85600D01*
X115223D01*
Y86512D01*
X114300D01*
Y87143D01*
X115223D01*
Y88056D01*
X115837D01*
Y87143D01*
D02*
G37*
G36*
X105337Y90244D02*
X106259D01*
Y89612D01*
X105337D01*
Y88700D01*
X104723D01*
Y89612D01*
X103800D01*
Y90244D01*
X104723D01*
Y91156D01*
X105337D01*
Y90244D01*
D02*
G37*
G36*
X57113Y86337D02*
X52653D01*
Y90793D01*
X57113D01*
Y86337D01*
D02*
G37*
G36*
X64551Y14549D02*
X60092D01*
Y19005D01*
X64551D01*
Y14549D01*
D02*
G37*
G36*
X28411Y24658D02*
X5858D01*
Y30294D01*
X28411D01*
Y24658D01*
D02*
G37*
G36*
X159077Y40442D02*
X148800D01*
Y46016D01*
X159077D01*
Y40442D01*
D02*
G37*
%LPC*%
G36*
X43665Y190425D02*
X43660D01*
X43647D01*
X43627D01*
X43600Y190422D01*
X43565Y190420D01*
X43527Y190418D01*
X43485Y190415D01*
X43437Y190408D01*
X43390Y190402D01*
X43340Y190392D01*
X43238Y190370D01*
X43187Y190355D01*
X43137Y190338D01*
X43093Y190315D01*
X43050Y190293D01*
X43047Y190290D01*
X43040Y190287D01*
X43030Y190280D01*
X43015Y190270D01*
X42997Y190255D01*
X42977Y190240D01*
X42933Y190202D01*
X42882Y190155D01*
X42835Y190100D01*
X42792Y190038D01*
X42772Y190005D01*
X42757Y189970D01*
Y189968D01*
X42755Y189962D01*
X42752Y189955D01*
X42750Y189945D01*
X42745Y189930D01*
X42740Y189912D01*
X42735Y189890D01*
X42730Y189865D01*
X42727Y189835D01*
X42722Y189805D01*
X42717Y189768D01*
X42713Y189727D01*
X42710Y189685D01*
X42707Y189637D01*
X42705Y189587D01*
Y188995D01*
X44662D01*
Y189583D01*
X44660Y189602D01*
Y189628D01*
X44657Y189655D01*
Y189685D01*
X44652Y189750D01*
X44642Y189815D01*
X44633Y189880D01*
X44625Y189910D01*
X44618Y189937D01*
Y189940D01*
X44615Y189945D01*
X44613Y189953D01*
X44607Y189962D01*
X44597Y189988D01*
X44583Y190020D01*
X44563Y190058D01*
X44540Y190095D01*
X44513Y190132D01*
X44482Y190167D01*
X44480Y190170D01*
X44477Y190173D01*
X44470Y190180D01*
X44460Y190188D01*
X44447Y190198D01*
X44435Y190210D01*
X44397Y190237D01*
X44350Y190268D01*
X44295Y190300D01*
X44232Y190330D01*
X44160Y190357D01*
X44157D01*
X44150Y190360D01*
X44140Y190365D01*
X44122Y190367D01*
X44102Y190373D01*
X44080Y190380D01*
X44052Y190385D01*
X44020Y190392D01*
X43988Y190398D01*
X43950Y190402D01*
X43907Y190410D01*
X43865Y190415D01*
X43817Y190420D01*
X43770Y190422D01*
X43665Y190425D01*
D02*
G37*
G36*
X50315Y191685D02*
X49605Y191415D01*
X49600Y191412D01*
X49590Y191410D01*
X49572Y191402D01*
X49550Y191395D01*
X49522Y191385D01*
X49490Y191373D01*
X49455Y191360D01*
X49417Y191348D01*
X49332Y191317D01*
X49242Y191288D01*
X49155Y191258D01*
X49112Y191245D01*
X49072Y191233D01*
X49075D01*
X49082Y191230D01*
X49097Y191227D01*
X49115Y191223D01*
X49137Y191218D01*
X49163Y191212D01*
X49193Y191205D01*
X49225Y191198D01*
X49262Y191188D01*
X49300Y191177D01*
X49382Y191153D01*
X49470Y191125D01*
X49562Y191095D01*
X50315Y190810D01*
Y191685D01*
D02*
G37*
G36*
X184483Y11961D02*
X177492D01*
D01*
X181430D01*
X181121Y11953D01*
X180837Y11920D01*
X180699Y11896D01*
X180577Y11872D01*
X180456Y11847D01*
X180350Y11823D01*
X180253Y11799D01*
X180163Y11774D01*
X180090Y11750D01*
X180025Y11726D01*
X179968Y11709D01*
X179936Y11693D01*
X179911Y11685D01*
X179903D01*
X179660Y11571D01*
X179457Y11441D01*
X179278Y11311D01*
X179132Y11181D01*
X179018Y11068D01*
X178937Y10978D01*
X178913Y10938D01*
X178888Y10914D01*
X178880Y10897D01*
X178872Y10889D01*
X178807Y10792D01*
X178758Y10694D01*
X178669Y10491D01*
X178612Y10296D01*
X178564Y10118D01*
X178555Y10037D01*
X178539Y9963D01*
X178531Y9899D01*
Y9842D01*
X178523Y9801D01*
Y9769D01*
Y9744D01*
Y9736D01*
X178531Y9533D01*
X178564Y9346D01*
X178604Y9184D01*
X178653Y9038D01*
X178702Y8916D01*
X178726Y8867D01*
X178742Y8827D01*
X178758Y8786D01*
X178775Y8762D01*
X178783Y8754D01*
Y8745D01*
X178896Y8591D01*
X179026Y8437D01*
X179164Y8307D01*
X179303Y8185D01*
X179424Y8088D01*
X179481Y8047D01*
X179530Y8015D01*
X179562Y7990D01*
X179595Y7966D01*
X179611Y7958D01*
X179619Y7950D01*
X179692Y7909D01*
X179782Y7860D01*
X179879Y7804D01*
X179976Y7755D01*
X180204Y7641D01*
X180423Y7536D01*
X180529Y7487D01*
X180626Y7438D01*
X180724Y7398D01*
X180797Y7365D01*
X180870Y7333D01*
X180918Y7308D01*
X180951Y7300D01*
X180959Y7292D01*
X181186Y7195D01*
X181389Y7097D01*
X181576Y7008D01*
X181738Y6927D01*
X181877Y6854D01*
X182006Y6780D01*
X182120Y6716D01*
X182209Y6659D01*
X182291Y6610D01*
X182356Y6561D01*
X182404Y6521D01*
X182445Y6488D01*
X182477Y6464D01*
X182494Y6448D01*
X182510Y6431D01*
X182607Y6310D01*
X182672Y6180D01*
X182721Y6066D01*
X182762Y5952D01*
X182778Y5855D01*
X182786Y5782D01*
X182794Y5733D01*
Y5725D01*
Y5717D01*
X182786Y5611D01*
X182770Y5514D01*
X182745Y5416D01*
X182713Y5319D01*
X182624Y5148D01*
X182534Y5002D01*
X182437Y4880D01*
X182388Y4832D01*
X182348Y4791D01*
X182315Y4750D01*
X182291Y4726D01*
X182274Y4718D01*
X182266Y4710D01*
X182161Y4637D01*
X182047Y4572D01*
X181933Y4507D01*
X181803Y4458D01*
X181552Y4385D01*
X181308Y4336D01*
X181194Y4312D01*
X181081Y4304D01*
X180991Y4296D01*
X180902Y4288D01*
X180837Y4279D01*
X180740D01*
X180488Y4288D01*
X180253Y4312D01*
X180041Y4344D01*
X179952Y4369D01*
X179863Y4385D01*
X179790Y4401D01*
X179725Y4426D01*
X179660Y4442D01*
X179611Y4458D01*
X179570Y4474D01*
X179546Y4482D01*
X179530Y4491D01*
X179522D01*
X179343Y4580D01*
X179189Y4677D01*
X179067Y4783D01*
X178961Y4880D01*
X178880Y4970D01*
X178823Y5043D01*
X178791Y5091D01*
X178783Y5100D01*
Y5108D01*
X178710Y5262D01*
X178653Y5416D01*
X178620Y5571D01*
X178588Y5709D01*
X178572Y5822D01*
X178564Y5920D01*
Y5952D01*
Y5977D01*
Y5993D01*
Y6001D01*
X178580Y6293D01*
X177492Y6188D01*
X177500Y5903D01*
X177532Y5636D01*
X177573Y5392D01*
X177630Y5165D01*
X177703Y4962D01*
X177776Y4783D01*
X177857Y4621D01*
X177938Y4482D01*
X178019Y4353D01*
X178101Y4247D01*
X178182Y4166D01*
X178247Y4093D01*
X178304Y4036D01*
X178344Y4003D01*
X178377Y3979D01*
X178385Y3971D01*
X178564Y3865D01*
X178742Y3768D01*
X178937Y3687D01*
X179124Y3622D01*
X179319Y3557D01*
X179514Y3508D01*
X179700Y3467D01*
X179879Y3435D01*
X180050Y3411D01*
X180204Y3394D01*
X180342Y3378D01*
X180464Y3370D01*
X180561D01*
X180634Y3362D01*
X180699D01*
X181040Y3378D01*
X181349Y3411D01*
X181495Y3435D01*
X181633Y3459D01*
X181763Y3484D01*
X181877Y3516D01*
X181982Y3549D01*
X182080Y3573D01*
X182161Y3597D01*
X182226Y3622D01*
X182282Y3646D01*
X182323Y3654D01*
X182348Y3670D01*
X182356D01*
X182615Y3800D01*
X182843Y3938D01*
X182948Y4012D01*
X183038Y4085D01*
X183127Y4158D01*
X183200Y4223D01*
X183273Y4288D01*
X183330Y4353D01*
X183379Y4409D01*
X183427Y4458D01*
X183460Y4491D01*
X183484Y4523D01*
X183492Y4539D01*
X183501Y4547D01*
X183574Y4653D01*
X183639Y4767D01*
X183695Y4880D01*
X183744Y4986D01*
X183817Y5197D01*
X183866Y5392D01*
X183882Y5473D01*
X183890Y5554D01*
X183898Y5627D01*
X183906Y5684D01*
X183915Y5733D01*
Y5765D01*
Y5790D01*
Y5798D01*
X183906Y5993D01*
X183874Y6180D01*
X183833Y6342D01*
X183793Y6488D01*
X183744Y6602D01*
X183720Y6651D01*
X183703Y6691D01*
X183687Y6724D01*
X183671Y6748D01*
X183663Y6756D01*
Y6764D01*
X183565Y6919D01*
X183452Y7057D01*
X183338Y7186D01*
X183224Y7292D01*
X183119Y7381D01*
X183038Y7438D01*
X183005Y7463D01*
X182981Y7479D01*
X182973Y7495D01*
X182965D01*
X182891Y7544D01*
X182810Y7584D01*
X182721Y7641D01*
X182632Y7690D01*
X182421Y7796D01*
X182218Y7893D01*
X182120Y7942D01*
X182031Y7982D01*
X181950Y8023D01*
X181877Y8055D01*
X181812Y8080D01*
X181771Y8104D01*
X181738Y8112D01*
X181730Y8120D01*
X181535Y8210D01*
X181349Y8291D01*
X181186Y8364D01*
X181040Y8429D01*
X180910Y8486D01*
X180797Y8542D01*
X180699Y8591D01*
X180610Y8632D01*
X180537Y8664D01*
X180480Y8697D01*
X180431Y8721D01*
X180391Y8745D01*
X180358Y8762D01*
X180342Y8770D01*
X180326Y8778D01*
X180179Y8867D01*
X180058Y8948D01*
X179960Y9030D01*
X179879Y9103D01*
X179822Y9160D01*
X179782Y9208D01*
X179757Y9241D01*
X179749Y9249D01*
X179700Y9346D01*
X179660Y9436D01*
X179635Y9533D01*
X179611Y9614D01*
X179603Y9687D01*
X179595Y9752D01*
Y9785D01*
Y9801D01*
X179603Y9899D01*
X179611Y9988D01*
X179652Y10150D01*
X179717Y10288D01*
X179790Y10410D01*
X179855Y10508D01*
X179920Y10572D01*
X179960Y10613D01*
X179976Y10629D01*
X180074Y10702D01*
X180179Y10767D01*
X180293Y10824D01*
X180407Y10873D01*
X180642Y10946D01*
X180870Y10995D01*
X180975Y11011D01*
X181073Y11019D01*
X181162Y11027D01*
X181243Y11035D01*
X181300Y11044D01*
X181389D01*
X181576Y11035D01*
X181755Y11019D01*
X181917Y10995D01*
X182055Y10970D01*
X182169Y10946D01*
X182250Y10922D01*
X182282Y10914D01*
X182307Y10905D01*
X182315Y10897D01*
X182323D01*
X182469Y10841D01*
X182607Y10775D01*
X182721Y10711D01*
X182810Y10646D01*
X182883Y10589D01*
X182940Y10548D01*
X182973Y10516D01*
X182981Y10508D01*
X183070Y10418D01*
X183143Y10321D01*
X183200Y10223D01*
X183249Y10126D01*
X183289Y10045D01*
X183314Y9980D01*
X183330Y9939D01*
X183338Y9931D01*
Y9923D01*
X183362Y9842D01*
X183379Y9752D01*
X183387Y9663D01*
X183395Y9574D01*
X183403Y9493D01*
Y9428D01*
Y9387D01*
Y9379D01*
Y9371D01*
X184475Y9452D01*
X184483Y9533D01*
Y9623D01*
X184467Y9817D01*
X184434Y10012D01*
X184386Y10199D01*
X184329Y10361D01*
X184264Y10508D01*
X184239Y10564D01*
X184215Y10613D01*
X184199Y10654D01*
X184183Y10686D01*
X184166Y10702D01*
Y10711D01*
X184101Y10816D01*
X184028Y10914D01*
X183874Y11092D01*
X183703Y11247D01*
X183541Y11376D01*
X183387Y11482D01*
X183322Y11523D01*
X183265Y11555D01*
X183216Y11587D01*
X183184Y11604D01*
X183159Y11620D01*
X183151D01*
X182875Y11734D01*
X182591Y11815D01*
X182299Y11880D01*
X182161Y11904D01*
X182031Y11920D01*
X181901Y11937D01*
X181787Y11945D01*
X181690Y11953D01*
X181600D01*
X181527Y11961D01*
X184483D01*
D02*
G37*
G36*
X165653D02*
X165563D01*
X165336Y11953D01*
X165117Y11937D01*
X164898Y11904D01*
X164695Y11872D01*
X164500Y11823D01*
X164313Y11774D01*
X164142Y11717D01*
X163980Y11669D01*
X163842Y11612D01*
X163712Y11555D01*
X163598Y11506D01*
X163501Y11458D01*
X163428Y11425D01*
X163371Y11393D01*
X163330Y11376D01*
X163322Y11368D01*
X163136Y11255D01*
X162965Y11125D01*
X162794Y10987D01*
X162640Y10841D01*
X162494Y10686D01*
X162356Y10540D01*
X162226Y10386D01*
X162112Y10240D01*
X162007Y10102D01*
X161918Y9972D01*
X161845Y9850D01*
X161779Y9752D01*
X161723Y9671D01*
X161690Y9606D01*
X161666Y9566D01*
X161658Y9549D01*
X161544Y9314D01*
X161439Y9078D01*
X161349Y8843D01*
X161276Y8608D01*
X161211Y8372D01*
X161162Y8153D01*
X161114Y7933D01*
X161081Y7730D01*
X161057Y7544D01*
X161032Y7365D01*
X161024Y7211D01*
X161008Y7081D01*
Y6975D01*
X161000Y6894D01*
Y7081D01*
Y6829D01*
X161008Y6561D01*
X161032Y6310D01*
X161073Y6074D01*
X161122Y5847D01*
X161179Y5636D01*
X161235Y5441D01*
X161309Y5262D01*
X161382Y5091D01*
X161447Y4945D01*
X161520Y4824D01*
X161576Y4710D01*
X161642Y4621D01*
X161682Y4547D01*
X161723Y4491D01*
X161747Y4458D01*
X161755Y4450D01*
X161934Y4255D01*
X162129Y4093D01*
X162340Y3947D01*
X162559Y3825D01*
X162778Y3719D01*
X163006Y3630D01*
X163233Y3557D01*
X163444Y3500D01*
X163655Y3451D01*
X163842Y3419D01*
X164021Y3394D01*
X164167Y3378D01*
X164297Y3370D01*
X164345D01*
X164386Y3362D01*
X161000D01*
X168771D01*
X164467D01*
X164784Y3370D01*
X165101Y3403D01*
X165393Y3443D01*
X165523Y3467D01*
X165653Y3500D01*
X165766Y3524D01*
X165872Y3549D01*
X165969Y3565D01*
X166051Y3589D01*
X166107Y3606D01*
X166156Y3622D01*
X166189Y3630D01*
X166197D01*
X166522Y3735D01*
X166814Y3849D01*
X166952Y3914D01*
X167082Y3971D01*
X167204Y4028D01*
X167317Y4076D01*
X167415Y4133D01*
X167504Y4182D01*
X167585Y4223D01*
X167650Y4255D01*
X167699Y4288D01*
X167740Y4312D01*
X167764Y4320D01*
X167772Y4328D01*
X168479Y7722D01*
X164833D01*
X164630Y6780D01*
X167171D01*
X166798Y4994D01*
X166562Y4872D01*
X166335Y4759D01*
X166116Y4661D01*
X165904Y4580D01*
X165701Y4515D01*
X165507Y4458D01*
X165328Y4409D01*
X165157Y4369D01*
X165003Y4336D01*
X164865Y4320D01*
X164751Y4304D01*
X164646Y4288D01*
X164565D01*
X164508Y4279D01*
X164459D01*
X164256Y4288D01*
X164069Y4304D01*
X163891Y4336D01*
X163728Y4377D01*
X163574Y4426D01*
X163436Y4482D01*
X163306Y4539D01*
X163192Y4604D01*
X163087Y4661D01*
X162997Y4718D01*
X162924Y4775D01*
X162859Y4824D01*
X162811Y4864D01*
X162778Y4897D01*
X162754Y4913D01*
X162746Y4921D01*
X162640Y5051D01*
X162543Y5189D01*
X162462Y5335D01*
X162389Y5489D01*
X162332Y5644D01*
X162283Y5798D01*
X162242Y5960D01*
X162210Y6106D01*
X162177Y6253D01*
X162161Y6383D01*
X162145Y6504D01*
X162137Y6610D01*
Y6691D01*
X162129Y6756D01*
Y6797D01*
Y6813D01*
X162137Y7048D01*
X162145Y7268D01*
X162169Y7487D01*
X162202Y7698D01*
X162234Y7893D01*
X162275Y8080D01*
X162315Y8250D01*
X162364Y8413D01*
X162405Y8551D01*
X162445Y8681D01*
X162486Y8794D01*
X162518Y8892D01*
X162551Y8965D01*
X162575Y9014D01*
X162583Y9054D01*
X162592Y9062D01*
X162681Y9241D01*
X162778Y9411D01*
X162884Y9574D01*
X162989Y9720D01*
X163087Y9850D01*
X163192Y9972D01*
X163298Y10085D01*
X163395Y10183D01*
X163485Y10264D01*
X163574Y10345D01*
X163647Y10402D01*
X163712Y10459D01*
X163769Y10499D01*
X163810Y10524D01*
X163834Y10540D01*
X163842Y10548D01*
X163988Y10638D01*
X164142Y10711D01*
X164289Y10775D01*
X164435Y10832D01*
X164581Y10881D01*
X164719Y10922D01*
X164857Y10954D01*
X164979Y10978D01*
X165101Y11003D01*
X165206Y11019D01*
X165296Y11027D01*
X165377Y11035D01*
X165442Y11044D01*
X165531D01*
X165685Y11035D01*
X165840Y11027D01*
X165978Y11003D01*
X166116Y10970D01*
X166237Y10938D01*
X166359Y10897D01*
X166465Y10857D01*
X166562Y10816D01*
X166643Y10767D01*
X166725Y10727D01*
X166790Y10686D01*
X166846Y10654D01*
X166887Y10621D01*
X166920Y10597D01*
X166936Y10589D01*
X166944Y10581D01*
X167041Y10491D01*
X167139Y10394D01*
X167220Y10288D01*
X167293Y10183D01*
X167423Y9963D01*
X167520Y9752D01*
X167561Y9655D01*
X167593Y9557D01*
X167618Y9476D01*
X167642Y9403D01*
X167658Y9346D01*
X167666Y9306D01*
X167675Y9273D01*
Y9265D01*
X168771Y9387D01*
X168738Y9541D01*
X168698Y9696D01*
X168665Y9834D01*
X168617Y9972D01*
X168576Y10093D01*
X168527Y10207D01*
X168487Y10313D01*
X168446Y10410D01*
X168397Y10491D01*
X168365Y10572D01*
X168324Y10629D01*
X168300Y10686D01*
X168267Y10727D01*
X168251Y10759D01*
X168243Y10775D01*
X168235Y10784D01*
X168081Y10970D01*
X167910Y11141D01*
X167731Y11287D01*
X167553Y11409D01*
X167399Y11506D01*
X167334Y11547D01*
X167269Y11579D01*
X167220Y11604D01*
X167187Y11620D01*
X167163Y11636D01*
X167155D01*
X166887Y11742D01*
X166611Y11823D01*
X166343Y11880D01*
X166213Y11904D01*
X166091Y11920D01*
X165986Y11937D01*
X165880Y11945D01*
X165791Y11953D01*
X165710D01*
X165653Y11961D01*
D02*
G37*
G36*
X177029Y11823D02*
X171150D01*
X169420Y3500D01*
X177029D01*
X170525D01*
X171231Y6878D01*
X173318D01*
X173618Y6886D01*
X173911Y6910D01*
X174187Y6935D01*
X174317Y6951D01*
X174431Y6975D01*
X174536Y6992D01*
X174634Y7008D01*
X174723Y7024D01*
X174796Y7032D01*
X174853Y7048D01*
X174901Y7057D01*
X174926Y7065D01*
X174934D01*
X175072Y7097D01*
X175202Y7138D01*
X175316Y7178D01*
X175421Y7219D01*
X175510Y7260D01*
X175575Y7292D01*
X175616Y7308D01*
X175632Y7316D01*
X175754Y7389D01*
X175876Y7471D01*
X175981Y7560D01*
X176079Y7649D01*
X176168Y7722D01*
X176225Y7787D01*
X176266Y7828D01*
X176282Y7844D01*
X176395Y7982D01*
X176501Y8128D01*
X176590Y8275D01*
X176672Y8413D01*
X176737Y8534D01*
X176761Y8591D01*
X176777Y8632D01*
X176793Y8672D01*
X176810Y8697D01*
X176818Y8713D01*
Y8721D01*
X176891Y8924D01*
X176940Y9111D01*
X176980Y9290D01*
X177005Y9452D01*
X177021Y9582D01*
Y9639D01*
X177029Y9687D01*
Y9777D01*
X177013Y10004D01*
X176980Y10215D01*
X176931Y10410D01*
X176883Y10572D01*
X176850Y10646D01*
X176826Y10711D01*
X176802Y10767D01*
X176777Y10808D01*
X176753Y10849D01*
X176745Y10873D01*
X176728Y10889D01*
Y10897D01*
X176615Y11076D01*
X176485Y11222D01*
X176363Y11344D01*
X176249Y11441D01*
X176144Y11523D01*
X176055Y11571D01*
X176022Y11587D01*
X176006Y11604D01*
X175989Y11612D01*
X175981D01*
X175892Y11653D01*
X175795Y11685D01*
X175584Y11734D01*
X175356Y11774D01*
X175137Y11799D01*
X175031Y11807D01*
X174934Y11815D01*
X174853D01*
X174771Y11823D01*
X177029D01*
D02*
G37*
G36*
X180634Y3362D02*
X180468D01*
X180634D01*
D01*
D02*
G37*
%LPD*%
G36*
X174495Y10914D02*
X174617D01*
X174731Y10905D01*
X174828Y10889D01*
X174918Y10881D01*
X174999Y10873D01*
X175072Y10857D01*
X175129Y10849D01*
X175186Y10832D01*
X175226Y10824D01*
X175259Y10816D01*
X175283Y10808D01*
X175299Y10800D01*
X175316Y10792D01*
X175421Y10743D01*
X175510Y10678D01*
X175592Y10621D01*
X175657Y10556D01*
X175705Y10499D01*
X175738Y10451D01*
X175762Y10418D01*
X175770Y10410D01*
X175827Y10313D01*
X175868Y10199D01*
X175892Y10085D01*
X175916Y9980D01*
X175925Y9890D01*
X175933Y9809D01*
Y9760D01*
Y9752D01*
Y9744D01*
X175916Y9549D01*
X175884Y9363D01*
X175835Y9200D01*
X175778Y9046D01*
X175722Y8924D01*
X175697Y8867D01*
X175673Y8827D01*
X175657Y8794D01*
X175640Y8770D01*
X175624Y8754D01*
Y8745D01*
X175502Y8583D01*
X175372Y8437D01*
X175234Y8315D01*
X175113Y8218D01*
X174999Y8145D01*
X174901Y8088D01*
X174869Y8072D01*
X174845Y8055D01*
X174828Y8047D01*
X174820D01*
X174723Y8007D01*
X174609Y7974D01*
X174495Y7942D01*
X174365Y7917D01*
X174106Y7877D01*
X173854Y7852D01*
X173732Y7836D01*
X173627D01*
X173521Y7828D01*
X173432Y7820D01*
X171426D01*
X172076Y10922D01*
X174357D01*
X174495Y10914D01*
D02*
G37*
%LPC*%
G36*
X19535Y93790D02*
D01*
X18849Y93357D01*
X18773Y93313D01*
X18708Y93268D01*
X18643Y93227D01*
X18588Y93186D01*
X18537Y93152D01*
X18489Y93117D01*
X18448Y93086D01*
X18410Y93059D01*
X18379Y93035D01*
X18351Y93015D01*
X18331Y92994D01*
X18310Y92980D01*
X18297Y92970D01*
X18286Y92960D01*
X18283Y92956D01*
X18279Y92953D01*
X18221Y92894D01*
X18166Y92833D01*
X18115Y92768D01*
X18070Y92709D01*
X18036Y92654D01*
X18019Y92634D01*
X18009Y92613D01*
X17998Y92596D01*
X17991Y92586D01*
X17985Y92579D01*
Y92575D01*
X17971Y92661D01*
X17950Y92740D01*
X17930Y92812D01*
X17906Y92881D01*
X17878Y92942D01*
X17851Y93001D01*
X17823Y93052D01*
X17796Y93097D01*
X17768Y93138D01*
X17744Y93172D01*
X17720Y93203D01*
X17700Y93227D01*
X17683Y93248D01*
X17669Y93261D01*
X17662Y93268D01*
X17659Y93272D01*
X17607Y93313D01*
X17556Y93347D01*
X17504Y93382D01*
X17449Y93405D01*
X17394Y93429D01*
X17340Y93447D01*
X17237Y93477D01*
X17189Y93484D01*
X17144Y93491D01*
X17106Y93498D01*
X17072Y93502D01*
X17045Y93505D01*
X17024D01*
X17010D01*
X17007D01*
X16949D01*
X16894Y93498D01*
X16787Y93481D01*
X16695Y93457D01*
X16654Y93443D01*
X16612Y93429D01*
X16578Y93412D01*
X16547Y93399D01*
X16520Y93385D01*
X16496Y93375D01*
X16479Y93364D01*
X16465Y93357D01*
X16458Y93354D01*
X16455Y93351D01*
X16410Y93320D01*
X16369Y93289D01*
X16300Y93220D01*
X16239Y93152D01*
X16194Y93086D01*
X16160Y93028D01*
X16146Y93004D01*
X16132Y92980D01*
X16125Y92963D01*
X16118Y92949D01*
X16115Y92942D01*
Y92939D01*
X16098Y92888D01*
X16084Y92833D01*
X16071Y92771D01*
X16060Y92706D01*
X16043Y92569D01*
X16029Y92435D01*
X16026Y92373D01*
X16023Y92315D01*
Y92260D01*
X16019Y92215D01*
Y90631D01*
X19535D01*
Y93790D01*
D02*
G37*
G36*
Y90253D02*
X16019Y88847D01*
Y90253D01*
X19535D01*
X16019D01*
Y86724D01*
D01*
Y88089D01*
X19535Y86724D01*
Y87475D01*
X18736Y87767D01*
Y89173D01*
X19535Y89478D01*
Y90253D01*
D02*
G37*
G36*
Y86576D02*
X16047D01*
Y84100D01*
X19535D01*
Y86576D01*
D02*
G37*
G36*
X19593Y83527D02*
X15957D01*
Y80114D01*
D01*
Y81815D01*
X15964Y81658D01*
X15971Y81586D01*
X15978Y81514D01*
X15988Y81449D01*
X16002Y81383D01*
X16016Y81325D01*
X16026Y81274D01*
X16040Y81226D01*
X16053Y81181D01*
X16064Y81143D01*
X16077Y81112D01*
X16084Y81088D01*
X16091Y81068D01*
X16098Y81058D01*
Y81054D01*
X16142Y80965D01*
X16191Y80879D01*
X16245Y80800D01*
X16297Y80735D01*
X16341Y80677D01*
X16362Y80653D01*
X16383Y80636D01*
X16396Y80619D01*
X16407Y80608D01*
X16413Y80601D01*
X16417Y80598D01*
X16499Y80526D01*
X16582Y80461D01*
X16664Y80406D01*
X16736Y80358D01*
X16770Y80337D01*
X16801Y80320D01*
X16829Y80306D01*
X16853Y80293D01*
X16870Y80286D01*
X16883Y80279D01*
X16894Y80272D01*
X16897D01*
X16966Y80245D01*
X17041Y80221D01*
X17192Y80179D01*
X17343Y80152D01*
X17415Y80142D01*
X17484Y80135D01*
X17549Y80128D01*
X17611Y80121D01*
X17662Y80118D01*
X17710D01*
X17748Y80114D01*
X17799D01*
X17954Y80121D01*
X18098Y80135D01*
X18231Y80155D01*
X18358Y80186D01*
X18478Y80221D01*
X18585Y80262D01*
X18684Y80303D01*
X18773Y80348D01*
X18852Y80389D01*
X18921Y80430D01*
X18979Y80471D01*
X19027Y80505D01*
X19068Y80536D01*
X19096Y80557D01*
X19109Y80574D01*
X19116Y80577D01*
X19199Y80667D01*
X19274Y80762D01*
X19336Y80865D01*
X19391Y80968D01*
X19439Y81071D01*
X19477Y81174D01*
X19507Y81277D01*
X19535Y81373D01*
X19552Y81466D01*
X19569Y81551D01*
X19579Y81627D01*
X19586Y81692D01*
X19590Y81747D01*
Y81771D01*
X19593Y81788D01*
Y81822D01*
X19586Y81963D01*
X19573Y82097D01*
X19548Y82224D01*
X19518Y82344D01*
X19480Y82454D01*
X19442Y82556D01*
X19398Y82649D01*
X19353Y82731D01*
X19308Y82807D01*
X19264Y82872D01*
X19223Y82930D01*
X19188Y82975D01*
X19158Y83013D01*
X19133Y83040D01*
X19120Y83054D01*
X19113Y83061D01*
X19020Y83143D01*
X18917Y83215D01*
X18811Y83277D01*
X18701Y83332D01*
X18592Y83376D01*
X18482Y83414D01*
X18372Y83445D01*
X18266Y83469D01*
X18170Y83489D01*
X18077Y83503D01*
X17995Y83513D01*
X17923Y83520D01*
X17892Y83524D01*
X17864D01*
X17840Y83527D01*
X19593D01*
D02*
G37*
G36*
X17748Y80114D02*
D01*
X15957D01*
X17748D01*
D02*
G37*
G36*
X19600Y79662D02*
X15957D01*
X18513D01*
X18393Y79655D01*
X18286Y79641D01*
X18235Y79631D01*
X18190Y79617D01*
X18146Y79603D01*
X18108Y79593D01*
X18074Y79579D01*
X18043Y79565D01*
X18015Y79555D01*
X17995Y79541D01*
X17978Y79535D01*
X17964Y79528D01*
X17957Y79521D01*
X17954D01*
X17871Y79462D01*
X17799Y79401D01*
X17738Y79336D01*
X17686Y79274D01*
X17648Y79216D01*
X17631Y79192D01*
X17617Y79171D01*
X17607Y79154D01*
X17600Y79140D01*
X17593Y79133D01*
Y79130D01*
X17569Y79082D01*
X17545Y79027D01*
X17521Y78969D01*
X17497Y78907D01*
X17456Y78780D01*
X17418Y78657D01*
X17401Y78595D01*
X17384Y78543D01*
X17370Y78492D01*
X17360Y78451D01*
X17353Y78413D01*
X17346Y78389D01*
X17340Y78372D01*
Y78365D01*
X17316Y78272D01*
X17295Y78190D01*
X17271Y78111D01*
X17250Y78046D01*
X17230Y77984D01*
X17209Y77933D01*
X17192Y77885D01*
X17175Y77844D01*
X17158Y77813D01*
X17144Y77782D01*
X17134Y77761D01*
X17123Y77741D01*
X17113Y77730D01*
X17106Y77720D01*
X17103Y77717D01*
Y77713D01*
X17069Y77679D01*
X17034Y77655D01*
X16997Y77634D01*
X16966Y77624D01*
X16935Y77617D01*
X16911Y77614D01*
X16897Y77610D01*
X16890D01*
X16842Y77614D01*
X16798Y77627D01*
X16760Y77645D01*
X16729Y77665D01*
X16705Y77686D01*
X16688Y77703D01*
X16678Y77717D01*
X16674Y77720D01*
X16630Y77792D01*
X16599Y77871D01*
X16575Y77950D01*
X16561Y78029D01*
X16551Y78101D01*
X16547Y78128D01*
Y78156D01*
X16544Y78176D01*
Y78262D01*
X16547Y78313D01*
X16554Y78358D01*
X16561Y78403D01*
X16571Y78444D01*
X16582Y78478D01*
X16592Y78512D01*
X16602Y78543D01*
X16616Y78567D01*
X16626Y78591D01*
X16636Y78609D01*
X16643Y78626D01*
X16654Y78636D01*
X16657Y78646D01*
X16664Y78653D01*
X16688Y78680D01*
X16715Y78705D01*
X16774Y78749D01*
X16839Y78783D01*
X16904Y78811D01*
X16959Y78828D01*
X16986Y78835D01*
X17007Y78842D01*
X17028Y78845D01*
X17041Y78849D01*
X17048Y78852D01*
X17052D01*
X17021Y79562D01*
X16931Y79555D01*
X16849Y79541D01*
X16770Y79524D01*
X16695Y79500D01*
X16626Y79473D01*
X16564Y79442D01*
X16506Y79411D01*
X16455Y79380D01*
X16407Y79346D01*
X16365Y79315D01*
X16331Y79288D01*
X16300Y79260D01*
X16280Y79240D01*
X16263Y79223D01*
X16252Y79212D01*
X16249Y79209D01*
X16197Y79144D01*
X16153Y79071D01*
X16115Y78993D01*
X16081Y78914D01*
X16053Y78831D01*
X16029Y78749D01*
X16009Y78667D01*
X15995Y78588D01*
X15981Y78512D01*
X15971Y78440D01*
X15968Y78379D01*
X15961Y78324D01*
Y78276D01*
X15957Y78245D01*
Y78214D01*
X15964Y78066D01*
X15968Y77998D01*
X15978Y77933D01*
X15985Y77871D01*
X15995Y77816D01*
X16009Y77761D01*
X16019Y77713D01*
X16029Y77669D01*
X16043Y77631D01*
X16053Y77597D01*
X16060Y77569D01*
X16071Y77549D01*
X16074Y77531D01*
X16081Y77521D01*
Y77518D01*
X16132Y77418D01*
X16187Y77329D01*
X16249Y77254D01*
X16304Y77192D01*
X16359Y77144D01*
X16379Y77127D01*
X16400Y77110D01*
X16413Y77099D01*
X16427Y77089D01*
X16434Y77086D01*
X16438Y77082D01*
X16482Y77055D01*
X16527Y77034D01*
X16616Y76996D01*
X16698Y76969D01*
X16777Y76952D01*
X16811Y76945D01*
X16842Y76938D01*
X16873Y76935D01*
X16897D01*
X16914Y76931D01*
X16928D01*
X16938D01*
X16942D01*
X17017Y76935D01*
X17093Y76945D01*
X17161Y76962D01*
X17230Y76983D01*
X17292Y77007D01*
X17350Y77034D01*
X17401Y77061D01*
X17453Y77092D01*
X17497Y77123D01*
X17535Y77151D01*
X17569Y77178D01*
X17597Y77202D01*
X17617Y77223D01*
X17635Y77240D01*
X17645Y77250D01*
X17648Y77254D01*
X17686Y77302D01*
X17724Y77353D01*
X17758Y77411D01*
X17792Y77477D01*
X17851Y77607D01*
X17902Y77741D01*
X17923Y77802D01*
X17943Y77861D01*
X17961Y77912D01*
X17974Y77960D01*
X17985Y77998D01*
X17991Y78029D01*
X17995Y78046D01*
X17998Y78053D01*
X18019Y78132D01*
X18036Y78204D01*
X18053Y78269D01*
X18070Y78327D01*
X18084Y78382D01*
X18098Y78427D01*
X18108Y78468D01*
X18118Y78502D01*
X18125Y78533D01*
X18132Y78561D01*
X18139Y78581D01*
X18146Y78595D01*
X18149Y78609D01*
Y78615D01*
X18153Y78622D01*
X18177Y78684D01*
X18204Y78739D01*
X18231Y78783D01*
X18255Y78818D01*
X18276Y78845D01*
X18293Y78862D01*
X18304Y78873D01*
X18307Y78876D01*
X18341Y78900D01*
X18375Y78921D01*
X18410Y78934D01*
X18444Y78941D01*
X18472Y78948D01*
X18496Y78952D01*
X18509D01*
X18516D01*
X18550Y78948D01*
X18588Y78945D01*
X18650Y78924D01*
X18708Y78897D01*
X18760Y78866D01*
X18801Y78831D01*
X18832Y78804D01*
X18849Y78783D01*
X18852Y78780D01*
X18856Y78777D01*
X18880Y78742D01*
X18904Y78705D01*
X18938Y78622D01*
X18965Y78536D01*
X18983Y78451D01*
X18986Y78413D01*
X18993Y78375D01*
X18996Y78344D01*
Y78313D01*
X19000Y78293D01*
Y78259D01*
X18996Y78200D01*
X18993Y78145D01*
X18976Y78043D01*
X18962Y77998D01*
X18948Y77953D01*
X18935Y77916D01*
X18917Y77881D01*
X18904Y77851D01*
X18890Y77823D01*
X18876Y77799D01*
X18862Y77778D01*
X18852Y77765D01*
X18845Y77754D01*
X18838Y77748D01*
Y77744D01*
X18808Y77710D01*
X18770Y77679D01*
X18691Y77624D01*
X18605Y77583D01*
X18523Y77549D01*
X18482Y77535D01*
X18448Y77525D01*
X18413Y77514D01*
X18386Y77507D01*
X18362Y77501D01*
X18341Y77497D01*
X18331Y77494D01*
X18327D01*
X18396Y76804D01*
D01*
X18502Y76822D01*
X18605Y76842D01*
X18698Y76869D01*
X18784Y76900D01*
X18866Y76935D01*
X18938Y76969D01*
X19007Y77007D01*
X19065Y77044D01*
X19120Y77079D01*
X19164Y77113D01*
X19206Y77144D01*
X19236Y77171D01*
X19264Y77195D01*
X19281Y77216D01*
X19291Y77226D01*
X19295Y77230D01*
X19350Y77302D01*
X19394Y77377D01*
X19435Y77456D01*
X19470Y77538D01*
X19500Y77624D01*
X19524Y77710D01*
X19545Y77792D01*
X19562Y77874D01*
X19576Y77950D01*
X19583Y78022D01*
X19590Y78087D01*
X19597Y78142D01*
Y78187D01*
X19600Y78221D01*
Y76804D01*
Y78338D01*
X19593Y78416D01*
X19590Y78492D01*
X19579Y78564D01*
X19569Y78632D01*
X19559Y78694D01*
X19548Y78752D01*
X19535Y78807D01*
X19524Y78855D01*
X19514Y78897D01*
X19504Y78931D01*
X19494Y78962D01*
X19483Y78986D01*
X19480Y79003D01*
X19473Y79013D01*
Y79017D01*
X19418Y79126D01*
X19391Y79174D01*
X19360Y79223D01*
X19326Y79264D01*
X19295Y79305D01*
X19260Y79339D01*
X19230Y79370D01*
X19199Y79401D01*
X19171Y79425D01*
X19147Y79445D01*
X19127Y79462D01*
X19106Y79476D01*
X19092Y79487D01*
X19085Y79490D01*
X19082Y79493D01*
X19031Y79524D01*
X18979Y79548D01*
X18931Y79572D01*
X18880Y79589D01*
X18784Y79620D01*
X18698Y79641D01*
X18657Y79648D01*
X18622Y79651D01*
X18592Y79658D01*
X18564D01*
X18543Y79662D01*
X19600D01*
D02*
G37*
%LPD*%
G36*
X19535Y91341D02*
X18067D01*
Y91567D01*
X18074Y91642D01*
X18080Y91704D01*
X18087Y91756D01*
X18094Y91793D01*
X18101Y91821D01*
X18104Y91835D01*
X18108Y91841D01*
X18125Y91883D01*
X18149Y91924D01*
X18173Y91958D01*
X18197Y91989D01*
X18221Y92016D01*
X18238Y92037D01*
X18252Y92051D01*
X18255Y92054D01*
X18279Y92075D01*
X18307Y92099D01*
X18341Y92126D01*
X18379Y92154D01*
X18465Y92215D01*
X18554Y92277D01*
X18636Y92335D01*
X18670Y92363D01*
X18705Y92383D01*
X18732Y92400D01*
X18753Y92418D01*
X18767Y92424D01*
X18770Y92428D01*
X19535Y92939D01*
Y91341D01*
D02*
G37*
G36*
X17106Y92771D02*
X17158Y92764D01*
X17206Y92750D01*
X17244Y92740D01*
X17274Y92726D01*
X17295Y92713D01*
X17312Y92706D01*
X17316Y92702D01*
X17350Y92672D01*
X17381Y92641D01*
X17408Y92606D01*
X17429Y92575D01*
X17443Y92545D01*
X17453Y92521D01*
X17460Y92507D01*
X17463Y92500D01*
X17470Y92472D01*
X17477Y92435D01*
X17484Y92394D01*
X17487Y92349D01*
X17491Y92298D01*
X17494Y92243D01*
X17497Y92136D01*
X17501Y92081D01*
Y92033D01*
X17504Y91985D01*
Y91341D01*
X16612D01*
Y92102D01*
X16616Y92157D01*
Y92246D01*
X16619Y92284D01*
Y92339D01*
X16623Y92359D01*
Y92390D01*
X16626Y92400D01*
Y92411D01*
X16640Y92472D01*
X16660Y92524D01*
X16681Y92572D01*
X16705Y92610D01*
X16726Y92641D01*
X16746Y92661D01*
X16760Y92675D01*
X16763Y92678D01*
X16808Y92709D01*
X16856Y92733D01*
X16904Y92750D01*
X16949Y92764D01*
X16990Y92771D01*
X17021Y92774D01*
X17034D01*
X17045D01*
X17048D01*
X17052D01*
X17106Y92771D01*
D02*
G37*
G36*
X18142Y87983D02*
X16839Y88459D01*
X18142Y88946D01*
Y87983D01*
D02*
G37*
G36*
X18941Y84810D02*
X16047D01*
Y86576D01*
X18941D01*
Y84810D01*
D02*
G37*
G36*
X17624Y83520D02*
X17477Y83507D01*
X17340Y83482D01*
X17209Y83455D01*
X17093Y83417D01*
X16980Y83380D01*
X16880Y83335D01*
X16791Y83294D01*
X16709Y83249D01*
X16640Y83205D01*
X16578Y83167D01*
X16530Y83129D01*
X16492Y83102D01*
X16465Y83078D01*
X16448Y83064D01*
X16441Y83057D01*
X16355Y82968D01*
X16280Y82868D01*
X16218Y82769D01*
X16160Y82666D01*
X16115Y82563D01*
X16074Y82460D01*
X16043Y82358D01*
X16019Y82261D01*
X15999Y82169D01*
X15981Y82086D01*
X15971Y82011D01*
X15964Y81942D01*
X15961Y81891D01*
Y81867D01*
X15957Y81850D01*
Y83527D01*
X17782D01*
X17624Y83520D01*
D02*
G37*
G36*
X17875Y82793D02*
X17981Y82786D01*
X18077Y82772D01*
X18166Y82755D01*
X18249Y82731D01*
X18324Y82711D01*
X18389Y82683D01*
X18451Y82659D01*
X18506Y82635D01*
X18550Y82608D01*
X18592Y82587D01*
X18622Y82567D01*
X18650Y82546D01*
X18667Y82532D01*
X18677Y82525D01*
X18681Y82522D01*
X18736Y82471D01*
X18780Y82412D01*
X18821Y82354D01*
X18856Y82296D01*
X18887Y82237D01*
X18911Y82179D01*
X18931Y82124D01*
X18948Y82069D01*
X18962Y82018D01*
X18969Y81970D01*
X18976Y81929D01*
X18983Y81894D01*
Y81863D01*
X18986Y81843D01*
Y81822D01*
X18983Y81744D01*
X18972Y81672D01*
X18959Y81599D01*
X18938Y81534D01*
X18914Y81472D01*
X18890Y81414D01*
X18862Y81359D01*
X18832Y81311D01*
X18804Y81267D01*
X18777Y81229D01*
X18753Y81198D01*
X18729Y81171D01*
X18708Y81147D01*
X18695Y81133D01*
X18684Y81123D01*
X18681Y81119D01*
X18619Y81071D01*
X18554Y81030D01*
X18482Y80992D01*
X18410Y80962D01*
X18334Y80934D01*
X18259Y80913D01*
X18183Y80893D01*
X18111Y80879D01*
X18043Y80869D01*
X17981Y80859D01*
X17923Y80852D01*
X17875Y80848D01*
X17833D01*
X17803Y80845D01*
X17782D01*
X17775D01*
X17665Y80848D01*
X17563Y80855D01*
X17467Y80869D01*
X17377Y80886D01*
X17295Y80907D01*
X17220Y80931D01*
X17154Y80955D01*
X17093Y80979D01*
X17041Y81003D01*
X16993Y81027D01*
X16955Y81051D01*
X16921Y81071D01*
X16897Y81088D01*
X16880Y81102D01*
X16870Y81109D01*
X16866Y81112D01*
X16811Y81164D01*
X16767Y81222D01*
X16726Y81277D01*
X16691Y81339D01*
X16664Y81397D01*
X16636Y81455D01*
X16619Y81514D01*
X16602Y81569D01*
X16589Y81620D01*
X16582Y81668D01*
X16575Y81713D01*
X16568Y81750D01*
Y81781D01*
X16564Y81802D01*
Y81822D01*
X16568Y81901D01*
X16578Y81980D01*
X16592Y82052D01*
X16612Y82117D01*
X16633Y82183D01*
X16657Y82237D01*
X16684Y82292D01*
X16712Y82340D01*
X16743Y82385D01*
X16767Y82423D01*
X16794Y82454D01*
X16815Y82481D01*
X16835Y82502D01*
X16849Y82515D01*
X16859Y82525D01*
X16863Y82529D01*
X16921Y82577D01*
X16986Y82618D01*
X17058Y82652D01*
X17130Y82683D01*
X17206Y82711D01*
X17278Y82731D01*
X17353Y82749D01*
X17425Y82762D01*
X17494Y82772D01*
X17559Y82783D01*
X17614Y82790D01*
X17665Y82793D01*
X17707Y82797D01*
X17738D01*
X17758D01*
X17762D01*
X17765D01*
X17875Y82793D01*
D02*
G37*
%LPC*%
G36*
X27550Y19401D02*
Y18362D01*
X24628D01*
Y19401D01*
X27550D01*
X24034D01*
Y16609D01*
X24628D01*
Y17652D01*
X27550D01*
Y16609D01*
D01*
Y19401D01*
D02*
G37*
G36*
Y16482D02*
X24034Y15076D01*
Y14318D01*
X27550Y12953D01*
Y13704D01*
X26751Y13995D01*
Y15402D01*
X27550Y15707D01*
Y16482D01*
D02*
G37*
G36*
Y12709D02*
D01*
Y11080D01*
X27547Y11193D01*
Y11382D01*
X27543Y11461D01*
Y11529D01*
X27540Y11591D01*
Y11642D01*
X27536Y11687D01*
Y11725D01*
X27533Y11756D01*
Y11780D01*
X27529Y11797D01*
Y11817D01*
X27512Y11920D01*
X27488Y12009D01*
X27461Y12092D01*
X27433Y12160D01*
X27420Y12188D01*
X27406Y12215D01*
X27392Y12239D01*
X27382Y12256D01*
X27375Y12270D01*
X27368Y12280D01*
X27361Y12287D01*
Y12291D01*
X27307Y12359D01*
X27248Y12421D01*
X27190Y12472D01*
X27132Y12517D01*
X27080Y12551D01*
X27056Y12565D01*
X27039Y12575D01*
X27022Y12586D01*
X27011Y12593D01*
X27005Y12596D01*
X27001D01*
X26915Y12634D01*
X26830Y12661D01*
X26751Y12682D01*
X26682Y12695D01*
X26621Y12702D01*
X26597Y12706D01*
X26576Y12709D01*
X27550D01*
X24034D01*
X26535D01*
X26480Y12706D01*
X26425Y12702D01*
X26322Y12682D01*
X26233Y12654D01*
X26192Y12637D01*
X26157Y12623D01*
X26123Y12606D01*
X26092Y12589D01*
X26068Y12575D01*
X26048Y12562D01*
X26030Y12551D01*
X26017Y12541D01*
X26010Y12538D01*
X26006Y12534D01*
X25965Y12500D01*
X25928Y12466D01*
X25859Y12387D01*
X25804Y12304D01*
X25760Y12225D01*
X25725Y12154D01*
X25712Y12123D01*
X25701Y12095D01*
X25694Y12075D01*
X25688Y12058D01*
X25684Y12047D01*
Y12044D01*
X25640Y12123D01*
X25591Y12195D01*
X25540Y12256D01*
X25492Y12308D01*
X25447Y12349D01*
X25410Y12380D01*
X25396Y12390D01*
X25386Y12397D01*
X25379Y12404D01*
X25375D01*
X25297Y12449D01*
X25218Y12483D01*
X25142Y12507D01*
X25070Y12520D01*
X25012Y12531D01*
X24984Y12534D01*
X24964D01*
X24947Y12538D01*
X24933D01*
X24926D01*
X24923D01*
X24840Y12534D01*
X24761Y12520D01*
X24693Y12503D01*
X24631Y12483D01*
X24580Y12462D01*
X24559Y12452D01*
X24542Y12445D01*
X24528Y12438D01*
X24518Y12431D01*
X24514Y12428D01*
X24511D01*
X24446Y12387D01*
X24387Y12342D01*
X24336Y12294D01*
X24295Y12253D01*
X24261Y12215D01*
X24237Y12184D01*
X24219Y12164D01*
X24216Y12160D01*
Y12157D01*
X24178Y12095D01*
X24148Y12030D01*
X24123Y11972D01*
X24103Y11913D01*
X24089Y11862D01*
X24079Y11824D01*
X24075Y11811D01*
X24072Y11800D01*
Y11790D01*
X24065Y11749D01*
X24058Y11704D01*
X24051Y11608D01*
X24045Y11505D01*
X24038Y11402D01*
Y11313D01*
X24034Y11272D01*
Y9766D01*
X27550D01*
Y12709D01*
D02*
G37*
%LPD*%
G36*
X26157Y14211D02*
X24854Y14688D01*
X26157Y15175D01*
Y14211D01*
D02*
G37*
G36*
X26566Y11975D02*
X26624Y11961D01*
X26675Y11948D01*
X26720Y11927D01*
X26754Y11910D01*
X26778Y11893D01*
X26792Y11879D01*
X26799Y11876D01*
X26837Y11834D01*
X26867Y11793D01*
X26891Y11752D01*
X26909Y11711D01*
X26922Y11673D01*
X26929Y11646D01*
X26936Y11625D01*
Y11618D01*
X26939Y11594D01*
X26943Y11567D01*
X26946Y11536D01*
Y11498D01*
X26953Y11419D01*
Y11337D01*
X26957Y11258D01*
Y10476D01*
X26020D01*
Y11135D01*
X26024Y11214D01*
Y11286D01*
X26027Y11351D01*
X26030Y11409D01*
X26037Y11461D01*
X26041Y11505D01*
X26044Y11543D01*
X26051Y11577D01*
X26054Y11605D01*
X26058Y11629D01*
X26065Y11646D01*
X26068Y11660D01*
Y11670D01*
X26072Y11677D01*
X26092Y11728D01*
X26120Y11773D01*
X26144Y11811D01*
X26171Y11845D01*
X26195Y11869D01*
X26216Y11886D01*
X26230Y11896D01*
X26233Y11900D01*
X26278Y11927D01*
X26322Y11944D01*
X26367Y11958D01*
X26408Y11968D01*
X26445Y11975D01*
X26473Y11979D01*
X26494D01*
X26497D01*
X26500D01*
X26566Y11975D01*
D02*
G37*
G36*
X25084Y11845D02*
X25139Y11831D01*
X25187Y11814D01*
X25225Y11797D01*
X25259Y11776D01*
X25279Y11759D01*
X25297Y11745D01*
X25300Y11742D01*
X25334Y11701D01*
X25362Y11653D01*
X25386Y11608D01*
X25399Y11560D01*
X25410Y11519D01*
X25420Y11488D01*
Y11474D01*
X25423Y11464D01*
Y11433D01*
X25427Y11406D01*
Y11372D01*
X25430Y11334D01*
Y11248D01*
X25434Y11159D01*
Y10476D01*
X24621D01*
Y11124D01*
X24624Y11190D01*
Y11296D01*
X24628Y11337D01*
Y11406D01*
X24631Y11430D01*
Y11464D01*
X24634Y11474D01*
Y11488D01*
X24645Y11550D01*
X24662Y11605D01*
X24682Y11653D01*
X24703Y11690D01*
X24724Y11718D01*
X24741Y11738D01*
X24755Y11752D01*
X24758Y11756D01*
X24799Y11787D01*
X24844Y11811D01*
X24888Y11824D01*
X24929Y11838D01*
X24967Y11845D01*
X24995Y11848D01*
X25015D01*
X25019D01*
X25022D01*
X25084Y11845D01*
D02*
G37*
%LPC*%
G36*
X55190Y89793D02*
X54576D01*
Y88880D01*
X53654D01*
Y88249D01*
X54576D01*
Y87337D01*
X55190D01*
Y88249D01*
X56113D01*
Y88880D01*
X55190D01*
Y89793D01*
D02*
G37*
G36*
X62629Y18005D02*
X62015D01*
Y17092D01*
X61092D01*
Y16461D01*
X62015D01*
Y15549D01*
X62629D01*
Y16461D01*
X63551D01*
Y17092D01*
X62629D01*
Y18005D01*
D02*
G37*
G36*
X27411Y29232D02*
X24619D01*
Y28639D01*
X25661D01*
Y25716D01*
X26371D01*
Y28639D01*
X27411D01*
Y29232D01*
D02*
G37*
G36*
X15186D02*
X13680D01*
Y25716D01*
X14994D01*
X15107Y25720D01*
X15296D01*
X15375Y25723D01*
X15443D01*
X15505Y25727D01*
X15557D01*
X15601Y25730D01*
X15639D01*
X15670Y25734D01*
X15694D01*
X15711Y25737D01*
X15732D01*
X15834Y25754D01*
X15924Y25778D01*
X16006Y25806D01*
X16075Y25833D01*
X16102Y25847D01*
X16129Y25860D01*
X16153Y25874D01*
X16171Y25884D01*
X16184Y25891D01*
X16195Y25898D01*
X16202Y25905D01*
X16205D01*
X16274Y25960D01*
X16335Y26018D01*
X16387Y26076D01*
X16431Y26135D01*
X16466Y26186D01*
X16479Y26210D01*
X16490Y26227D01*
X16500Y26245D01*
X16507Y26255D01*
X16510Y26262D01*
Y26265D01*
X16548Y26351D01*
X16575Y26437D01*
X16596Y26515D01*
X16610Y26584D01*
X16616Y26646D01*
X16620Y26670D01*
X16623Y26691D01*
Y26732D01*
X16620Y26787D01*
X16616Y26841D01*
X16596Y26944D01*
X16568Y27033D01*
X16551Y27075D01*
X16538Y27109D01*
X16521Y27143D01*
X16503Y27174D01*
X16490Y27198D01*
X16476Y27219D01*
X16466Y27236D01*
X16455Y27250D01*
X16452Y27256D01*
X16448Y27260D01*
X16414Y27301D01*
X16380Y27339D01*
X16301Y27407D01*
X16219Y27462D01*
X16140Y27507D01*
X16068Y27541D01*
X16037Y27555D01*
X16009Y27565D01*
X15989Y27572D01*
X15972Y27579D01*
X15961Y27582D01*
X15958D01*
X16037Y27627D01*
X16109Y27675D01*
X16171Y27726D01*
X16222Y27774D01*
X16263Y27819D01*
X16294Y27857D01*
X16304Y27870D01*
X16311Y27881D01*
X16318Y27887D01*
Y27891D01*
X16363Y27970D01*
X16397Y28049D01*
X16421Y28124D01*
X16435Y28196D01*
X16445Y28255D01*
X16448Y28282D01*
Y28303D01*
X16452Y28320D01*
Y28333D01*
Y28340D01*
Y28344D01*
X16448Y28426D01*
X16435Y28505D01*
X16418Y28574D01*
X16397Y28635D01*
X16376Y28687D01*
X16366Y28707D01*
X16359Y28725D01*
X16352Y28738D01*
X16346Y28749D01*
X16342Y28752D01*
Y28755D01*
X16301Y28820D01*
X16256Y28879D01*
X16208Y28930D01*
X16167Y28971D01*
X16129Y29006D01*
X16099Y29030D01*
X16078Y29047D01*
X16075Y29050D01*
X16071D01*
X16009Y29088D01*
X15944Y29119D01*
X15886Y29143D01*
X15828Y29164D01*
X15776Y29177D01*
X15739Y29188D01*
X15725Y29191D01*
X15714Y29194D01*
X15704D01*
X15663Y29201D01*
X15618Y29208D01*
X15522Y29215D01*
X15419Y29222D01*
X15317Y29229D01*
X15227D01*
X15186Y29232D01*
D02*
G37*
G36*
X13008D02*
X10405D01*
Y25716D01*
X13077D01*
Y26310D01*
X11115D01*
Y27267D01*
X12878D01*
Y27860D01*
X11115D01*
Y28639D01*
X13008D01*
Y29232D01*
D02*
G37*
G36*
X8443D02*
X6858D01*
Y25716D01*
X7568D01*
Y27184D01*
X7795D01*
X7870Y27178D01*
X7932Y27171D01*
X7983Y27164D01*
X8021Y27157D01*
X8048Y27150D01*
X8062Y27147D01*
X8069Y27143D01*
X8110Y27126D01*
X8151Y27102D01*
X8186Y27078D01*
X8217Y27054D01*
X8244Y27030D01*
X8264Y27013D01*
X8278Y26999D01*
X8282Y26996D01*
X8302Y26972D01*
X8326Y26944D01*
X8354Y26910D01*
X8381Y26872D01*
X8443Y26787D01*
X8505Y26697D01*
X8563Y26615D01*
X8590Y26581D01*
X8611Y26546D01*
X8628Y26519D01*
X8645Y26498D01*
X8652Y26485D01*
X8655Y26481D01*
X9167Y25716D01*
X10017D01*
X9585Y26402D01*
X9540Y26478D01*
X9496Y26543D01*
X9455Y26608D01*
X9414Y26663D01*
X9379Y26715D01*
X9345Y26763D01*
X9314Y26804D01*
X9287Y26841D01*
X9263Y26872D01*
X9242Y26900D01*
X9222Y26920D01*
X9208Y26941D01*
X9197Y26955D01*
X9187Y26965D01*
X9184Y26968D01*
X9180Y26972D01*
X9122Y27030D01*
X9060Y27085D01*
X8995Y27136D01*
X8937Y27181D01*
X8882Y27215D01*
X8861Y27232D01*
X8841Y27243D01*
X8824Y27253D01*
X8813Y27260D01*
X8806Y27267D01*
X8803D01*
X8889Y27280D01*
X8968Y27301D01*
X9040Y27322D01*
X9108Y27346D01*
X9170Y27373D01*
X9228Y27400D01*
X9280Y27428D01*
X9324Y27455D01*
X9365Y27483D01*
X9400Y27507D01*
X9431Y27531D01*
X9455Y27551D01*
X9475Y27569D01*
X9489Y27582D01*
X9496Y27589D01*
X9499Y27593D01*
X9540Y27644D01*
X9575Y27696D01*
X9609Y27747D01*
X9633Y27802D01*
X9657Y27857D01*
X9674Y27911D01*
X9705Y28014D01*
X9712Y28062D01*
X9719Y28107D01*
X9726Y28145D01*
X9729Y28179D01*
X9732Y28207D01*
Y28227D01*
Y28241D01*
Y28244D01*
Y28303D01*
X9726Y28357D01*
X9708Y28464D01*
X9685Y28556D01*
X9671Y28598D01*
X9657Y28639D01*
X9640Y28673D01*
X9626Y28704D01*
X9612Y28731D01*
X9602Y28755D01*
X9592Y28773D01*
X9585Y28786D01*
X9582Y28793D01*
X9578Y28796D01*
X9547Y28841D01*
X9516Y28882D01*
X9448Y28951D01*
X9379Y29013D01*
X9314Y29057D01*
X9256Y29092D01*
X9232Y29105D01*
X9208Y29119D01*
X9191Y29126D01*
X9177Y29133D01*
X9170Y29136D01*
X9167D01*
X9115Y29153D01*
X9060Y29167D01*
X8998Y29181D01*
X8933Y29191D01*
X8796Y29208D01*
X8662Y29222D01*
X8601Y29225D01*
X8542Y29229D01*
X8487D01*
X8443Y29232D01*
D02*
G37*
G36*
X22636Y29294D02*
X22602D01*
X22444Y29287D01*
X22372Y29280D01*
X22300Y29273D01*
X22235Y29263D01*
X22170Y29249D01*
X22111Y29236D01*
X22060Y29225D01*
X22012Y29212D01*
X21967Y29198D01*
X21930Y29188D01*
X21899Y29174D01*
X21875Y29167D01*
X21854Y29160D01*
X21844Y29153D01*
X21840D01*
X21751Y29109D01*
X21666Y29061D01*
X21587Y29006D01*
X21521Y28954D01*
X21463Y28910D01*
X21439Y28889D01*
X21422Y28868D01*
X21405Y28855D01*
X21395Y28844D01*
X21388Y28838D01*
X21384Y28834D01*
X21312Y28752D01*
X21247Y28670D01*
X21192Y28587D01*
X21144Y28515D01*
X21124Y28481D01*
X21106Y28450D01*
X21093Y28423D01*
X21079Y28399D01*
X21072Y28381D01*
X21065Y28368D01*
X21058Y28357D01*
Y28354D01*
X21031Y28285D01*
X21007Y28210D01*
X20966Y28059D01*
X20938Y27908D01*
X20928Y27836D01*
X20921Y27768D01*
X20914Y27702D01*
X20908Y27641D01*
X20904Y27589D01*
Y27541D01*
X20901Y27503D01*
Y27452D01*
X20908Y27298D01*
X20921Y27154D01*
X20942Y27020D01*
X20973Y26893D01*
X21007Y26773D01*
X21048Y26667D01*
X21089Y26567D01*
X21134Y26478D01*
X21175Y26399D01*
X21216Y26330D01*
X21257Y26272D01*
X21292Y26224D01*
X21323Y26183D01*
X21343Y26155D01*
X21360Y26142D01*
X21364Y26135D01*
X21453Y26052D01*
X21549Y25977D01*
X21652Y25915D01*
X21755Y25860D01*
X21858Y25812D01*
X21960Y25775D01*
X22063Y25744D01*
X22159Y25716D01*
X22252Y25699D01*
X22338Y25682D01*
X22413Y25672D01*
X22478Y25665D01*
X22533Y25662D01*
X22557D01*
X22574Y25658D01*
X22609D01*
X22749Y25665D01*
X22883Y25679D01*
X23010Y25703D01*
X23130Y25734D01*
X23240Y25771D01*
X23343Y25809D01*
X23435Y25854D01*
X23518Y25898D01*
X23593Y25943D01*
X23658Y25987D01*
X23717Y26028D01*
X23761Y26063D01*
X23799Y26094D01*
X23826Y26118D01*
X23840Y26131D01*
X23847Y26138D01*
X23929Y26231D01*
X24001Y26334D01*
X24063Y26440D01*
X24118Y26550D01*
X24162Y26660D01*
X24200Y26769D01*
X24231Y26879D01*
X24255Y26985D01*
X24276Y27082D01*
X24289Y27174D01*
X24300Y27256D01*
X24307Y27328D01*
X24310Y27359D01*
Y27387D01*
X24314Y27411D01*
Y27469D01*
X24307Y27627D01*
X24293Y27774D01*
X24269Y27911D01*
X24241Y28042D01*
X24204Y28159D01*
X24166Y28272D01*
X24121Y28371D01*
X24080Y28460D01*
X24036Y28543D01*
X23991Y28611D01*
X23953Y28673D01*
X23916Y28721D01*
X23888Y28759D01*
X23864Y28786D01*
X23850Y28803D01*
X23844Y28810D01*
X23754Y28896D01*
X23655Y28971D01*
X23555Y29033D01*
X23452Y29092D01*
X23350Y29136D01*
X23247Y29177D01*
X23144Y29208D01*
X23048Y29232D01*
X22955Y29253D01*
X22873Y29270D01*
X22797Y29280D01*
X22729Y29287D01*
X22677Y29290D01*
X22653D01*
X22636Y29294D01*
D02*
G37*
G36*
X18815D02*
X18781D01*
X18623Y29287D01*
X18551Y29280D01*
X18479Y29273D01*
X18414Y29263D01*
X18349Y29249D01*
X18290Y29236D01*
X18239Y29225D01*
X18191Y29212D01*
X18146Y29198D01*
X18109Y29188D01*
X18078Y29174D01*
X18054Y29167D01*
X18033Y29160D01*
X18023Y29153D01*
X18019D01*
X17930Y29109D01*
X17844Y29061D01*
X17766Y29006D01*
X17700Y28954D01*
X17642Y28910D01*
X17618Y28889D01*
X17601Y28868D01*
X17584Y28855D01*
X17573Y28844D01*
X17567Y28838D01*
X17563Y28834D01*
X17491Y28752D01*
X17426Y28670D01*
X17371Y28587D01*
X17323Y28515D01*
X17302Y28481D01*
X17285Y28450D01*
X17272Y28423D01*
X17258Y28399D01*
X17251Y28381D01*
X17244Y28368D01*
X17237Y28357D01*
Y28354D01*
X17210Y28285D01*
X17186Y28210D01*
X17145Y28059D01*
X17117Y27908D01*
X17107Y27836D01*
X17100Y27768D01*
X17093Y27702D01*
X17086Y27641D01*
X17083Y27589D01*
Y27541D01*
X17080Y27503D01*
Y27452D01*
X17086Y27298D01*
X17100Y27154D01*
X17121Y27020D01*
X17152Y26893D01*
X17186Y26773D01*
X17227Y26667D01*
X17268Y26567D01*
X17313Y26478D01*
X17354Y26399D01*
X17395Y26330D01*
X17436Y26272D01*
X17471Y26224D01*
X17502Y26183D01*
X17522Y26155D01*
X17539Y26142D01*
X17543Y26135D01*
X17632Y26052D01*
X17728Y25977D01*
X17831Y25915D01*
X17934Y25860D01*
X18036Y25812D01*
X18139Y25775D01*
X18242Y25744D01*
X18338Y25716D01*
X18431Y25699D01*
X18517Y25682D01*
X18592Y25672D01*
X18657Y25665D01*
X18712Y25662D01*
X18736D01*
X18753Y25658D01*
X18788D01*
X18928Y25665D01*
X19062Y25679D01*
X19189Y25703D01*
X19309Y25734D01*
X19419Y25771D01*
X19522Y25809D01*
X19614Y25854D01*
X19697Y25898D01*
X19772Y25943D01*
X19837Y25987D01*
X19896Y26028D01*
X19940Y26063D01*
X19978Y26094D01*
X20005Y26118D01*
X20019Y26131D01*
X20026Y26138D01*
X20108Y26231D01*
X20180Y26334D01*
X20242Y26440D01*
X20297Y26550D01*
X20342Y26660D01*
X20379Y26769D01*
X20410Y26879D01*
X20434Y26985D01*
X20455Y27082D01*
X20468Y27174D01*
X20479Y27256D01*
X20486Y27328D01*
X20489Y27359D01*
Y27387D01*
X20492Y27411D01*
Y27469D01*
X20486Y27627D01*
X20472Y27774D01*
X20448Y27911D01*
X20420Y28042D01*
X20383Y28159D01*
X20345Y28272D01*
X20300Y28371D01*
X20259Y28460D01*
X20215Y28543D01*
X20170Y28611D01*
X20132Y28673D01*
X20095Y28721D01*
X20067Y28759D01*
X20043Y28786D01*
X20029Y28803D01*
X20022Y28810D01*
X19933Y28896D01*
X19834Y28971D01*
X19734Y29033D01*
X19632Y29092D01*
X19529Y29136D01*
X19426Y29177D01*
X19323Y29208D01*
X19227Y29232D01*
X19134Y29253D01*
X19052Y29270D01*
X18976Y29280D01*
X18908Y29287D01*
X18856Y29290D01*
X18832D01*
X18815Y29294D01*
D02*
G37*
%LPD*%
G36*
X15104Y28642D02*
X15210D01*
X15251Y28639D01*
X15320D01*
X15344Y28635D01*
X15378D01*
X15389Y28632D01*
X15402D01*
X15464Y28622D01*
X15519Y28604D01*
X15567Y28584D01*
X15605Y28563D01*
X15632Y28543D01*
X15653Y28526D01*
X15666Y28512D01*
X15670Y28508D01*
X15701Y28467D01*
X15725Y28423D01*
X15739Y28378D01*
X15752Y28337D01*
X15759Y28299D01*
X15763Y28272D01*
Y28251D01*
Y28248D01*
Y28244D01*
X15759Y28183D01*
X15745Y28128D01*
X15728Y28080D01*
X15711Y28042D01*
X15690Y28008D01*
X15673Y27987D01*
X15660Y27970D01*
X15656Y27966D01*
X15615Y27932D01*
X15567Y27905D01*
X15522Y27881D01*
X15474Y27867D01*
X15433Y27857D01*
X15402Y27846D01*
X15389D01*
X15378Y27843D01*
X15347D01*
X15320Y27839D01*
X15286D01*
X15248Y27836D01*
X15162D01*
X15073Y27833D01*
X14390D01*
Y28646D01*
X15039D01*
X15104Y28642D01*
D02*
G37*
G36*
X15128Y27243D02*
X15200D01*
X15265Y27239D01*
X15323Y27236D01*
X15375Y27229D01*
X15419Y27226D01*
X15457Y27222D01*
X15492Y27215D01*
X15519Y27212D01*
X15543Y27208D01*
X15560Y27202D01*
X15574Y27198D01*
X15584D01*
X15591Y27195D01*
X15642Y27174D01*
X15687Y27147D01*
X15725Y27123D01*
X15759Y27095D01*
X15783Y27071D01*
X15800Y27051D01*
X15811Y27037D01*
X15814Y27033D01*
X15841Y26989D01*
X15858Y26944D01*
X15872Y26900D01*
X15882Y26858D01*
X15889Y26821D01*
X15893Y26793D01*
Y26773D01*
Y26769D01*
Y26766D01*
X15889Y26701D01*
X15876Y26643D01*
X15862Y26591D01*
X15841Y26546D01*
X15824Y26512D01*
X15807Y26488D01*
X15793Y26474D01*
X15790Y26467D01*
X15749Y26430D01*
X15708Y26399D01*
X15666Y26375D01*
X15625Y26358D01*
X15587Y26344D01*
X15560Y26337D01*
X15540Y26330D01*
X15533D01*
X15509Y26327D01*
X15481Y26324D01*
X15450Y26320D01*
X15413D01*
X15334Y26313D01*
X15251D01*
X15172Y26310D01*
X14390D01*
Y27246D01*
X15049D01*
X15128Y27243D01*
D02*
G37*
G36*
X8384Y28635D02*
X8474D01*
X8511Y28632D01*
X8566D01*
X8587Y28628D01*
X8618D01*
X8628Y28625D01*
X8638D01*
X8700Y28611D01*
X8751Y28591D01*
X8800Y28570D01*
X8837Y28546D01*
X8868Y28526D01*
X8889Y28505D01*
X8902Y28491D01*
X8906Y28488D01*
X8937Y28443D01*
X8961Y28395D01*
X8978Y28347D01*
X8992Y28303D01*
X8998Y28261D01*
X9002Y28231D01*
Y28217D01*
Y28207D01*
Y28203D01*
Y28200D01*
X8998Y28145D01*
X8992Y28093D01*
X8978Y28045D01*
X8968Y28008D01*
X8954Y27977D01*
X8940Y27956D01*
X8933Y27939D01*
X8930Y27936D01*
X8899Y27901D01*
X8868Y27870D01*
X8834Y27843D01*
X8803Y27822D01*
X8772Y27809D01*
X8748Y27798D01*
X8734Y27792D01*
X8727Y27788D01*
X8700Y27781D01*
X8662Y27774D01*
X8621Y27768D01*
X8577Y27764D01*
X8525Y27761D01*
X8470Y27757D01*
X8364Y27754D01*
X8309Y27750D01*
X8261D01*
X8213Y27747D01*
X7568D01*
Y28639D01*
X8330D01*
X8384Y28635D01*
D02*
G37*
G36*
X22688Y28683D02*
X22767Y28673D01*
X22839Y28659D01*
X22904Y28639D01*
X22969Y28618D01*
X23024Y28594D01*
X23079Y28567D01*
X23127Y28539D01*
X23171Y28508D01*
X23209Y28484D01*
X23240Y28457D01*
X23267Y28436D01*
X23288Y28416D01*
X23302Y28402D01*
X23312Y28392D01*
X23315Y28388D01*
X23363Y28330D01*
X23404Y28265D01*
X23439Y28193D01*
X23470Y28121D01*
X23497Y28045D01*
X23518Y27973D01*
X23535Y27898D01*
X23549Y27826D01*
X23559Y27757D01*
X23569Y27692D01*
X23576Y27637D01*
X23579Y27586D01*
X23583Y27545D01*
Y27514D01*
Y27493D01*
Y27490D01*
Y27486D01*
X23579Y27376D01*
X23573Y27270D01*
X23559Y27174D01*
X23542Y27085D01*
X23518Y27003D01*
X23497Y26927D01*
X23470Y26862D01*
X23446Y26800D01*
X23422Y26745D01*
X23394Y26701D01*
X23374Y26660D01*
X23353Y26629D01*
X23333Y26601D01*
X23319Y26584D01*
X23312Y26574D01*
X23309Y26570D01*
X23257Y26515D01*
X23199Y26471D01*
X23140Y26430D01*
X23082Y26395D01*
X23024Y26365D01*
X22965Y26341D01*
X22911Y26320D01*
X22856Y26303D01*
X22804Y26289D01*
X22756Y26282D01*
X22715Y26275D01*
X22681Y26269D01*
X22650D01*
X22629Y26265D01*
X22609D01*
X22530Y26269D01*
X22458Y26279D01*
X22386Y26293D01*
X22321Y26313D01*
X22259Y26337D01*
X22201Y26361D01*
X22146Y26389D01*
X22098Y26419D01*
X22053Y26447D01*
X22015Y26474D01*
X21984Y26498D01*
X21957Y26522D01*
X21933Y26543D01*
X21919Y26557D01*
X21909Y26567D01*
X21906Y26570D01*
X21858Y26632D01*
X21816Y26697D01*
X21779Y26769D01*
X21748Y26841D01*
X21720Y26917D01*
X21700Y26992D01*
X21679Y27068D01*
X21666Y27140D01*
X21655Y27208D01*
X21645Y27270D01*
X21638Y27328D01*
X21635Y27376D01*
Y27418D01*
X21631Y27448D01*
Y27469D01*
Y27476D01*
X21635Y27586D01*
X21642Y27689D01*
X21655Y27785D01*
X21672Y27874D01*
X21693Y27956D01*
X21717Y28032D01*
X21741Y28097D01*
X21765Y28159D01*
X21789Y28210D01*
X21813Y28258D01*
X21837Y28296D01*
X21858Y28330D01*
X21875Y28354D01*
X21888Y28371D01*
X21895Y28381D01*
X21899Y28385D01*
X21950Y28440D01*
X22008Y28484D01*
X22063Y28526D01*
X22125Y28560D01*
X22183Y28587D01*
X22242Y28615D01*
X22300Y28632D01*
X22355Y28649D01*
X22406Y28663D01*
X22454Y28670D01*
X22499Y28676D01*
X22537Y28683D01*
X22568D01*
X22588Y28687D01*
X22609D01*
X22688Y28683D01*
D02*
G37*
G36*
X18867D02*
X18946Y28673D01*
X19017Y28659D01*
X19083Y28639D01*
X19148Y28618D01*
X19203Y28594D01*
X19258Y28567D01*
X19306Y28539D01*
X19350Y28508D01*
X19388Y28484D01*
X19419Y28457D01*
X19446Y28436D01*
X19467Y28416D01*
X19481Y28402D01*
X19491Y28392D01*
X19494Y28388D01*
X19542Y28330D01*
X19583Y28265D01*
X19618Y28193D01*
X19649Y28121D01*
X19676Y28045D01*
X19697Y27973D01*
X19714Y27898D01*
X19727Y27826D01*
X19738Y27757D01*
X19748Y27692D01*
X19755Y27637D01*
X19758Y27586D01*
X19762Y27545D01*
Y27514D01*
Y27493D01*
Y27490D01*
Y27486D01*
X19758Y27376D01*
X19752Y27270D01*
X19738Y27174D01*
X19721Y27085D01*
X19697Y27003D01*
X19676Y26927D01*
X19649Y26862D01*
X19625Y26800D01*
X19601Y26745D01*
X19573Y26701D01*
X19553Y26660D01*
X19532Y26629D01*
X19511Y26601D01*
X19498Y26584D01*
X19491Y26574D01*
X19487Y26570D01*
X19436Y26515D01*
X19378Y26471D01*
X19319Y26430D01*
X19261Y26395D01*
X19203Y26365D01*
X19144Y26341D01*
X19090Y26320D01*
X19035Y26303D01*
X18983Y26289D01*
X18935Y26282D01*
X18894Y26275D01*
X18860Y26269D01*
X18829D01*
X18808Y26265D01*
X18788D01*
X18709Y26269D01*
X18637Y26279D01*
X18565Y26293D01*
X18500Y26313D01*
X18438Y26337D01*
X18380Y26361D01*
X18325Y26389D01*
X18277Y26419D01*
X18232Y26447D01*
X18194Y26474D01*
X18164Y26498D01*
X18136Y26522D01*
X18112Y26543D01*
X18098Y26557D01*
X18088Y26567D01*
X18085Y26570D01*
X18036Y26632D01*
X17995Y26697D01*
X17958Y26769D01*
X17927Y26841D01*
X17899Y26917D01*
X17879Y26992D01*
X17858Y27068D01*
X17844Y27140D01*
X17834Y27208D01*
X17824Y27270D01*
X17817Y27328D01*
X17814Y27376D01*
Y27418D01*
X17810Y27448D01*
Y27469D01*
Y27476D01*
X17814Y27586D01*
X17820Y27689D01*
X17834Y27785D01*
X17851Y27874D01*
X17872Y27956D01*
X17896Y28032D01*
X17920Y28097D01*
X17944Y28159D01*
X17968Y28210D01*
X17992Y28258D01*
X18016Y28296D01*
X18036Y28330D01*
X18054Y28354D01*
X18067Y28371D01*
X18074Y28381D01*
X18078Y28385D01*
X18129Y28440D01*
X18188Y28484D01*
X18242Y28526D01*
X18304Y28560D01*
X18362Y28587D01*
X18421Y28615D01*
X18479Y28632D01*
X18534Y28649D01*
X18585Y28663D01*
X18633Y28670D01*
X18678Y28676D01*
X18716Y28683D01*
X18747D01*
X18767Y28687D01*
X18788D01*
X18867Y28683D01*
D02*
G37*
%LPC*%
G36*
X154575Y45016D02*
X153504D01*
D01*
X153177D01*
X153504D01*
X152877Y42615D01*
X152242Y45016D01*
X151179D01*
Y41500D01*
X152083D01*
X151837D01*
Y44265D01*
X152530Y41500D01*
X153213D01*
X153913Y44265D01*
X153916Y41500D01*
X154575D01*
Y45016D01*
D02*
G37*
G36*
X158077D02*
X156047D01*
X157367D01*
Y43071D01*
Y42996D01*
Y42924D01*
X157363Y42862D01*
X157360Y42800D01*
Y42745D01*
X157356Y42697D01*
X157353Y42652D01*
X157349Y42615D01*
X157346Y42581D01*
X157343Y42550D01*
X157339Y42526D01*
Y42505D01*
X157336Y42491D01*
X157332Y42481D01*
Y42474D01*
Y42471D01*
X157315Y42406D01*
X157291Y42347D01*
X157260Y42296D01*
X157229Y42255D01*
X157199Y42217D01*
X157171Y42189D01*
X157154Y42176D01*
X157150Y42169D01*
X157147D01*
X157116Y42148D01*
X157085Y42128D01*
X157013Y42100D01*
X156938Y42080D01*
X156866Y42063D01*
X156797Y42056D01*
X156770Y42052D01*
X156742D01*
X156722Y42049D01*
X156694D01*
X156588Y42056D01*
X156495Y42069D01*
X156413Y42090D01*
X156379Y42100D01*
X156348Y42114D01*
X156320Y42128D01*
X156293Y42138D01*
X156272Y42148D01*
X156255Y42159D01*
X156242Y42169D01*
X156231Y42172D01*
X156228Y42179D01*
X156224D01*
X156166Y42231D01*
X156118Y42289D01*
X156080Y42347D01*
X156053Y42402D01*
X156032Y42450D01*
X156019Y42491D01*
X156015Y42505D01*
X156012Y42515D01*
X156008Y42522D01*
Y42526D01*
X156005Y42553D01*
X156001Y42591D01*
X155998Y42628D01*
X155995Y42673D01*
X155991Y42769D01*
X155988Y42869D01*
Y42917D01*
X155984Y42961D01*
Y43002D01*
Y43040D01*
Y43071D01*
Y43091D01*
Y43109D01*
Y43112D01*
Y45016D01*
X155274D01*
Y41442D01*
D01*
Y43033D01*
X155278Y42930D01*
X155281Y42838D01*
X155285Y42752D01*
X155291Y42673D01*
X155295Y42598D01*
X155302Y42532D01*
X155309Y42474D01*
X155315Y42419D01*
X155322Y42375D01*
X155326Y42337D01*
X155333Y42303D01*
X155336Y42279D01*
X155340Y42261D01*
X155343Y42251D01*
Y42248D01*
X155367Y42172D01*
X155394Y42100D01*
X155429Y42035D01*
X155459Y41977D01*
X155490Y41929D01*
X155518Y41891D01*
X155528Y41874D01*
X155535Y41867D01*
X155542Y41860D01*
Y41857D01*
X155604Y41792D01*
X155669Y41733D01*
X155737Y41678D01*
X155803Y41637D01*
X155861Y41603D01*
X155885Y41589D01*
X155909Y41576D01*
X155926Y41569D01*
X155940Y41562D01*
X155947Y41555D01*
X155950D01*
X156001Y41534D01*
X156056Y41517D01*
X156118Y41503D01*
X156180Y41490D01*
X156307Y41469D01*
X156430Y41455D01*
X156489Y41452D01*
X156543Y41449D01*
X156591Y41445D01*
X156633D01*
X156667Y41442D01*
X156790D01*
X156866Y41445D01*
X156934Y41452D01*
X156996Y41459D01*
X157058Y41466D01*
X157113Y41476D01*
X157164Y41486D01*
X157209Y41497D01*
X157250Y41503D01*
X157288Y41514D01*
X157319Y41524D01*
X157343Y41531D01*
X157363Y41538D01*
X157380Y41545D01*
X157387Y41548D01*
X157391D01*
X157483Y41589D01*
X157565Y41637D01*
X157638Y41685D01*
X157696Y41730D01*
X157744Y41771D01*
X157778Y41802D01*
X157789Y41816D01*
X157799Y41826D01*
X157806Y41829D01*
Y41833D01*
X157861Y41905D01*
X157905Y41980D01*
X157939Y42052D01*
X157970Y42121D01*
X157991Y42183D01*
X158001Y42210D01*
X158008Y42231D01*
X158011Y42251D01*
X158015Y42265D01*
X158018Y42272D01*
Y42275D01*
X158029Y42327D01*
X158039Y42388D01*
X158046Y42454D01*
X158053Y42526D01*
X158063Y42673D01*
X158070Y42821D01*
X158073Y42889D01*
Y42954D01*
X158077Y43013D01*
Y45016D01*
D02*
G37*
G36*
X150510D02*
X149800D01*
Y41500D01*
X150510D01*
Y45016D01*
D02*
G37*
%LPD*%
D10*
X24123Y178700D02*
X23964Y179707D01*
X23501Y180615D01*
X22780Y181336D01*
X21872Y181799D01*
X20865Y181958D01*
X19858Y181799D01*
X18950Y181336D01*
X18229Y180615D01*
X17766Y179707D01*
X17606Y178700D01*
X17766Y177693D01*
X18229Y176785D01*
X18950Y176064D01*
X19858Y175601D01*
X20865Y175442D01*
X21872Y175601D01*
X22780Y176064D01*
X23501Y176785D01*
X23964Y177693D01*
X24123Y178700D01*
X21575D02*
X20865Y179410D01*
X20155Y178700D01*
X20865Y177990D01*
X21575Y178700D01*
X24123Y159700D02*
X23964Y160707D01*
X23501Y161615D01*
X22780Y162336D01*
X21872Y162799D01*
X20865Y162958D01*
X19858Y162799D01*
X18950Y162336D01*
X18229Y161615D01*
X17766Y160707D01*
X17606Y159700D01*
X17766Y158693D01*
X18229Y157785D01*
X18950Y157064D01*
X19858Y156601D01*
X20865Y156442D01*
X21872Y156601D01*
X22780Y157064D01*
X23501Y157785D01*
X23964Y158693D01*
X24123Y159700D01*
X21575D02*
X20865Y160410D01*
X20155Y159700D01*
X20865Y158990D01*
X21575Y159700D01*
X93118Y102500D02*
X92959Y103507D01*
X92496Y104415D01*
X91775Y105136D01*
X90867Y105599D01*
X89860Y105758D01*
X88853Y105599D01*
X87945Y105136D01*
X87224Y104415D01*
X86761Y103507D01*
X86601Y102500D01*
X86761Y101493D01*
X87224Y100585D01*
X87945Y99864D01*
X88853Y99401D01*
X89860Y99242D01*
X90867Y99401D01*
X91775Y99864D01*
X92496Y100585D01*
X92959Y101493D01*
X93118Y102500D01*
X90570D02*
X89860Y103210D01*
X89150Y102500D01*
X89860Y101790D01*
X90570Y102500D01*
X25589Y185098D02*
X27263D01*
Y172302D02*
Y185098D01*
X25589Y172302D02*
X27263D01*
X14467D02*
X16140D01*
X14467D02*
Y176338D01*
Y181062D02*
Y185098D01*
X16140D01*
X25589Y166098D02*
X27263D01*
Y153302D02*
Y166098D01*
X25589Y153302D02*
X27263D01*
X14467D02*
X16140D01*
X14467D02*
Y157338D01*
Y162062D02*
Y166098D01*
X16140D01*
X112978Y74295D02*
X117978D01*
X112978Y84295D02*
X117978D01*
X112978Y70295D02*
Y84295D01*
Y70295D02*
X117978D01*
Y84295D01*
X119695Y70295D02*
Y84295D01*
X124695D01*
Y70295D02*
Y84295D01*
X119695Y70295D02*
X124695D01*
X119695Y80295D02*
X124695D01*
X92600Y87500D02*
Y92500D01*
X102600Y87500D02*
Y92500D01*
X88600D02*
X102600D01*
X88600Y87500D02*
Y92500D01*
Y87500D02*
X102600D01*
X83462Y96102D02*
X85135D01*
X83462D02*
Y108898D01*
X85135D01*
X94584D02*
X96258D01*
Y104862D02*
Y108898D01*
Y96102D02*
Y100138D01*
X94584Y96102D02*
X96258D01*
D11*
X42298Y181100D02*
X41591Y181807D01*
X40884Y181100D01*
X41591Y180393D01*
X42298Y181100D01*
X88807Y128774D02*
X88100Y129481D01*
X87393Y128774D01*
X88100Y128067D01*
X88807Y128774D01*
D12*
X83948Y199697D02*
X83078Y199294D01*
X82233Y198841D01*
X81416Y198340D01*
X76556Y193442D02*
X76016Y192541D01*
X75535Y191608D01*
X75115Y190647D01*
X74756Y189661D01*
X74460Y188654D01*
X74229Y187630D01*
X74063Y186594D01*
X73963Y185549D01*
X73930Y184500D01*
X99514Y198340D02*
X98697Y198841D01*
X97852Y199294D01*
X96982Y199697D01*
X107000Y184500D02*
X106967Y185549D01*
X106867Y186594D01*
X106701Y187630D01*
X106470Y188654D01*
X106174Y189661D01*
X105815Y190647D01*
X105394Y191609D01*
X104913Y192541D01*
X104374Y193442D01*
X206671Y12000D02*
X206599Y13006D01*
X206385Y13992D01*
X206032Y14937D01*
X205549Y15823D01*
X204944Y16631D01*
X204231Y17344D01*
X203423Y17949D01*
X202537Y18432D01*
X201592Y18785D01*
X200606Y18999D01*
X199600Y19071D01*
X198594Y18999D01*
X197608Y18785D01*
X196663Y18432D01*
X195777Y17949D01*
X194969Y17344D01*
X194256Y16631D01*
X193651Y15823D01*
X193168Y14937D01*
X192815Y13992D01*
X192601Y13006D01*
X192529Y12000D01*
X192601Y10994D01*
X192815Y10008D01*
X193168Y9063D01*
X193651Y8177D01*
X194256Y7369D01*
X194969Y6656D01*
X195777Y6051D01*
X196663Y5568D01*
X197608Y5215D01*
X198594Y5001D01*
X199600Y4929D01*
X200606Y5001D01*
X201592Y5215D01*
X202537Y5568D01*
X203423Y6051D01*
X204231Y6656D01*
X204944Y7369D01*
X205549Y8177D01*
X206032Y9063D01*
X206385Y10008D01*
X206599Y10994D01*
X206671Y12000D01*
X65787Y3266D02*
X65037Y3699D01*
Y2833D01*
X65787Y3266D01*
X85519Y63926D02*
X84769Y64359D01*
Y63493D01*
X85519Y63926D01*
X110740Y167500D02*
Y175043D01*
X70189Y167500D02*
Y175043D01*
Y155957D02*
Y159000D01*
X110740Y155957D02*
Y159000D01*
X70189Y183224D02*
Y184500D01*
X110740Y183224D02*
Y184500D01*
X83948Y199657D02*
X96982D01*
X107000Y184500D02*
X110740D01*
X70189D02*
X73930D01*
X4165Y180100D02*
X10265D01*
X4265Y157900D02*
X10365D01*
X161100Y2000D02*
X207600D01*
X159600Y3500D02*
X161100Y2000D01*
X159600Y3500D02*
Y62500D01*
X161600Y64500D02*
X207600D01*
X159600Y62500D02*
X161600Y64500D01*
X207600D02*
X209600Y62500D01*
Y4000D02*
Y62500D01*
X207600Y2000D02*
X209600Y4000D01*
X68787Y2766D02*
X89416D01*
Y13117D02*
Y14766D01*
X68787D02*
X89416D01*
Y2766D02*
Y4514D01*
X68787Y12766D02*
Y14766D01*
X72287Y12766D02*
Y14081D01*
X68787Y2766D02*
Y4766D01*
X72287Y3451D02*
Y4766D01*
X77587Y8766D02*
X80087Y7566D01*
X77587Y8766D02*
X79787Y9966D01*
Y8566D02*
Y9966D01*
X78696Y8766D02*
X79787Y8566D01*
X146836Y71709D02*
Y130709D01*
X203836D01*
X146836Y71709D02*
X200836D01*
Y101709D01*
X203836Y114709D02*
Y130709D01*
X200836Y101709D02*
X203836Y114709D01*
X62800Y63603D02*
X70674D01*
Y79351D01*
X54926D02*
X70674D01*
X54926Y63603D02*
Y79351D01*
Y63603D02*
X62800D01*
X85519Y67426D02*
Y88056D01*
X73519D02*
X75169D01*
X73519Y67426D02*
Y88056D01*
X83772D02*
X85519D01*
X73519Y67426D02*
X75520D01*
X74205Y70926D02*
X75520D01*
X83520Y67426D02*
X85519D01*
X83520Y70926D02*
X84834D01*
X79519Y76226D02*
X80720Y78726D01*
X78320Y78426D02*
X79519Y76226D01*
X78320Y78426D02*
X79720D01*
X79520Y77336D02*
X79720Y78426D01*
X9820Y37641D02*
X12700D01*
X9820Y62444D02*
X12700D01*
X21500Y37641D02*
X24780D01*
X21500Y62444D02*
X24780D01*
X9820Y37641D02*
Y62444D01*
X24780Y37641D02*
Y62444D01*
X19400Y42800D02*
X22300D01*
Y56800D01*
X19400D02*
X22300D01*
X13300Y46900D02*
Y52800D01*
X15300Y49800D02*
X17900D01*
X19700D02*
X22300D01*
X58984Y74476D02*
Y68478D01*
X62983D01*
X64982D02*
X66981D01*
X65982D01*
Y74476D01*
X64982Y73476D01*
D13*
X110703Y35265D02*
X109965Y35691D01*
Y34839D01*
X110703Y35265D01*
X136362Y14707D02*
X135623Y15133D01*
Y14281D01*
X136362Y14707D01*
X70934Y21625D02*
X70196Y22051D01*
Y21199D01*
X70934Y21625D01*
X128131Y52702D02*
X127393Y53128D01*
Y52276D01*
X128131Y52702D01*
D14*
X114300Y61514D02*
X113700D01*
X114300D01*
X106361Y58615D02*
X108395D01*
X126061Y56580D02*
Y58615D01*
X106361Y38915D02*
Y40949D01*
X126061Y38915D02*
Y40949D01*
X124026Y58615D02*
X126061D01*
X106361Y56580D02*
Y58615D01*
Y38915D02*
X108395D01*
X124026D02*
X126061D01*
X207100Y42000D02*
X202102D01*
Y44499D01*
X202935Y45332D01*
X204601D01*
X205434Y44499D01*
Y42000D01*
X207100Y46998D02*
X202102D01*
Y49498D01*
X202935Y50331D01*
X204601D01*
X205434Y49498D01*
Y46998D01*
X202935Y55329D02*
X202102Y54496D01*
Y52830D01*
X202935Y51997D01*
X203768D01*
X204601Y52830D01*
Y54496D01*
X205434Y55329D01*
X206267D01*
X207100Y54496D01*
Y52830D01*
X206267Y51997D01*
X197100Y42000D02*
X192102D01*
Y44499D01*
X192935Y45332D01*
X194601D01*
X195434Y44499D01*
Y42000D01*
Y43666D02*
X197100Y45332D01*
X192102Y46998D02*
X197100Y50331D01*
X192102D02*
X197100Y46998D01*
X182102Y42000D02*
Y45332D01*
Y43666D01*
X187100D01*
X182102Y46998D02*
X187100Y50331D01*
X182102D02*
X187100Y46998D01*
X172935Y45332D02*
X172102Y44499D01*
Y42833D01*
X172935Y42000D01*
X176267D01*
X177100Y42833D01*
Y44499D01*
X176267Y45332D01*
X174601D01*
Y43666D01*
X177100Y46998D02*
X172102D01*
X177100Y50331D01*
X172102D01*
Y51997D02*
X177100D01*
Y54496D01*
X176267Y55329D01*
X172935D01*
X172102Y54496D01*
Y51997D01*
X162102Y42000D02*
X165434D01*
X167100Y43666D01*
X165434Y45332D01*
X162102D01*
X162935Y50331D02*
X162102Y49498D01*
Y47831D01*
X162935Y46998D01*
X166267D01*
X167100Y47831D01*
Y49498D01*
X166267Y50331D01*
X162935Y55329D02*
X162102Y54496D01*
Y52830D01*
X162935Y51997D01*
X166267D01*
X167100Y52830D01*
Y54496D01*
X166267Y55329D01*
D15*
X52365Y177600D02*
X60365D01*
Y174100D02*
Y177600D01*
Y156100D02*
Y164100D01*
X35365Y156100D02*
X60365D01*
X35365D02*
Y164100D01*
Y177600D02*
X43365D01*
X35365Y174100D02*
Y177600D01*
X138243Y17526D02*
Y23333D01*
X148480Y17526D02*
Y23333D01*
X138243D02*
X140015D01*
X146708D02*
X148480D01*
X81100Y135000D02*
X84600D01*
Y127000D02*
Y135000D01*
X63100D02*
X71100D01*
X63100Y110000D02*
Y135000D01*
Y110000D02*
X71100D01*
X81100D02*
X84600D01*
Y118000D01*
X45411Y65937D02*
X46789D01*
Y58063D02*
Y65937D01*
X45411Y58063D02*
X46789D01*
X45411D02*
Y65937D01*
X39899Y66528D02*
X44033D01*
X34347Y55450D02*
X48795D01*
X38205Y49150D02*
X48795D01*
X38205Y39044D02*
X52653D01*
X38205Y45344D02*
X48795D01*
X34347Y35150D02*
X48795D01*
X38205Y28850D02*
X48795D01*
X121347Y64128D02*
Y65900D01*
X114654Y64128D02*
Y65900D01*
X131379Y53785D02*
Y55851D01*
X133446D01*
X145454D02*
X147521D01*
Y53785D02*
Y55851D01*
Y39710D02*
Y41777D01*
X145454Y39710D02*
X147521D01*
X131379D02*
X133446D01*
X131379D02*
Y41777D01*
X129598Y65557D02*
X132944D01*
X129598D02*
Y69887D01*
X138456Y65557D02*
X141802D01*
Y69887D01*
X95843Y49498D02*
Y52844D01*
X91513Y49498D02*
X95843D01*
Y58356D02*
Y61702D01*
X91513D02*
X95843D01*
X69670Y58309D02*
X74001D01*
Y54962D02*
Y58309D01*
X69670Y46104D02*
X74001D01*
Y49450D01*
X98356Y76138D02*
X101702D01*
Y71807D02*
Y76138D01*
X89498D02*
X92844D01*
X89498Y71807D02*
Y76138D01*
D16*
X76842Y8766D02*
X80342Y6766D01*
Y10766D01*
X76842Y8766D02*
X80342Y10766D01*
X76842Y6766D02*
Y10766D01*
X23097Y73286D02*
Y96514D01*
X35400Y83463D02*
Y86337D01*
X46719Y92774D02*
Y96514D01*
X23097D02*
X46719D01*
X23431Y86337D02*
X35400D01*
X46719Y92577D02*
Y92774D01*
X34908Y92577D02*
X46719D01*
X32546D02*
X34908D01*
X32546Y89034D02*
Y92577D01*
Y89034D02*
X44357D01*
X46719Y73286D02*
Y77026D01*
X23097Y73286D02*
X46719D01*
X23431Y83463D02*
X35400D01*
X46719Y77026D02*
Y77223D01*
X34908D02*
X46719D01*
X32546D02*
X34908D01*
X32546D02*
Y80766D01*
X44357D01*
X40294Y8766D02*
X52105D01*
X40294Y5223D02*
Y8766D01*
Y5223D02*
X42656D01*
X54467D01*
Y5026D02*
Y5223D01*
X31180Y11463D02*
X43148D01*
X30845Y1286D02*
X54467D01*
Y5026D01*
X40294Y17034D02*
X52105D01*
X40294D02*
Y20577D01*
X42656D01*
X54467D01*
Y20774D01*
X31180Y14337D02*
X43148D01*
X30845Y24514D02*
X54467D01*
Y20774D02*
Y24514D01*
X43148Y11463D02*
Y14337D01*
X30845Y1286D02*
Y24514D01*
X79519Y75481D02*
X81520Y78981D01*
X77520D02*
X81520D01*
X77520D02*
X79519Y75481D01*
X77520D02*
X81520D01*
X130458Y8860D02*
Y15860D01*
X130486Y-5158D02*
Y860D01*
X96458Y8860D02*
Y15860D01*
X96431Y-5158D02*
Y860D01*
Y-5158D02*
X130486D01*
D17*
X37513Y60887D02*
Y62187D01*
X37163Y60887D02*
X37513Y60887D01*
X37163Y60887D02*
Y62187D01*
X37513Y62187D01*
X35613Y60887D02*
X35963D01*
Y62187D01*
X35613D02*
X35963D01*
X35613Y60887D02*
Y62187D01*
X151427Y17224D02*
Y18524D01*
X151778Y18524D01*
Y17224D02*
Y18524D01*
X151427Y17224D02*
X151778Y17224D01*
X152978Y18524D02*
X153328D01*
X152978Y17224D02*
Y18524D01*
Y17224D02*
X153328D01*
Y18524D01*
X58770Y28150D02*
X60070D01*
X60070Y27800D02*
X60070Y28150D01*
X58770Y27800D02*
X60070D01*
X58770Y28150D02*
X58770Y27800D01*
X60070Y26250D02*
Y26600D01*
X58770D02*
X60070D01*
X58770Y26250D02*
Y26600D01*
Y26250D02*
X60070D01*
X58791Y33026D02*
X60091D01*
X58791D02*
X58791Y33376D01*
X60091D01*
X60091Y33026D01*
X58791Y34576D02*
Y34926D01*
Y34576D02*
X60091D01*
Y34926D01*
X58791D02*
X60091D01*
X58791Y29528D02*
X60091D01*
X58791D02*
X58791Y29878D01*
X60091D01*
X60091Y29528D01*
X58791Y31078D02*
Y31428D01*
Y31078D02*
X60091D01*
Y31428D01*
X58791D02*
X60091D01*
X62050Y44219D02*
X63350D01*
Y43869D02*
Y44219D01*
X62050Y43869D02*
X63350D01*
X62050D02*
Y44219D01*
X63350Y42669D02*
X63350Y42319D01*
X62050Y42669D02*
X63350D01*
X62050Y42319D02*
X62050Y42669D01*
X62050Y42319D02*
X63350D01*
X88650Y21550D02*
X89950D01*
X88650D02*
X88650Y21900D01*
X89950D01*
X89950Y21550D01*
X88650Y23100D02*
Y23450D01*
Y23100D02*
X89950D01*
Y23450D01*
X88650D02*
X89950D01*
X86250Y33150D02*
Y34450D01*
X86600D01*
Y33150D02*
Y34450D01*
X86250Y33150D02*
X86600D01*
X87800Y34450D02*
X88150Y34450D01*
X87800Y33150D02*
Y34450D01*
Y33150D02*
X88150Y33150D01*
Y34450D01*
X88650Y25050D02*
X89950D01*
X88650D02*
Y25400D01*
X89950D01*
Y25050D02*
Y25400D01*
X88650Y26950D02*
X88650Y26600D01*
X89950D01*
X89950Y26950D01*
X88650D02*
X89950D01*
X95700Y31850D02*
Y32250D01*
X94400Y31150D02*
Y31850D01*
X94900Y31150D02*
Y31850D01*
X93600D02*
Y32250D01*
Y31850D02*
X94400D01*
Y31150D02*
X94900D01*
Y31850D02*
X95700D01*
X93600Y32250D02*
X95700D01*
X92240Y31832D02*
Y32232D01*
X90940Y31132D02*
Y31832D01*
X91440Y31132D02*
Y31832D01*
X90140D02*
Y32232D01*
Y31832D02*
X90940D01*
Y31132D02*
X91440D01*
Y31832D02*
X92240D01*
X90140Y32232D02*
X92240D01*
X28550Y63800D02*
X28900D01*
X28550Y62000D02*
X28900D01*
Y63800D01*
X28550Y62000D02*
Y63800D01*
X29850Y62000D02*
Y63800D01*
X29500Y62000D02*
Y63800D01*
X29850D01*
X29500Y62000D02*
X29850D01*
X28550Y60400D02*
X28900D01*
X28550Y58600D02*
X28900D01*
Y60400D01*
X28550Y58600D02*
Y60400D01*
X29850Y58600D02*
Y60400D01*
X29500Y58600D02*
Y60400D01*
X29850D01*
X29500Y58600D02*
X29850D01*
X28550Y67200D02*
X28900D01*
X28550Y65400D02*
X28900D01*
Y67200D01*
X28550Y65400D02*
Y67200D01*
X29850Y65400D02*
Y67200D01*
X29500Y65400D02*
Y67200D01*
X29850D01*
X29500Y65400D02*
X29850D01*
X28550Y57000D02*
X28900D01*
X28550Y55200D02*
X28900D01*
Y57000D01*
X28550Y55200D02*
Y57000D01*
X29850Y55200D02*
Y57000D01*
X29500Y55200D02*
Y57000D01*
X29850D01*
X29500Y55200D02*
X29850D01*
X28550Y70600D02*
X28900D01*
X28550Y68800D02*
X28900D01*
Y70600D01*
X28550Y68800D02*
Y70600D01*
X29850Y68800D02*
Y70600D01*
X29500Y68800D02*
Y70600D01*
X29850D01*
X29500Y68800D02*
X29850D01*
X72930Y44399D02*
X73280D01*
X72930Y42599D02*
X73280D01*
Y44399D01*
X72930Y42599D02*
Y44399D01*
X74230Y42599D02*
Y44399D01*
X73880Y42599D02*
Y44399D01*
X74230D01*
X73880Y42599D02*
X74230D01*
X62408Y22211D02*
Y22561D01*
X60608Y22211D02*
Y22561D01*
Y22211D02*
X62408D01*
X60608Y22561D02*
X62408D01*
X60608Y21261D02*
X62408D01*
X60608Y21611D02*
X62408D01*
Y21261D02*
Y21611D01*
X60608Y21261D02*
Y21611D01*
X65900Y22213D02*
Y22563D01*
X64100Y22213D02*
Y22563D01*
Y22213D02*
X65900D01*
X64100Y22563D02*
X65900D01*
X64100Y21263D02*
X65900D01*
X64100Y21613D02*
X65900D01*
Y21263D02*
Y21613D01*
X64100Y21263D02*
Y21613D01*
X37950Y68350D02*
X39250D01*
X37950D02*
X37950Y68700D01*
X39250D01*
X39250Y68350D01*
X37950Y69900D02*
Y70250D01*
Y69900D02*
X39250D01*
Y70250D01*
X37950D02*
X39250D01*
X29500Y46225D02*
X29850D01*
X29500Y48025D02*
X29850D01*
X29500Y46225D02*
Y48025D01*
X29850Y46225D02*
Y48025D01*
X28550Y46225D02*
Y48025D01*
X28900Y46225D02*
Y48025D01*
X28550Y46225D02*
X28900D01*
X28550Y48025D02*
X28900D01*
X65900Y81159D02*
X66250D01*
X65900Y82959D02*
X66250D01*
X65900Y81159D02*
Y82959D01*
X66250Y81159D02*
Y82959D01*
X64950Y81159D02*
Y82959D01*
X65300Y81159D02*
Y82959D01*
X64950Y81159D02*
X65300D01*
X64950Y82959D02*
X65300D01*
X56700Y55500D02*
Y55850D01*
X54900Y55500D02*
Y55850D01*
Y55500D02*
X56700D01*
X54900Y55850D02*
X56700D01*
X54900Y54550D02*
X56700D01*
X54900Y54900D02*
X56700D01*
Y54550D02*
Y54900D01*
X54900Y54550D02*
Y54900D01*
X29500Y42825D02*
X29850D01*
X29500Y44625D02*
X29850D01*
X29500Y42825D02*
Y44625D01*
X29850Y42825D02*
Y44625D01*
X28550Y42825D02*
Y44625D01*
X28900Y42825D02*
Y44625D01*
X28550Y42825D02*
X28900D01*
X28550Y44625D02*
X28900D01*
X29500Y39325D02*
X29850D01*
X29500Y41125D02*
X29850D01*
X29500Y39325D02*
Y41125D01*
X29850Y39325D02*
Y41125D01*
X28550Y39325D02*
Y41125D01*
X28900Y39325D02*
Y41125D01*
X28550Y39325D02*
X28900D01*
X28550Y41125D02*
X28900D01*
X29500Y35825D02*
X29850D01*
X29500Y37625D02*
X29850D01*
X29500Y35825D02*
Y37625D01*
X29850Y35825D02*
Y37625D01*
X28550Y35825D02*
Y37625D01*
X28900Y35825D02*
Y37625D01*
X28550Y35825D02*
X28900D01*
X28550Y37625D02*
X28900D01*
X29500Y32325D02*
X29850D01*
X29500Y34125D02*
X29850D01*
X29500Y32325D02*
Y34125D01*
X29850Y32325D02*
Y34125D01*
X28550Y32325D02*
Y34125D01*
X28900Y32325D02*
Y34125D01*
X28550Y32325D02*
X28900D01*
X28550Y34125D02*
X28900D01*
X88100Y42000D02*
Y42350D01*
X86300Y42000D02*
Y42350D01*
Y42000D02*
X88100D01*
X86300Y42350D02*
X88100D01*
X86300Y41050D02*
X88100D01*
X86300Y41400D02*
X88100D01*
Y41050D02*
Y41400D01*
X86300Y41050D02*
Y41400D01*
X73880Y39000D02*
X74230D01*
X73880Y40800D02*
X74230D01*
X73880Y39000D02*
Y40800D01*
X74230Y39000D02*
Y40800D01*
X72930Y39000D02*
Y40800D01*
X73280Y39000D02*
Y40800D01*
X72930Y39000D02*
X73280D01*
X72930Y40800D02*
X73280D01*
X93654Y115706D02*
X94954D01*
Y115356D02*
Y115706D01*
X93654Y115356D02*
X94954D01*
X93654D02*
Y115706D01*
X94954Y114156D02*
X94954Y113806D01*
X93654Y114156D02*
X94954D01*
X93654Y113806D02*
X93654Y114156D01*
X93654Y113806D02*
X94954D01*
X93654Y117306D02*
X94954D01*
X93654D02*
X93654Y117656D01*
X94954D01*
X94954Y117306D01*
X93654Y118856D02*
Y119206D01*
Y118856D02*
X94954D01*
Y119206D01*
X93654D02*
X94954D01*
X137746Y103100D02*
X139046D01*
X137746D02*
X137746Y103450D01*
X139046D01*
X139046Y103100D01*
X137746Y104650D02*
Y105000D01*
Y104650D02*
X139046D01*
Y105000D01*
X137746D02*
X139046D01*
X137778Y99568D02*
X139078D01*
X137778D02*
X137778Y99918D01*
X139078D01*
X139078Y99568D01*
X137778Y101118D02*
Y101468D01*
Y101118D02*
X139078D01*
Y101468D01*
X137778D02*
X139078D01*
X137746Y108500D02*
X139046D01*
Y108150D02*
Y108500D01*
X137746Y108150D02*
X139046D01*
X137746D02*
Y108500D01*
X139046Y106950D02*
X139046Y106600D01*
X137746Y106950D02*
X139046D01*
X137746Y106600D02*
X137746Y106950D01*
X137746Y106600D02*
X139046D01*
X137778Y112000D02*
X139078D01*
Y111650D02*
Y112000D01*
X137778Y111650D02*
X139078D01*
X137778D02*
Y112000D01*
X139078Y110450D02*
X139078Y110100D01*
X137778Y110450D02*
X139078D01*
X137778Y110100D02*
X137778Y110450D01*
X137778Y110100D02*
X139078D01*
X137778Y115500D02*
X139078D01*
Y115150D02*
Y115500D01*
X137778Y115150D02*
X139078D01*
X137778D02*
Y115500D01*
X139078Y113950D02*
X139078Y113600D01*
X137778Y113950D02*
X139078D01*
X137778Y113600D02*
X137778Y113950D01*
X137778Y113600D02*
X139078D01*
X137778Y119015D02*
X139078D01*
Y118665D02*
Y119015D01*
X137778Y118665D02*
X139078D01*
X137778D02*
Y119015D01*
X139078Y117465D02*
X139078Y117115D01*
X137778Y117465D02*
X139078D01*
X137778Y117115D02*
X137778Y117465D01*
X137778Y117115D02*
X139078D01*
X137894Y123727D02*
X139194D01*
X137894D02*
Y124077D01*
X139194D01*
Y123727D02*
Y124077D01*
X137894Y125627D02*
X137894Y125277D01*
X139194D01*
X139194Y125627D01*
X137894D02*
X139194D01*
X137994Y127129D02*
Y129229D01*
X138394Y128429D02*
Y129229D01*
X139094Y127929D02*
Y128429D01*
X138394Y127129D02*
Y127929D01*
X137994Y127129D02*
X138394D01*
Y128429D02*
X139094D01*
X138394Y127929D02*
X139094D01*
X137994Y129229D02*
X138394D01*
X103150Y62850D02*
Y64150D01*
X103500Y64150D01*
Y62850D02*
Y64150D01*
X103150Y62850D02*
X103500Y62850D01*
X104700Y64150D02*
X105050D01*
X104700Y62850D02*
Y64150D01*
Y62850D02*
X105050D01*
Y64150D01*
X111794Y64179D02*
Y65479D01*
X111444Y64179D02*
X111794Y64179D01*
X111444Y64179D02*
Y65479D01*
X111794Y65479D01*
X109894Y64179D02*
X110244D01*
Y65479D01*
X109894D02*
X110244D01*
X109894Y64179D02*
Y65479D01*
X124550Y64239D02*
Y65539D01*
X124900Y65539D01*
Y64239D02*
Y65539D01*
X124550Y64239D02*
X124900Y64239D01*
X126100Y65539D02*
X126450D01*
X126100Y64239D02*
Y65539D01*
Y64239D02*
X126450D01*
Y65539D01*
X107524Y31986D02*
Y33286D01*
X107874D01*
Y31986D02*
Y33286D01*
X107524Y31986D02*
X107874D01*
X109074Y33286D02*
X109424Y33286D01*
X109074Y31986D02*
Y33286D01*
Y31986D02*
X109424Y31986D01*
Y33286D01*
X121256Y31805D02*
Y33105D01*
X120906Y31805D02*
X121256D01*
X120906D02*
Y33105D01*
X121256D01*
X119356Y31805D02*
X119706Y31805D01*
Y33105D01*
X119356Y33105D02*
X119706Y33105D01*
X119356Y31805D02*
Y33105D01*
X122720Y31805D02*
Y33105D01*
X123070D01*
Y31805D02*
Y33105D01*
X122720Y31805D02*
X123070D01*
X124270Y33105D02*
X124620Y33105D01*
X124270Y31805D02*
Y33105D01*
Y31805D02*
X124620Y31805D01*
Y33105D01*
X134700Y32700D02*
X135050D01*
X134700Y34500D02*
X135050D01*
X134700Y32700D02*
Y34500D01*
X135050Y32700D02*
Y34500D01*
X133750Y32700D02*
Y34500D01*
X134100Y32700D02*
Y34500D01*
X133750Y32700D02*
X134100D01*
X133750Y34500D02*
X134100D01*
X142579Y32651D02*
Y33001D01*
X140779Y32651D02*
Y33001D01*
Y32651D02*
X142579D01*
X140779Y33001D02*
X142579D01*
X140779Y31701D02*
X142579D01*
X140779Y32051D02*
X142579D01*
Y31701D02*
Y32051D01*
X140779Y31701D02*
Y32051D01*
X146818Y31701D02*
Y32051D01*
X148618Y31701D02*
Y32051D01*
X146818D02*
X148618D01*
X146818Y31701D02*
X148618D01*
X146818Y33001D02*
X148618D01*
X146818Y32651D02*
X148618D01*
X146818D02*
Y33001D01*
X148618Y32651D02*
Y33001D01*
X146950Y60100D02*
X147300D01*
X146950Y61900D02*
X147300D01*
X146950Y60100D02*
Y61900D01*
X147300Y60100D02*
Y61900D01*
X146000Y60100D02*
Y61900D01*
X146350Y60100D02*
Y61900D01*
X146000Y60100D02*
X146350D01*
X146000Y61900D02*
X146350D01*
X132950Y83150D02*
X134250D01*
Y82800D02*
Y83150D01*
X132950Y82800D02*
X134250D01*
X132950D02*
Y83150D01*
X134250Y81600D02*
X134250Y81250D01*
X132950Y81600D02*
X134250D01*
X132950Y81250D02*
X132950Y81600D01*
X132950Y81250D02*
X134250D01*
X132950Y79650D02*
X134250D01*
Y79300D02*
Y79650D01*
X132950Y79300D02*
X134250D01*
X132950D02*
Y79650D01*
X134250Y78100D02*
X134250Y77750D01*
X132950Y78100D02*
X134250D01*
X132950Y77750D02*
X132950Y78100D01*
X132950Y77750D02*
X134250D01*
X127403Y93450D02*
Y94750D01*
X127753D01*
Y93450D02*
Y94750D01*
X127403Y93450D02*
X127753D01*
X128954Y94750D02*
X129304Y94750D01*
X128954Y93450D02*
Y94750D01*
Y93450D02*
X129304Y93450D01*
Y94750D01*
X124000Y93450D02*
Y93800D01*
X125800Y93450D02*
Y93800D01*
X124000D02*
X125800D01*
X124000Y93450D02*
X125800D01*
X124000Y94750D02*
X125800D01*
X124000Y94400D02*
X125800D01*
X124000D02*
Y94750D01*
X125800Y94400D02*
Y94750D01*
X132722Y94400D02*
Y94750D01*
X130922Y94400D02*
Y94750D01*
Y94400D02*
X132722D01*
X130922Y94750D02*
X132722D01*
X130922Y93450D02*
X132722D01*
X130922Y93800D02*
X132722D01*
Y93450D02*
Y93800D01*
X130922Y93450D02*
Y93800D01*
X59350Y54450D02*
Y55750D01*
X59700Y55750D01*
Y54450D02*
Y55750D01*
X59350Y54450D02*
X59700Y54450D01*
X60900Y55750D02*
X61250D01*
X60900Y54450D02*
Y55750D01*
Y54450D02*
X61250D01*
Y55750D01*
X63600Y6000D02*
Y6350D01*
X61800Y6000D02*
Y6350D01*
Y6000D02*
X63600D01*
X61800Y6350D02*
X63600D01*
X61800Y5050D02*
X63600D01*
X61800Y5400D02*
X63600D01*
Y5050D02*
Y5400D01*
X61800Y5050D02*
Y5400D01*
X66965Y61268D02*
X67315D01*
X66965Y63068D02*
X67315D01*
X66965Y61268D02*
Y63068D01*
X67315Y61268D02*
Y63068D01*
X66015Y61268D02*
Y63068D01*
X66365Y61268D02*
Y63068D01*
X66015Y61268D02*
X66365D01*
X66015Y63068D02*
X66365D01*
X94600Y128800D02*
X94950D01*
X94600Y130600D02*
X94950D01*
X94600Y128800D02*
Y130600D01*
X94950Y128800D02*
Y130600D01*
X93650Y128800D02*
Y130600D01*
X94000Y128800D02*
Y130600D01*
X93650Y128800D02*
X94000D01*
X93650Y130600D02*
X94000D01*
X106775Y96121D02*
X107125D01*
X106775Y97921D02*
X107125D01*
X106775Y96121D02*
Y97921D01*
X107125Y96121D02*
Y97921D01*
X105825Y96121D02*
Y97921D01*
X106175Y96121D02*
Y97921D01*
X105825Y96121D02*
X106175D01*
X105825Y97921D02*
X106175D01*
X105750Y92250D02*
X107050D01*
X105750D02*
X105750Y92600D01*
X107050D01*
X107050Y92250D01*
X105750Y93800D02*
Y94150D01*
Y93800D02*
X107050D01*
Y94150D01*
X105750D02*
X107050D01*
X98690Y84077D02*
X99040D01*
X98690Y82277D02*
X99040D01*
Y84077D01*
X98690Y82277D02*
Y84077D01*
X99990Y82277D02*
Y84077D01*
X99640Y82277D02*
Y84077D01*
X99990D01*
X99640Y82277D02*
X99990D01*
X92160D02*
X92510D01*
X92160Y84077D02*
X92510D01*
X92160Y82277D02*
Y84077D01*
X92510Y82277D02*
Y84077D01*
X91210Y82277D02*
Y84077D01*
X91560Y82277D02*
Y84077D01*
X91210Y82277D02*
X91560D01*
X91210Y84077D02*
X91560D01*
X99450Y41050D02*
Y42350D01*
X99100Y41050D02*
X99450Y41050D01*
X99100Y41050D02*
Y42350D01*
X99450Y42350D01*
X97550Y41050D02*
X97900D01*
Y42350D01*
X97550D02*
X97900D01*
X97550Y41050D02*
Y42350D01*
X99457Y33161D02*
Y34461D01*
X99107Y33161D02*
X99457Y33161D01*
X99107Y33161D02*
Y34461D01*
X99457Y34461D01*
X97557Y33161D02*
X97907D01*
Y34461D01*
X97557D02*
X97907D01*
X97557Y33161D02*
Y34461D01*
X82250Y57250D02*
Y58550D01*
X81900Y57250D02*
X82250Y57250D01*
X81900Y57250D02*
Y58550D01*
X82250Y58550D01*
X80350Y57250D02*
X80700D01*
Y58550D01*
X80350D02*
X80700D01*
X80350Y57250D02*
Y58550D01*
D18*
X153600Y55652D02*
X154600Y54652D01*
X152600D02*
X153600Y55652D01*
X157100Y52100D02*
X158100Y51100D01*
X157100Y50100D02*
X158100Y51100D01*
X153600Y46600D02*
Y55652D01*
X151100Y52200D02*
Y53600D01*
X152500D01*
X151100D02*
X153600Y51100D01*
X149600D02*
X157600D01*
X2759Y72249D02*
X2209Y72799D01*
X1110D01*
X560Y72249D01*
Y70050D01*
X1110Y69500D01*
X2209D01*
X2759Y70050D01*
Y71149D01*
X1660D01*
X3859Y69500D02*
Y72799D01*
X6058Y69500D01*
Y72799D01*
X7158D02*
Y69500D01*
X8807D01*
X9357Y70050D01*
Y72249D01*
X8807Y72799D01*
X7158D01*
X560Y48074D02*
X1110Y48624D01*
X2209D01*
X2759Y48074D01*
Y47524D01*
X2209Y46974D01*
X1660D01*
X2209D01*
X2759Y46424D01*
Y45875D01*
X2209Y45325D01*
X1110D01*
X560Y45875D01*
X3859Y45325D02*
Y45875D01*
X4409D01*
Y45325D01*
X3859D01*
X6608Y48074D02*
X7158Y48624D01*
X8257D01*
X8807Y48074D01*
Y47524D01*
X8257Y46974D01*
X7707D01*
X8257D01*
X8807Y46424D01*
Y45875D01*
X8257Y45325D01*
X7158D01*
X6608Y45875D01*
X94151Y38287D02*
X93601Y37737D01*
Y36637D01*
X94151Y36088D01*
X96350D01*
X96900Y36637D01*
Y37737D01*
X96350Y38287D01*
X95250D01*
Y37187D01*
X93601Y41036D02*
Y39936D01*
X94151Y39386D01*
X96350D01*
X96900Y39936D01*
Y41036D01*
X96350Y41586D01*
X94151D01*
X93601Y41036D01*
Y44335D02*
Y43235D01*
X94151Y42685D01*
X96350D01*
X96900Y43235D01*
Y44335D01*
X96350Y44885D01*
X94151D01*
X93601Y44335D01*
Y45984D02*
X96900D01*
Y47634D01*
X96350Y48184D01*
X94151D01*
X93601Y47634D01*
Y45984D01*
X89441Y38353D02*
X88891Y37803D01*
Y36703D01*
X89441Y36154D01*
X91640D01*
X92190Y36703D01*
Y37803D01*
X91640Y38353D01*
X88891Y39453D02*
X92190D01*
X90541D01*
Y41652D01*
X88891D01*
X92190D01*
X89441Y44951D02*
X88891Y44401D01*
Y43301D01*
X89441Y42752D01*
X91640D01*
X92190Y43301D01*
Y44401D01*
X91640Y44951D01*
X90541D01*
Y43851D01*
X134200Y134049D02*
X134750Y134599D01*
X135849D01*
X136399Y134049D01*
Y133499D01*
X135849Y132949D01*
X135300D01*
X135849D01*
X136399Y132400D01*
Y131850D01*
X135849Y131300D01*
X134750D01*
X134200Y131850D01*
X137499Y134599D02*
Y132400D01*
X138599Y131300D01*
X139698Y132400D01*
Y134599D01*
X140798Y134049D02*
X141348Y134599D01*
X142447D01*
X142997Y134049D01*
Y133499D01*
X142447Y132949D01*
X141897D01*
X142447D01*
X142997Y132400D01*
Y131850D01*
X142447Y131300D01*
X141348D01*
X140798Y131850D01*
X105929Y13599D02*
Y9850D01*
X106679Y9100D01*
X108178D01*
X108928Y9850D01*
Y13599D01*
X113427Y12849D02*
X112677Y13599D01*
X111177D01*
X110428Y12849D01*
Y12099D01*
X111177Y11349D01*
X112677D01*
X113427Y10599D01*
Y9850D01*
X112677Y9100D01*
X111177D01*
X110428Y9850D01*
X114926Y13599D02*
Y9100D01*
X117175D01*
X117925Y9850D01*
Y10599D01*
X117175Y11349D01*
X114926D01*
X117175D01*
X117925Y12099D01*
Y12849D01*
X117175Y13599D01*
X114926D01*
X119425Y9100D02*
X120924D01*
X120175D01*
Y13599D01*
X119425Y12849D01*
X41748Y10663D02*
Y15161D01*
X43998D01*
X44747Y14412D01*
Y12912D01*
X43998Y12162D01*
X41748D01*
X46247Y10663D02*
X47746D01*
X46997D01*
Y15161D01*
X46247Y14412D01*
X17299Y51449D02*
X16549Y52199D01*
X15050D01*
X14300Y51449D01*
Y50699D01*
X15050Y49949D01*
X16549D01*
X17299Y49200D01*
Y48450D01*
X16549Y47700D01*
X15050D01*
X14300Y48450D01*
X18799Y47700D02*
X20298D01*
X19548D01*
Y52199D01*
X18799Y51449D01*
X135250Y50079D02*
Y46330D01*
X136000Y45581D01*
X137499D01*
X138249Y46330D01*
Y50079D01*
X142748D02*
X139749D01*
Y47830D01*
X141248Y48580D01*
X141998D01*
X142748Y47830D01*
Y46330D01*
X141998Y45581D01*
X140498D01*
X139749Y46330D01*
X111700Y119999D02*
Y116250D01*
X112450Y115500D01*
X113949D01*
X114699Y116250D01*
Y119999D01*
X118448Y115500D02*
Y119999D01*
X116199Y117749D01*
X119198D01*
X112511Y49563D02*
Y45815D01*
X113260Y45065D01*
X114760D01*
X115510Y45815D01*
Y49563D01*
X120008Y45065D02*
X117009D01*
X120008Y48064D01*
Y48814D01*
X119258Y49563D01*
X117759D01*
X117009Y48814D01*
X92600Y74799D02*
Y71050D01*
X93350Y70300D01*
X94849D01*
X95599Y71050D01*
Y74799D01*
X97099Y70300D02*
X98598D01*
X97848D01*
Y74799D01*
X97099Y74049D01*
X171936Y103407D02*
X174935D01*
X173436D01*
Y98909D01*
X179434Y103407D02*
X176435D01*
Y101158D01*
X177934D01*
X176435D01*
Y98909D01*
X180933D02*
X182433D01*
X181683D01*
Y103407D01*
X180933Y102657D01*
X134999Y67650D02*
Y70649D01*
X134249Y71399D01*
X132750D01*
X132000Y70649D01*
Y67650D01*
X132750Y66900D01*
X134249D01*
X133500Y68400D02*
X134999Y66900D01*
X134249D02*
X134999Y67650D01*
X138748Y66900D02*
Y71399D01*
X136499Y69149D01*
X139498D01*
X69752Y50678D02*
Y53677D01*
X69002Y54426D01*
X67503D01*
X66753Y53677D01*
Y50678D01*
X67503Y49928D01*
X69002D01*
X68253Y51428D02*
X69752Y49928D01*
X69002D02*
X69752Y50678D01*
X74251Y49928D02*
X71252D01*
X74251Y52927D01*
Y53677D01*
X73501Y54426D01*
X72001D01*
X71252Y53677D01*
X91167Y55501D02*
X94166D01*
X94916Y56251D01*
Y57750D01*
X94166Y58500D01*
X91167D01*
X90418Y57750D01*
Y56251D01*
X91917Y57000D02*
X90418Y55501D01*
Y56251D02*
X91167Y55501D01*
X90418Y54001D02*
Y52502D01*
Y53252D01*
X94916D01*
X94166Y54001D01*
D19*
X101647Y105551D02*
X103222Y103976D01*
X127631Y131535D02*
X129206D01*
Y103976D02*
Y105551D01*
X127631Y103976D02*
X129206D01*
Y129961D02*
Y131535D01*
X101647Y129961D02*
Y131535D01*
X103222D01*
M02*
