G04*
G04 #@! TF.GenerationSoftware,Altium Limited,Altium Designer,20.2.6 (244)*
G04*
G04 Layer_Color=8388736*
%FSLAX25Y25*%
%MOIN*%
G70*
G04*
G04 #@! TF.SameCoordinates,568CAEEB-50F0-44EC-8363-EC95FF72310B*
G04*
G04*
G04 #@! TF.FilePolarity,Positive*
G04*
G01*
G75*
%ADD136C,0.00200*%
G36*
X92890Y35182D02*
Y34182D01*
X92390D01*
X92291D01*
X92107Y34258D01*
X91966Y34399D01*
X91890Y34583D01*
Y34682D01*
D01*
Y35182D01*
X92890D01*
D02*
G37*
G36*
X96350Y35200D02*
Y34200D01*
X95850D01*
X95750D01*
X95567Y34276D01*
X95426Y34417D01*
X95350Y34600D01*
Y34700D01*
D01*
Y35200D01*
X96350D01*
D02*
G37*
G36*
X135044Y129879D02*
X136044D01*
Y129379D01*
Y129280D01*
X135968Y129096D01*
X135828Y128955D01*
X135644Y128879D01*
X135544D01*
D01*
X135044D01*
Y129879D01*
D02*
G37*
G36*
X95830Y32513D02*
X95828Y32490D01*
Y32465D01*
X95825Y32438D01*
X95823Y32408D01*
X95815Y32337D01*
X95802Y32265D01*
X95788Y32190D01*
X95765Y32118D01*
Y32115D01*
X95762Y32110D01*
X95758Y32100D01*
X95753Y32085D01*
X95748Y32070D01*
X95737Y32052D01*
X95718Y32008D01*
X95690Y31958D01*
X95657Y31907D01*
X95618Y31855D01*
X95573Y31805D01*
X95570Y31802D01*
X95568Y31800D01*
X95560Y31793D01*
X95550Y31785D01*
X95538Y31775D01*
X95520Y31762D01*
X95503Y31750D01*
X95482Y31735D01*
X95435Y31705D01*
X95377Y31672D01*
X95315Y31642D01*
X95243Y31618D01*
X95240D01*
X95232Y31615D01*
X95223Y31613D01*
X95208Y31607D01*
X95187Y31602D01*
X95165Y31598D01*
X95138Y31593D01*
X95108Y31585D01*
X95075Y31580D01*
X95038Y31575D01*
X95000Y31570D01*
X94958Y31565D01*
X94867Y31558D01*
X94767Y31555D01*
X94765D01*
X94755D01*
X94743D01*
X94725D01*
X94703Y31558D01*
X94675D01*
X94648Y31560D01*
X94615Y31563D01*
X94542Y31570D01*
X94465Y31582D01*
X94385Y31598D01*
X94305Y31618D01*
X94302D01*
X94295Y31620D01*
X94285Y31625D01*
X94270Y31630D01*
X94253Y31635D01*
X94232Y31645D01*
X94185Y31665D01*
X94130Y31692D01*
X94070Y31725D01*
X94010Y31765D01*
X93953Y31813D01*
X93950Y31815D01*
X93945Y31817D01*
X93937Y31825D01*
X93928Y31837D01*
X93918Y31850D01*
X93902Y31865D01*
X93888Y31883D01*
X93870Y31905D01*
X93835Y31953D01*
X93797Y32013D01*
X93760Y32078D01*
X93727Y32153D01*
Y32155D01*
X93725Y32162D01*
X93720Y32173D01*
X93715Y32190D01*
X93710Y32210D01*
X93703Y32232D01*
X93695Y32260D01*
X93690Y32293D01*
X93682Y32327D01*
X93675Y32365D01*
X93668Y32405D01*
X93663Y32450D01*
X93657Y32495D01*
X93652Y32542D01*
X93650Y32647D01*
Y33200D01*
X95830D01*
Y32513D01*
D02*
G37*
G36*
X94200Y31293D02*
X94227Y31290D01*
X94257Y31288D01*
X94292Y31280D01*
X94327Y31273D01*
X94360Y31262D01*
X94365Y31260D01*
X94375Y31258D01*
X94393Y31250D01*
X94412Y31240D01*
X94437Y31227D01*
X94463Y31212D01*
X94517Y31175D01*
X94520Y31172D01*
X94530Y31165D01*
X94542Y31152D01*
X94560Y31137D01*
X94580Y31117D01*
X94603Y31095D01*
X94648Y31045D01*
X94650Y31043D01*
X94657Y31032D01*
X94668Y31018D01*
X94683Y30997D01*
X94697Y30972D01*
X94715Y30945D01*
X94753Y30885D01*
X94755Y30887D01*
X94760Y30898D01*
X94770Y30913D01*
X94780Y30930D01*
X94795Y30953D01*
X94810Y30977D01*
X94848Y31027D01*
X94850Y31030D01*
X94858Y31038D01*
X94867Y31050D01*
X94883Y31065D01*
X94900Y31085D01*
X94920Y31102D01*
X94965Y31143D01*
X94968Y31145D01*
X94977Y31150D01*
X94990Y31160D01*
X95007Y31170D01*
X95030Y31185D01*
X95052Y31198D01*
X95080Y31210D01*
X95110Y31223D01*
X95113D01*
X95125Y31227D01*
X95140Y31230D01*
X95162Y31235D01*
X95190Y31240D01*
X95220Y31245D01*
X95253Y31247D01*
X95290Y31250D01*
X95293D01*
X95295D01*
X95310D01*
X95332Y31247D01*
X95363Y31245D01*
X95398Y31240D01*
X95435Y31230D01*
X95473Y31220D01*
X95512Y31205D01*
X95517Y31203D01*
X95530Y31198D01*
X95550Y31185D01*
X95575Y31170D01*
X95603Y31152D01*
X95635Y31130D01*
X95665Y31102D01*
X95695Y31070D01*
X95697Y31065D01*
X95707Y31053D01*
X95723Y31032D01*
X95740Y31008D01*
X95760Y30972D01*
X95783Y30935D01*
X95802Y30890D01*
X95820Y30840D01*
Y30838D01*
X95823Y30832D01*
X95825Y30825D01*
X95828Y30815D01*
X95830Y30803D01*
X95835Y30788D01*
X95842Y30748D01*
X95850Y30700D01*
X95858Y30645D01*
X95863Y30585D01*
X95865Y30518D01*
Y30475D01*
X95863Y30457D01*
X95860Y30415D01*
X95855Y30370D01*
X95850Y30318D01*
X95840Y30265D01*
X95828Y30215D01*
Y30213D01*
X95825Y30210D01*
Y30202D01*
X95820Y30193D01*
X95812Y30167D01*
X95802Y30135D01*
X95788Y30100D01*
X95770Y30062D01*
X95750Y30025D01*
X95725Y29990D01*
X95723Y29985D01*
X95713Y29975D01*
X95700Y29960D01*
X95680Y29940D01*
X95657Y29917D01*
X95630Y29895D01*
X95600Y29873D01*
X95568Y29853D01*
X95562Y29850D01*
X95552Y29845D01*
X95533Y29838D01*
X95508Y29827D01*
X95477Y29818D01*
X95442Y29810D01*
X95402Y29805D01*
X95363Y29803D01*
X95358D01*
X95345D01*
X95325Y29805D01*
X95300D01*
X95272Y29810D01*
X95240Y29815D01*
X95208Y29822D01*
X95175Y29833D01*
X95173D01*
X95160Y29838D01*
X95145Y29845D01*
X95125Y29853D01*
X95103Y29862D01*
X95078Y29877D01*
X95025Y29910D01*
X95022Y29912D01*
X95012Y29917D01*
X95000Y29928D01*
X94985Y29943D01*
X94965Y29960D01*
X94945Y29978D01*
X94923Y30000D01*
X94902Y30025D01*
X94900Y30027D01*
X94893Y30035D01*
X94883Y30050D01*
X94870Y30068D01*
X94855Y30088D01*
X94837Y30112D01*
X94802Y30165D01*
X94800Y30163D01*
X94795Y30150D01*
X94785Y30135D01*
X94772Y30115D01*
X94757Y30092D01*
X94743Y30065D01*
X94703Y30010D01*
X94700Y30007D01*
X94692Y29998D01*
X94683Y29983D01*
X94668Y29965D01*
X94650Y29945D01*
X94627Y29923D01*
X94605Y29902D01*
X94577Y29880D01*
X94575Y29877D01*
X94565Y29870D01*
X94550Y29860D01*
X94533Y29847D01*
X94507Y29835D01*
X94480Y29820D01*
X94450Y29805D01*
X94418Y29792D01*
X94412Y29790D01*
X94402Y29787D01*
X94385Y29783D01*
X94360Y29775D01*
X94330Y29768D01*
X94295Y29763D01*
X94257Y29760D01*
X94215Y29757D01*
X94213D01*
X94208D01*
X94200D01*
X94190D01*
X94162Y29760D01*
X94128Y29765D01*
X94085Y29772D01*
X94042Y29785D01*
X93998Y29800D01*
X93953Y29820D01*
X93947Y29822D01*
X93935Y29830D01*
X93913Y29845D01*
X93888Y29862D01*
X93858Y29888D01*
X93825Y29915D01*
X93792Y29948D01*
X93762Y29985D01*
X93760Y29990D01*
X93750Y30002D01*
X93738Y30025D01*
X93720Y30055D01*
X93703Y30092D01*
X93682Y30132D01*
X93665Y30180D01*
X93650Y30233D01*
Y30235D01*
X93647Y30240D01*
Y30248D01*
X93645Y30257D01*
X93642Y30270D01*
X93638Y30285D01*
X93633Y30325D01*
X93625Y30370D01*
X93617Y30422D01*
X93615Y30480D01*
X93612Y30540D01*
Y30588D01*
X93615Y30605D01*
X93617Y30650D01*
X93622Y30700D01*
X93628Y30755D01*
X93638Y30810D01*
X93650Y30865D01*
Y30867D01*
X93652Y30870D01*
X93655Y30878D01*
X93657Y30887D01*
X93668Y30915D01*
X93680Y30948D01*
X93695Y30985D01*
X93713Y31025D01*
X93735Y31065D01*
X93760Y31102D01*
X93762Y31108D01*
X93773Y31117D01*
X93787Y31135D01*
X93810Y31155D01*
X93835Y31180D01*
X93862Y31203D01*
X93897Y31227D01*
X93932Y31247D01*
X93937Y31250D01*
X93950Y31255D01*
X93972Y31262D01*
X94000Y31270D01*
X94033Y31280D01*
X94073Y31288D01*
X94115Y31293D01*
X94160Y31295D01*
X94162D01*
X94165D01*
X94180D01*
X94200Y31293D01*
D02*
G37*
G36*
X92370Y32495D02*
X92368Y32472D01*
Y32447D01*
X92365Y32420D01*
X92363Y32390D01*
X92355Y32320D01*
X92343Y32247D01*
X92328Y32172D01*
X92305Y32100D01*
Y32097D01*
X92303Y32092D01*
X92298Y32082D01*
X92293Y32067D01*
X92288Y32052D01*
X92278Y32035D01*
X92258Y31990D01*
X92230Y31940D01*
X92198Y31890D01*
X92158Y31837D01*
X92113Y31787D01*
X92110Y31785D01*
X92108Y31782D01*
X92100Y31775D01*
X92090Y31767D01*
X92078Y31757D01*
X92060Y31745D01*
X92043Y31732D01*
X92023Y31717D01*
X91975Y31687D01*
X91918Y31655D01*
X91855Y31625D01*
X91783Y31600D01*
X91780D01*
X91773Y31597D01*
X91763Y31595D01*
X91748Y31590D01*
X91728Y31585D01*
X91705Y31580D01*
X91678Y31575D01*
X91648Y31567D01*
X91615Y31562D01*
X91578Y31557D01*
X91540Y31552D01*
X91498Y31547D01*
X91408Y31540D01*
X91308Y31537D01*
X91305D01*
X91295D01*
X91283D01*
X91265D01*
X91243Y31540D01*
X91215D01*
X91188Y31542D01*
X91155Y31545D01*
X91083Y31552D01*
X91005Y31565D01*
X90925Y31580D01*
X90845Y31600D01*
X90843D01*
X90835Y31602D01*
X90825Y31607D01*
X90810Y31612D01*
X90793Y31617D01*
X90773Y31627D01*
X90725Y31647D01*
X90670Y31675D01*
X90610Y31707D01*
X90550Y31747D01*
X90493Y31795D01*
X90490Y31797D01*
X90485Y31800D01*
X90478Y31807D01*
X90468Y31820D01*
X90458Y31832D01*
X90443Y31847D01*
X90428Y31865D01*
X90410Y31887D01*
X90375Y31935D01*
X90338Y31995D01*
X90300Y32060D01*
X90268Y32135D01*
Y32137D01*
X90265Y32145D01*
X90260Y32155D01*
X90255Y32172D01*
X90250Y32192D01*
X90243Y32215D01*
X90235Y32242D01*
X90230Y32275D01*
X90223Y32310D01*
X90215Y32347D01*
X90208Y32387D01*
X90203Y32432D01*
X90198Y32477D01*
X90193Y32525D01*
X90190Y32630D01*
Y33182D01*
X92370D01*
Y32495D01*
D02*
G37*
G36*
Y29755D02*
X92015D01*
X90190Y30632D01*
Y31095D01*
X91978Y30225D01*
Y31270D01*
X92370D01*
Y29755D01*
D02*
G37*
G36*
X140337Y128977D02*
X139459D01*
Y128532D01*
X139657D01*
X139674Y128529D01*
X139717D01*
X139764Y128524D01*
X139819Y128519D01*
X139874Y128512D01*
X139932Y128502D01*
X139934D01*
X139939Y128499D01*
X139947D01*
X139957Y128497D01*
X139987Y128489D01*
X140022Y128477D01*
X140064Y128464D01*
X140109Y128444D01*
X140154Y128422D01*
X140199Y128397D01*
X140202D01*
X140204Y128394D01*
X140219Y128384D01*
X140239Y128367D01*
X140267Y128344D01*
X140297Y128314D01*
X140329Y128279D01*
X140359Y128239D01*
X140387Y128194D01*
Y128192D01*
X140389Y128189D01*
X140394Y128182D01*
X140397Y128172D01*
X140404Y128159D01*
X140409Y128144D01*
X140422Y128107D01*
X140434Y128062D01*
X140447Y128007D01*
X140454Y127947D01*
X140457Y127877D01*
Y127874D01*
Y127869D01*
Y127859D01*
Y127847D01*
X140454Y127832D01*
X140452Y127814D01*
X140447Y127772D01*
X140439Y127724D01*
X140424Y127672D01*
X140407Y127617D01*
X140382Y127564D01*
Y127562D01*
X140379Y127559D01*
X140374Y127552D01*
X140369Y127542D01*
X140352Y127517D01*
X140329Y127484D01*
X140302Y127449D01*
X140267Y127409D01*
X140224Y127372D01*
X140179Y127334D01*
X140177D01*
X140174Y127329D01*
X140167Y127324D01*
X140157Y127319D01*
X140144Y127312D01*
X140129Y127302D01*
X140092Y127282D01*
X140047Y127259D01*
X139994Y127237D01*
X139937Y127214D01*
X139872Y127194D01*
X139869D01*
X139864Y127192D01*
X139854Y127189D01*
X139842Y127187D01*
X139824Y127184D01*
X139804Y127179D01*
X139782Y127174D01*
X139757Y127172D01*
X139699Y127162D01*
X139637Y127154D01*
X139564Y127149D01*
X139489Y127147D01*
X139457D01*
X139439Y127149D01*
X139419D01*
X139377Y127152D01*
X139354D01*
X139342Y127154D01*
X139322D01*
X139304Y127157D01*
X139259Y127159D01*
X139249D01*
X139237Y127162D01*
X139222D01*
X139204Y127164D01*
X139184Y127167D01*
X139142Y127172D01*
X139139D01*
X139132Y127174D01*
X139122D01*
X139109Y127177D01*
X139074Y127182D01*
X139039Y127187D01*
Y127542D01*
X139044D01*
X139057Y127537D01*
X139077Y127534D01*
X139102Y127527D01*
X139134Y127522D01*
X139172Y127514D01*
X139212Y127507D01*
X139257Y127502D01*
X139269D01*
X139279Y127499D01*
X139302Y127497D01*
X139334D01*
X139372Y127494D01*
X139414Y127492D01*
X139462Y127489D01*
X139534D01*
X139549Y127492D01*
X139572D01*
X139594Y127494D01*
X139622Y127497D01*
X139652Y127502D01*
X139712Y127512D01*
X139774Y127529D01*
X139837Y127552D01*
X139864Y127567D01*
X139889Y127584D01*
X139892D01*
X139894Y127589D01*
X139909Y127602D01*
X139932Y127624D01*
X139957Y127654D01*
X139979Y127692D01*
X140002Y127737D01*
X140017Y127789D01*
X140019Y127819D01*
X140022Y127849D01*
Y127852D01*
Y127857D01*
Y127867D01*
X140019Y127879D01*
Y127894D01*
X140014Y127909D01*
X140007Y127949D01*
X139992Y127992D01*
X139969Y128034D01*
X139957Y128057D01*
X139939Y128077D01*
X139922Y128094D01*
X139899Y128112D01*
X139897D01*
X139894Y128117D01*
X139887Y128119D01*
X139877Y128127D01*
X139862Y128132D01*
X139847Y128139D01*
X139827Y128147D01*
X139804Y128157D01*
X139779Y128164D01*
X139749Y128172D01*
X139717Y128179D01*
X139682Y128187D01*
X139642Y128192D01*
X139599Y128197D01*
X139554Y128199D01*
X139079D01*
Y129359D01*
X140337D01*
Y128977D01*
D02*
G37*
G36*
X137754Y129357D02*
X137779D01*
X137807Y129354D01*
X137837Y129352D01*
X137907Y129344D01*
X137979Y129332D01*
X138054Y129317D01*
X138127Y129294D01*
X138129D01*
X138134Y129292D01*
X138144Y129287D01*
X138159Y129282D01*
X138174Y129277D01*
X138192Y129267D01*
X138237Y129247D01*
X138287Y129219D01*
X138337Y129187D01*
X138389Y129147D01*
X138439Y129102D01*
X138442Y129099D01*
X138444Y129097D01*
X138452Y129089D01*
X138459Y129079D01*
X138469Y129067D01*
X138482Y129049D01*
X138494Y129032D01*
X138509Y129012D01*
X138539Y128964D01*
X138572Y128907D01*
X138602Y128844D01*
X138627Y128772D01*
Y128769D01*
X138629Y128762D01*
X138632Y128752D01*
X138637Y128737D01*
X138642Y128717D01*
X138647Y128694D01*
X138652Y128667D01*
X138659Y128637D01*
X138664Y128604D01*
X138669Y128567D01*
X138674Y128529D01*
X138679Y128487D01*
X138687Y128397D01*
X138689Y128297D01*
Y128294D01*
Y128284D01*
Y128272D01*
Y128254D01*
X138687Y128232D01*
Y128204D01*
X138684Y128177D01*
X138682Y128144D01*
X138674Y128072D01*
X138662Y127994D01*
X138647Y127914D01*
X138627Y127834D01*
Y127832D01*
X138624Y127824D01*
X138619Y127814D01*
X138614Y127799D01*
X138609Y127782D01*
X138599Y127762D01*
X138579Y127714D01*
X138552Y127659D01*
X138519Y127599D01*
X138479Y127539D01*
X138432Y127482D01*
X138429Y127479D01*
X138427Y127474D01*
X138419Y127467D01*
X138407Y127457D01*
X138394Y127447D01*
X138379Y127432D01*
X138362Y127417D01*
X138339Y127399D01*
X138292Y127364D01*
X138232Y127327D01*
X138167Y127289D01*
X138092Y127257D01*
X138089D01*
X138082Y127254D01*
X138072Y127249D01*
X138054Y127244D01*
X138034Y127239D01*
X138012Y127232D01*
X137984Y127224D01*
X137952Y127219D01*
X137917Y127212D01*
X137879Y127204D01*
X137839Y127197D01*
X137794Y127192D01*
X137749Y127187D01*
X137702Y127182D01*
X137597Y127179D01*
X137044D01*
Y129359D01*
X137732D01*
X137754Y129357D01*
D02*
G37*
%LPC*%
G36*
X95487Y32790D02*
X93993D01*
Y32598D01*
X93995Y32580D01*
Y32560D01*
X93998Y32535D01*
X94002Y32508D01*
X94007Y32475D01*
X94015Y32440D01*
X94025Y32405D01*
X94037Y32368D01*
X94050Y32327D01*
X94068Y32290D01*
X94090Y32252D01*
X94112Y32217D01*
X94140Y32182D01*
X94173Y32153D01*
X94175Y32150D01*
X94180Y32145D01*
X94192Y32138D01*
X94208Y32127D01*
X94225Y32115D01*
X94250Y32103D01*
X94278Y32087D01*
X94310Y32072D01*
X94348Y32060D01*
X94390Y32045D01*
X94437Y32032D01*
X94488Y32020D01*
X94545Y32010D01*
X94605Y32002D01*
X94670Y31997D01*
X94740Y31995D01*
X94743D01*
X94748D01*
X94757D01*
X94770D01*
X94785D01*
X94802Y31997D01*
X94845D01*
X94895Y32002D01*
X94947Y32008D01*
X95003Y32015D01*
X95055Y32025D01*
X95057D01*
X95063D01*
X95068Y32028D01*
X95078Y32030D01*
X95105Y32037D01*
X95138Y32048D01*
X95175Y32060D01*
X95213Y32078D01*
X95253Y32098D01*
X95290Y32120D01*
X95295Y32122D01*
X95305Y32133D01*
X95323Y32147D01*
X95345Y32168D01*
X95367Y32195D01*
X95393Y32225D01*
X95415Y32263D01*
X95435Y32302D01*
X95438Y32307D01*
X95442Y32322D01*
X95452Y32348D01*
X95463Y32380D01*
X95470Y32420D01*
X95480Y32467D01*
X95485Y32522D01*
X95487Y32583D01*
Y32790D01*
D02*
G37*
G36*
X95318Y30852D02*
X95315D01*
X95307D01*
X95295Y30850D01*
X95280D01*
X95245Y30840D01*
X95225Y30835D01*
X95205Y30825D01*
X95202Y30823D01*
X95197Y30820D01*
X95187Y30812D01*
X95175Y30805D01*
X95145Y30780D01*
X95113Y30748D01*
X95110Y30745D01*
X95105Y30738D01*
X95098Y30727D01*
X95087Y30715D01*
X95075Y30698D01*
X95060Y30678D01*
X95033Y30630D01*
X95030Y30628D01*
X95025Y30617D01*
X95020Y30605D01*
X95010Y30588D01*
X94998Y30565D01*
X94985Y30540D01*
X94960Y30485D01*
X94963Y30483D01*
X94965Y30475D01*
X94972Y30463D01*
X94980Y30448D01*
X95003Y30413D01*
X95030Y30373D01*
X95033Y30370D01*
X95038Y30362D01*
X95045Y30355D01*
X95055Y30343D01*
X95080Y30312D01*
X95113Y30283D01*
X95115Y30280D01*
X95120Y30275D01*
X95130Y30268D01*
X95143Y30260D01*
X95173Y30240D01*
X95210Y30220D01*
X95213D01*
X95220Y30215D01*
X95230Y30213D01*
X95245Y30207D01*
X95262Y30202D01*
X95285Y30200D01*
X95330Y30195D01*
X95332D01*
X95335D01*
X95347Y30198D01*
X95367Y30200D01*
X95390Y30205D01*
X95417Y30217D01*
X95445Y30233D01*
X95473Y30253D01*
X95495Y30283D01*
X95498Y30288D01*
X95505Y30297D01*
X95512Y30318D01*
X95525Y30345D01*
X95535Y30380D01*
X95543Y30422D01*
X95550Y30470D01*
X95552Y30527D01*
Y30553D01*
X95550Y30580D01*
X95545Y30615D01*
X95538Y30655D01*
X95527Y30695D01*
X95512Y30733D01*
X95493Y30768D01*
X95490Y30770D01*
X95482Y30780D01*
X95468Y30795D01*
X95450Y30810D01*
X95425Y30825D01*
X95395Y30840D01*
X95360Y30850D01*
X95318Y30852D01*
D02*
G37*
G36*
X94192Y30885D02*
X94190D01*
X94187D01*
X94173Y30882D01*
X94150Y30880D01*
X94122Y30872D01*
X94090Y30860D01*
X94058Y30845D01*
X94028Y30820D01*
X94000Y30788D01*
X93998Y30782D01*
X93990Y30770D01*
X93980Y30748D01*
X93967Y30718D01*
X93955Y30680D01*
X93945Y30637D01*
X93937Y30585D01*
X93935Y30527D01*
Y30500D01*
X93937Y30483D01*
Y30463D01*
X93940Y30440D01*
X93947Y30390D01*
Y30387D01*
X93950Y30380D01*
X93955Y30367D01*
X93960Y30350D01*
X93975Y30315D01*
X93995Y30275D01*
X93998Y30272D01*
X94000Y30268D01*
X94007Y30257D01*
X94017Y30248D01*
X94042Y30220D01*
X94075Y30198D01*
X94077Y30195D01*
X94085Y30193D01*
X94095Y30187D01*
X94108Y30182D01*
X94125Y30178D01*
X94145Y30173D01*
X94168Y30167D01*
X94192D01*
X94195D01*
X94205D01*
X94217Y30170D01*
X94235Y30173D01*
X94255Y30175D01*
X94275Y30180D01*
X94297Y30190D01*
X94318Y30200D01*
X94320Y30202D01*
X94327Y30205D01*
X94337Y30213D01*
X94353Y30222D01*
X94367Y30235D01*
X94385Y30250D01*
X94420Y30288D01*
X94423Y30290D01*
X94428Y30297D01*
X94437Y30310D01*
X94450Y30325D01*
X94463Y30343D01*
X94477Y30365D01*
X94493Y30390D01*
X94507Y30417D01*
X94510Y30420D01*
X94515Y30430D01*
X94523Y30445D01*
X94535Y30463D01*
X94547Y30487D01*
X94560Y30512D01*
X94590Y30570D01*
X94587Y30573D01*
X94585Y30580D01*
X94577Y30593D01*
X94568Y30610D01*
X94557Y30628D01*
X94542Y30650D01*
X94515Y30692D01*
X94512Y30695D01*
X94507Y30702D01*
X94500Y30713D01*
X94490Y30727D01*
X94463Y30760D01*
X94428Y30792D01*
X94425Y30795D01*
X94420Y30800D01*
X94410Y30808D01*
X94397Y30817D01*
X94380Y30828D01*
X94362Y30840D01*
X94323Y30860D01*
X94320D01*
X94313Y30865D01*
X94300Y30867D01*
X94285Y30872D01*
X94265Y30878D01*
X94243Y30880D01*
X94192Y30885D01*
D02*
G37*
G36*
X92028Y32772D02*
X90533D01*
Y32580D01*
X90535Y32562D01*
Y32542D01*
X90538Y32517D01*
X90543Y32490D01*
X90548Y32457D01*
X90555Y32422D01*
X90565Y32387D01*
X90578Y32350D01*
X90590Y32310D01*
X90608Y32272D01*
X90630Y32235D01*
X90653Y32200D01*
X90680Y32165D01*
X90713Y32135D01*
X90715Y32132D01*
X90720Y32127D01*
X90733Y32120D01*
X90748Y32110D01*
X90765Y32097D01*
X90790Y32085D01*
X90818Y32070D01*
X90850Y32055D01*
X90888Y32042D01*
X90930Y32027D01*
X90978Y32015D01*
X91028Y32002D01*
X91085Y31992D01*
X91145Y31985D01*
X91210Y31980D01*
X91280Y31977D01*
X91283D01*
X91288D01*
X91298D01*
X91310D01*
X91325D01*
X91343Y31980D01*
X91385D01*
X91435Y31985D01*
X91488Y31990D01*
X91543Y31997D01*
X91595Y32007D01*
X91598D01*
X91603D01*
X91608Y32010D01*
X91618Y32012D01*
X91645Y32020D01*
X91678Y32030D01*
X91715Y32042D01*
X91753Y32060D01*
X91793Y32080D01*
X91830Y32102D01*
X91835Y32105D01*
X91845Y32115D01*
X91863Y32130D01*
X91885Y32150D01*
X91908Y32177D01*
X91933Y32207D01*
X91955Y32245D01*
X91975Y32285D01*
X91978Y32290D01*
X91983Y32305D01*
X91993Y32330D01*
X92003Y32362D01*
X92010Y32402D01*
X92020Y32450D01*
X92025Y32505D01*
X92028Y32565D01*
Y32772D01*
D02*
G37*
G36*
X137662Y129017D02*
X137454D01*
Y127522D01*
X137647D01*
X137664Y127524D01*
X137684D01*
X137709Y127527D01*
X137737Y127532D01*
X137769Y127537D01*
X137804Y127544D01*
X137839Y127554D01*
X137877Y127567D01*
X137917Y127579D01*
X137954Y127597D01*
X137992Y127619D01*
X138027Y127642D01*
X138062Y127669D01*
X138092Y127702D01*
X138094Y127704D01*
X138099Y127709D01*
X138107Y127722D01*
X138117Y127737D01*
X138129Y127754D01*
X138142Y127779D01*
X138157Y127807D01*
X138172Y127839D01*
X138184Y127877D01*
X138199Y127919D01*
X138212Y127967D01*
X138224Y128017D01*
X138234Y128074D01*
X138242Y128134D01*
X138247Y128199D01*
X138249Y128269D01*
Y128272D01*
Y128277D01*
Y128287D01*
Y128299D01*
Y128314D01*
X138247Y128332D01*
Y128374D01*
X138242Y128424D01*
X138237Y128477D01*
X138229Y128532D01*
X138219Y128584D01*
Y128587D01*
Y128592D01*
X138217Y128597D01*
X138214Y128607D01*
X138207Y128634D01*
X138197Y128667D01*
X138184Y128704D01*
X138167Y128742D01*
X138147Y128782D01*
X138124Y128819D01*
X138122Y128824D01*
X138112Y128834D01*
X138097Y128852D01*
X138077Y128874D01*
X138049Y128897D01*
X138019Y128922D01*
X137982Y128944D01*
X137942Y128964D01*
X137937Y128967D01*
X137922Y128972D01*
X137897Y128982D01*
X137864Y128992D01*
X137824Y128999D01*
X137777Y129009D01*
X137722Y129014D01*
X137662Y129017D01*
D02*
G37*
%LPD*%
D136*
X38263Y58037D02*
Y65037D01*
X34863Y58037D02*
X38263D01*
X34863Y65037D02*
X38263D01*
X34863Y58037D02*
Y65037D01*
X150678Y14374D02*
Y21374D01*
X154077D01*
X150678Y14374D02*
X154077D01*
Y21374D01*
X55920Y28900D02*
X62920D01*
Y25500D02*
Y28900D01*
X55920Y25500D02*
Y28900D01*
Y25500D02*
X62920D01*
X55941Y32276D02*
X62941D01*
X55941D02*
Y35676D01*
X62941Y32276D02*
Y35676D01*
X55941D02*
X62941D01*
X55941Y28778D02*
X62941D01*
X55941D02*
Y32178D01*
X62941Y28778D02*
Y32178D01*
X55941D02*
X62941D01*
X59200Y44969D02*
X66200D01*
Y41569D02*
Y44969D01*
X59200Y41569D02*
Y44969D01*
Y41569D02*
X66200D01*
X85800Y20800D02*
X92800D01*
X85800D02*
Y24200D01*
X92800Y20800D02*
Y24200D01*
X85800D02*
X92800D01*
X85500Y30300D02*
Y37300D01*
X88900D01*
X85500Y30300D02*
X88900D01*
Y37300D01*
X85800Y24300D02*
X92800D01*
X85800D02*
Y27700D01*
X92800Y24300D02*
Y27700D01*
X85800D02*
X92800D01*
X96350Y28200D02*
Y35200D01*
X92950Y28200D02*
X96350D01*
X92950Y35200D02*
X96350D01*
X92950Y28200D02*
Y35200D01*
X92890Y28182D02*
Y35182D01*
X89490Y28182D02*
X92890D01*
X89490Y35182D02*
X92890D01*
X89490Y28182D02*
Y35182D01*
X84293Y128024D02*
X91293D01*
Y131424D01*
X84293Y128024D02*
Y131424D01*
X91293D01*
X84293Y124051D02*
X91293D01*
Y127451D01*
X84293Y124051D02*
Y127451D01*
X91293D01*
X25700Y64600D02*
X32700D01*
Y61200D02*
Y64600D01*
X25700Y61200D02*
Y64600D01*
Y61200D02*
X32700D01*
X25700D02*
X32700D01*
Y57800D02*
Y61200D01*
X25700Y57800D02*
Y61200D01*
Y57800D02*
X32700D01*
X25700Y68000D02*
X32700D01*
Y64600D02*
Y68000D01*
X25700Y64600D02*
Y68000D01*
Y64600D02*
X32700D01*
X25700Y57800D02*
X32700D01*
Y54400D02*
Y57800D01*
X25700Y54400D02*
Y57800D01*
Y54400D02*
X32700D01*
X25700Y71400D02*
X32700D01*
Y68000D02*
Y71400D01*
X25700Y68000D02*
Y71400D01*
Y68000D02*
X32700D01*
X67036Y85179D02*
X74036D01*
Y88579D01*
X67036Y85179D02*
Y88579D01*
X74036D01*
X89800Y81300D02*
Y88300D01*
Y81300D02*
X93200D01*
X89800Y88300D02*
X93200D01*
Y81300D02*
Y88300D01*
X89800Y71600D02*
Y78600D01*
Y71600D02*
X93200D01*
X89800Y78600D02*
X93200D01*
Y71600D02*
Y78600D01*
X70080Y45199D02*
X77080D01*
Y41799D02*
Y45199D01*
X70080Y41799D02*
Y45199D01*
Y41799D02*
X77080D01*
X63208Y18411D02*
Y25411D01*
X59808Y18411D02*
X63208D01*
X59808Y25411D02*
X63208D01*
X59808Y18411D02*
Y25411D01*
X66700Y18413D02*
Y25413D01*
X63300Y18413D02*
X66700D01*
X63300Y25413D02*
X66700D01*
X63300Y18413D02*
Y25413D01*
X35100Y67600D02*
X42100D01*
X35100D02*
Y71000D01*
X42100Y67600D02*
Y71000D01*
X35100D02*
X42100D01*
X25700Y45425D02*
X32700D01*
X25700D02*
Y48825D01*
X32700Y45425D02*
Y48825D01*
X25700D02*
X32700D01*
X62100Y80359D02*
X69100D01*
X62100D02*
Y83759D01*
X69100Y80359D02*
Y83759D01*
X62100D02*
X69100D01*
X57500Y51700D02*
Y58700D01*
X54100Y51700D02*
X57500D01*
X54100Y58700D02*
X57500D01*
X54100Y51700D02*
Y58700D01*
X25700Y42025D02*
X32700D01*
X25700D02*
Y45425D01*
X32700Y42025D02*
Y45425D01*
X25700D02*
X32700D01*
X25700Y38525D02*
X32700D01*
X25700D02*
Y41925D01*
X32700Y38525D02*
Y41925D01*
X25700D02*
X32700D01*
X25700Y35025D02*
X32700D01*
X25700D02*
Y38425D01*
X32700Y35025D02*
Y38425D01*
X25700D02*
X32700D01*
X25700Y31525D02*
X32700D01*
X25700D02*
Y34925D01*
X32700Y31525D02*
Y34925D01*
X25700D02*
X32700D01*
X88900Y38200D02*
Y45200D01*
X85500Y38200D02*
X88900D01*
X85500Y45200D02*
X88900D01*
X85500Y38200D02*
Y45200D01*
X70080Y38200D02*
X77080D01*
X70080D02*
Y41600D01*
X77080Y38200D02*
Y41600D01*
X70080D02*
X77080D01*
X90804Y116456D02*
X97804D01*
Y113056D02*
Y116456D01*
X90804Y113056D02*
Y116456D01*
Y113056D02*
X97804D01*
X90804Y116556D02*
X97804D01*
X90804D02*
Y119956D01*
X97804Y116556D02*
Y119956D01*
X90804D02*
X97804D01*
X134896Y102350D02*
X141896D01*
X134896D02*
Y105750D01*
X141896Y102350D02*
Y105750D01*
X134896D02*
X141896D01*
X134928Y98818D02*
X141928D01*
X134928D02*
Y102218D01*
X141928Y98818D02*
Y102218D01*
X134928D02*
X141928D01*
X134896Y109250D02*
X141896D01*
Y105850D02*
Y109250D01*
X134896Y105850D02*
Y109250D01*
Y105850D02*
X141896D01*
X134928Y112750D02*
X141928D01*
Y109350D02*
Y112750D01*
X134928Y109350D02*
Y112750D01*
Y109350D02*
X141928D01*
X134928Y116250D02*
X141928D01*
Y112850D02*
Y116250D01*
X134928Y112850D02*
Y116250D01*
Y112850D02*
X141928D01*
X134928Y119765D02*
X141928D01*
Y116365D02*
Y119765D01*
X134928Y116365D02*
Y119765D01*
Y116365D02*
X141928D01*
X135044Y122977D02*
X142044D01*
X135044D02*
Y126377D01*
X142044Y122977D02*
Y126377D01*
X135044D02*
X142044D01*
X135044Y126479D02*
X142044D01*
X135044D02*
Y129879D01*
X142044Y126479D02*
Y129879D01*
X135044D02*
X142044D01*
X102400Y60000D02*
Y67000D01*
X105800D01*
X102400Y60000D02*
X105800D01*
Y67000D01*
X112544Y61329D02*
Y68329D01*
X109144Y61329D02*
X112544D01*
X109144Y68329D02*
X112544D01*
X109144Y61329D02*
Y68329D01*
X123800Y61388D02*
Y68388D01*
X127200D01*
X123800Y61388D02*
X127200D01*
Y68388D01*
X106774Y29136D02*
Y36136D01*
X110174D01*
X106774Y29136D02*
X110174D01*
Y36136D01*
X122006Y28955D02*
Y35955D01*
X118606Y28955D02*
X122006D01*
X118606Y35955D02*
X122006D01*
X118606Y28955D02*
Y35955D01*
X121970Y28955D02*
Y35955D01*
X125370D01*
X121970Y28955D02*
X125370D01*
Y35955D01*
X130900Y31900D02*
X137900D01*
X130900D02*
Y35300D01*
X137900Y31900D02*
Y35300D01*
X130900D02*
X137900D01*
X143379Y28851D02*
Y35851D01*
X139980Y28851D02*
X143379D01*
X139980Y35851D02*
X143379D01*
X139980Y28851D02*
Y35851D01*
X146018Y28851D02*
Y35851D01*
X149418D01*
X146018Y28851D02*
X149418D01*
Y35851D01*
X143150Y59300D02*
X150150D01*
X143150D02*
Y62700D01*
X150150Y59300D02*
Y62700D01*
X143150D02*
X150150D01*
X130100Y83900D02*
X137100D01*
Y80500D02*
Y83900D01*
X130100Y80500D02*
Y83900D01*
Y80500D02*
X137100D01*
X130100Y80400D02*
X137100D01*
Y77000D02*
Y80400D01*
X130100Y77000D02*
Y80400D01*
Y77000D02*
X137100D01*
X126654Y90600D02*
Y97600D01*
X130053D01*
X126654Y90600D02*
X130053D01*
Y97600D01*
X123200Y90600D02*
Y97600D01*
X126600D01*
X123200Y90600D02*
X126600D01*
Y97600D01*
X133522Y90600D02*
Y97600D01*
X130122Y90600D02*
X133522D01*
X130122Y97600D02*
X133522D01*
X130122Y90600D02*
Y97600D01*
X58600Y51600D02*
Y58600D01*
X62000D01*
X58600Y51600D02*
X62000D01*
Y58600D01*
X64400Y2200D02*
Y9200D01*
X61000Y2200D02*
X64400D01*
X61000Y9200D02*
X64400D01*
X61000Y2200D02*
Y9200D01*
X63165Y60468D02*
X70165D01*
X63165D02*
Y63868D01*
X70165Y60468D02*
Y63868D01*
X63165D02*
X70165D01*
X90800Y128000D02*
X97800D01*
X90800D02*
Y131400D01*
X97800Y128000D02*
Y131400D01*
X90800D02*
X97800D01*
X102975Y95321D02*
X109975D01*
X102975D02*
Y98721D01*
X109975Y95321D02*
Y98721D01*
X102975D02*
X109975D01*
X102900Y91500D02*
X109900D01*
X102900D02*
Y94900D01*
X109900Y91500D02*
Y94900D01*
X102900D02*
X109900D01*
X95840Y84877D02*
X102840D01*
Y81477D02*
Y84877D01*
X95840Y81477D02*
Y84877D01*
Y81477D02*
X102840D01*
X88360D02*
X95360D01*
X88360D02*
Y84877D01*
X95360Y81477D02*
Y84877D01*
X88360D02*
X95360D01*
X100200Y38200D02*
Y45200D01*
X96800Y38200D02*
X100200D01*
X96800Y45200D02*
X100200D01*
X96800Y38200D02*
Y45200D01*
X100207Y30311D02*
Y37311D01*
X96807Y30311D02*
X100207D01*
X96807Y37311D02*
X100207D01*
X96807Y30311D02*
Y37311D01*
X83000Y54400D02*
Y61400D01*
X79600Y54400D02*
X83000D01*
X79600Y61400D02*
X83000D01*
X79600Y54400D02*
Y61400D01*
M02*
