G04*
G04 #@! TF.GenerationSoftware,Altium Limited,Altium Designer,20.2.6 (244)*
G04*
G04 Layer_Color=32768*
%FSLAX25Y25*%
%MOIN*%
G70*
G04*
G04 #@! TF.SameCoordinates,568CAEEB-50F0-44EC-8363-EC95FF72310B*
G04*
G04*
G04 #@! TF.FilePolarity,Positive*
G04*
G01*
G75*
%ADD15C,0.00787*%
%ADD137C,0.00394*%
%ADD138C,0.00197*%
D15*
X114260Y69739D02*
X121740D01*
Y60290D02*
Y69739D01*
X114260Y60290D02*
X121740D01*
X114260D02*
Y69739D01*
D137*
X116032Y65014D02*
X119969D01*
X118000Y63046D02*
Y66983D01*
X127836Y36166D02*
Y59395D01*
X151064Y36166D02*
Y59395D01*
X127836D02*
X151064D01*
X127836Y36166D02*
X151064D01*
X137481Y47780D02*
X141419D01*
X139450Y45812D02*
Y49749D01*
X133731Y69100D02*
X137669D01*
X135700Y67132D02*
Y71069D01*
X128613Y61100D02*
Y77100D01*
X142787Y61100D02*
Y77100D01*
X128613Y61100D02*
X142787D01*
X128613Y77100D02*
X142787D01*
X92300Y53632D02*
Y57569D01*
X90332Y55600D02*
X94269D01*
X84300Y48513D02*
X100300D01*
X84300Y62687D02*
X100300D01*
Y48513D02*
Y62687D01*
X84300Y48513D02*
Y62687D01*
X62458Y45120D02*
Y59293D01*
X78457Y45120D02*
Y59293D01*
X62458D02*
X78457D01*
X62458Y45120D02*
X78457D01*
X68489Y52206D02*
X72426D01*
X70458Y50238D02*
Y54175D01*
X93632Y72594D02*
X97569D01*
X95600Y70626D02*
Y74563D01*
X102687Y63595D02*
Y81595D01*
X88513Y63595D02*
Y81595D01*
X102687D01*
X88513Y63595D02*
X102687D01*
D138*
X49243Y169100D02*
X48921Y169986D01*
X48104Y170457D01*
X47176Y170293D01*
X46570Y169571D01*
Y168629D01*
X47176Y167907D01*
X48104Y167743D01*
X48921Y168214D01*
X49243Y169100D01*
X80165Y8766D02*
X79842Y9652D01*
X79026Y10123D01*
X78098Y9960D01*
X77492Y9238D01*
Y8295D01*
X78098Y7573D01*
X79026Y7409D01*
X79842Y7880D01*
X80165Y8766D01*
X49278Y84900D02*
X48956Y85786D01*
X48139Y86257D01*
X47211Y86093D01*
X46605Y85371D01*
Y84429D01*
X47211Y83707D01*
X48139Y83543D01*
X48956Y84014D01*
X49278Y84900D01*
X17178Y59700D02*
X16856Y60586D01*
X16039Y61057D01*
X15111Y60893D01*
X14505Y60171D01*
Y59229D01*
X15111Y58507D01*
X16039Y58343D01*
X16856Y58814D01*
X17178Y59700D01*
X77478Y122500D02*
X77156Y123386D01*
X76339Y123857D01*
X75411Y123693D01*
X74805Y122971D01*
Y122029D01*
X75411Y121307D01*
X76339Y121143D01*
X77156Y121614D01*
X77478Y122500D01*
X79407Y103500D02*
X79085Y104386D01*
X78268Y104857D01*
X77340Y104693D01*
X76734Y103971D01*
Y103029D01*
X77340Y102307D01*
X78268Y102143D01*
X79085Y102614D01*
X79407Y103500D01*
X114836Y81000D02*
X114514Y81886D01*
X113698Y82357D01*
X112769Y82193D01*
X112163Y81471D01*
Y80529D01*
X112769Y79807D01*
X113698Y79643D01*
X114514Y80114D01*
X114836Y81000D01*
X57026Y12900D02*
X56704Y13786D01*
X55888Y14257D01*
X54959Y14093D01*
X54353Y13371D01*
Y12429D01*
X54959Y11707D01*
X55888Y11543D01*
X56704Y12014D01*
X57026Y12900D01*
X80897Y77426D02*
X80575Y78312D01*
X79759Y78783D01*
X78831Y78620D01*
X78225Y77898D01*
Y76955D01*
X78831Y76233D01*
X79759Y76069D01*
X80575Y76540D01*
X80897Y77426D01*
X18678Y49800D02*
X18356Y50686D01*
X17539Y51157D01*
X16611Y50993D01*
X16005Y50271D01*
Y49329D01*
X16611Y48607D01*
X17539Y48443D01*
X18356Y48914D01*
X18678Y49800D01*
X47865Y167131D02*
Y171069D01*
X45896Y169100D02*
X49833D01*
X76818Y8766D02*
X80755D01*
X78787Y6798D02*
Y10735D01*
X47900Y82932D02*
Y86869D01*
X45932Y84900D02*
X49869D01*
X151413Y113434D02*
X165587D01*
X151413D02*
Y130166D01*
X165587D01*
Y113434D02*
Y130166D01*
X67981Y20739D02*
Y37472D01*
X84713D01*
Y20739D02*
Y37472D01*
X67981Y20739D02*
X84713D01*
X13832Y59700D02*
X17768D01*
X15800Y57731D02*
Y61668D01*
X76100Y120531D02*
Y124469D01*
X74132Y122500D02*
X78069D01*
X76061Y103500D02*
X79998D01*
X78029Y101532D02*
Y105468D01*
X113458Y79031D02*
Y82968D01*
X111490Y81000D02*
X115427D01*
X53680Y12900D02*
X57617D01*
X55648Y10932D02*
Y14868D01*
X38915Y67315D02*
X53285D01*
Y56685D02*
Y67315D01*
X38915Y56685D02*
X53285D01*
X38915D02*
Y67315D01*
X33362Y58875D02*
X53638D01*
Y45725D02*
Y58875D01*
X33362Y45725D02*
X53638D01*
X33362D02*
Y58875D01*
Y35619D02*
X53638D01*
X33362D02*
Y48769D01*
X53638D01*
Y35619D02*
Y48769D01*
X33362Y38575D02*
X53638D01*
Y25425D02*
Y38575D01*
X33362Y25425D02*
X53638D01*
X33362D02*
Y38575D01*
X79519Y75458D02*
Y79395D01*
X77551Y77426D02*
X81488D01*
X15331Y49800D02*
X19268D01*
X17300Y47831D02*
Y51768D01*
M02*
