G04*
G04 #@! TF.GenerationSoftware,Altium Limited,Altium Designer,20.2.6 (244)*
G04*
G04 Layer_Physical_Order=4*
G04 Layer_Color=16711680*
%FSLAX25Y25*%
%MOIN*%
G70*
G04*
G04 #@! TF.SameCoordinates,568CAEEB-50F0-44EC-8363-EC95FF72310B*
G04*
G04*
G04 #@! TF.FilePolarity,Positive*
G04*
G01*
G75*
%ADD10C,0.00500*%
%ADD12C,0.01000*%
%ADD14C,0.00600*%
%ADD18C,0.00700*%
%ADD22R,0.07087X0.08661*%
%ADD23R,0.01181X0.05118*%
G04:AMPARAMS|DCode=34|XSize=20mil|YSize=20mil|CornerRadius=5mil|HoleSize=0mil|Usage=FLASHONLY|Rotation=180.000|XOffset=0mil|YOffset=0mil|HoleType=Round|Shape=RoundedRectangle|*
%AMROUNDEDRECTD34*
21,1,0.02000,0.01000,0,0,180.0*
21,1,0.01000,0.02000,0,0,180.0*
1,1,0.01000,-0.00500,0.00500*
1,1,0.01000,0.00500,0.00500*
1,1,0.01000,0.00500,-0.00500*
1,1,0.01000,-0.00500,-0.00500*
%
%ADD34ROUNDEDRECTD34*%
%ADD38R,0.03543X0.03740*%
%ADD39R,0.03543X0.03740*%
G04:AMPARAMS|DCode=40|XSize=20mil|YSize=20mil|CornerRadius=5mil|HoleSize=0mil|Usage=FLASHONLY|Rotation=270.000|XOffset=0mil|YOffset=0mil|HoleType=Round|Shape=RoundedRectangle|*
%AMROUNDEDRECTD40*
21,1,0.02000,0.01000,0,0,270.0*
21,1,0.01000,0.02000,0,0,270.0*
1,1,0.01000,-0.00500,-0.00500*
1,1,0.01000,-0.00500,0.00500*
1,1,0.01000,0.00500,0.00500*
1,1,0.01000,0.00500,-0.00500*
%
%ADD40ROUNDEDRECTD40*%
%ADD44R,0.05118X0.01181*%
%ADD45R,0.08661X0.07087*%
%ADD46R,0.07000X0.13000*%
%ADD115C,0.02000*%
%ADD116C,0.01500*%
%ADD117C,0.03000*%
%ADD120C,0.06000*%
%ADD121R,0.06000X0.06000*%
%ADD122C,0.06299*%
%ADD123R,0.06299X0.06299*%
%ADD124C,0.02559*%
%ADD125O,0.03937X0.06299*%
%ADD126O,0.03937X0.08268*%
%ADD127C,0.02000*%
%ADD128C,0.02500*%
%ADD129C,0.03937*%
%ADD130C,0.01800*%
%ADD131R,0.02362X0.04528*%
G36*
X47622Y173262D02*
X47672Y173228D01*
X47729Y173198D01*
X47793Y173172D01*
X47865Y173150D01*
X47944Y173132D01*
X48030Y173118D01*
X48123Y173108D01*
X48331Y173100D01*
Y172100D01*
X48223Y172098D01*
X48030Y172082D01*
X47944Y172068D01*
X47865Y172050D01*
X47793Y172028D01*
X47729Y172002D01*
X47672Y171972D01*
X47622Y171938D01*
X47579Y171900D01*
Y173300D01*
X47622Y173262D01*
D02*
G37*
G36*
X49622Y167762D02*
X49672Y167728D01*
X49729Y167698D01*
X49793Y167672D01*
X49865Y167650D01*
X49944Y167632D01*
X50030Y167618D01*
X50123Y167608D01*
X50331Y167600D01*
Y166600D01*
X50223Y166598D01*
X50030Y166582D01*
X49944Y166568D01*
X49865Y166550D01*
X49793Y166528D01*
X49729Y166502D01*
X49672Y166472D01*
X49622Y166438D01*
X49579Y166400D01*
Y167800D01*
X49622Y167762D01*
D02*
G37*
G36*
X54496Y163262D02*
X54546Y163228D01*
X54603Y163198D01*
X54668Y163172D01*
X54739Y163150D01*
X54818Y163132D01*
X54904Y163118D01*
X54997Y163108D01*
X55205Y163100D01*
Y162100D01*
X55098Y162098D01*
X54904Y162082D01*
X54818Y162068D01*
X54739Y162050D01*
X54668Y162028D01*
X54603Y162002D01*
X54546Y161972D01*
X54496Y161938D01*
X54453Y161900D01*
Y163300D01*
X54496Y163262D01*
D02*
G37*
G36*
X70681Y159047D02*
X70830Y158922D01*
X70900Y158871D01*
X70969Y158828D01*
X71035Y158792D01*
X71099Y158765D01*
X71161Y158746D01*
X71220Y158735D01*
X71277Y158731D01*
X70287Y157741D01*
X70284Y157799D01*
X70272Y157858D01*
X70253Y157920D01*
X70226Y157984D01*
X70191Y158050D01*
X70148Y158118D01*
X70097Y158189D01*
X70038Y158262D01*
X69897Y158415D01*
X70604Y159122D01*
X70681Y159047D01*
D02*
G37*
G36*
X101670Y155415D02*
X101819Y155290D01*
X101889Y155239D01*
X101958Y155196D01*
X102024Y155161D01*
X102088Y155134D01*
X102149Y155115D01*
X102209Y155103D01*
X102266Y155100D01*
X101276Y154110D01*
X101273Y154167D01*
X101261Y154227D01*
X101242Y154288D01*
X101215Y154352D01*
X101180Y154418D01*
X101137Y154487D01*
X101086Y154557D01*
X101027Y154630D01*
X100886Y154783D01*
X101593Y155490D01*
X101670Y155415D01*
D02*
G37*
G36*
X79459D02*
X79607Y155290D01*
X79678Y155239D01*
X79747Y155196D01*
X79813Y155161D01*
X79877Y155134D01*
X79938Y155115D01*
X79998Y155103D01*
X80055Y155100D01*
X79065Y154110D01*
X79062Y154167D01*
X79050Y154227D01*
X79031Y154288D01*
X79004Y154352D01*
X78969Y154418D01*
X78926Y154487D01*
X78875Y154557D01*
X78816Y154630D01*
X78675Y154783D01*
X79382Y155490D01*
X79459Y155415D01*
D02*
G37*
G36*
X100543Y135391D02*
X100003Y135284D01*
X99411Y134889D01*
X99016Y134297D01*
X98983Y134130D01*
X98302Y133654D01*
X98209Y133672D01*
X97512Y133534D01*
X96921Y133139D01*
X96526Y132547D01*
X96387Y131850D01*
X96526Y131153D01*
X96891Y130605D01*
X96914Y130510D01*
X96832Y129899D01*
X96667Y129789D01*
X96316Y129438D01*
X96076Y129078D01*
X95991Y128654D01*
Y128412D01*
X95990Y128406D01*
X95984Y128387D01*
X95974Y128365D01*
X95960Y128339D01*
X95941Y128308D01*
X95915Y128272D01*
X95886Y128238D01*
X95811Y128189D01*
X95416Y127597D01*
X95278Y126900D01*
X95416Y126203D01*
X95811Y125611D01*
X96227Y125333D01*
X96250Y125264D01*
Y124736D01*
X96227Y124667D01*
X95811Y124389D01*
X95544Y123989D01*
X95416Y123797D01*
X95209Y123696D01*
X94544Y123975D01*
X94481Y124150D01*
X94784Y124603D01*
X94922Y125300D01*
X94784Y125997D01*
X94389Y126589D01*
X93797Y126984D01*
X93100Y127122D01*
X92403Y126984D01*
X92348Y126947D01*
X92266Y126918D01*
X91988Y126838D01*
X91939Y126827D01*
X91833Y126809D01*
X91469D01*
X91221Y127179D01*
X90869Y127415D01*
X90829Y127738D01*
X90869Y128061D01*
X91221Y128296D01*
X91506Y128722D01*
X91606Y129224D01*
Y130224D01*
X91506Y130727D01*
X91302Y131032D01*
X91684Y131603D01*
X91822Y132300D01*
X91684Y132997D01*
X91289Y133589D01*
X90697Y133984D01*
X90000Y134122D01*
X89303Y133984D01*
X89066Y133826D01*
X88692Y134002D01*
X88590Y134672D01*
X89909Y135991D01*
X100485D01*
X100543Y135391D01*
D02*
G37*
G36*
X101303Y134411D02*
X101631Y134259D01*
X101730Y134222D01*
X101911Y134168D01*
X101994Y134151D01*
X102013Y134148D01*
X102081Y134160D01*
X102146Y134178D01*
X102201Y134201D01*
X102248Y134228D01*
X102285Y134261D01*
X102313Y134300D01*
X102331Y134343D01*
X102341Y134391D01*
X102500Y133404D01*
X102475Y133448D01*
X102443Y133488D01*
X102404Y133523D01*
X102356Y133553D01*
X102302Y133579D01*
X102239Y133600D01*
X102169Y133616D01*
X102144Y133620D01*
X102127Y133617D01*
X102046Y133592D01*
X101969Y133557D01*
X101896Y133511D01*
X101826Y133456D01*
X101760Y133391D01*
X101698Y133315D01*
X101640Y133230D01*
X101585Y133134D01*
X101183Y134476D01*
X101303Y134411D01*
D02*
G37*
G36*
X117191Y134080D02*
X117200Y133976D01*
X117215Y133876D01*
X117236Y133781D01*
X117264Y133691D01*
X117298Y133606D01*
X117339Y133525D01*
X117386Y133450D01*
X117440Y133379D01*
X117500Y133313D01*
X117076Y132889D01*
X117010Y132949D01*
X116939Y133003D01*
X116864Y133050D01*
X116783Y133091D01*
X116698Y133125D01*
X116608Y133153D01*
X116513Y133174D01*
X116413Y133189D01*
X116309Y133198D01*
X116199Y133200D01*
X117189Y134190D01*
X117191Y134080D01*
D02*
G37*
G36*
X108707Y132500D02*
X108661Y132521D01*
X108613Y132533D01*
X108563Y132536D01*
X108510Y132529D01*
X108455Y132512D01*
X108397Y132487D01*
X108337Y132451D01*
X108274Y132407D01*
X108210Y132353D01*
X108143Y132289D01*
X107789Y132643D01*
X107853Y132710D01*
X107907Y132774D01*
X107951Y132837D01*
X107987Y132897D01*
X108012Y132955D01*
X108029Y133010D01*
X108036Y133063D01*
X108033Y133113D01*
X108021Y133161D01*
X108000Y133207D01*
X108707Y132500D01*
D02*
G37*
G36*
X99176Y132141D02*
X99226Y132055D01*
X99281Y131980D01*
X99341Y131914D01*
X99405Y131858D01*
X99475Y131813D01*
X99550Y131777D01*
X99629Y131752D01*
X99713Y131737D01*
X99802Y131731D01*
X99595Y131231D01*
X99529Y131228D01*
X99455Y131220D01*
X99375Y131205D01*
X99193Y131158D01*
X99091Y131125D01*
X98745Y130992D01*
X98615Y130936D01*
X99131Y132238D01*
X99176Y132141D01*
D02*
G37*
G36*
X90614Y131498D02*
X90470Y131324D01*
X90412Y131237D01*
X90363Y131152D01*
X90322Y131067D01*
X90290Y130982D01*
X90276Y130926D01*
X90289Y130870D01*
X90311Y130808D01*
X90338Y130758D01*
X90369Y130718D01*
X90406Y130689D01*
X90447Y130671D01*
X90493Y130663D01*
X89500Y130710D01*
X89547Y130713D01*
X89590Y130727D01*
X89627Y130751D01*
X89660Y130786D01*
X89688Y130832D01*
X89710Y130888D01*
X89722Y130935D01*
X89710Y130982D01*
X89678Y131067D01*
X89638Y131152D01*
X89588Y131237D01*
X89530Y131324D01*
X89462Y131411D01*
X89385Y131498D01*
X89300Y131586D01*
X90700D01*
X90614Y131498D01*
D02*
G37*
G36*
X83320Y129662D02*
X83267Y129608D01*
X83180Y129506D01*
X83146Y129460D01*
X83118Y129416D01*
X83096Y129375D01*
X83081Y129337D01*
X83072Y129301D01*
X83070Y129268D01*
X83073Y129238D01*
X82608Y129870D01*
X82636Y129857D01*
X82665Y129850D01*
X82696Y129850D01*
X82730Y129855D01*
X82764Y129867D01*
X82801Y129885D01*
X82840Y129908D01*
X82880Y129938D01*
X82922Y129974D01*
X82966Y130016D01*
X83320Y129662D01*
D02*
G37*
G36*
X84807Y129339D02*
X84803Y129386D01*
X84789Y129429D01*
X84764Y129466D01*
X84728Y129499D01*
X84682Y129526D01*
X84626Y129549D01*
X84559Y129567D01*
X84482Y129579D01*
X84394Y129587D01*
X84295Y129589D01*
Y130089D01*
X84396Y130092D01*
X84486Y130099D01*
X84566Y130111D01*
X84635Y130129D01*
X84694Y130151D01*
X84742Y130178D01*
X84780Y130210D01*
X84807Y130247D01*
X84824Y130290D01*
X84830Y130337D01*
X84807Y129339D01*
D02*
G37*
G36*
X153715Y129474D02*
X153937Y129285D01*
X154035Y129216D01*
X154124Y129164D01*
X154205Y129129D01*
X154276Y129111D01*
X154339Y129109D01*
X154394Y129125D01*
X154439Y129158D01*
X153603Y128321D01*
X153636Y128367D01*
X153651Y128421D01*
X153650Y128484D01*
X153632Y128556D01*
X153597Y128637D01*
X153545Y128726D01*
X153475Y128824D01*
X153390Y128930D01*
X153166Y129170D01*
X153591Y129594D01*
X153715Y129474D01*
D02*
G37*
G36*
X97404Y128365D02*
X97416Y128277D01*
X97436Y128190D01*
X97464Y128105D01*
X97500Y128020D01*
X97544Y127937D01*
X97596Y127854D01*
X97656Y127773D01*
X97724Y127693D01*
X97800Y127614D01*
X96400D01*
X96476Y127693D01*
X96544Y127773D01*
X96604Y127854D01*
X96656Y127937D01*
X96700Y128020D01*
X96736Y128105D01*
X96764Y128190D01*
X96784Y128277D01*
X96796Y128365D01*
X96800Y128454D01*
X97400D01*
X97404Y128365D01*
D02*
G37*
G36*
X90784Y126204D02*
X90799Y126161D01*
X90825Y126124D01*
X90861Y126091D01*
X90907Y126064D01*
X90963Y126041D01*
X91030Y126024D01*
X91106Y126011D01*
X91193Y126004D01*
X91291Y126001D01*
Y125501D01*
X91193Y125499D01*
X91106Y125491D01*
X91030Y125479D01*
X90963Y125461D01*
X90907Y125439D01*
X90861Y125412D01*
X90825Y125380D01*
X90799Y125343D01*
X90784Y125301D01*
X90779Y125253D01*
X90779Y126251D01*
X90784Y126204D01*
D02*
G37*
G36*
X84889Y124999D02*
X84879Y125064D01*
X84853Y125122D01*
X84812Y125174D01*
X84756Y125219D01*
X84684Y125256D01*
X84597Y125287D01*
X84495Y125311D01*
X84377Y125329D01*
X84244Y125339D01*
X84096Y125342D01*
Y126042D01*
X84238Y126046D01*
X84366Y126056D01*
X84478Y126074D01*
X84575Y126098D01*
X84657Y126129D01*
X84724Y126167D01*
X84774Y126213D01*
X84810Y126265D01*
X84830Y126324D01*
X84835Y126390D01*
X84889Y124999D01*
D02*
G37*
G36*
X92147Y124997D02*
X92112Y125093D01*
X92071Y125179D01*
X92023Y125254D01*
X91970Y125320D01*
X91910Y125375D01*
X91845Y125421D01*
X91773Y125456D01*
X91695Y125481D01*
X91611Y125496D01*
X91520Y125501D01*
X91787Y126001D01*
X91854Y126004D01*
X91928Y126011D01*
X92096Y126039D01*
X92190Y126061D01*
X92510Y126153D01*
X92756Y126239D01*
X92147Y124997D01*
D02*
G37*
G36*
X86761Y125636D02*
X86756Y125584D01*
X86762Y125526D01*
X86781Y125463D01*
X86812Y125395D01*
X86854Y125322D01*
X86909Y125243D01*
X86975Y125160D01*
X87144Y124977D01*
X86920Y124494D01*
X86824Y124586D01*
X86655Y124729D01*
X86581Y124778D01*
X86516Y124812D01*
X86458Y124832D01*
X86407Y124838D01*
X86365Y124829D01*
X86330Y124806D01*
X86302Y124768D01*
X86779Y125684D01*
X86761Y125636D01*
D02*
G37*
G36*
X162874Y124671D02*
X162814Y124650D01*
X162762Y124614D01*
X162716Y124564D01*
X162678Y124500D01*
X162646Y124422D01*
X162622Y124329D01*
X162604Y124223D01*
X162594Y124102D01*
X162590Y123966D01*
X161890D01*
X161887Y124102D01*
X161876Y124223D01*
X161859Y124329D01*
X161834Y124422D01*
X161803Y124500D01*
X161764Y124564D01*
X161719Y124614D01*
X161666Y124650D01*
X161607Y124671D01*
X161540Y124678D01*
X162940D01*
X162874Y124671D01*
D02*
G37*
G36*
X161156Y123411D02*
X161185Y123398D01*
X161224Y123387D01*
X161273Y123377D01*
X161331Y123368D01*
X161478Y123356D01*
X161773Y123349D01*
Y122649D01*
X161702Y122647D01*
X161582Y122636D01*
X161532Y122627D01*
X161488Y122615D01*
X161452Y122600D01*
X161422Y122582D01*
X161398Y122562D01*
X161381Y122539D01*
X161372Y122513D01*
X161137Y123426D01*
X161156Y123411D01*
D02*
G37*
G36*
X118515Y125240D02*
X118875Y125000D01*
X119299Y124916D01*
X125692D01*
X126116Y125000D01*
X126476Y125240D01*
X128395Y127160D01*
X128991Y127136D01*
X129384Y126645D01*
X129378Y126614D01*
X129516Y125917D01*
X129847Y125422D01*
X129736Y125348D01*
X128602Y124214D01*
X128373Y123871D01*
X128292Y123466D01*
Y109941D01*
X128373Y109536D01*
X128602Y109193D01*
X131212Y106583D01*
Y104229D01*
X130612Y103908D01*
X130558Y103944D01*
X129860Y104083D01*
X129163Y103944D01*
X128572Y103549D01*
X128177Y102958D01*
X128148Y102815D01*
X128142Y102803D01*
X128026Y102462D01*
X128002Y102403D01*
X127936Y102268D01*
X127918Y102236D01*
X127905Y102218D01*
X126513Y100825D01*
X125855Y101015D01*
X125539Y101489D01*
X125258Y101676D01*
Y102615D01*
X125177Y103020D01*
X124948Y103363D01*
X120063Y108248D01*
X119720Y108477D01*
X119315Y108558D01*
X110338D01*
X98206Y120690D01*
X98329Y121358D01*
X98705Y121515D01*
X99003Y121316D01*
X99700Y121178D01*
X100397Y121316D01*
X100989Y121711D01*
X101384Y122303D01*
X101522Y123000D01*
X101384Y123697D01*
X100989Y124289D01*
X100489Y124623D01*
X100438Y124950D01*
X100489Y125277D01*
X100989Y125611D01*
X101384Y126203D01*
X101522Y126900D01*
X101444Y127296D01*
X101851Y127896D01*
X115859D01*
X118515Y125240D01*
D02*
G37*
G36*
X165691Y128723D02*
Y102011D01*
X139889Y76209D01*
X133356D01*
Y80000D01*
X128813D01*
X124269D01*
Y76209D01*
X102647D01*
Y78653D01*
X103247Y79128D01*
X103500Y79078D01*
X104197Y79216D01*
X104789Y79611D01*
X105184Y80203D01*
X105322Y80900D01*
X105285Y81088D01*
X105465Y81354D01*
X105789Y81628D01*
X110773D01*
X111471Y81766D01*
X111645Y81883D01*
X118173D01*
X118773Y82002D01*
X119282Y82342D01*
X121428Y84488D01*
X121768Y84997D01*
X121888Y85597D01*
X121768Y86197D01*
X121661Y86358D01*
Y87272D01*
X123907D01*
Y89831D01*
X122317D01*
Y91831D01*
X123907D01*
Y93091D01*
X129302D01*
X135030Y87362D01*
X134982Y86911D01*
X134428Y86537D01*
X134000Y86622D01*
X133303Y86484D01*
X133074Y86331D01*
X129813D01*
Y82000D01*
X133356D01*
Y82633D01*
X133820Y83013D01*
X134000Y82978D01*
X134697Y83116D01*
X135289Y83511D01*
X135329Y83572D01*
X135926Y83631D01*
X136641Y82916D01*
X137001Y82676D01*
X137425Y82591D01*
X142000D01*
X142424Y82676D01*
X142784Y82916D01*
X159284Y99416D01*
X159524Y99776D01*
X159609Y100200D01*
Y101954D01*
Y113631D01*
X164209D01*
Y119733D01*
X159609D01*
Y120473D01*
X160209Y120966D01*
X160400Y120928D01*
X161097Y121066D01*
X161689Y121461D01*
X161967Y121878D01*
X162216Y121927D01*
X162593Y122179D01*
X163060Y122646D01*
X163060Y122646D01*
X163312Y123022D01*
X163400Y123466D01*
X163799Y123867D01*
X164209D01*
Y129357D01*
X164809Y129605D01*
X165691Y128723D01*
D02*
G37*
G36*
X134230Y121179D02*
X134248Y121162D01*
X134273Y121148D01*
X134306Y121135D01*
X134344Y121124D01*
X134390Y121116D01*
X134443Y121109D01*
X134568Y121101D01*
X134641Y121100D01*
Y120500D01*
X134568Y120499D01*
X134390Y120484D01*
X134344Y120476D01*
X134306Y120465D01*
X134273Y120452D01*
X134248Y120438D01*
X134230Y120421D01*
X134218Y120403D01*
Y121197D01*
X134230Y121179D01*
D02*
G37*
G36*
X158803Y119417D02*
X158812Y119313D01*
X158827Y119222D01*
X158848Y119142D01*
X158875Y119075D01*
X158908Y119020D01*
X158947Y118977D01*
X158992Y118946D01*
X159043Y118928D01*
X159100Y118922D01*
X157900D01*
X157957Y118928D01*
X158008Y118946D01*
X158053Y118977D01*
X158092Y119020D01*
X158125Y119075D01*
X158152Y119142D01*
X158173Y119222D01*
X158188Y119313D01*
X158197Y119417D01*
X158200Y119534D01*
X158800D01*
X158803Y119417D01*
D02*
G37*
G36*
X150154Y119976D02*
X150224Y119922D01*
X150300Y119874D01*
X150380Y119833D01*
X150465Y119797D01*
X150556Y119767D01*
X150651Y119744D01*
X150751Y119726D01*
X150857Y119715D01*
X150967Y119709D01*
X149946Y118752D01*
X149947Y118860D01*
X149942Y118964D01*
X149929Y119063D01*
X149910Y119158D01*
X149884Y119248D01*
X149851Y119333D01*
X149811Y119413D01*
X149764Y119489D01*
X149711Y119560D01*
X149650Y119626D01*
X150089Y120036D01*
X150154Y119976D01*
D02*
G37*
G36*
X152701Y128492D02*
X152782Y128404D01*
X152791Y128393D01*
Y123867D01*
X156728D01*
Y127775D01*
X157328Y128095D01*
X157391Y128053D01*
Y120307D01*
X156941Y119946D01*
X155760D01*
Y116682D01*
X153760D01*
Y119946D01*
X152579D01*
X152579Y119946D01*
X152051Y120120D01*
X151642Y120393D01*
X150945Y120532D01*
X150883Y120519D01*
X150864Y120522D01*
X150817Y120530D01*
X150777Y120540D01*
X150745Y120550D01*
X150720Y120561D01*
X150700Y120571D01*
X150691Y120577D01*
X142692Y128576D01*
X142922Y129130D01*
X152063D01*
X152701Y128492D01*
D02*
G37*
G36*
X159043Y114436D02*
X158992Y114418D01*
X158947Y114387D01*
X158908Y114344D01*
X158875Y114289D01*
X158848Y114222D01*
X158827Y114142D01*
X158812Y114050D01*
X158803Y113946D01*
X158800Y113830D01*
X158200D01*
X158197Y113946D01*
X158188Y114050D01*
X158173Y114142D01*
X158152Y114222D01*
X158125Y114289D01*
X158092Y114344D01*
X158053Y114387D01*
X158008Y114418D01*
X157957Y114436D01*
X157900Y114442D01*
X159100D01*
X159043Y114436D01*
D02*
G37*
G36*
X93379Y111861D02*
X93367Y111813D01*
X93364Y111763D01*
X93371Y111710D01*
X93388Y111654D01*
X93413Y111597D01*
X93449Y111537D01*
X93493Y111474D01*
X93547Y111410D01*
X93611Y111343D01*
X93257Y110989D01*
X93190Y111053D01*
X93126Y111107D01*
X93063Y111151D01*
X93003Y111187D01*
X92945Y111213D01*
X92890Y111229D01*
X92837Y111236D01*
X92787Y111233D01*
X92739Y111222D01*
X92693Y111200D01*
X93400Y111907D01*
X93379Y111861D01*
D02*
G37*
G36*
X86283Y111000D02*
X86160Y110998D01*
X85935Y110977D01*
X85833Y110957D01*
X85738Y110932D01*
X85649Y110900D01*
X85567Y110863D01*
X85491Y110819D01*
X85423Y110770D01*
X85361Y110714D01*
X85007Y111068D01*
X85063Y111130D01*
X85112Y111198D01*
X85156Y111274D01*
X85193Y111356D01*
X85225Y111444D01*
X85251Y111540D01*
X85270Y111642D01*
X85284Y111751D01*
X85291Y111867D01*
X85293Y111990D01*
X86283Y111000D01*
D02*
G37*
G36*
X94228Y111012D02*
X94213Y110967D01*
X94208Y110919D01*
X94213Y110868D01*
X94228Y110814D01*
X94253Y110758D01*
X94287Y110698D01*
X94332Y110636D01*
X94386Y110571D01*
X94450Y110503D01*
X94097Y110150D01*
X94029Y110214D01*
X93964Y110268D01*
X93902Y110313D01*
X93842Y110347D01*
X93786Y110372D01*
X93732Y110387D01*
X93681Y110392D01*
X93633Y110387D01*
X93588Y110372D01*
X93545Y110348D01*
X94252Y111055D01*
X94228Y111012D01*
D02*
G37*
G36*
X152698Y109697D02*
X152706Y109611D01*
X152719Y109531D01*
X152737Y109457D01*
X152761Y109388D01*
X152790Y109326D01*
X152824Y109270D01*
X152864Y109220D01*
X152908Y109175D01*
X152958Y109137D01*
X151833Y109131D01*
X151883Y109170D01*
X151928Y109215D01*
X151967Y109266D01*
X152001Y109323D01*
X152030Y109386D01*
X152053Y109454D01*
X152072Y109529D01*
X152085Y109610D01*
X152093Y109696D01*
X152095Y109789D01*
X152695D01*
X152698Y109697D01*
D02*
G37*
G36*
X96386Y109493D02*
X97090Y108789D01*
X96967Y108788D01*
X96742Y108766D01*
X96640Y108747D01*
X96544Y108721D01*
X96456Y108689D01*
X96373Y108652D01*
X96298Y108608D01*
X96230Y108559D01*
X96168Y108503D01*
X95814Y108857D01*
X95870Y108919D01*
X95919Y108987D01*
X95963Y109063D01*
X96000Y109145D01*
X96032Y109234D01*
X96057Y109329D01*
X96063Y109360D01*
X96038Y109377D01*
X95952Y109427D01*
X95867Y109467D01*
X95782Y109499D01*
X95698Y109521D01*
X95615Y109535D01*
X95532Y109539D01*
Y110039D01*
X95615Y110044D01*
X95698Y110057D01*
X95782Y110080D01*
X95867Y110111D01*
X95952Y110152D01*
X96038Y110201D01*
X96124Y110260D01*
X96210Y110327D01*
X96298Y110404D01*
X96386Y110489D01*
Y109493D01*
D02*
G37*
G36*
X106930Y102752D02*
X107273Y102523D01*
X107677Y102442D01*
X111253D01*
X111574Y101842D01*
X111452Y101660D01*
X111313Y100962D01*
X111452Y100265D01*
X111847Y99674D01*
X112438Y99279D01*
X112698Y99227D01*
X112758Y99058D01*
X112336Y98458D01*
X106216D01*
X105812Y98377D01*
X105468Y98148D01*
X103670Y96350D01*
X102898Y96426D01*
X102789Y96589D01*
X102197Y96984D01*
X101500Y97122D01*
X100803Y96984D01*
X100211Y96589D01*
X100159Y96510D01*
X100153Y96505D01*
X100099Y96457D01*
X100052Y96420D01*
X100011Y96393D01*
X99978Y96374D01*
X99954Y96362D01*
X99942Y96358D01*
X94575D01*
X94185Y96748D01*
X93841Y96977D01*
X93437Y97058D01*
X86301D01*
X85744Y97615D01*
X85973Y98169D01*
X93990D01*
Y98760D01*
X94191D01*
Y100531D01*
X93990D01*
Y104469D01*
X94191D01*
Y106240D01*
X93990D01*
Y107523D01*
X95891D01*
X96296Y107604D01*
X96639Y107833D01*
X96746Y107940D01*
X96757Y107945D01*
X96783Y107954D01*
X96820Y107964D01*
X96856Y107970D01*
X97008Y107985D01*
X97100Y107967D01*
X97797Y108106D01*
X98389Y108501D01*
X98784Y109092D01*
X98922Y109789D01*
X98892Y109941D01*
X99445Y110236D01*
X106930Y102752D01*
D02*
G37*
G36*
X84962Y104043D02*
X84928Y103993D01*
X84898Y103936D01*
X84872Y103872D01*
X84850Y103800D01*
X84832Y103721D01*
X84818Y103635D01*
X84808Y103542D01*
X84800Y103334D01*
X83800D01*
X83798Y103442D01*
X83782Y103635D01*
X83768Y103721D01*
X83750Y103800D01*
X83728Y103872D01*
X83702Y103936D01*
X83672Y103993D01*
X83638Y104043D01*
X83600Y104086D01*
X85000D01*
X84962Y104043D01*
D02*
G37*
G36*
X151579Y104291D02*
X151650Y104238D01*
X151725Y104191D01*
X151806Y104150D01*
X151891Y104115D01*
X151981Y104088D01*
X152076Y104066D01*
X152176Y104051D01*
X152280Y104043D01*
X152390Y104041D01*
X151400Y103051D01*
X151398Y103160D01*
X151389Y103265D01*
X151374Y103365D01*
X151353Y103460D01*
X151325Y103550D01*
X151291Y103635D01*
X151250Y103715D01*
X151203Y103791D01*
X151149Y103862D01*
X151089Y103927D01*
X151513Y104352D01*
X151579Y104291D01*
D02*
G37*
G36*
X92988Y104405D02*
X93018Y104320D01*
X93068Y104245D01*
X93138Y104180D01*
X93228Y104125D01*
X93338Y104080D01*
X93468Y104045D01*
X93618Y104020D01*
X93788Y104005D01*
X93978Y104000D01*
Y103000D01*
X93788Y102995D01*
X93618Y102980D01*
X93468Y102955D01*
X93338Y102920D01*
X93228Y102875D01*
X93138Y102820D01*
X93068Y102755D01*
X93018Y102680D01*
X92988Y102595D01*
X92978Y102500D01*
Y104500D01*
X92988Y104405D01*
D02*
G37*
G36*
X84802Y102658D02*
X84818Y102465D01*
X84832Y102379D01*
X84850Y102300D01*
X84872Y102228D01*
X84898Y102164D01*
X84928Y102107D01*
X84962Y102057D01*
X85000Y102014D01*
X83600D01*
X83638Y102057D01*
X83672Y102107D01*
X83702Y102164D01*
X83728Y102228D01*
X83750Y102300D01*
X83768Y102379D01*
X83782Y102465D01*
X83792Y102558D01*
X83800Y102766D01*
X84800D01*
X84802Y102658D01*
D02*
G37*
G36*
X85927Y100300D02*
X85917Y100395D01*
X85887Y100480D01*
X85836Y100555D01*
X85765Y100620D01*
X85674Y100675D01*
X85563Y100720D01*
X85431Y100755D01*
X85368Y100765D01*
X85300Y100750D01*
X85229Y100728D01*
X85164Y100702D01*
X85107Y100672D01*
X85057Y100638D01*
X85014Y100600D01*
Y100797D01*
X84915Y100800D01*
Y101800D01*
X85014Y101803D01*
Y102000D01*
X85057Y101962D01*
X85107Y101928D01*
X85164Y101898D01*
X85229Y101872D01*
X85300Y101850D01*
X85368Y101835D01*
X85431Y101845D01*
X85563Y101880D01*
X85674Y101925D01*
X85765Y101980D01*
X85836Y102045D01*
X85887Y102120D01*
X85917Y102205D01*
X85927Y102300D01*
Y100300D01*
D02*
G37*
G36*
X129557Y101308D02*
X129451Y101337D01*
X129350Y101357D01*
X129253Y101367D01*
X129160Y101367D01*
X129072Y101357D01*
X128989Y101338D01*
X128910Y101308D01*
X128835Y101269D01*
X128764Y101220D01*
X128698Y101161D01*
X128458Y101628D01*
X128506Y101681D01*
X128554Y101743D01*
X128600Y101813D01*
X128646Y101892D01*
X128735Y102075D01*
X128778Y102180D01*
X128902Y102545D01*
X129557Y101308D01*
D02*
G37*
G36*
X158800Y101954D02*
X158200Y100629D01*
X158196Y100739D01*
X158183Y100829D01*
X158162Y100897D01*
X158132Y100946D01*
X158094Y100973D01*
X158047Y100981D01*
X157992Y100968D01*
X157929Y100934D01*
X157856Y100880D01*
X157776Y100805D01*
Y101654D01*
X157856Y101740D01*
X157929Y101830D01*
X157992Y101924D01*
X158047Y102021D01*
X158094Y102122D01*
X158132Y102226D01*
X158162Y102334D01*
X158183Y102445D01*
X158196Y102560D01*
X158200Y102678D01*
X158800Y101954D01*
D02*
G37*
G36*
X128722Y97855D02*
X128619Y97887D01*
X128519Y97909D01*
X128423Y97920D01*
X128332Y97922D01*
X128245Y97913D01*
X128162Y97894D01*
X128083Y97865D01*
X128009Y97826D01*
X127938Y97777D01*
X127872Y97719D01*
X127642Y98196D01*
X127689Y98247D01*
X127736Y98308D01*
X127783Y98378D01*
X127829Y98456D01*
X127920Y98638D01*
X127966Y98743D01*
X128099Y99109D01*
X128722Y97855D01*
D02*
G37*
G36*
X148899Y98156D02*
X148932Y98105D01*
X148976Y98060D01*
X149028Y98021D01*
X149091Y97988D01*
X149162Y97961D01*
X149244Y97940D01*
X149335Y97925D01*
X149435Y97916D01*
X149546Y97913D01*
Y97313D01*
X149435Y97310D01*
X149335Y97301D01*
X149244Y97286D01*
X149162Y97265D01*
X149091Y97238D01*
X149028Y97205D01*
X148976Y97166D01*
X148932Y97121D01*
X148899Y97070D01*
X148875Y97013D01*
Y98213D01*
X148899Y98156D01*
D02*
G37*
G36*
X100786Y94600D02*
X100698Y94686D01*
X100524Y94829D01*
X100437Y94888D01*
X100352Y94937D01*
X100267Y94978D01*
X100182Y95009D01*
X100098Y95032D01*
X100015Y95046D01*
X99932Y95050D01*
Y95550D01*
X100015Y95555D01*
X100098Y95568D01*
X100182Y95591D01*
X100267Y95622D01*
X100352Y95662D01*
X100437Y95712D01*
X100524Y95771D01*
X100610Y95838D01*
X100698Y95915D01*
X100786Y96000D01*
Y94600D01*
D02*
G37*
G36*
X79687Y139100D02*
X79787Y138598D01*
X80072Y138172D01*
X80498Y137887D01*
X81000Y137787D01*
X87785D01*
X88015Y137233D01*
X84821Y134039D01*
X81185D01*
X80761Y133955D01*
X80401Y133715D01*
X41195Y94509D01*
X10779D01*
X10641Y95069D01*
X11198Y95300D01*
X39000D01*
Y95862D01*
X39061Y95924D01*
X40736D01*
X41238Y96023D01*
X41664Y96308D01*
X59528Y114172D01*
X59813Y114598D01*
X59913Y115100D01*
Y136271D01*
X62800Y139159D01*
X79687D01*
Y139100D01*
D02*
G37*
G36*
X32284Y93100D02*
X31763Y93017D01*
X30300Y93485D01*
X28837Y93017D01*
X28316Y93100D01*
X28708Y93700D01*
X29873Y93622D01*
X30300Y93485D01*
X30727Y93622D01*
X31892Y93700D01*
X32284Y93100D01*
D02*
G37*
G36*
X108840Y93864D02*
X108848Y93762D01*
X108862Y93672D01*
X108881Y93594D01*
X108907Y93528D01*
X108937Y93474D01*
X108974Y93432D01*
X109015Y93402D01*
X109063Y93384D01*
X109116Y93378D01*
X107958D01*
X108011Y93384D01*
X108059Y93402D01*
X108100Y93432D01*
X108137Y93474D01*
X108167Y93528D01*
X108192Y93594D01*
X108212Y93672D01*
X108226Y93762D01*
X108234Y93864D01*
X108237Y93978D01*
X108837D01*
X108840Y93864D01*
D02*
G37*
G36*
X115021Y93378D02*
X114262Y93366D01*
X114295Y93371D01*
X114324Y93386D01*
X114349Y93410D01*
X114372Y93444D01*
X114390Y93488D01*
X114406Y93541D01*
X114418Y93603D01*
X114426Y93676D01*
X114431Y93757D01*
X114433Y93849D01*
X115033D01*
X115021Y93378D01*
D02*
G37*
G36*
X104852Y93780D02*
X104860Y93693D01*
X104873Y93617D01*
X104890Y93550D01*
X104912Y93494D01*
X104940Y93448D01*
X104973Y93412D01*
X105010Y93386D01*
X105052Y93371D01*
X105100Y93366D01*
X104100D01*
X104148Y93371D01*
X104190Y93386D01*
X104227Y93412D01*
X104260Y93448D01*
X104288Y93494D01*
X104310Y93550D01*
X104327Y93617D01*
X104340Y93693D01*
X104348Y93780D01*
X104350Y93878D01*
X104850D01*
X104852Y93780D01*
D02*
G37*
G36*
X81360Y109772D02*
X81785D01*
X82015Y109217D01*
X79852Y107055D01*
X79623Y106712D01*
X79542Y106307D01*
Y100142D01*
X79492Y100108D01*
X79152Y99600D01*
X79032Y99000D01*
X79152Y98400D01*
X79492Y97892D01*
X84158Y93225D01*
X84666Y92886D01*
X85266Y92766D01*
X92191D01*
X95450Y89508D01*
X95490Y89303D01*
X95523Y89253D01*
X95203Y88653D01*
X91500D01*
X91485Y88650D01*
X91469Y88653D01*
X91469Y88653D01*
X89229D01*
X88908Y89253D01*
X88941Y89303D01*
X89080Y90000D01*
X88941Y90697D01*
X88546Y91289D01*
X87955Y91684D01*
X87257Y91822D01*
X86560Y91684D01*
X85969Y91289D01*
X85574Y90697D01*
X85435Y90000D01*
X85574Y89303D01*
X85607Y89253D01*
X85286Y88653D01*
X83184D01*
X82788Y88705D01*
X82391Y88653D01*
X80245D01*
X79548Y88514D01*
X78956Y88119D01*
X78956Y88119D01*
X77419Y86582D01*
X77024Y85991D01*
X76963Y85686D01*
X76312Y85488D01*
X74968Y86833D01*
X74855Y86955D01*
X74543Y87328D01*
X74522Y87357D01*
Y109984D01*
X81360D01*
Y109772D01*
D02*
G37*
G36*
X37720Y88534D02*
X37276Y87934D01*
X36096Y88053D01*
X35805Y88146D01*
X35515Y88053D01*
X34335Y87934D01*
X33892Y88534D01*
X34439Y88583D01*
X35805Y88146D01*
X37172Y88583D01*
X37720Y88534D01*
D02*
G37*
G36*
X105178Y88284D02*
X105155Y88279D01*
X105135Y88265D01*
X105117Y88243D01*
X105101Y88211D01*
X105087Y88170D01*
X105077Y88120D01*
X105068Y88060D01*
X105062Y87992D01*
X105057Y87828D01*
X104557D01*
X104555Y87916D01*
X104549Y87995D01*
X104539Y88065D01*
X104524Y88126D01*
X104506Y88177D01*
X104483Y88219D01*
X104456Y88252D01*
X104425Y88276D01*
X104390Y88290D01*
X104351Y88296D01*
X105178Y88284D01*
D02*
G37*
G36*
X112890Y88291D02*
X112847Y88275D01*
X112810Y88250D01*
X112777Y88214D01*
X112750Y88168D01*
X112727Y88111D01*
X112709Y88045D01*
X112697Y87968D01*
X112689Y87881D01*
X112687Y87784D01*
X112187D01*
X112185Y87881D01*
X112177Y87968D01*
X112164Y88045D01*
X112147Y88111D01*
X112125Y88168D01*
X112097Y88214D01*
X112065Y88250D01*
X112027Y88275D01*
X111985Y88291D01*
X111937Y88296D01*
X112937D01*
X112890Y88291D01*
D02*
G37*
G36*
X120912Y88274D02*
X120898Y88244D01*
X120887Y88194D01*
X120876Y88124D01*
X120861Y87924D01*
X120848Y87284D01*
X119848D01*
X119847Y87474D01*
X119798Y88244D01*
X119784Y88274D01*
X119770Y88284D01*
X120926D01*
X120912Y88274D01*
D02*
G37*
G36*
X111052D02*
X111023Y88244D01*
X110998Y88194D01*
X110976Y88124D01*
X110957Y88034D01*
X110942Y87924D01*
X110922Y87644D01*
X110915Y87284D01*
X109915D01*
X109927Y88284D01*
X111084D01*
X111052Y88274D01*
D02*
G37*
G36*
X138816Y87405D02*
X138829Y87317D01*
X138849Y87231D01*
X138879Y87146D01*
X138916Y87064D01*
X138961Y86983D01*
X139015Y86904D01*
X139077Y86826D01*
X139148Y86751D01*
X139227Y86677D01*
X137829Y86600D01*
X137902Y86684D01*
X137967Y86769D01*
X138024Y86854D01*
X138074Y86939D01*
X138116Y87025D01*
X138151Y87111D01*
X138178Y87198D01*
X138197Y87285D01*
X138208Y87373D01*
X138212Y87461D01*
X138812Y87495D01*
X138816Y87405D01*
D02*
G37*
G36*
X105814Y87180D02*
X105883Y87131D01*
X105958Y87087D01*
X106040Y87050D01*
X106129Y87018D01*
X106225Y86993D01*
X106327Y86973D01*
X106436Y86959D01*
X106552Y86952D01*
X106675Y86950D01*
X105685Y85960D01*
X105683Y86083D01*
X105662Y86308D01*
X105642Y86410D01*
X105617Y86506D01*
X105585Y86594D01*
X105547Y86677D01*
X105504Y86752D01*
X105455Y86820D01*
X105399Y86882D01*
X105753Y87236D01*
X105814Y87180D01*
D02*
G37*
G36*
X118001Y87087D02*
X118002Y86936D01*
X118051Y86097D01*
X118064Y86008D01*
X118079Y85928D01*
X117035Y86727D01*
X117123Y86738D01*
X117203Y86758D01*
X117273Y86787D01*
X117333Y86825D01*
X117385Y86872D01*
X117427Y86928D01*
X117459Y86994D01*
X117483Y87068D01*
X117497Y87152D01*
X117501Y87245D01*
X118001Y87087D01*
D02*
G37*
G36*
X86754Y85831D02*
X86458Y85819D01*
X86173Y85785D01*
X85900Y85728D01*
X85639Y85648D01*
X85390Y85545D01*
X85152Y85419D01*
X84926Y85270D01*
X84711Y85099D01*
X84509Y84904D01*
X84318Y84687D01*
X83584Y87726D01*
X85284Y87831D01*
X86754Y85831D01*
D02*
G37*
G36*
X73529Y87454D02*
X73588Y87323D01*
X73671Y87176D01*
X73779Y87012D01*
X73911Y86833D01*
X74252Y86424D01*
X74691Y85951D01*
X74948Y85690D01*
X73980Y83829D01*
X71845Y85919D01*
X73495Y87569D01*
X73529Y87454D01*
D02*
G37*
G36*
X79696Y83145D02*
X77829D01*
X77861Y83127D01*
X78129Y83013D01*
X78368Y82957D01*
X78577Y82958D01*
X78756Y83017D01*
X78907Y83133D01*
X76188Y80218D01*
X76296Y80377D01*
X76348Y80564D01*
X76344Y80778D01*
X76285Y81019D01*
X76170Y81288D01*
X76000Y81585D01*
X75774Y81909D01*
X75492Y82261D01*
X74762Y83047D01*
X76078Y84559D01*
X76494Y84158D01*
X77236Y83527D01*
X77339Y83455D01*
X77348Y83465D01*
X77458Y83645D01*
X77548Y83865D01*
X77618Y84125D01*
X77668Y84425D01*
X77698Y84765D01*
X77708Y85145D01*
X79708D01*
X79696Y83145D01*
D02*
G37*
G36*
X89959Y84408D02*
X89919Y84381D01*
X89587Y83885D01*
X89570Y83800D01*
X91500D01*
Y82800D01*
X92500D01*
Y80870D01*
X92585Y80887D01*
X92961Y81138D01*
X93392Y80994D01*
X93561Y80872D01*
Y78662D01*
X92961Y78480D01*
X92928Y78528D01*
X92502Y78813D01*
X92000Y78913D01*
X91000D01*
X90498Y78813D01*
X90210Y78620D01*
X89734Y78790D01*
X89610Y78886D01*
Y79804D01*
X89432Y80697D01*
X88927Y81453D01*
X88170Y81959D01*
X87277Y82136D01*
X86385Y81959D01*
X85628Y81453D01*
X85123Y80697D01*
X84945Y79804D01*
Y79156D01*
X84554Y78764D01*
X80495D01*
Y81883D01*
X80530Y82059D01*
Y83428D01*
X81130Y83724D01*
X81398Y83518D01*
X82068Y83241D01*
X82788Y83146D01*
X83507Y83241D01*
X84178Y83518D01*
X84753Y83960D01*
X84881Y84127D01*
X84921Y84157D01*
X85089Y84349D01*
X85241Y84495D01*
X85398Y84620D01*
X85561Y84727D01*
X85731Y84817D01*
X85910Y84891D01*
X86101Y84949D01*
X86304Y84992D01*
X86438Y85008D01*
X89777D01*
X89959Y84408D01*
D02*
G37*
G36*
X76492Y123740D02*
Y122934D01*
X76573Y122529D01*
X76802Y122186D01*
X78427Y120561D01*
X74669Y116802D01*
X74585Y116677D01*
X71730D01*
Y115189D01*
X71411Y114976D01*
X71016Y114385D01*
X70878Y113688D01*
Y108831D01*
X67612D01*
Y103500D01*
Y98169D01*
X70878D01*
Y88402D01*
X70278Y88220D01*
X70117Y88460D01*
X69621Y88792D01*
X69536Y88809D01*
Y86879D01*
Y84949D01*
X69621Y84966D01*
X70117Y85297D01*
X70314Y85593D01*
X70941Y85635D01*
X70997Y85616D01*
X71108Y85451D01*
X71324Y85306D01*
X72085Y84561D01*
X74545Y82101D01*
X74884Y81736D01*
X75130Y81428D01*
X75321Y81154D01*
X75377Y81057D01*
Y78629D01*
X76586D01*
X76767Y78247D01*
X76794Y78030D01*
X74798Y76033D01*
X74247Y75561D01*
X73917Y75317D01*
X73601Y75112D01*
X73311Y74951D01*
X73047Y74832D01*
X72813Y74754D01*
X72610Y74711D01*
X72377Y74694D01*
X72373Y74692D01*
X71637D01*
Y73929D01*
X71634Y73915D01*
X71637Y73896D01*
Y73844D01*
X71636Y73834D01*
X71637Y73829D01*
Y69377D01*
X72135D01*
Y68670D01*
X72313Y67778D01*
X72818Y67021D01*
X74135Y65704D01*
X68000Y59570D01*
X67349Y59767D01*
X67284Y60097D01*
X66889Y60689D01*
X66821Y60734D01*
X66815Y60741D01*
X66799Y60764D01*
X66787Y60786D01*
X66777Y60806D01*
X66769Y60826D01*
X66763Y60849D01*
X66760Y60865D01*
Y76220D01*
X70384Y79844D01*
X70398Y79853D01*
X70418Y79865D01*
X70438Y79874D01*
X70459Y79881D01*
X70483Y79887D01*
X70511Y79892D01*
X70520Y79893D01*
X70600Y79878D01*
X71297Y80016D01*
X71889Y80411D01*
X72284Y81003D01*
X72422Y81700D01*
X72284Y82397D01*
X71889Y82989D01*
X71297Y83384D01*
X70600Y83522D01*
X69903Y83384D01*
X69311Y82989D01*
X68916Y82397D01*
X68778Y81700D01*
X68793Y81620D01*
X68792Y81611D01*
X68787Y81583D01*
X68781Y81559D01*
X68774Y81538D01*
X68765Y81518D01*
X68753Y81498D01*
X68744Y81484D01*
X64780Y77520D01*
X64529Y77144D01*
X64440Y76700D01*
Y60865D01*
X64437Y60849D01*
X64431Y60826D01*
X64423Y60806D01*
X64413Y60786D01*
X64401Y60764D01*
X64385Y60741D01*
X64379Y60734D01*
X64311Y60689D01*
X63916Y60097D01*
X63778Y59400D01*
X63916Y58703D01*
X64311Y58111D01*
X64903Y57716D01*
X65233Y57651D01*
X65430Y57000D01*
X63553Y55122D01*
X56600D01*
X56097Y55022D01*
X29465D01*
X29313Y55109D01*
X28977Y55446D01*
Y59306D01*
Y63243D01*
Y66968D01*
X29190D01*
Y67558D01*
X28977D01*
Y67968D01*
X25631D01*
Y69149D01*
X28977D01*
Y69558D01*
X29190D01*
Y70149D01*
X28977D01*
Y73406D01*
X31114D01*
X33292Y71228D01*
Y69280D01*
X33288Y69268D01*
X33276Y69244D01*
X33257Y69211D01*
X33236Y69180D01*
X33139Y69062D01*
X33061Y69011D01*
X32666Y68419D01*
X32527Y67722D01*
X32666Y67024D01*
X33061Y66433D01*
X33652Y66038D01*
X34350Y65899D01*
X34794Y65988D01*
X34879Y65561D01*
X35274Y64969D01*
X35865Y64574D01*
X36563Y64436D01*
X37260Y64574D01*
X37851Y64969D01*
X38247Y65561D01*
X38385Y66258D01*
X38247Y66956D01*
X37851Y67547D01*
X37620Y67701D01*
Y71255D01*
X37540Y71660D01*
X37311Y72003D01*
X30602Y78711D01*
X30851Y79312D01*
X32193D01*
X38750Y72754D01*
X38755Y72743D01*
X38765Y72717D01*
X38774Y72680D01*
X38781Y72644D01*
X38796Y72492D01*
X38778Y72400D01*
X38916Y71703D01*
X39311Y71111D01*
X39903Y70716D01*
X40600Y70578D01*
X41297Y70716D01*
X41889Y71111D01*
X42284Y71703D01*
X42422Y72400D01*
X42284Y73097D01*
X41889Y73689D01*
X41297Y74084D01*
X40600Y74222D01*
X40508Y74204D01*
X40500Y74204D01*
X40428Y74209D01*
X40368Y74216D01*
X40320Y74226D01*
X40283Y74235D01*
X40257Y74245D01*
X40246Y74250D01*
X33379Y81117D01*
X33035Y81346D01*
X32631Y81427D01*
X28977D01*
Y83716D01*
X23524D01*
X23294Y84270D01*
X26150Y87125D01*
X38634D01*
X39059Y87210D01*
X39418Y87450D01*
X43409Y91441D01*
X43963Y91211D01*
Y84900D01*
X45229D01*
X45432Y84300D01*
X44941Y83922D01*
X44275Y83056D01*
X43857Y82046D01*
X43846Y81963D01*
X47900D01*
X51954D01*
X51943Y82046D01*
X51525Y83056D01*
X50859Y83922D01*
X50368Y84300D01*
X50571Y84900D01*
X51837D01*
Y92774D01*
X45526D01*
X45296Y93328D01*
X75938Y123970D01*
X76492Y123740D01*
D02*
G37*
G36*
X70590Y80700D02*
X70494Y80698D01*
X70400Y80688D01*
X70310Y80672D01*
X70222Y80649D01*
X70138Y80619D01*
X70056Y80582D01*
X69978Y80538D01*
X69902Y80488D01*
X69830Y80430D01*
X69761Y80366D01*
X69266Y80861D01*
X69330Y80930D01*
X69388Y81002D01*
X69438Y81078D01*
X69482Y81156D01*
X69519Y81238D01*
X69549Y81322D01*
X69572Y81410D01*
X69588Y81500D01*
X69598Y81594D01*
X69600Y81690D01*
X70590Y80700D01*
D02*
G37*
G36*
X28171Y80822D02*
X28186Y80779D01*
X28212Y80742D01*
X28248Y80709D01*
X28294Y80682D01*
X28350Y80659D01*
X28417Y80642D01*
X28493Y80629D01*
X28580Y80622D01*
X28678Y80619D01*
Y80119D01*
X28580Y80117D01*
X28493Y80109D01*
X28417Y80097D01*
X28350Y80079D01*
X28294Y80057D01*
X28248Y80029D01*
X28212Y79997D01*
X28186Y79959D01*
X28171Y79917D01*
X28166Y79869D01*
Y80869D01*
X28171Y80822D01*
D02*
G37*
G36*
Y78853D02*
X28186Y78811D01*
X28212Y78773D01*
X28248Y78741D01*
X28294Y78713D01*
X28350Y78691D01*
X28417Y78673D01*
X28493Y78661D01*
X28580Y78653D01*
X28678Y78651D01*
Y78151D01*
X28580Y78148D01*
X28493Y78141D01*
X28417Y78128D01*
X28350Y78111D01*
X28294Y78088D01*
X28248Y78061D01*
X28212Y78028D01*
X28186Y77991D01*
X28171Y77948D01*
X28166Y77901D01*
Y78901D01*
X28171Y78853D01*
D02*
G37*
G36*
X101634Y78218D02*
X101665Y78133D01*
X101716Y78058D01*
X101787Y77993D01*
X101878Y77938D01*
X101989Y77893D01*
X102121Y77858D01*
X102272Y77833D01*
X102444Y77818D01*
X102635Y77813D01*
Y76813D01*
X102445Y76811D01*
X101795Y76766D01*
X101725Y76748D01*
X101675Y76729D01*
X101645Y76706D01*
X101635Y76681D01*
X101623Y78313D01*
X101634Y78218D01*
D02*
G37*
G36*
X91492Y76114D02*
X91439Y76153D01*
X91375Y76171D01*
X91302Y76170D01*
X91218Y76149D01*
X91124Y76109D01*
X91020Y76048D01*
X90906Y75968D01*
X90782Y75867D01*
X90503Y75608D01*
X90008Y76103D01*
X90148Y76247D01*
X90368Y76506D01*
X90448Y76620D01*
X90509Y76724D01*
X90549Y76818D01*
X90570Y76902D01*
X90571Y76976D01*
X90553Y77039D01*
X90514Y77092D01*
X91492Y76114D01*
D02*
G37*
G36*
X92453Y76906D02*
X92437Y76851D01*
X92437Y76789D01*
X92454Y76718D01*
X92488Y76639D01*
X92539Y76551D01*
X92607Y76455D01*
X92691Y76350D01*
X92910Y76115D01*
X92485Y75690D01*
X92364Y75808D01*
X92145Y75993D01*
X92049Y76061D01*
X91961Y76112D01*
X91882Y76145D01*
X91811Y76163D01*
X91748Y76163D01*
X91694Y76147D01*
X91649Y76114D01*
X92486Y76951D01*
X92453Y76906D01*
D02*
G37*
G36*
X15377Y75002D02*
X15233Y74828D01*
X15174Y74742D01*
X15125Y74656D01*
X15084Y74571D01*
X15053Y74486D01*
X15030Y74402D01*
X15017Y74319D01*
X15012Y74236D01*
X14512Y74236D01*
X14508Y74319D01*
X14494Y74402D01*
X14472Y74486D01*
X14440Y74571D01*
X14400Y74656D01*
X14350Y74742D01*
X14292Y74828D01*
X14224Y74915D01*
X14148Y75002D01*
X14062Y75090D01*
X15462Y75090D01*
X15377Y75002D01*
D02*
G37*
G36*
X28171Y74916D02*
X28186Y74874D01*
X28212Y74836D01*
X28248Y74804D01*
X28294Y74776D01*
X28350Y74754D01*
X28417Y74736D01*
X28493Y74724D01*
X28580Y74716D01*
X28678Y74714D01*
Y74214D01*
X28580Y74211D01*
X28493Y74204D01*
X28417Y74191D01*
X28350Y74174D01*
X28294Y74151D01*
X28248Y74124D01*
X28212Y74091D01*
X28186Y74054D01*
X28171Y74011D01*
X28166Y73964D01*
Y74964D01*
X28171Y74916D01*
D02*
G37*
G36*
X13084Y73348D02*
X12940Y73174D01*
X12881Y73088D01*
X12832Y73002D01*
X12791Y72917D01*
X12760Y72832D01*
X12737Y72748D01*
X12724Y72665D01*
X12719Y72582D01*
X12219D01*
X12215Y72665D01*
X12201Y72748D01*
X12179Y72832D01*
X12147Y72917D01*
X12107Y73002D01*
X12057Y73088D01*
X11999Y73174D01*
X11931Y73260D01*
X11855Y73348D01*
X11769Y73436D01*
X13169D01*
X13084Y73348D01*
D02*
G37*
G36*
X39730Y73630D02*
X39798Y73581D01*
X39873Y73537D01*
X39956Y73500D01*
X40044Y73468D01*
X40140Y73443D01*
X40242Y73423D01*
X40352Y73409D01*
X40467Y73402D01*
X40590Y73400D01*
X39600Y72410D01*
X39598Y72533D01*
X39577Y72758D01*
X39557Y72860D01*
X39532Y72956D01*
X39500Y73044D01*
X39463Y73127D01*
X39419Y73202D01*
X39370Y73270D01*
X39314Y73332D01*
X39668Y73686D01*
X39730Y73630D01*
D02*
G37*
G36*
X21802Y72928D02*
X21816Y72844D01*
X21839Y72760D01*
X21870Y72676D01*
X21911Y72592D01*
X21961Y72507D01*
X22020Y72421D01*
X22088Y72336D01*
X22166Y72250D01*
X22252Y72163D01*
X20852Y72143D01*
X20937Y72233D01*
X21079Y72410D01*
X21137Y72497D01*
X21186Y72583D01*
X21227Y72669D01*
X21258Y72754D01*
X21280Y72838D01*
X21293Y72921D01*
X21298Y73004D01*
X21798Y73011D01*
X21802Y72928D01*
D02*
G37*
G36*
X83431Y72767D02*
X83452Y72707D01*
X83488Y72655D01*
X83538Y72609D01*
X83602Y72571D01*
X83680Y72539D01*
X83773Y72515D01*
X83880Y72497D01*
X84001Y72487D01*
X84136Y72483D01*
Y71783D01*
X84001Y71780D01*
X83880Y71769D01*
X83773Y71752D01*
X83680Y71727D01*
X83602Y71696D01*
X83538Y71657D01*
X83488Y71612D01*
X83452Y71559D01*
X83431Y71500D01*
X83424Y71433D01*
Y72833D01*
X83431Y72767D01*
D02*
G37*
G36*
X211187Y123771D02*
Y1744D01*
X210856Y1413D01*
X133074D01*
X132781Y2013D01*
X133079Y2401D01*
X133378Y3123D01*
X133480Y3898D01*
Y4079D01*
X130486D01*
X127492D01*
Y3898D01*
X127594Y3123D01*
X127893Y2401D01*
X128191Y2013D01*
X127897Y1413D01*
X99019D01*
X98726Y2013D01*
X99024Y2401D01*
X99323Y3123D01*
X99425Y3898D01*
Y4079D01*
X96431D01*
X93436D01*
Y3898D01*
X93539Y3123D01*
X93838Y2401D01*
X94135Y2013D01*
X93842Y1413D01*
X38342D01*
X14286Y25469D01*
X14516Y26023D01*
X14800D01*
Y29566D01*
X10469D01*
Y27429D01*
X4419D01*
X1213Y30636D01*
Y91648D01*
X4865Y95300D01*
X7067D01*
X7623Y95069D01*
X9132Y94871D01*
X10146Y95004D01*
X10276Y94424D01*
X9916Y94184D01*
X9197Y93465D01*
X8956Y93105D01*
X8872Y92681D01*
Y72121D01*
X8956Y71697D01*
X9197Y71337D01*
X10491Y70043D01*
X10432Y69446D01*
X10239Y69317D01*
X9844Y68726D01*
X9706Y68028D01*
X9844Y67331D01*
X10239Y66739D01*
X10831Y66344D01*
X11115Y66288D01*
X11242Y65651D01*
X10905Y65426D01*
X10510Y64834D01*
X10371Y64137D01*
X10510Y63440D01*
X10905Y62848D01*
X11496Y62453D01*
X12193Y62315D01*
X12461Y62368D01*
X12529Y62366D01*
X12614Y62380D01*
X12662Y62385D01*
X12698Y62386D01*
X12719Y62385D01*
X16463Y58641D01*
X16304Y57951D01*
X15911Y57689D01*
X15516Y57097D01*
X15378Y56400D01*
X15516Y55703D01*
X15911Y55111D01*
X15990Y55059D01*
X15995Y55053D01*
X16043Y54999D01*
X16080Y54952D01*
X16107Y54911D01*
X16126Y54878D01*
X16138Y54853D01*
X16142Y54842D01*
Y54112D01*
X16223Y53708D01*
X16067Y52972D01*
X16032Y52936D01*
X15811Y52789D01*
X15416Y52197D01*
X15278Y51500D01*
X15416Y50803D01*
X15811Y50211D01*
X15890Y50159D01*
X15895Y50153D01*
X15943Y50099D01*
X15980Y50052D01*
X16007Y50011D01*
X16026Y49978D01*
X16038Y49953D01*
X16042Y49942D01*
Y48800D01*
X16123Y48395D01*
X16352Y48052D01*
X16925Y47479D01*
X16727Y46828D01*
X16503Y46784D01*
X15911Y46389D01*
X15516Y45797D01*
X15378Y45100D01*
X15516Y44403D01*
X15911Y43811D01*
X15990Y43759D01*
X15995Y43753D01*
X16043Y43699D01*
X16080Y43652D01*
X16107Y43611D01*
X16126Y43578D01*
X16138Y43554D01*
X16142Y43542D01*
Y43251D01*
X16223Y42846D01*
X16452Y42503D01*
X22284Y36671D01*
Y35684D01*
X28977D01*
Y37973D01*
X31140D01*
X32516Y36597D01*
X32316Y36297D01*
X32178Y35600D01*
X32316Y34903D01*
X32711Y34311D01*
X33303Y33916D01*
X34000Y33778D01*
X34697Y33916D01*
X35289Y34311D01*
X35684Y34903D01*
X35822Y35600D01*
X35684Y36297D01*
X35289Y36889D01*
X35235Y36925D01*
Y37646D01*
X35356Y37727D01*
X35751Y38319D01*
X35890Y39016D01*
X35751Y39713D01*
X35356Y40305D01*
X34765Y40700D01*
X34567Y40739D01*
X34528Y40797D01*
X33578Y41747D01*
X33386Y41875D01*
X33244Y42414D01*
X33248Y42586D01*
X36924Y46262D01*
X37197Y46207D01*
X37894Y46346D01*
X38485Y46741D01*
X38881Y47332D01*
X39019Y48030D01*
X38881Y48727D01*
X38485Y49319D01*
X37894Y49714D01*
X37197Y49852D01*
X36499Y49714D01*
X35908Y49319D01*
X35835Y49209D01*
X35271Y49587D01*
X34573Y49725D01*
X33876Y49587D01*
X33285Y49192D01*
X32890Y48600D01*
X32751Y47903D01*
X32769Y47810D01*
X32769Y47803D01*
X32764Y47731D01*
X32757Y47671D01*
X32748Y47622D01*
X32738Y47586D01*
X32729Y47560D01*
X32724Y47549D01*
X31168Y45994D01*
X28977D01*
Y49251D01*
X29190D01*
Y51205D01*
X29400Y51378D01*
X52037D01*
X52267Y50823D01*
X49972Y48528D01*
X49687Y48102D01*
X49587Y47600D01*
Y46716D01*
X49583Y46670D01*
X49568Y46580D01*
X49551Y46509D01*
X49533Y46459D01*
X49517Y46426D01*
X49506Y46409D01*
X48935Y45970D01*
X48493Y45395D01*
X48215Y44724D01*
X48120Y44005D01*
X48215Y43285D01*
X48493Y42615D01*
X48935Y42039D01*
X49510Y41598D01*
X50181Y41320D01*
X50900Y41225D01*
X51619Y41320D01*
X52290Y41598D01*
X52865Y42039D01*
X53307Y42615D01*
X53585Y43285D01*
X53680Y44005D01*
X53585Y44724D01*
X53307Y45395D01*
X52865Y45970D01*
X52294Y46409D01*
X52283Y46426D01*
X52267Y46459D01*
X52249Y46509D01*
X52232Y46580D01*
X52217Y46670D01*
X52213Y46716D01*
Y47056D01*
X55815Y50659D01*
X56287Y51099D01*
X56582Y51342D01*
X56670Y51406D01*
X56684Y51414D01*
X57003Y51478D01*
X64308D01*
X64308Y51478D01*
X65005Y51616D01*
X65596Y52011D01*
X76834Y63249D01*
X77037Y63411D01*
X77297Y63588D01*
X77564Y63739D01*
X77839Y63867D01*
X77947Y63907D01*
X77965Y63910D01*
X77975Y63917D01*
X78124Y63972D01*
X78420Y64053D01*
X78728Y64112D01*
X78986Y64140D01*
X84921D01*
X84921Y64140D01*
X85618Y64279D01*
X86209Y64674D01*
X91094Y69559D01*
X96130D01*
X96275Y69462D01*
X96581Y69401D01*
X96778Y69205D01*
Y66600D01*
X96778Y66600D01*
X96916Y65903D01*
X97311Y65311D01*
X123906Y38717D01*
X123706Y38068D01*
X123208Y37735D01*
X122813Y37144D01*
X122674Y36446D01*
X122813Y35749D01*
X123208Y35158D01*
X123799Y34763D01*
X124497Y34624D01*
X125194Y34763D01*
X125785Y35158D01*
X126118Y35656D01*
X126767Y35856D01*
X148911Y13711D01*
X149503Y13316D01*
X150200Y13178D01*
X150897Y13316D01*
X151489Y13711D01*
X151884Y14303D01*
X152022Y15000D01*
X151884Y15697D01*
X151489Y16289D01*
X129089Y38688D01*
X129287Y39339D01*
X129297Y39341D01*
X129889Y39736D01*
X130284Y40328D01*
X130422Y41025D01*
X130284Y41722D01*
X129889Y42314D01*
X129297Y42709D01*
X128600Y42847D01*
X127903Y42709D01*
X127311Y42314D01*
X126916Y41722D01*
X126914Y41712D01*
X126263Y41514D01*
X100422Y67355D01*
Y69960D01*
X100422Y69960D01*
X100284Y70657D01*
X99889Y71248D01*
X98996Y72141D01*
X98989Y72176D01*
X98538Y72850D01*
X97865Y73300D01*
X97408Y73391D01*
X97467Y73991D01*
X105384D01*
X105536Y73757D01*
X105646Y73391D01*
X105316Y72897D01*
X105178Y72200D01*
X105316Y71503D01*
X105711Y70911D01*
X105637Y70806D01*
X105611Y70789D01*
X105216Y70197D01*
X105178Y70005D01*
X105033Y69506D01*
X104526Y69569D01*
X104325Y69609D01*
X103628Y69470D01*
X103037Y69075D01*
X102642Y68484D01*
X102503Y67787D01*
X102642Y67089D01*
X103037Y66498D01*
X103628Y66103D01*
X104325Y65964D01*
X105023Y66103D01*
X105614Y66498D01*
X106009Y67089D01*
X106047Y67282D01*
X106192Y67781D01*
X106699Y67717D01*
X106900Y67678D01*
X107597Y67816D01*
X108189Y68211D01*
X108584Y68803D01*
X108722Y69500D01*
X108584Y70197D01*
X108189Y70789D01*
X108263Y70894D01*
X108289Y70911D01*
X108684Y71503D01*
X108822Y72200D01*
X108684Y72897D01*
X108354Y73391D01*
X108464Y73757D01*
X108616Y73991D01*
X118083D01*
X118265Y73391D01*
X118111Y73289D01*
X117716Y72697D01*
X117578Y72000D01*
X117716Y71303D01*
X118111Y70711D01*
X118703Y70316D01*
X119400Y70178D01*
X120097Y70316D01*
X120689Y70711D01*
X121084Y71303D01*
X121222Y72000D01*
X121084Y72697D01*
X120689Y73289D01*
X120535Y73391D01*
X120717Y73991D01*
X140349D01*
X140773Y74076D01*
X141133Y74316D01*
X167584Y100767D01*
X167824Y101127D01*
X167909Y101551D01*
Y129182D01*
X167824Y129606D01*
X167584Y129966D01*
X162866Y134684D01*
X162506Y134924D01*
X162082Y135009D01*
X132031D01*
X131606Y134924D01*
X131247Y134684D01*
X129153Y132590D01*
X119367D01*
X118043Y133915D01*
X118039Y133920D01*
X118030Y133938D01*
X118021Y133960D01*
X118012Y133988D01*
X118004Y134024D01*
X117998Y134068D01*
X117994Y134112D01*
X118011Y134200D01*
X117873Y134897D01*
X117478Y135489D01*
X116886Y135884D01*
X116189Y136022D01*
X115492Y135884D01*
X114900Y135489D01*
X114772Y135296D01*
X114174Y135237D01*
X112178Y137233D01*
X112408Y137787D01*
X192713D01*
X193215Y137887D01*
X193641Y138172D01*
X194628Y139159D01*
X195800D01*
X211187Y123771D01*
D02*
G37*
G36*
X78077Y73893D02*
X77674Y73474D01*
X76995Y72668D01*
X76719Y72280D01*
X76486Y71903D01*
X76295Y71537D01*
X76147Y71181D01*
X76041Y70836D01*
X75977Y70501D01*
X75956Y70177D01*
X72436Y73893D01*
X72723Y73914D01*
X73024Y73978D01*
X73340Y74084D01*
X73670Y74232D01*
X74015Y74423D01*
X74374Y74657D01*
X74748Y74932D01*
X75539Y75611D01*
X75956Y76014D01*
X78077Y73893D01*
D02*
G37*
G36*
X34604Y69207D02*
X34618Y69124D01*
X34640Y69040D01*
X34672Y68955D01*
X34712Y68870D01*
X34762Y68784D01*
X34820Y68698D01*
X34888Y68611D01*
X34964Y68524D01*
X35050Y68436D01*
X33650D01*
X33735Y68524D01*
X33879Y68698D01*
X33938Y68784D01*
X33987Y68870D01*
X34028Y68955D01*
X34059Y69040D01*
X34082Y69124D01*
X34095Y69207D01*
X34100Y69290D01*
X34600D01*
X34604Y69207D01*
D02*
G37*
G36*
X12530Y67896D02*
X12551Y67671D01*
X12571Y67568D01*
X12596Y67473D01*
X12628Y67384D01*
X12665Y67302D01*
X12709Y67226D01*
X12758Y67158D01*
X12814Y67096D01*
X12460Y66742D01*
X12398Y66798D01*
X12330Y66847D01*
X12255Y66891D01*
X12173Y66928D01*
X12084Y66960D01*
X11988Y66986D01*
X11886Y67005D01*
X11777Y67019D01*
X11661Y67027D01*
X11538Y67028D01*
X12528Y68018D01*
X12530Y67896D01*
D02*
G37*
G36*
X23084Y66011D02*
X23078Y66064D01*
X23060Y66111D01*
X23030Y66153D01*
X22988Y66189D01*
X22934Y66220D01*
X22868Y66245D01*
X22790Y66265D01*
X22700Y66279D01*
X22598Y66287D01*
X22484Y66290D01*
Y66890D01*
X22598Y66892D01*
X22700Y66901D01*
X22790Y66915D01*
X22868Y66934D01*
X22934Y66959D01*
X22988Y66990D01*
X23030Y67026D01*
X23060Y67068D01*
X23078Y67115D01*
X23084Y67168D01*
Y66011D01*
D02*
G37*
G36*
X23096Y64121D02*
X23090Y64169D01*
X23075Y64211D01*
X23050Y64249D01*
X23014Y64281D01*
X22968Y64309D01*
X22911Y64331D01*
X22845Y64349D01*
X22768Y64361D01*
X22681Y64369D01*
X22584Y64371D01*
Y64871D01*
X22681Y64874D01*
X22768Y64881D01*
X22845Y64894D01*
X22911Y64911D01*
X22968Y64934D01*
X23014Y64961D01*
X23050Y64994D01*
X23075Y65031D01*
X23090Y65074D01*
X23096Y65121D01*
Y64121D01*
D02*
G37*
G36*
X79385Y64963D02*
X78991Y64949D01*
X78608Y64906D01*
X78238Y64836D01*
X77879Y64737D01*
X77531Y64609D01*
X77196Y64454D01*
X76872Y64270D01*
X76560Y64058D01*
X76259Y63817D01*
X75971Y63549D01*
X76971Y65963D01*
X79385Y64963D01*
D02*
G37*
G36*
X13203Y64189D02*
X13263Y63955D01*
X13297Y63851D01*
X13375Y63665D01*
X13418Y63584D01*
X13464Y63511D01*
X13512Y63446D01*
X13564Y63389D01*
X13281Y62965D01*
X13216Y63023D01*
X13146Y63072D01*
X13071Y63112D01*
X12990Y63144D01*
X12904Y63168D01*
X12813Y63183D01*
X12716Y63189D01*
X12614Y63187D01*
X12506Y63177D01*
X12393Y63157D01*
X13177Y64317D01*
X13203Y64189D01*
D02*
G37*
G36*
X23096Y62153D02*
X23090Y62200D01*
X23075Y62243D01*
X23050Y62280D01*
X23014Y62313D01*
X22968Y62340D01*
X22911Y62363D01*
X22845Y62380D01*
X22768Y62393D01*
X22681Y62400D01*
X22584Y62403D01*
Y62903D01*
X22681Y62905D01*
X22768Y62913D01*
X22845Y62925D01*
X22911Y62943D01*
X22968Y62965D01*
X23014Y62993D01*
X23050Y63025D01*
X23075Y63063D01*
X23090Y63105D01*
X23096Y63153D01*
Y62153D01*
D02*
G37*
G36*
X65953Y60842D02*
X65964Y60750D01*
X65982Y60661D01*
X66006Y60575D01*
X66037Y60491D01*
X66076Y60410D01*
X66122Y60332D01*
X66174Y60257D01*
X66233Y60184D01*
X66300Y60114D01*
X64900D01*
X64966Y60184D01*
X65026Y60257D01*
X65079Y60332D01*
X65124Y60410D01*
X65162Y60491D01*
X65194Y60575D01*
X65219Y60661D01*
X65236Y60750D01*
X65246Y60842D01*
X65250Y60937D01*
X65950D01*
X65953Y60842D01*
D02*
G37*
G36*
X23084Y60106D02*
X23078Y60159D01*
X23060Y60206D01*
X23030Y60248D01*
X22988Y60284D01*
X22934Y60315D01*
X22868Y60340D01*
X22790Y60359D01*
X22700Y60373D01*
X22598Y60381D01*
X22484Y60384D01*
Y60984D01*
X22598Y60987D01*
X22700Y60995D01*
X22790Y61009D01*
X22868Y61029D01*
X22934Y61054D01*
X22988Y61085D01*
X23030Y61121D01*
X23060Y61163D01*
X23078Y61210D01*
X23084Y61263D01*
Y60106D01*
D02*
G37*
G36*
X23096Y58216D02*
X23090Y58263D01*
X23075Y58306D01*
X23050Y58343D01*
X23014Y58376D01*
X22968Y58403D01*
X22911Y58426D01*
X22845Y58443D01*
X22768Y58456D01*
X22681Y58463D01*
X22584Y58466D01*
Y58966D01*
X22681Y58968D01*
X22768Y58976D01*
X22845Y58988D01*
X22911Y59006D01*
X22968Y59028D01*
X23014Y59056D01*
X23050Y59088D01*
X23075Y59126D01*
X23090Y59168D01*
X23096Y59216D01*
Y58216D01*
D02*
G37*
G36*
Y56247D02*
X23090Y56295D01*
X23075Y56337D01*
X23050Y56375D01*
X23014Y56407D01*
X22968Y56435D01*
X22911Y56457D01*
X22845Y56475D01*
X22768Y56487D01*
X22681Y56495D01*
X22584Y56497D01*
Y56997D01*
X22681Y57000D01*
X22768Y57007D01*
X22845Y57020D01*
X22911Y57037D01*
X22968Y57060D01*
X23014Y57087D01*
X23050Y57120D01*
X23075Y57157D01*
X23090Y57200D01*
X23096Y57247D01*
Y56247D01*
D02*
G37*
G36*
X17815Y55598D02*
X17671Y55424D01*
X17612Y55338D01*
X17562Y55252D01*
X17522Y55167D01*
X17491Y55082D01*
X17468Y54998D01*
X17455Y54915D01*
X17450Y54832D01*
X16950D01*
X16946Y54915D01*
X16932Y54998D01*
X16909Y55082D01*
X16878Y55167D01*
X16838Y55252D01*
X16788Y55338D01*
X16729Y55424D01*
X16662Y55510D01*
X16586Y55598D01*
X16500Y55686D01*
X17900D01*
X17815Y55598D01*
D02*
G37*
G36*
X56601Y52300D02*
X56531Y52286D01*
X56451Y52250D01*
X56501Y52200D01*
X56431Y52186D01*
X56340Y52145D01*
X56227Y52076D01*
X56092Y51979D01*
X55757Y51703D01*
X55092Y51082D01*
X54827Y50820D01*
X54120Y51527D01*
X54382Y51792D01*
X55376Y52927D01*
X55445Y53040D01*
X55486Y53131D01*
X55500Y53201D01*
X55550Y53151D01*
X55586Y53231D01*
X55600Y53301D01*
X56601Y52300D01*
D02*
G37*
G36*
X28150Y55254D02*
X28143Y55193D01*
X28159Y55119D01*
X28197Y55030D01*
X28256Y54927D01*
X28338Y54810D01*
X28442Y54679D01*
X28666Y54428D01*
X28780Y54335D01*
X28852Y54287D01*
X28921Y54248D01*
X28987Y54218D01*
X29052Y54197D01*
X29114Y54184D01*
X29175Y54181D01*
X29233Y54186D01*
X28411Y53053D01*
X28398Y53105D01*
X28375Y53163D01*
X28342Y53228D01*
X28298Y53298D01*
X28243Y53376D01*
X28103Y53550D01*
X27979Y53685D01*
X27568Y54040D01*
X27451Y54122D01*
X27348Y54181D01*
X27259Y54219D01*
X27185Y54235D01*
X27124Y54229D01*
X27078Y54200D01*
X28178Y55300D01*
X28150Y55254D01*
D02*
G37*
G36*
X21243Y53328D02*
X21230Y53299D01*
X21220Y53260D01*
X21210Y53210D01*
X21202Y53150D01*
X21191Y52997D01*
X21184Y52688D01*
X20184Y52597D01*
X20183Y52709D01*
X20158Y53052D01*
X20147Y53112D01*
X20133Y53161D01*
X20117Y53200D01*
X20100Y53228D01*
X20080Y53246D01*
X21257Y53346D01*
X21243Y53328D01*
D02*
G37*
G36*
X28188Y51405D02*
X28218Y51392D01*
X28268Y51380D01*
X28338Y51370D01*
X28538Y51354D01*
X29178Y51342D01*
Y50342D01*
X28988Y50341D01*
X28218Y50291D01*
X28188Y50278D01*
X28178Y50263D01*
Y51420D01*
X28188Y51405D01*
D02*
G37*
G36*
X23084Y51420D02*
Y50263D01*
X23076Y50295D01*
X23054Y50324D01*
X23018Y50349D01*
X22966Y50371D01*
X22900Y50390D01*
X22819Y50405D01*
X22724Y50417D01*
X22489Y50431D01*
X22350Y50432D01*
Y51432D01*
X23084Y51420D01*
D02*
G37*
G36*
X17715Y50698D02*
X17571Y50524D01*
X17512Y50437D01*
X17462Y50352D01*
X17422Y50267D01*
X17391Y50182D01*
X17368Y50098D01*
X17355Y50015D01*
X17350Y49932D01*
X16850D01*
X16846Y50015D01*
X16832Y50098D01*
X16809Y50182D01*
X16778Y50267D01*
X16737Y50352D01*
X16688Y50437D01*
X16630Y50524D01*
X16562Y50611D01*
X16486Y50698D01*
X16400Y50786D01*
X17800D01*
X17715Y50698D01*
D02*
G37*
G36*
X23096Y48300D02*
X23090Y48347D01*
X23075Y48390D01*
X23050Y48428D01*
X23014Y48460D01*
X22968Y48487D01*
X22911Y48510D01*
X22845Y48528D01*
X22768Y48540D01*
X22681Y48548D01*
X22584Y48550D01*
Y49050D01*
X22681Y49053D01*
X22768Y49060D01*
X22845Y49073D01*
X22911Y49090D01*
X22968Y49112D01*
X23014Y49140D01*
X23050Y49172D01*
X23075Y49210D01*
X23090Y49253D01*
X23096Y49300D01*
Y48300D01*
D02*
G37*
G36*
X34563Y46903D02*
X34441Y46901D01*
X34216Y46880D01*
X34113Y46860D01*
X34018Y46835D01*
X33929Y46803D01*
X33847Y46766D01*
X33771Y46722D01*
X33703Y46673D01*
X33641Y46617D01*
X33288Y46971D01*
X33343Y47033D01*
X33393Y47101D01*
X33436Y47176D01*
X33474Y47258D01*
X33505Y47347D01*
X33531Y47443D01*
X33550Y47545D01*
X33564Y47654D01*
X33572Y47770D01*
X33573Y47893D01*
X34563Y46903D01*
D02*
G37*
G36*
X23096Y46469D02*
X23090Y46516D01*
X23075Y46559D01*
X23050Y46596D01*
X23014Y46629D01*
X22968Y46656D01*
X22911Y46679D01*
X22845Y46696D01*
X22768Y46709D01*
X22681Y46716D01*
X22584Y46719D01*
Y47219D01*
X22681Y47221D01*
X22768Y47229D01*
X22845Y47241D01*
X22911Y47259D01*
X22968Y47281D01*
X23014Y47309D01*
X23050Y47341D01*
X23075Y47379D01*
X23090Y47421D01*
X23096Y47469D01*
Y46469D01*
D02*
G37*
G36*
X51405Y46732D02*
X51420Y46568D01*
X51445Y46416D01*
X51480Y46277D01*
X51525Y46150D01*
X51580Y46035D01*
X51645Y45933D01*
X51720Y45843D01*
X51805Y45766D01*
X51900Y45700D01*
X49900D01*
X49995Y45766D01*
X50080Y45843D01*
X50155Y45933D01*
X50220Y46035D01*
X50275Y46150D01*
X50320Y46277D01*
X50355Y46416D01*
X50380Y46568D01*
X50395Y46732D01*
X50400Y46909D01*
X51400D01*
X51405Y46732D01*
D02*
G37*
G36*
X28171Y45389D02*
X28186Y45346D01*
X28212Y45309D01*
X28248Y45276D01*
X28294Y45249D01*
X28350Y45226D01*
X28417Y45209D01*
X28493Y45196D01*
X28580Y45189D01*
X28678Y45186D01*
Y44686D01*
X28580Y44684D01*
X28493Y44676D01*
X28417Y44664D01*
X28350Y44646D01*
X28294Y44624D01*
X28248Y44596D01*
X28212Y44564D01*
X28186Y44526D01*
X28171Y44484D01*
X28166Y44436D01*
Y45436D01*
X28171Y45389D01*
D02*
G37*
G36*
X17815Y44298D02*
X17671Y44124D01*
X17612Y44038D01*
X17562Y43952D01*
X17522Y43867D01*
X17491Y43782D01*
X17468Y43698D01*
X17455Y43615D01*
X17450Y43532D01*
X16950D01*
X16946Y43615D01*
X16932Y43698D01*
X16909Y43782D01*
X16878Y43867D01*
X16838Y43952D01*
X16788Y44038D01*
X16729Y44124D01*
X16662Y44210D01*
X16586Y44298D01*
X16500Y44386D01*
X17900D01*
X17815Y44298D01*
D02*
G37*
G36*
X28171Y43420D02*
X28186Y43378D01*
X28212Y43340D01*
X28248Y43308D01*
X28294Y43280D01*
X28350Y43258D01*
X28417Y43240D01*
X28493Y43228D01*
X28580Y43220D01*
X28678Y43218D01*
Y42718D01*
X28580Y42715D01*
X28493Y42708D01*
X28417Y42695D01*
X28350Y42678D01*
X28294Y42655D01*
X28248Y42628D01*
X28212Y42595D01*
X28186Y42558D01*
X28171Y42515D01*
X28166Y42468D01*
Y43468D01*
X28171Y43420D01*
D02*
G37*
G36*
Y41452D02*
X28186Y41409D01*
X28212Y41372D01*
X28248Y41339D01*
X28294Y41312D01*
X28350Y41289D01*
X28417Y41272D01*
X28493Y41259D01*
X28580Y41252D01*
X28678Y41249D01*
Y40749D01*
X28580Y40747D01*
X28493Y40739D01*
X28417Y40727D01*
X28350Y40709D01*
X28294Y40687D01*
X28248Y40659D01*
X28212Y40627D01*
X28186Y40589D01*
X28171Y40547D01*
X28166Y40499D01*
Y41499D01*
X28171Y41452D01*
D02*
G37*
G36*
Y39483D02*
X28186Y39441D01*
X28212Y39403D01*
X28248Y39371D01*
X28294Y39343D01*
X28350Y39321D01*
X28417Y39303D01*
X28493Y39291D01*
X28580Y39283D01*
X28678Y39281D01*
Y38781D01*
X28580Y38778D01*
X28493Y38771D01*
X28417Y38758D01*
X28350Y38741D01*
X28294Y38718D01*
X28248Y38691D01*
X28212Y38658D01*
X28186Y38621D01*
X28171Y38578D01*
X28166Y38531D01*
Y39531D01*
X28171Y39483D01*
D02*
G37*
G36*
X33941Y36862D02*
X33946Y36810D01*
X33956Y36763D01*
X33969Y36722D01*
X33986Y36686D01*
X34007Y36656D01*
X34032Y36632D01*
X34060Y36613D01*
X34093Y36599D01*
X34129Y36592D01*
X33309Y36323D01*
X33334Y36351D01*
X33356Y36386D01*
X33375Y36429D01*
X33392Y36478D01*
X33406Y36534D01*
X33418Y36597D01*
X33427Y36667D01*
X33437Y36829D01*
X33439Y36920D01*
X33939D01*
X33941Y36862D01*
D02*
G37*
%LPC*%
G36*
X125723Y118622D02*
X125025Y118484D01*
X124434Y118089D01*
X124039Y117497D01*
X123900Y116800D01*
X124039Y116103D01*
X124219Y115834D01*
X124433Y115510D01*
X124066Y115065D01*
X123933Y114976D01*
X123538Y114385D01*
X123399Y113688D01*
X123538Y112990D01*
X123933Y112399D01*
X124524Y112004D01*
X125222Y111865D01*
X125919Y112004D01*
X126510Y112399D01*
X126905Y112990D01*
X127044Y113688D01*
X126905Y114385D01*
X126726Y114654D01*
X126512Y114978D01*
X126879Y115423D01*
X127011Y115511D01*
X127407Y116103D01*
X127545Y116800D01*
X127407Y117497D01*
X127011Y118089D01*
X126420Y118484D01*
X125723Y118622D01*
D02*
G37*
G36*
X125300Y109172D02*
X124603Y109034D01*
X124011Y108639D01*
X123616Y108047D01*
X123478Y107350D01*
X123616Y106653D01*
X124011Y106061D01*
X124603Y105666D01*
X125300Y105528D01*
X125997Y105666D01*
X126589Y106061D01*
X126984Y106653D01*
X127122Y107350D01*
X126984Y108047D01*
X126589Y108639D01*
X125997Y109034D01*
X125300Y109172D01*
D02*
G37*
G36*
X127813Y86331D02*
X124269D01*
Y82000D01*
X127813D01*
Y86331D01*
D02*
G37*
G36*
X138443Y81292D02*
X137745Y81154D01*
X137154Y80759D01*
X136759Y80168D01*
X136620Y79470D01*
X136759Y78773D01*
X137154Y78181D01*
X137745Y77786D01*
X138443Y77648D01*
X139140Y77786D01*
X139731Y78181D01*
X140126Y78773D01*
X140265Y79470D01*
X140126Y80168D01*
X139731Y80759D01*
X139140Y81154D01*
X138443Y81292D01*
D02*
G37*
G36*
X90500Y81800D02*
X89570D01*
X89587Y81715D01*
X89919Y81219D01*
X90415Y80887D01*
X90500Y80870D01*
Y81800D01*
D02*
G37*
G36*
X65612Y108831D02*
X62068D01*
Y104500D01*
X65612D01*
Y108831D01*
D02*
G37*
G36*
Y102500D02*
X62068D01*
Y98169D01*
X65612D01*
Y102500D01*
D02*
G37*
G36*
X67800Y97501D02*
X67103Y97362D01*
X66511Y96967D01*
X66309Y96664D01*
X66265Y96656D01*
X65922Y96426D01*
X59543Y90047D01*
X59211Y90185D01*
X58491Y90280D01*
X57772Y90185D01*
X57102Y89907D01*
X56526Y89465D01*
X56084Y88890D01*
X55806Y88219D01*
X55712Y87500D01*
X55806Y86781D01*
X56084Y86110D01*
X56526Y85535D01*
X57102Y85093D01*
X57772Y84815D01*
X58491Y84720D01*
X59211Y84815D01*
X59881Y85093D01*
X60457Y85535D01*
X60899Y86110D01*
X61176Y86781D01*
X61271Y87500D01*
X61176Y88219D01*
X61039Y88551D01*
X66731Y94243D01*
X67103Y93995D01*
X67800Y93856D01*
X68497Y93995D01*
X69089Y94390D01*
X69484Y94981D01*
X69622Y95678D01*
X69484Y96376D01*
X69089Y96967D01*
X68497Y97362D01*
X67800Y97501D01*
D02*
G37*
G36*
X67536Y88809D02*
X67450Y88792D01*
X66954Y88460D01*
X66623Y87964D01*
X66606Y87879D01*
X67536D01*
Y88809D01*
D02*
G37*
G36*
Y85879D02*
X66606D01*
X66623Y85794D01*
X66954Y85297D01*
X67450Y84966D01*
X67536Y84949D01*
Y85879D01*
D02*
G37*
G36*
X51954Y79963D02*
X48900D01*
Y76909D01*
X48983Y76920D01*
X49993Y77338D01*
X50859Y78004D01*
X51525Y78870D01*
X51943Y79880D01*
X51954Y79963D01*
D02*
G37*
G36*
X46900D02*
X43846D01*
X43857Y79880D01*
X44275Y78870D01*
X44941Y78004D01*
X45807Y77338D01*
X46817Y76920D01*
X46900Y76909D01*
Y79963D01*
D02*
G37*
G36*
X61000Y76500D02*
X57500D01*
Y70000D01*
X61000D01*
Y76500D01*
D02*
G37*
G36*
X55500D02*
X52000D01*
Y70000D01*
X55500D01*
Y76500D01*
D02*
G37*
G36*
X61000Y68000D02*
X57500D01*
Y61500D01*
X61000D01*
Y68000D01*
D02*
G37*
G36*
X55500D02*
X52000D01*
Y61500D01*
X55500D01*
Y68000D01*
D02*
G37*
%LPD*%
G36*
X60402Y89057D02*
X60339Y88990D01*
X60285Y88926D01*
X60240Y88863D01*
X60205Y88803D01*
X60179Y88745D01*
X60163Y88690D01*
X60156Y88637D01*
X60158Y88587D01*
X60170Y88539D01*
X60191Y88493D01*
X59484Y89200D01*
X59530Y89179D01*
X59578Y89167D01*
X59629Y89164D01*
X59682Y89171D01*
X59737Y89188D01*
X59795Y89213D01*
X59855Y89249D01*
X59917Y89293D01*
X59982Y89347D01*
X60049Y89411D01*
X60402Y89057D01*
D02*
G37*
%LPC*%
G36*
X189175Y115496D02*
X188455Y115401D01*
X187785Y115124D01*
X187209Y114682D01*
X186767Y114106D01*
X186490Y113436D01*
X186395Y112716D01*
X186490Y111997D01*
X186767Y111327D01*
X187209Y110751D01*
X187785Y110309D01*
X188455Y110032D01*
X189175Y109937D01*
X189894Y110032D01*
X190565Y110309D01*
X191140Y110751D01*
X191582Y111327D01*
X191860Y111997D01*
X191955Y112716D01*
X191860Y113436D01*
X191582Y114106D01*
X191140Y114682D01*
X190565Y115124D01*
X189894Y115401D01*
X189175Y115496D01*
D02*
G37*
G36*
Y84079D02*
X188455Y83984D01*
X187785Y83706D01*
X187209Y83265D01*
X186767Y82689D01*
X186490Y82019D01*
X186395Y81299D01*
X186490Y80580D01*
X186767Y79909D01*
X187209Y79334D01*
X187785Y78892D01*
X188455Y78614D01*
X189175Y78519D01*
X189894Y78614D01*
X190565Y78892D01*
X191140Y79334D01*
X191582Y79909D01*
X191860Y80580D01*
X191955Y81299D01*
X191860Y82019D01*
X191582Y82689D01*
X191140Y83265D01*
X190565Y83706D01*
X189894Y83984D01*
X189175Y84079D01*
D02*
G37*
G36*
X114402Y69621D02*
X113704Y69482D01*
X113113Y69087D01*
X112718Y68496D01*
X112579Y67798D01*
X112718Y67101D01*
X113113Y66510D01*
X113704Y66115D01*
X114402Y65976D01*
X115099Y66115D01*
X115690Y66510D01*
X116085Y67101D01*
X116224Y67798D01*
X116085Y68496D01*
X115690Y69087D01*
X115099Y69482D01*
X114402Y69621D01*
D02*
G37*
G36*
X134400Y70822D02*
X133703Y70684D01*
X133111Y70289D01*
X132716Y69697D01*
X132578Y69000D01*
X132716Y68303D01*
X133111Y67711D01*
X133703Y67316D01*
X134276Y67202D01*
X134446Y66818D01*
X134474Y66598D01*
X134171Y66365D01*
X133730Y65790D01*
X133452Y65119D01*
X133357Y64400D01*
X133379Y64239D01*
X133376Y64226D01*
X133375Y64223D01*
X132838Y63746D01*
X132770Y63759D01*
X132073Y63621D01*
X131482Y63226D01*
X130937Y63490D01*
X130797Y63584D01*
X130100Y63722D01*
X129403Y63584D01*
X128811Y63189D01*
X128735Y63199D01*
X128285Y63681D01*
X128380Y64400D01*
X128285Y65119D01*
X128007Y65790D01*
X127566Y66365D01*
X126990Y66807D01*
X126319Y67085D01*
X125600Y67180D01*
X124881Y67085D01*
X124210Y66807D01*
X123635Y66365D01*
X123193Y65790D01*
X122915Y65119D01*
X122820Y64400D01*
X122825Y64365D01*
X122285Y63866D01*
X122000Y63922D01*
X121303Y63784D01*
X120711Y63389D01*
X120316Y62797D01*
X120178Y62100D01*
X120316Y61403D01*
X120711Y60811D01*
X121303Y60416D01*
X122000Y60278D01*
X122697Y60416D01*
X123289Y60811D01*
X123684Y61403D01*
X123725Y61609D01*
X123877Y61729D01*
X124397Y61915D01*
X124881Y61715D01*
X125600Y61620D01*
X126319Y61715D01*
X126652Y61853D01*
X127352Y61152D01*
X127695Y60923D01*
X128100Y60842D01*
X128542D01*
X128553Y60838D01*
X128578Y60826D01*
X128611Y60807D01*
X128642Y60786D01*
X128760Y60689D01*
X128811Y60611D01*
X129403Y60216D01*
X130100Y60078D01*
X130797Y60216D01*
X131389Y60611D01*
X131933Y60347D01*
X132073Y60253D01*
X132770Y60115D01*
X133468Y60253D01*
X134059Y60648D01*
X134454Y61240D01*
X134485Y61397D01*
X134496Y61417D01*
X134507Y61449D01*
X135032Y61791D01*
X135150Y61826D01*
X135418Y61715D01*
X136137Y61620D01*
X136856Y61715D01*
X137527Y61993D01*
X138103Y62435D01*
X138544Y63010D01*
X138822Y63681D01*
X138917Y64400D01*
X138856Y64863D01*
X138857Y64875D01*
X139222Y65370D01*
X139338Y65442D01*
X142955D01*
X143093Y65110D01*
X143535Y64534D01*
X144110Y64093D01*
X144781Y63815D01*
X145500Y63720D01*
X146219Y63815D01*
X146890Y64093D01*
X147466Y64534D01*
X147907Y65110D01*
X148185Y65781D01*
X148280Y66500D01*
X148185Y67219D01*
X147907Y67890D01*
X147466Y68466D01*
X146890Y68907D01*
X146219Y69185D01*
X145500Y69280D01*
X144781Y69185D01*
X144110Y68907D01*
X143535Y68466D01*
X143093Y67890D01*
X142955Y67558D01*
X139364D01*
X137173Y69748D01*
X136830Y69977D01*
X136425Y70058D01*
X135958D01*
X135947Y70062D01*
X135922Y70074D01*
X135889Y70093D01*
X135858Y70114D01*
X135740Y70211D01*
X135689Y70289D01*
X135097Y70684D01*
X134400Y70822D01*
D02*
G37*
G36*
X175600Y63403D02*
Y60500D01*
X178503D01*
X178497Y60544D01*
X178094Y61517D01*
X177453Y62353D01*
X176617Y62994D01*
X175644Y63397D01*
X175600Y63403D01*
D02*
G37*
G36*
X173600D02*
X173556Y63397D01*
X172583Y62994D01*
X171747Y62353D01*
X171106Y61517D01*
X170703Y60544D01*
X170697Y60500D01*
X173600D01*
Y63403D01*
D02*
G37*
G36*
X159400Y69380D02*
X158681Y69285D01*
X158010Y69007D01*
X157434Y68565D01*
X156993Y67990D01*
X156715Y67319D01*
X156620Y66600D01*
X156715Y65881D01*
X156993Y65210D01*
X157434Y64635D01*
X158010Y64193D01*
X158681Y63915D01*
X159400Y63820D01*
X159838Y63878D01*
X160438Y63459D01*
Y62605D01*
X160518Y62200D01*
X160747Y61857D01*
X160813Y61792D01*
Y55713D01*
X168387D01*
Y63287D01*
X162553D01*
Y65390D01*
X162473Y65795D01*
X162243Y66138D01*
X162133Y66248D01*
X162180Y66600D01*
X162085Y67319D01*
X161807Y67990D01*
X161365Y68565D01*
X160790Y69007D01*
X160119Y69285D01*
X159400Y69380D01*
D02*
G37*
G36*
X204600Y63320D02*
X203611Y63190D01*
X202690Y62808D01*
X201899Y62201D01*
X201292Y61410D01*
X200910Y60489D01*
X200780Y59500D01*
X200910Y58511D01*
X201292Y57590D01*
X201899Y56799D01*
X202690Y56192D01*
X203611Y55810D01*
X204600Y55680D01*
X205589Y55810D01*
X206510Y56192D01*
X207301Y56799D01*
X207908Y57590D01*
X208290Y58511D01*
X208420Y59500D01*
X208290Y60489D01*
X207908Y61410D01*
X207301Y62201D01*
X206510Y62808D01*
X205589Y63190D01*
X204600Y63320D01*
D02*
G37*
G36*
X194600D02*
X193611Y63190D01*
X192690Y62808D01*
X191899Y62201D01*
X191292Y61410D01*
X190910Y60489D01*
X190780Y59500D01*
X190910Y58511D01*
X191292Y57590D01*
X191899Y56799D01*
X192690Y56192D01*
X193611Y55810D01*
X194600Y55680D01*
X195589Y55810D01*
X196510Y56192D01*
X197301Y56799D01*
X197908Y57590D01*
X198290Y58511D01*
X198420Y59500D01*
X198290Y60489D01*
X197908Y61410D01*
X197301Y62201D01*
X196510Y62808D01*
X195589Y63190D01*
X194600Y63320D01*
D02*
G37*
G36*
X184600D02*
X183611Y63190D01*
X182690Y62808D01*
X181899Y62201D01*
X181292Y61410D01*
X180910Y60489D01*
X180780Y59500D01*
X180910Y58511D01*
X181292Y57590D01*
X181899Y56799D01*
X182690Y56192D01*
X183611Y55810D01*
X184600Y55680D01*
X185589Y55810D01*
X186510Y56192D01*
X187301Y56799D01*
X187908Y57590D01*
X188290Y58511D01*
X188420Y59500D01*
X188290Y60489D01*
X187908Y61410D01*
X187301Y62201D01*
X186510Y62808D01*
X185589Y63190D01*
X184600Y63320D01*
D02*
G37*
G36*
X178503Y58500D02*
X175600D01*
Y55597D01*
X175644Y55603D01*
X176617Y56006D01*
X177453Y56647D01*
X178094Y57483D01*
X178497Y58456D01*
X178503Y58500D01*
D02*
G37*
G36*
X173600D02*
X170697D01*
X170703Y58456D01*
X171106Y57483D01*
X171747Y56647D01*
X172583Y56006D01*
X173556Y55603D01*
X173600Y55597D01*
Y58500D01*
D02*
G37*
G36*
X95100Y53222D02*
X94403Y53084D01*
X93811Y52689D01*
X93416Y52097D01*
X93278Y51400D01*
X93416Y50703D01*
X93811Y50111D01*
X94403Y49716D01*
X95100Y49578D01*
X95797Y49716D01*
X96389Y50111D01*
X96784Y50703D01*
X96922Y51400D01*
X96784Y52097D01*
X96389Y52689D01*
X95797Y53084D01*
X95100Y53222D01*
D02*
G37*
G36*
X88200Y58222D02*
X87503Y58084D01*
X86911Y57689D01*
X86516Y57097D01*
X86378Y56400D01*
X86516Y55703D01*
X86911Y55111D01*
X86990Y55059D01*
X86995Y55053D01*
X87043Y54999D01*
X87080Y54952D01*
X87107Y54911D01*
X87126Y54878D01*
X87138Y54853D01*
X87142Y54842D01*
Y48985D01*
X87223Y48581D01*
X87452Y48238D01*
X98739Y36950D01*
X99083Y36721D01*
X99420Y36654D01*
X99451Y36646D01*
X99461Y36646D01*
X99487Y36640D01*
X99524D01*
X99529Y36639D01*
X99541Y36635D01*
X99556Y36629D01*
X99573Y36619D01*
X99595Y36604D01*
X99621Y36583D01*
X99652Y36554D01*
X99694Y36509D01*
X99760Y36410D01*
X100352Y36014D01*
X101049Y35876D01*
X101746Y36014D01*
X102338Y36410D01*
X102733Y37001D01*
X102871Y37698D01*
X102867Y37720D01*
X103050Y37965D01*
X103192Y38085D01*
X103367Y38198D01*
X103491Y38182D01*
X104211Y38276D01*
X104881Y38554D01*
X105457Y38996D01*
X105899Y39571D01*
X106176Y40242D01*
X106271Y40961D01*
X106176Y41681D01*
X105899Y42351D01*
X105457Y42927D01*
X104881Y43369D01*
X104211Y43646D01*
X103491Y43741D01*
X102772Y43646D01*
X102102Y43369D01*
X101526Y42927D01*
X101084Y42351D01*
X100806Y41681D01*
X100712Y40961D01*
X100806Y40242D01*
X100867Y40096D01*
X100501Y39412D01*
X100352Y39382D01*
X99760Y38987D01*
X99700Y38981D01*
X89258Y49424D01*
Y54842D01*
X89262Y54853D01*
X89274Y54878D01*
X89293Y54911D01*
X89314Y54942D01*
X89411Y55059D01*
X89489Y55111D01*
X89884Y55703D01*
X90022Y56400D01*
X89884Y57097D01*
X89489Y57689D01*
X88897Y58084D01*
X88200Y58222D01*
D02*
G37*
G36*
X149867Y38322D02*
X149170Y38184D01*
X148579Y37789D01*
X148183Y37197D01*
X148097Y36765D01*
X148076Y36700D01*
X148066Y36628D01*
X148058Y36585D01*
X148048Y36547D01*
X148036Y36512D01*
X148023Y36480D01*
X148008Y36450D01*
X147991Y36422D01*
X147976Y36401D01*
X147385Y35810D01*
X147105Y35801D01*
X146660Y35898D01*
X146302Y36366D01*
X145726Y36807D01*
X145056Y37085D01*
X144336Y37180D01*
X143617Y37085D01*
X142946Y36807D01*
X142371Y36366D01*
X141929Y35790D01*
X141651Y35119D01*
X141557Y34400D01*
X141651Y33681D01*
X141929Y33010D01*
X142371Y32434D01*
X142946Y31993D01*
X143617Y31715D01*
X144336Y31620D01*
X145056Y31715D01*
X145726Y31993D01*
X146302Y32434D01*
X146743Y33010D01*
X146828Y33215D01*
X146839Y33216D01*
X147590D01*
X148034Y33304D01*
X148410Y33555D01*
X149546Y34691D01*
X149552Y34695D01*
X149563Y34701D01*
X149573Y34705D01*
X149582Y34707D01*
X149592Y34709D01*
X149607Y34711D01*
X149628Y34711D01*
X149688Y34707D01*
X149709Y34709D01*
X149867Y34678D01*
X150565Y34816D01*
X151156Y35211D01*
X151551Y35803D01*
X151690Y36500D01*
X151551Y37197D01*
X151156Y37789D01*
X150565Y38184D01*
X149867Y38322D01*
D02*
G37*
G36*
X87400Y43680D02*
X86681Y43585D01*
X86010Y43307D01*
X85435Y42865D01*
X84993Y42290D01*
X84715Y41619D01*
X84620Y40900D01*
X84715Y40181D01*
X84993Y39510D01*
X85435Y38934D01*
X86010Y38493D01*
X86242Y38397D01*
Y37863D01*
X86323Y37458D01*
X86552Y37115D01*
X86815Y36852D01*
X87158Y36623D01*
X87556Y36544D01*
X87711Y36311D01*
X88303Y35916D01*
X89000Y35778D01*
X89697Y35916D01*
X90289Y36311D01*
X90684Y36903D01*
X90822Y37600D01*
X90684Y38297D01*
X90289Y38889D01*
X90155Y38978D01*
X89807Y39510D01*
X90085Y40181D01*
X90180Y40900D01*
X90085Y41619D01*
X89807Y42290D01*
X89366Y42865D01*
X88790Y43307D01*
X88119Y43585D01*
X87400Y43680D01*
D02*
G37*
G36*
X21131Y35109D02*
X16800D01*
Y31566D01*
X21131D01*
Y35109D01*
D02*
G37*
G36*
X14800D02*
X10469D01*
Y31566D01*
X14800D01*
Y35109D01*
D02*
G37*
G36*
X21131Y29566D02*
X16800D01*
Y26023D01*
X21131D01*
Y29566D01*
D02*
G37*
G36*
X79019Y41722D02*
X78322Y41584D01*
X77731Y41189D01*
X77336Y40597D01*
X77197Y39900D01*
X77336Y39203D01*
X77731Y38611D01*
X78322Y38216D01*
X79019Y38078D01*
X79107Y38095D01*
X79151Y38091D01*
X79195Y38085D01*
X79231Y38077D01*
X79260Y38068D01*
X79282Y38059D01*
X79299Y38050D01*
X79305Y38047D01*
X82427Y34925D01*
Y25996D01*
X82425Y25989D01*
X82419Y25971D01*
X82410Y25949D01*
X82396Y25923D01*
X82376Y25892D01*
X82350Y25856D01*
X82321Y25822D01*
X82247Y25772D01*
X81852Y25181D01*
X81713Y24484D01*
X81852Y23786D01*
X82247Y23195D01*
X82838Y22800D01*
X83535Y22661D01*
X84233Y22800D01*
X84824Y23195D01*
X85219Y23786D01*
X85358Y24484D01*
X85219Y25181D01*
X84824Y25772D01*
X84750Y25822D01*
X84721Y25856D01*
X84694Y25892D01*
X84675Y25923D01*
X84661Y25949D01*
X84651Y25971D01*
X84645Y25989D01*
X84644Y25996D01*
Y35384D01*
X84560Y35809D01*
X84319Y36168D01*
X80873Y39615D01*
X80869Y39620D01*
X80861Y39638D01*
X80852Y39660D01*
X80843Y39688D01*
X80835Y39724D01*
X80828Y39768D01*
X80825Y39812D01*
X80842Y39900D01*
X80703Y40597D01*
X80308Y41189D01*
X79717Y41584D01*
X79019Y41722D01*
D02*
G37*
G36*
X131486Y25791D02*
Y21827D01*
X133480D01*
Y22992D01*
X133378Y23767D01*
X133079Y24489D01*
X132603Y25109D01*
X131983Y25585D01*
X131486Y25791D01*
D02*
G37*
G36*
X97431D02*
Y21827D01*
X99425D01*
Y22992D01*
X99323Y23767D01*
X99024Y24489D01*
X98548Y25109D01*
X97928Y25585D01*
X97431Y25791D01*
D02*
G37*
G36*
X129486D02*
X128989Y25585D01*
X128369Y25109D01*
X127893Y24489D01*
X127594Y23767D01*
X127492Y22992D01*
Y21827D01*
X129486D01*
Y25791D01*
D02*
G37*
G36*
X95431D02*
X94934Y25585D01*
X94314Y25109D01*
X93838Y24489D01*
X93539Y23767D01*
X93436Y22992D01*
Y21827D01*
X95431D01*
Y25791D01*
D02*
G37*
G36*
X114400Y21721D02*
X113742Y21589D01*
X113183Y21217D01*
X112811Y20658D01*
X112742Y20313D01*
X112058D01*
X111989Y20658D01*
X111617Y21217D01*
X111058Y21589D01*
X110400Y21721D01*
X109742Y21589D01*
X109183Y21217D01*
X108810Y20658D01*
X108679Y20000D01*
X108810Y19342D01*
X109183Y18783D01*
X109742Y18410D01*
X110362Y18287D01*
X110577Y18072D01*
X111003Y17787D01*
X111505Y17687D01*
X113443D01*
X113945Y17787D01*
X114371Y18072D01*
X114623Y18324D01*
X115058Y18410D01*
X115617Y18783D01*
X115989Y19342D01*
X116121Y20000D01*
X115989Y20658D01*
X115617Y21217D01*
X115058Y21589D01*
X114400Y21721D01*
D02*
G37*
G36*
X152377Y23853D02*
X151680Y23715D01*
X151089Y23320D01*
X150694Y22728D01*
X150555Y22031D01*
X150694Y21334D01*
X151089Y20742D01*
X151680Y20347D01*
X152377Y20209D01*
X153075Y20347D01*
X153666Y20742D01*
X154061Y21334D01*
X154200Y22031D01*
X154061Y22728D01*
X153666Y23320D01*
X153075Y23715D01*
X152377Y23853D01*
D02*
G37*
G36*
X102080Y20966D02*
X101274Y20805D01*
X100590Y20348D01*
X100133Y19665D01*
X100048Y19235D01*
X100025Y19119D01*
X99425Y19178D01*
X99425Y19253D01*
Y19827D01*
X97431D01*
Y15863D01*
X97928Y16068D01*
X98548Y16544D01*
X99024Y17164D01*
X99323Y17887D01*
X99414Y18577D01*
X99425Y18661D01*
X100016Y18641D01*
X100036Y18543D01*
X100133Y18052D01*
X100590Y17368D01*
X101274Y16911D01*
X102080Y16751D01*
X102887Y16911D01*
X103570Y17368D01*
X104027Y18052D01*
X104188Y18858D01*
X104027Y19665D01*
X103570Y20348D01*
X102887Y20805D01*
X102080Y20966D01*
D02*
G37*
G36*
X80281Y22591D02*
X79562Y22496D01*
X78891Y22218D01*
X78315Y21777D01*
X77874Y21201D01*
X77596Y20530D01*
X77501Y19811D01*
X77596Y19092D01*
X77874Y18421D01*
X78315Y17846D01*
X78891Y17404D01*
X79562Y17126D01*
X80281Y17031D01*
X81000Y17126D01*
X81671Y17404D01*
X82247Y17846D01*
X82576Y18274D01*
X83053Y17955D01*
X83751Y17816D01*
X84448Y17955D01*
X85040Y18350D01*
X85435Y18941D01*
X85573Y19639D01*
X85435Y20336D01*
X85040Y20927D01*
X84448Y21322D01*
X83751Y21461D01*
X83053Y21322D01*
X82688Y21201D01*
X82247Y21777D01*
X81671Y22218D01*
X81000Y22496D01*
X80281Y22591D01*
D02*
G37*
G36*
X133480Y19827D02*
X131486D01*
Y15863D01*
X131983Y16068D01*
X132603Y16544D01*
X133079Y17164D01*
X133378Y17887D01*
X133480Y18661D01*
Y19827D01*
D02*
G37*
G36*
X95431D02*
X93436D01*
Y18661D01*
X93539Y17887D01*
X93838Y17164D01*
X94314Y16544D01*
X94934Y16068D01*
X95431Y15863D01*
Y19827D01*
D02*
G37*
G36*
X124836Y20966D02*
X124030Y20805D01*
X123346Y20348D01*
X122889Y19665D01*
X122729Y18858D01*
X122889Y18052D01*
X123346Y17368D01*
X124030Y16911D01*
X124836Y16751D01*
X125643Y16911D01*
X126326Y17368D01*
X126783Y18052D01*
X126881Y18543D01*
X126900Y18641D01*
X127492Y18661D01*
X127503Y18577D01*
X127594Y17887D01*
X127893Y17164D01*
X128369Y16544D01*
X128989Y16068D01*
X129486Y15863D01*
Y19827D01*
X127492D01*
Y19253D01*
X127492Y19178D01*
X126892Y19119D01*
X126869Y19235D01*
X126783Y19665D01*
X126326Y20348D01*
X125643Y20805D01*
X124836Y20966D01*
D02*
G37*
G36*
X70601Y54192D02*
X69709Y54014D01*
X68952Y53509D01*
X68447Y52752D01*
X68269Y51860D01*
Y39248D01*
X67093Y38072D01*
X60351Y31330D01*
X59845Y30573D01*
X59668Y29681D01*
Y21340D01*
X59585Y20774D01*
X59068Y20774D01*
X51711D01*
Y12900D01*
X52977D01*
X53181Y12300D01*
X52689Y11923D01*
X52024Y11056D01*
X51606Y10046D01*
X51595Y9963D01*
X55648D01*
Y8963D01*
X56648D01*
Y4909D01*
X56732Y4920D01*
X57741Y5338D01*
X58608Y6004D01*
X59273Y6870D01*
X59691Y7880D01*
X59834Y8963D01*
X59786Y9328D01*
X60307Y9544D01*
X60361Y9555D01*
X61107Y9056D01*
X62000Y8879D01*
X62893Y9056D01*
X63649Y9562D01*
X64155Y10319D01*
X64332Y11211D01*
Y28715D01*
X70391Y34774D01*
X72251Y36633D01*
X72756Y37390D01*
X72934Y38282D01*
Y51860D01*
X72756Y52752D01*
X72251Y53509D01*
X71494Y54014D01*
X70601Y54192D01*
D02*
G37*
G36*
X131486Y9059D02*
Y6079D01*
X133480D01*
Y6260D01*
X133378Y7035D01*
X133079Y7757D01*
X132603Y8377D01*
X131983Y8853D01*
X131486Y9059D01*
D02*
G37*
G36*
X97431D02*
Y6079D01*
X99425D01*
Y6260D01*
X99323Y7035D01*
X99024Y7757D01*
X98548Y8377D01*
X97928Y8853D01*
X97431Y9059D01*
D02*
G37*
G36*
X129486Y9059D02*
X128989Y8853D01*
X128369Y8377D01*
X127893Y7757D01*
X127594Y7035D01*
X127492Y6260D01*
Y6079D01*
X129486D01*
Y9059D01*
D02*
G37*
G36*
X95431D02*
X94934Y8853D01*
X94314Y8377D01*
X93838Y7757D01*
X93539Y7035D01*
X93436Y6260D01*
Y6079D01*
X95431D01*
Y9059D01*
D02*
G37*
G36*
X54648Y7963D02*
X51595D01*
X51606Y7880D01*
X52024Y6870D01*
X52689Y6004D01*
X53556Y5338D01*
X54565Y4920D01*
X54648Y4909D01*
Y7963D01*
D02*
G37*
%LPD*%
G36*
X135202Y69614D02*
X135376Y69471D01*
X135462Y69412D01*
X135548Y69362D01*
X135633Y69322D01*
X135718Y69291D01*
X135802Y69268D01*
X135885Y69254D01*
X135968Y69250D01*
Y68750D01*
X135885Y68745D01*
X135802Y68732D01*
X135718Y68709D01*
X135633Y68678D01*
X135548Y68638D01*
X135462Y68588D01*
X135376Y68529D01*
X135290Y68462D01*
X135202Y68385D01*
X135114Y68300D01*
Y69700D01*
X135202Y69614D01*
D02*
G37*
G36*
X143596Y66000D02*
X143579Y66048D01*
X143553Y66090D01*
X143519Y66128D01*
X143477Y66160D01*
X143426Y66188D01*
X143367Y66210D01*
X143300Y66228D01*
X143224Y66240D01*
X143140Y66247D01*
X143047Y66250D01*
Y66750D01*
X143140Y66752D01*
X143224Y66760D01*
X143300Y66773D01*
X143367Y66790D01*
X143426Y66812D01*
X143477Y66840D01*
X143519Y66873D01*
X143553Y66910D01*
X143579Y66953D01*
X143596Y67000D01*
Y66000D01*
D02*
G37*
G36*
X134856Y62905D02*
X134816Y62933D01*
X134773Y62951D01*
X134727Y62959D01*
X134678Y62956D01*
X134626Y62944D01*
X134571Y62921D01*
X134513Y62888D01*
X134452Y62845D01*
X134388Y62792D01*
X134321Y62729D01*
X134032Y63147D01*
X134097Y63214D01*
X134152Y63279D01*
X134199Y63342D01*
X134237Y63404D01*
X134267Y63463D01*
X134288Y63520D01*
X134301Y63575D01*
X134305Y63628D01*
X134300Y63678D01*
X134287Y63727D01*
X134856Y62905D01*
D02*
G37*
G36*
X134171Y62578D02*
X134122Y62525D01*
X134075Y62463D01*
X134028Y62392D01*
X133983Y62313D01*
X133938Y62226D01*
X133852Y62025D01*
X133811Y61912D01*
X133731Y61660D01*
X133067Y62892D01*
X133173Y62863D01*
X133275Y62844D01*
X133372Y62835D01*
X133465Y62835D01*
X133553Y62845D01*
X133637Y62865D01*
X133716Y62895D01*
X133791Y62934D01*
X133861Y62983D01*
X133927Y63042D01*
X134171Y62578D01*
D02*
G37*
G36*
X127278Y63361D02*
X127267Y63313D01*
X127264Y63263D01*
X127271Y63210D01*
X127287Y63155D01*
X127313Y63097D01*
X127349Y63037D01*
X127393Y62974D01*
X127447Y62910D01*
X127511Y62843D01*
X127157Y62489D01*
X127090Y62553D01*
X127026Y62607D01*
X126963Y62651D01*
X126903Y62687D01*
X126846Y62713D01*
X126790Y62729D01*
X126737Y62736D01*
X126687Y62733D01*
X126639Y62722D01*
X126593Y62700D01*
X127300Y63407D01*
X127278Y63361D01*
D02*
G37*
G36*
X129386Y61200D02*
X129298Y61286D01*
X129124Y61430D01*
X129037Y61488D01*
X128952Y61537D01*
X128867Y61578D01*
X128782Y61610D01*
X128698Y61632D01*
X128615Y61646D01*
X128532Y61650D01*
Y62150D01*
X128615Y62155D01*
X128698Y62168D01*
X128782Y62191D01*
X128867Y62222D01*
X128952Y62262D01*
X129037Y62312D01*
X129124Y62371D01*
X129210Y62438D01*
X129298Y62515D01*
X129386Y62600D01*
Y61200D01*
D02*
G37*
G36*
X161316Y66128D02*
X161318Y66082D01*
X161328Y66034D01*
X161347Y65983D01*
X161373Y65930D01*
X161406Y65873D01*
X161448Y65814D01*
X161497Y65752D01*
X161620Y65620D01*
X161319Y65214D01*
X161264Y65265D01*
X161213Y65307D01*
X161164Y65341D01*
X161118Y65365D01*
X161075Y65381D01*
X161035Y65388D01*
X160998Y65386D01*
X160963Y65375D01*
X160931Y65356D01*
X160902Y65327D01*
X161321Y66170D01*
X161316Y66128D01*
D02*
G37*
G36*
X88815Y55598D02*
X88670Y55424D01*
X88612Y55338D01*
X88563Y55252D01*
X88522Y55167D01*
X88490Y55082D01*
X88468Y54998D01*
X88455Y54915D01*
X88450Y54832D01*
X87950D01*
X87945Y54915D01*
X87932Y54998D01*
X87910Y55082D01*
X87878Y55167D01*
X87837Y55252D01*
X87788Y55338D01*
X87730Y55424D01*
X87662Y55510D01*
X87586Y55598D01*
X87500Y55686D01*
X88900D01*
X88815Y55598D01*
D02*
G37*
G36*
X103044Y39044D02*
X102995Y39052D01*
X102944Y39051D01*
X102891Y39042D01*
X102836Y39026D01*
X102779Y39001D01*
X102720Y38968D01*
X102659Y38928D01*
X102595Y38879D01*
X102530Y38823D01*
X102463Y38759D01*
X101999Y39002D01*
X102062Y39069D01*
X102115Y39132D01*
X102157Y39192D01*
X102189Y39248D01*
X102211Y39301D01*
X102221Y39350D01*
X102222Y39395D01*
X102211Y39438D01*
X102191Y39476D01*
X102160Y39512D01*
X103044Y39044D01*
D02*
G37*
G36*
X102335Y38630D02*
X102279Y38568D01*
X102230Y38500D01*
X102186Y38425D01*
X102149Y38342D01*
X102117Y38254D01*
X102092Y38158D01*
X102072Y38056D01*
X102058Y37947D01*
X102051Y37831D01*
X102049Y37708D01*
X101059Y38698D01*
X101181Y38700D01*
X101407Y38721D01*
X101509Y38741D01*
X101604Y38766D01*
X101693Y38798D01*
X101775Y38835D01*
X101851Y38879D01*
X101919Y38928D01*
X101981Y38984D01*
X102335Y38630D01*
D02*
G37*
G36*
X100293Y37043D02*
X100222Y37120D01*
X100149Y37189D01*
X100073Y37250D01*
X99996Y37302D01*
X99916Y37347D01*
X99835Y37383D01*
X99751Y37412D01*
X99665Y37432D01*
X99577Y37444D01*
X99487Y37448D01*
Y37948D01*
X99577Y37952D01*
X99665Y37964D01*
X99751Y37985D01*
X99835Y38013D01*
X99916Y38049D01*
X99996Y38094D01*
X100073Y38147D01*
X100149Y38207D01*
X100222Y38276D01*
X100293Y38353D01*
Y37043D01*
D02*
G37*
G36*
X149750Y35507D02*
X149656Y35514D01*
X149564Y35513D01*
X149476Y35505D01*
X149390Y35488D01*
X149306Y35463D01*
X149225Y35430D01*
X149147Y35389D01*
X149072Y35340D01*
X148999Y35283D01*
X148928Y35218D01*
X148491Y35770D01*
X148554Y35839D01*
X148612Y35910D01*
X148665Y35985D01*
X148711Y36063D01*
X148752Y36144D01*
X148788Y36228D01*
X148817Y36316D01*
X148841Y36406D01*
X148859Y36500D01*
X148872Y36598D01*
X149750Y35507D01*
D02*
G37*
G36*
X146216Y35010D02*
X146257Y34950D01*
X146310Y34898D01*
X146373Y34852D01*
X146447Y34813D01*
X146532Y34782D01*
X146627Y34757D01*
X146733Y34739D01*
X146850Y34729D01*
X146978Y34725D01*
X146969Y34025D01*
X146841Y34022D01*
X146724Y34011D01*
X146618Y33994D01*
X146522Y33970D01*
X146436Y33938D01*
X146361Y33900D01*
X146297Y33855D01*
X146243Y33802D01*
X146200Y33743D01*
X146167Y33677D01*
X146185Y35077D01*
X146216Y35010D01*
D02*
G37*
G36*
X87803Y38973D02*
X87755Y38958D01*
X87712Y38935D01*
X87674Y38903D01*
X87641Y38862D01*
X87613Y38813D01*
X87590Y38755D01*
X87573Y38688D01*
X87560Y38613D01*
X87552Y38530D01*
X87550Y38437D01*
X87050Y38463D01*
X87047Y38555D01*
X87040Y38640D01*
X87028Y38716D01*
X87011Y38784D01*
X86989Y38845D01*
X86961Y38897D01*
X86929Y38941D01*
X86892Y38976D01*
X86851Y39004D01*
X86804Y39024D01*
X87803Y38973D01*
D02*
G37*
G36*
X88140Y37090D02*
X88106Y37139D01*
X88068Y37183D01*
X88023Y37222D01*
X87973Y37256D01*
X87918Y37285D01*
X87858Y37308D01*
X87792Y37327D01*
X87721Y37340D01*
X87644Y37347D01*
X87563Y37350D01*
Y37850D01*
X87644Y37853D01*
X87721Y37860D01*
X87792Y37873D01*
X87858Y37892D01*
X87918Y37915D01*
X87973Y37944D01*
X88023Y37978D01*
X88068Y38017D01*
X88106Y38061D01*
X88140Y38110D01*
Y37090D01*
D02*
G37*
G36*
X80022Y39780D02*
X80030Y39676D01*
X80045Y39576D01*
X80067Y39481D01*
X80094Y39391D01*
X80129Y39306D01*
X80169Y39225D01*
X80217Y39150D01*
X80270Y39079D01*
X80330Y39013D01*
X79906Y38589D01*
X79840Y38649D01*
X79770Y38703D01*
X79694Y38750D01*
X79614Y38791D01*
X79529Y38825D01*
X79439Y38853D01*
X79344Y38874D01*
X79244Y38889D01*
X79139Y38898D01*
X79030Y38900D01*
X80019Y39890D01*
X80022Y39780D01*
D02*
G37*
G36*
X83839Y25949D02*
X83851Y25861D01*
X83871Y25774D01*
X83899Y25688D01*
X83935Y25604D01*
X83979Y25520D01*
X84031Y25438D01*
X84091Y25357D01*
X84159Y25277D01*
X84235Y25198D01*
X82835D01*
X82911Y25277D01*
X82979Y25357D01*
X83039Y25438D01*
X83091Y25520D01*
X83135Y25604D01*
X83171Y25688D01*
X83199Y25774D01*
X83219Y25861D01*
X83231Y25949D01*
X83235Y26037D01*
X83835D01*
X83839Y25949D01*
D02*
G37*
G36*
X111303Y20031D02*
X111317Y19992D01*
X111337Y19950D01*
X111364Y19903D01*
X111399Y19852D01*
X111489Y19737D01*
X111545Y19674D01*
X111678Y19535D01*
X111042Y18756D01*
X110970Y18826D01*
X110838Y18941D01*
X110777Y18988D01*
X110720Y19026D01*
X110666Y19057D01*
X110615Y19080D01*
X110568Y19096D01*
X110524Y19104D01*
X110484Y19104D01*
X111298Y20066D01*
X111303Y20031D01*
D02*
G37*
G36*
X114335Y19102D02*
X114316Y19100D01*
X114292Y19089D01*
X114261Y19071D01*
X114225Y19045D01*
X114134Y18971D01*
X114018Y18865D01*
X113879Y18729D01*
X113143Y19408D01*
X113215Y19480D01*
X113456Y19757D01*
X113481Y19795D01*
X113498Y19828D01*
X113507Y19854D01*
X113509Y19875D01*
X114335Y19102D01*
D02*
G37*
G36*
X82927Y19072D02*
X82859Y19165D01*
X82788Y19248D01*
X82716Y19322D01*
X82642Y19385D01*
X82566Y19439D01*
X82487Y19483D01*
X82407Y19517D01*
X82405Y19518D01*
X82355Y19499D01*
X82304Y19471D01*
X82262Y19439D01*
X82228Y19401D01*
X82202Y19359D01*
X82185Y19311D01*
Y19559D01*
X82154Y19561D01*
X82185Y19732D01*
Y20311D01*
X82202Y20264D01*
X82228Y20221D01*
X82262Y20184D01*
X82304Y20151D01*
X82355Y20124D01*
X82414Y20101D01*
X82458Y20090D01*
X82487Y20096D01*
X82574Y20123D01*
X82665Y20159D01*
X82759Y20202D01*
X82957Y20311D01*
X83061Y20377D01*
X83168Y20451D01*
X82927Y19072D01*
D02*
G37*
D10*
X106635Y86000D02*
X106685Y85950D01*
X88200Y48985D02*
Y56400D01*
X161495Y62605D02*
X164600Y59500D01*
X104807Y87828D02*
X106635Y86000D01*
X104807Y87828D02*
Y90623D01*
X104600Y90831D02*
X104807Y90623D01*
X106635Y86000D02*
Y86000D01*
X104600Y90831D02*
Y94041D01*
X101049Y37698D02*
Y37698D01*
X103491Y40141D02*
Y40961D01*
X101049Y37698D02*
X103491Y40141D01*
X99487Y37698D02*
X101049D01*
X88200Y48985D02*
X99487Y37698D01*
X87300Y37863D02*
Y40800D01*
Y37863D02*
X87563Y37600D01*
X89000D01*
X36563Y66258D02*
Y71255D01*
X29417Y78401D02*
X36563Y71255D01*
X25631Y74464D02*
X31552D01*
X34350Y67722D02*
Y71666D01*
X31552Y74464D02*
X34350Y71666D01*
X25631Y78401D02*
X29417D01*
X89793Y129724D02*
X90000Y129931D01*
Y132300D01*
X82100Y129008D02*
X82312D01*
X81619D02*
X82100D01*
X83579Y19811D02*
X83751Y19639D01*
X80281Y19811D02*
X83579D01*
X58491Y87500D02*
X66670Y95678D01*
X67800D01*
X87300Y40800D02*
X87400Y40900D01*
X25558Y48800D02*
X25631Y48873D01*
X21548Y71454D02*
X21562Y71439D01*
X20841Y58716D02*
X25631D01*
X17100Y48800D02*
X18931Y46969D01*
X33781Y39303D02*
Y40049D01*
X12462Y64137D02*
X19852Y56747D01*
X17100Y48800D02*
Y51500D01*
X12469Y71118D02*
Y74150D01*
X14762Y70239D02*
Y75804D01*
X31607Y44936D02*
X34573Y47903D01*
X23048Y37403D02*
X25290D01*
X17200Y54112D02*
X22512Y48800D01*
X19852Y56747D02*
X25631D01*
Y44936D02*
X31607D01*
X20934Y62653D02*
X25631D01*
Y42968D02*
X32135D01*
X20380Y64621D02*
X25631D01*
X14762Y70239D02*
X20380Y64621D01*
X32631Y80369D02*
X40600Y72400D01*
X33781Y39303D02*
X34067Y39016D01*
X21548Y71454D02*
Y74591D01*
X11528Y68028D02*
X20841Y58716D01*
X25631Y80369D02*
X32631D01*
X17200Y54112D02*
Y56400D01*
X14762Y75804D02*
X14762Y75804D01*
X25567Y46969D02*
X25631Y46905D01*
X17200Y43251D02*
X23048Y37403D01*
X22761Y75804D02*
X23034D01*
X32830Y40999D02*
X33781Y40049D01*
X12193Y64137D02*
X12462D01*
X23034Y75804D02*
X23662Y76432D01*
X18931Y46969D02*
X25567D01*
X12469Y71118D02*
X20934Y62653D01*
X33689Y35911D02*
Y36920D01*
X23662Y76432D02*
X25631D01*
X21548Y74591D02*
X22761Y75804D01*
X22512Y48800D02*
X25558D01*
X31578Y39031D02*
X33689Y36920D01*
X32135Y42968D02*
X37197Y48030D01*
X25631Y40999D02*
X32830D01*
X25631Y39031D02*
X31578D01*
X17200Y43251D02*
Y45100D01*
X33689Y35911D02*
X34000Y35600D01*
X25290Y37403D02*
X25631Y37062D01*
X125600Y64400D02*
X128100Y61900D01*
X130100D01*
X135639Y64400D02*
X136137D01*
X133176Y61937D02*
X135639Y64400D01*
X132770Y61937D02*
X133176D01*
X134400Y69000D02*
X136425D01*
X138925Y66500D02*
X145500D01*
X136425Y69000D02*
X138925Y66500D01*
X85005Y129847D02*
X85005Y129847D01*
X85006Y129848D01*
X85003Y129845D02*
X85005Y129847D01*
X82312Y129008D02*
X83143Y129839D01*
X84844D02*
X84997D01*
X84997Y129839D02*
X85003Y129845D01*
X84997Y129839D02*
X84997Y129839D01*
X83143Y129839D02*
X84844D01*
X103987Y133887D02*
X104300Y134200D01*
X100987Y133887D02*
X103987D01*
X100700Y133600D02*
X100987Y133887D01*
X106982Y131482D02*
X109700Y134200D01*
X98209Y131850D02*
X98615D01*
X98984Y131482D02*
X106982D01*
X98615Y131850D02*
X98984Y131482D01*
X92649Y125751D02*
X93100Y125300D01*
X89793Y125751D02*
X92649D01*
X124200Y100250D02*
X124250Y100200D01*
X117400Y106500D02*
X121992Y101909D01*
X122290D01*
X124200Y100250D02*
Y102615D01*
X128600Y98800D02*
X129050D01*
X131150Y98284D02*
Y100224D01*
X129216Y96350D02*
X131150Y98284D01*
X106909Y96350D02*
X129216D01*
X131150Y100224D02*
X132269Y101344D01*
Y107021D01*
X129350Y109941D02*
X132269Y107021D01*
X91700Y112900D02*
X94811Y109789D01*
X97100D01*
X160386Y66500D02*
X161495Y65390D01*
Y62605D02*
Y65390D01*
X82788Y85926D02*
Y86133D01*
X81700Y105700D02*
X84581Y108581D01*
X95891D02*
X97100Y109789D01*
X84581Y108581D02*
X95891D01*
X72536Y86744D02*
Y86879D01*
X111901Y86001D02*
X112437Y86537D01*
X111901Y85712D02*
Y86001D01*
X112437Y86537D02*
Y90794D01*
X112474Y90831D01*
X117099Y85729D02*
X117130D01*
X117752Y86352D01*
X116411Y87799D02*
Y90831D01*
X114500Y85888D02*
X116411Y87799D01*
X117752Y86352D02*
Y90203D01*
X118379Y90831D01*
X114500Y85800D02*
Y85888D01*
X104600Y94041D02*
X106909Y96350D01*
X118794Y98100D02*
X119200D01*
X102266Y93450D02*
X106216Y97400D01*
X118307Y97613D02*
X118794Y98100D01*
X118213Y97613D02*
X118307D01*
X118000Y97400D02*
X118213Y97613D01*
X106216Y97400D02*
X118000D01*
X115775Y104500D02*
X122825Y97450D01*
X108233Y104500D02*
X115775D01*
X127250Y97450D02*
X128600Y98800D01*
X122825Y97450D02*
X127250D01*
X129444Y102260D02*
X129860D01*
X125634Y98450D02*
X129444Y102260D01*
X116189Y105500D02*
X123239Y98450D01*
X108789Y105500D02*
X116189D01*
X123239Y98450D02*
X125634D01*
X116700Y100700D02*
X117100D01*
X113900Y103500D02*
X116700Y100700D01*
X107677Y103500D02*
X113900D01*
X93783Y118950D02*
X108233Y104500D01*
X94908Y122492D02*
X109900Y107500D01*
X94239Y120050D02*
X108789Y105500D01*
X93327Y117850D02*
X107677Y103500D01*
X94644Y121200D02*
X109344Y106500D01*
X117400D01*
X109900Y107500D02*
X119315D01*
X124200Y102615D01*
X79354Y113671D02*
Y116054D01*
X81150Y117850D01*
X85060Y116740D02*
X85800Y116000D01*
X79013Y113331D02*
X79354Y113671D01*
X82008Y116740D02*
X85060D01*
X81150Y117850D02*
X93327D01*
X80982Y113331D02*
X81322Y113671D01*
Y116054D01*
X82008Y116740D01*
X80600Y99000D02*
Y106307D01*
X81700Y100163D02*
Y105700D01*
X80600Y106307D02*
X86293Y112000D01*
X81700Y100163D02*
X85863Y96000D01*
X93437D01*
X130484Y124600D02*
X133300D01*
X129350Y123466D02*
X130484Y124600D01*
X129350Y109941D02*
Y123466D01*
X93437Y96000D02*
X94137Y95300D01*
X101500D01*
X80281Y118950D02*
X93783D01*
X79284Y121200D02*
X94644D01*
X89275Y122492D02*
X94908D01*
X79413Y120050D02*
X94239D01*
X99557Y93450D02*
X102266D01*
X77385Y116054D02*
X80281Y118950D01*
X75417Y116054D02*
X79413Y120050D01*
X77550Y122934D02*
X79284Y121200D01*
X77550Y122934D02*
Y124939D01*
X81619Y129008D01*
X86020Y125747D02*
X89275Y122492D01*
X75076Y113331D02*
X75417Y113671D01*
X77385D02*
Y116054D01*
X75417Y113671D02*
Y116054D01*
X77045Y113331D02*
X77385Y113671D01*
D12*
X25631Y50842D02*
X31114D01*
X25540Y50932D02*
X25631Y50842D01*
X22350Y50932D02*
X25540D01*
X20684Y52597D02*
X22350Y50932D01*
X20600Y54100D02*
X20684Y54016D01*
Y52597D02*
Y54016D01*
X97276Y159100D02*
X102276Y154100D01*
X48865Y167100D02*
X67065D01*
X46865Y172600D02*
X64665D01*
X78165Y159100D02*
X97276D01*
X53739Y162600D02*
X66418D01*
X71287Y157731D01*
X64665Y172600D02*
X78165Y159100D01*
X67065Y167100D02*
X80065Y154100D01*
X98104Y80356D02*
Y81000D01*
Y80356D02*
X101147Y77313D01*
X104807D01*
X89446Y103500D02*
X94965D01*
X95200Y103265D01*
X84300Y101300D02*
X87246D01*
X89446Y103500D01*
X84300Y101300D02*
Y104800D01*
X113443Y19000D02*
X114521Y20079D01*
X110400Y20000D02*
X110505D01*
X111505Y19000D01*
X27599Y54779D02*
X28728Y53650D01*
X25631Y54779D02*
X27599D01*
X50900Y44005D02*
Y47600D01*
X56600Y53300D01*
X111505Y19000D02*
X113443D01*
X110415Y87054D02*
Y90740D01*
X109901Y86540D02*
X110415Y87054D01*
X109901Y83976D02*
Y86540D01*
X109376Y83450D02*
X109901Y83976D01*
X110415Y90740D02*
X110505Y90831D01*
X120348Y85625D02*
Y90831D01*
X120320Y85597D02*
X120348Y85625D01*
D14*
X79019Y39900D02*
X83535Y35384D01*
Y24484D02*
Y35384D01*
X86831Y131831D02*
X87326Y132326D01*
X82231Y131831D02*
X86831D01*
X85281Y132931D02*
X89450Y137100D01*
X81185Y132931D02*
X85281D01*
X41654Y93400D02*
X81185Y132931D01*
X89450Y137100D02*
X110743D01*
X38634Y88234D02*
X82231Y131831D01*
X116318Y129005D02*
X119299Y126024D01*
X97452Y129005D02*
X116318D01*
X97100Y126900D02*
Y128654D01*
X97452Y129005D01*
X10700Y93400D02*
X41654D01*
X25690Y88234D02*
X38634D01*
X35048Y90000D02*
X35805D01*
X16562Y79106D02*
X25690Y88234D01*
X114733Y91121D02*
Y93849D01*
X136300Y84825D02*
Y87661D01*
X115085Y94200D02*
X129761D01*
X155678Y131831D02*
X158500Y129008D01*
X129761Y94200D02*
X136300Y87661D01*
X158500Y101954D02*
Y116682D01*
X147000Y97613D02*
X154159D01*
X158500Y100200D02*
Y101954D01*
X137425Y83700D02*
X142000D01*
X114733Y93849D02*
X115085Y94200D01*
X154159Y97613D02*
X158500Y101954D01*
X132715Y132039D02*
X132923Y131831D01*
X142000Y83700D02*
X158500Y100200D01*
X136300Y84825D02*
X137425Y83700D01*
X132923Y131831D02*
X155678D01*
X158500Y116682D02*
Y129008D01*
X128136Y128468D02*
X141232D01*
X125692Y126024D02*
X128136Y128468D01*
X119299Y126024D02*
X125692D01*
X117605Y130239D02*
X152522D01*
X110743Y137100D02*
X117605Y130239D01*
X91500Y77100D02*
X93500Y75100D01*
X116189Y134200D02*
X118908Y131482D01*
X129612D01*
X132031Y133900D01*
X162082D01*
X166800Y129182D01*
X154760Y126918D02*
Y128001D01*
X152522Y130239D02*
X154760Y128001D01*
X166800Y101551D02*
Y129182D01*
X140349Y75100D02*
X166800Y101551D01*
X22057Y66590D02*
X25631D01*
X16562Y72084D02*
Y79106D01*
Y72084D02*
X22057Y66590D01*
X9981Y92681D02*
X10700Y93400D01*
X9981Y72121D02*
Y92681D01*
Y72121D02*
X21418Y60684D01*
X141232Y128468D02*
X150945Y118755D01*
Y118710D02*
Y118755D01*
X108888Y95300D02*
X135934D01*
X138512Y92722D01*
Y85981D02*
Y92722D01*
X93500Y75100D02*
X140349D01*
X138512Y85981D02*
X138567Y85926D01*
X21418Y60684D02*
X25631D01*
X108537Y90831D02*
Y94949D01*
X108888Y95300D01*
X131250Y122700D02*
X136137D01*
X131200Y122650D02*
X131250Y122700D01*
X136137D02*
X144337Y114500D01*
X147684D02*
X152395Y109789D01*
X144337Y114500D02*
X147684D01*
X152395Y108312D02*
Y109789D01*
Y108312D02*
X152400Y108307D01*
X133300Y120800D02*
X134641D01*
X152400Y103041D01*
D18*
X80982Y109042D02*
X82838Y110898D01*
X80982Y109034D02*
Y109042D01*
X82838Y113218D02*
X82950Y113331D01*
X82838Y110898D02*
Y113218D01*
X162240Y123466D02*
Y126918D01*
X160400Y122750D02*
X160649Y122999D01*
X161773D01*
X162240Y123466D01*
X147590Y34375D02*
X149715Y36500D01*
X149867D01*
X144361Y34375D02*
X147590D01*
X144336Y34400D02*
X144361Y34375D01*
X65600Y59400D02*
Y76700D01*
X70600Y81700D01*
X81676Y72035D02*
X81775Y72133D01*
X86533D02*
X91500Y77100D01*
X81775Y72133D02*
X86533D01*
X80000Y125692D02*
X85966D01*
X79400Y123700D02*
X79453Y123753D01*
Y125146D01*
X80000Y125692D01*
D22*
X89446Y103500D02*
D03*
X66612Y103500D02*
D03*
X98104Y81000D02*
D03*
X128813Y81000D02*
D03*
D23*
X82950Y113331D02*
D03*
X80982D02*
D03*
X79013D02*
D03*
X77045D02*
D03*
X75076D02*
D03*
X73108D02*
D03*
X104600Y90831D02*
D03*
X110505D02*
D03*
X112474D02*
D03*
X114443D02*
D03*
X116411D02*
D03*
X118379D02*
D03*
X120348D02*
D03*
X122317D02*
D03*
X108537D02*
D03*
X106569D02*
D03*
D34*
X91500Y82800D02*
D03*
Y86800D02*
D03*
Y77100D02*
D03*
Y73100D02*
D03*
D38*
X77936Y81287D02*
D03*
X81676Y72035D02*
D03*
D39*
X74196Y72035D02*
D03*
D40*
X85793Y129724D02*
D03*
X89793D02*
D03*
X85793Y125751D02*
D03*
X89793D02*
D03*
X72536Y86879D02*
D03*
X68536D02*
D03*
D44*
X25631Y52810D02*
D03*
Y50842D02*
D03*
Y37062D02*
D03*
Y39031D02*
D03*
Y40999D02*
D03*
Y42968D02*
D03*
Y44936D02*
D03*
Y46905D02*
D03*
Y48873D02*
D03*
Y54779D02*
D03*
Y56747D02*
D03*
Y58716D02*
D03*
Y60684D02*
D03*
Y62653D02*
D03*
Y64621D02*
D03*
Y66590D02*
D03*
Y68558D02*
D03*
Y70527D02*
D03*
Y72495D02*
D03*
Y74464D02*
D03*
Y76432D02*
D03*
Y78401D02*
D03*
Y80369D02*
D03*
Y82338D02*
D03*
D45*
X15800Y30566D02*
D03*
X15800Y88834D02*
D03*
D46*
X56500Y69000D02*
D03*
D115*
X91500Y82800D02*
X96304D01*
X98104Y81000D01*
X29400Y53200D02*
X56500D01*
X90339Y71381D02*
X97070D01*
X25631Y53300D02*
X28728D01*
X98600Y66600D02*
Y69960D01*
Y66600D02*
X150200Y15000D01*
X80245Y86831D02*
X82788D01*
X91469D01*
X76971Y65963D02*
X77073Y66065D01*
X64308Y53300D02*
X76971Y65963D01*
X84921D02*
X90339Y71381D01*
X76971Y65963D02*
X84921D01*
X56600Y53300D02*
X64308D01*
X72700Y86523D02*
Y113688D01*
X109376Y83450D02*
X110773D01*
X105649D02*
X109376D01*
X102269Y86831D02*
X105649Y83450D01*
X77066Y82157D02*
X77165D01*
X72700Y86523D02*
X77066Y82157D01*
X78708Y82059D02*
Y85294D01*
X77936Y81287D02*
X78708Y82059D01*
X91500Y86831D02*
X102269D01*
X97287Y71272D02*
Y71289D01*
Y71272D02*
X98600Y69960D01*
X78708Y85294D02*
X80245Y86831D01*
X77936Y81287D02*
Y81385D01*
X77165Y82157D02*
X77936Y81385D01*
X91469Y86831D02*
X91500Y86800D01*
X74196Y72035D02*
Y72133D01*
D116*
X110773Y83450D02*
X118173D01*
X120320Y85597D01*
X80600Y99000D02*
X85266Y94334D01*
X92840D01*
X97174Y90000D01*
D117*
X85520Y76432D02*
X87277Y78190D01*
X74196Y72133D02*
X78495Y76432D01*
X85520D01*
X62000Y29681D02*
X68742Y36423D01*
X70601Y38282D01*
Y51860D01*
X62000Y11211D02*
Y29681D01*
X87277Y78190D02*
Y79804D01*
X74196Y72035D02*
X74468Y71763D01*
Y68670D02*
Y71763D01*
Y68670D02*
X77073Y66065D01*
D120*
X204600Y59500D02*
D03*
X194600D02*
D03*
X184600D02*
D03*
X174600D02*
D03*
D121*
X164600D02*
D03*
D122*
X47900Y80963D02*
D03*
X55648Y8963D02*
D03*
X78654Y166783D02*
D03*
X102276D02*
D03*
D123*
X47900Y88837D02*
D03*
X55648Y16837D02*
D03*
D124*
X102080Y18858D02*
D03*
X124836D02*
D03*
D125*
X130486Y5079D02*
D03*
X96431D02*
D03*
D126*
X130486Y20827D02*
D03*
X96431D02*
D03*
D127*
X106685Y85950D02*
D03*
X104949Y36500D02*
D03*
X119400Y72000D02*
D03*
X95100Y51400D02*
D03*
X88200Y56400D02*
D03*
X48865Y167100D02*
D03*
X53739Y162600D02*
D03*
X71287Y157731D02*
D03*
X46865Y172600D02*
D03*
X102276Y154100D02*
D03*
X80065D02*
D03*
X83513Y39354D02*
D03*
X147218Y39788D02*
D03*
X103500Y80900D02*
D03*
X29400Y53200D02*
D03*
X33000Y64700D02*
D03*
Y61200D02*
D03*
X49594Y57700D02*
D03*
X45959D02*
D03*
X134800Y93500D02*
D03*
X83535Y24484D02*
D03*
X101049Y37698D02*
D03*
X89000Y37600D02*
D03*
X33000Y57700D02*
D03*
X36563Y66258D02*
D03*
X34350Y67722D02*
D03*
X31200Y72164D02*
D03*
X27100Y30700D02*
D03*
X90000Y132300D02*
D03*
X87326Y132326D02*
D03*
X99700Y123000D02*
D03*
Y126900D02*
D03*
X97100D02*
D03*
Y123100D02*
D03*
X144650Y127824D02*
D03*
X160400Y122750D02*
D03*
X154760Y120747D02*
D03*
X134000Y84800D02*
D03*
X124900Y89800D02*
D03*
X128600Y41025D02*
D03*
X150200Y15000D02*
D03*
X144650Y30192D02*
D03*
X152377Y22031D02*
D03*
X149867Y36500D02*
D03*
X116758Y52206D02*
D03*
X112400Y48121D02*
D03*
X115508Y45100D02*
D03*
X119754Y52206D02*
D03*
Y49191D02*
D03*
X112443Y45207D02*
D03*
X106900Y69500D02*
D03*
X107000Y72200D02*
D03*
X67100Y123500D02*
D03*
X73273Y120327D02*
D03*
X64100Y123500D02*
D03*
Y120500D02*
D03*
X67100Y126500D02*
D03*
X64100D02*
D03*
X70100D02*
D03*
X76100Y120500D02*
D03*
X93327Y134071D02*
D03*
X82100Y129008D02*
D03*
X84300Y101300D02*
D03*
X79019Y39900D02*
D03*
X162501Y103673D02*
D03*
X162394Y110970D02*
D03*
X71287Y66590D02*
D03*
X120400Y135900D02*
D03*
X125200Y133800D02*
D03*
X148100Y6500D02*
D03*
Y3500D02*
D03*
X145100Y6500D02*
D03*
Y3500D02*
D03*
X142100Y6500D02*
D03*
Y3500D02*
D03*
X139100Y6500D02*
D03*
Y3500D02*
D03*
X62737Y66423D02*
D03*
X62700Y70665D02*
D03*
X79019Y53700D02*
D03*
X78000Y60328D02*
D03*
X74497Y56820D02*
D03*
X132715Y132039D02*
D03*
X64100Y39500D02*
D03*
X61100D02*
D03*
X58100D02*
D03*
X94454Y45207D02*
D03*
X94515Y48500D02*
D03*
X74600Y30900D02*
D03*
Y27300D02*
D03*
X78000D02*
D03*
Y30900D02*
D03*
X83751Y19639D02*
D03*
X124947Y127824D02*
D03*
X60422Y99500D02*
D03*
X57421D02*
D03*
X54422D02*
D03*
X67800Y95678D02*
D03*
X144724Y116800D02*
D03*
X116189Y134200D02*
D03*
X152400Y108307D02*
D03*
Y103041D02*
D03*
X124497Y36446D02*
D03*
X131322Y39927D02*
D03*
X65600Y59400D02*
D03*
X21861Y33229D02*
D03*
X24600Y33200D02*
D03*
X76100Y105500D02*
D03*
Y102500D02*
D03*
Y99500D02*
D03*
Y96500D02*
D03*
X121100Y9500D02*
D03*
Y6500D02*
D03*
Y3500D02*
D03*
X118100Y9500D02*
D03*
Y6500D02*
D03*
Y3500D02*
D03*
X115100Y9500D02*
D03*
Y6500D02*
D03*
Y3500D02*
D03*
X112100Y9500D02*
D03*
Y6500D02*
D03*
Y3500D02*
D03*
X109100Y9500D02*
D03*
Y6500D02*
D03*
Y3500D02*
D03*
X106100Y9500D02*
D03*
Y6500D02*
D03*
Y3500D02*
D03*
X46100Y21500D02*
D03*
Y18500D02*
D03*
Y15500D02*
D03*
Y12500D02*
D03*
Y9500D02*
D03*
Y6500D02*
D03*
Y3500D02*
D03*
X43100Y21500D02*
D03*
Y18500D02*
D03*
Y15500D02*
D03*
Y12500D02*
D03*
Y9500D02*
D03*
Y6500D02*
D03*
Y3500D02*
D03*
X40100Y21500D02*
D03*
Y18500D02*
D03*
Y15500D02*
D03*
Y12500D02*
D03*
Y9500D02*
D03*
Y6500D02*
D03*
Y3500D02*
D03*
X13100Y54500D02*
D03*
Y51500D02*
D03*
Y48500D02*
D03*
Y45500D02*
D03*
X7100Y87500D02*
D03*
Y84500D02*
D03*
Y81500D02*
D03*
Y78500D02*
D03*
Y75500D02*
D03*
X4100Y87500D02*
D03*
Y84500D02*
D03*
Y81500D02*
D03*
Y78500D02*
D03*
Y75500D02*
D03*
X181100Y123500D02*
D03*
Y120500D02*
D03*
Y117500D02*
D03*
Y114500D02*
D03*
Y111500D02*
D03*
Y108500D02*
D03*
Y105500D02*
D03*
Y102500D02*
D03*
Y99500D02*
D03*
Y96500D02*
D03*
Y93500D02*
D03*
Y90500D02*
D03*
Y87500D02*
D03*
Y84500D02*
D03*
Y81500D02*
D03*
Y78500D02*
D03*
X178100Y123500D02*
D03*
Y120500D02*
D03*
Y117500D02*
D03*
Y114500D02*
D03*
Y111500D02*
D03*
Y108500D02*
D03*
Y105500D02*
D03*
Y102500D02*
D03*
Y99500D02*
D03*
Y96500D02*
D03*
Y93500D02*
D03*
Y90500D02*
D03*
Y87500D02*
D03*
Y84500D02*
D03*
Y81500D02*
D03*
Y78500D02*
D03*
X175100Y123500D02*
D03*
Y120500D02*
D03*
Y117500D02*
D03*
Y114500D02*
D03*
Y111500D02*
D03*
Y108500D02*
D03*
Y105500D02*
D03*
Y102500D02*
D03*
Y99500D02*
D03*
Y96500D02*
D03*
Y93500D02*
D03*
Y90500D02*
D03*
Y87500D02*
D03*
Y84500D02*
D03*
Y81500D02*
D03*
Y78500D02*
D03*
X172100Y123500D02*
D03*
Y120500D02*
D03*
Y117500D02*
D03*
Y114500D02*
D03*
Y111500D02*
D03*
Y108500D02*
D03*
Y105500D02*
D03*
Y102500D02*
D03*
Y99500D02*
D03*
Y96500D02*
D03*
Y93500D02*
D03*
Y90500D02*
D03*
Y87500D02*
D03*
Y84500D02*
D03*
Y81500D02*
D03*
Y78500D02*
D03*
X199100Y36500D02*
D03*
Y33500D02*
D03*
Y30500D02*
D03*
Y27500D02*
D03*
X196100Y36500D02*
D03*
Y33500D02*
D03*
Y30500D02*
D03*
Y27500D02*
D03*
X193100Y36500D02*
D03*
Y33500D02*
D03*
Y30500D02*
D03*
Y27500D02*
D03*
X190100Y36500D02*
D03*
Y33500D02*
D03*
Y30500D02*
D03*
Y27500D02*
D03*
X187100Y36500D02*
D03*
Y33500D02*
D03*
Y30500D02*
D03*
Y27500D02*
D03*
X184100Y36500D02*
D03*
Y33500D02*
D03*
Y30500D02*
D03*
Y27500D02*
D03*
X181100Y36500D02*
D03*
Y33500D02*
D03*
Y30500D02*
D03*
Y27500D02*
D03*
X178100Y36500D02*
D03*
Y33500D02*
D03*
Y30500D02*
D03*
Y27500D02*
D03*
X175100Y36500D02*
D03*
Y33500D02*
D03*
Y30500D02*
D03*
Y27500D02*
D03*
X109376Y114746D02*
D03*
X112376Y111747D02*
D03*
X109376D02*
D03*
X12469Y74150D02*
D03*
X12193Y64137D02*
D03*
X17100Y51500D02*
D03*
X17200Y56400D02*
D03*
X40600Y72400D02*
D03*
X34573Y47903D02*
D03*
X14762Y75804D02*
D03*
X37197Y48030D02*
D03*
X21562Y71439D02*
D03*
X34067Y39016D02*
D03*
X11528Y68028D02*
D03*
X34000Y35600D02*
D03*
X17200Y45100D02*
D03*
X100700Y133600D02*
D03*
X93100Y125300D02*
D03*
X98209Y131850D02*
D03*
X122290Y101909D02*
D03*
X124250Y100200D02*
D03*
X129050Y98800D02*
D03*
X132900Y99400D02*
D03*
X136200Y44400D02*
D03*
Y47800D02*
D03*
X143149Y47778D02*
D03*
X20600Y54100D02*
D03*
X44400Y49900D02*
D03*
X41000D02*
D03*
X123119Y69000D02*
D03*
X108789Y64709D02*
D03*
X112800Y73200D02*
D03*
X116600Y77300D02*
D03*
X119500Y80200D02*
D03*
X123189Y76900D02*
D03*
X114402Y67798D02*
D03*
X152377Y90000D02*
D03*
X99557Y73081D02*
D03*
X104884Y30500D02*
D03*
X87300Y83300D02*
D03*
X138629Y98300D02*
D03*
X79400Y123700D02*
D03*
X82100Y123706D02*
D03*
X134500Y72800D02*
D03*
X134400Y69000D02*
D03*
X139067D02*
D03*
X70600Y81700D02*
D03*
X111901Y85712D02*
D03*
X104325Y67787D02*
D03*
X117099Y85729D02*
D03*
X114500Y85800D02*
D03*
X138567Y85926D02*
D03*
X150945Y118710D02*
D03*
X119200Y98100D02*
D03*
X113136Y100962D02*
D03*
X115000Y99150D02*
D03*
X117100Y100700D02*
D03*
X138443Y79470D02*
D03*
X85800Y116000D02*
D03*
X87257Y90000D02*
D03*
X131290Y55869D02*
D03*
X147684D02*
D03*
X139067Y61937D02*
D03*
X84300Y104800D02*
D03*
X100920Y103105D02*
D03*
X98750Y106551D02*
D03*
X95970Y106637D02*
D03*
X95947Y98205D02*
D03*
X98600Y98200D02*
D03*
X101400D02*
D03*
X106288Y99562D02*
D03*
X112474Y35489D02*
D03*
X117200Y30000D02*
D03*
X121376Y111747D02*
D03*
X115376D02*
D03*
X118376D02*
D03*
X112376Y114746D02*
D03*
X115376D02*
D03*
X118376D02*
D03*
X121376D02*
D03*
X86293Y112000D02*
D03*
X121376Y117746D02*
D03*
X118376D02*
D03*
X115376D02*
D03*
X112376D02*
D03*
X109376D02*
D03*
Y120747D02*
D03*
X112376D02*
D03*
X115376D02*
D03*
X118376D02*
D03*
X121376D02*
D03*
Y123747D02*
D03*
X118376D02*
D03*
X115376D02*
D03*
X112376D02*
D03*
X109376D02*
D03*
X133300Y124600D02*
D03*
X125300Y107350D02*
D03*
X97100Y109789D02*
D03*
X125222Y113688D02*
D03*
X131200Y126614D02*
D03*
X129860Y102260D02*
D03*
X133698Y110898D02*
D03*
X133512Y114623D02*
D03*
X131200Y122650D02*
D03*
X125723Y116800D02*
D03*
X133300Y120800D02*
D03*
X99452Y93235D02*
D03*
X101500Y95300D02*
D03*
X152400Y112900D02*
D03*
X122000Y62100D02*
D03*
X97174Y90000D02*
D03*
X132770Y61937D02*
D03*
X130100Y61900D02*
D03*
D128*
X95544Y63189D02*
D03*
X67800Y35500D02*
D03*
X70601Y51860D02*
D03*
X87277Y79804D02*
D03*
X97070Y71381D02*
D03*
X62000Y11211D02*
D03*
D129*
X50900Y44005D02*
D03*
X87400Y40900D02*
D03*
X80281Y19811D02*
D03*
X30300Y91700D02*
D03*
X136137Y64400D02*
D03*
X125600D02*
D03*
X109700Y134200D02*
D03*
X104300D02*
D03*
X147000Y97613D02*
D03*
X35805Y90000D02*
D03*
X144336Y34400D02*
D03*
X145500Y66500D02*
D03*
X58491Y87500D02*
D03*
X82788Y85926D02*
D03*
X159400Y66600D02*
D03*
X91700Y112900D02*
D03*
X103491Y40961D02*
D03*
X189175Y112716D02*
D03*
Y81299D02*
D03*
D130*
X114400Y20000D02*
D03*
X110400D02*
D03*
D131*
X162240Y126918D02*
D03*
X154760D02*
D03*
Y116682D02*
D03*
X158500D02*
D03*
X162240D02*
D03*
M02*
