M48
;Layer_Color=9474304
;FILE_FORMAT=2:4
INCH,TZ
;TYPE=PLATED
T1F00S00C0.0100
T2F00S00C0.0150
T4F00S00C0.0256
T5F00S00C0.0300
T6F00S00C0.0354
T7F00S00C0.0394
T8F00S00C0.0630
%
T01
X7460Y2730
X7800
Y3090
X7460
X7902Y3990
X8351Y3935
X8900Y3760
X10105Y3770
X10495Y3650
X10488Y3050
X11247Y3549
X11720Y3000
X11440Y2000
X11040
X10910Y950
X11210
X11510
X11810
X12110
Y650
Y350
X11810
Y650
X11510
Y350
X11210
Y650
X10910
Y350
X10610
Y650
Y950
X8375Y1964
X8354Y2448
X12450Y3645
X12860Y4102
X13132Y3993
X14722Y3979
X14987Y3650
X14465Y3019
X15238Y2203
X15020Y1500
X14810Y650
Y350
X14510
Y650
X14210
Y350
X13910
Y650
X17510Y2750
X17810
X18110
X18410
X18710
X19010
X19310
X19610
X19910
Y3050
Y3350
Y3650
X19610
Y3350
Y3050
X19310
Y3350
Y3650
X19010
Y3350
Y3050
X18710
Y3350
Y3650
X18410
Y3350
Y3050
X18110
Y3350
Y3650
X17810
Y3350
Y3050
X17510
Y3350
Y3650
X6410Y3950
X6110
X5810
X3407Y3902
X3400Y3560
X2710Y3070
X2460Y3320
X2186Y3323
X4010Y2150
X4310
X4610
Y1850
Y1550
Y1250
Y950
Y650
Y350
X4310
Y650
Y950
Y1250
Y1550
Y1850
X4010
Y1550
Y1250
Y950
Y650
Y350
X4100Y4990
X4440
X3720Y4803
X3457Y4790
X2940Y5320
X3300Y5770
Y6120
Y6470
X3435Y6772
X3656Y6626
X4060Y7240
X3120Y7216
X2156Y7144
X1476Y7580
X1247Y7415
X710Y7550
Y7850
Y8150
Y8450
Y8750
X410
Y8450
Y8150
Y7850
Y7550
X1153Y6803
X1219Y6414
X1310Y5450
Y5150
Y4850
Y4550
X1720Y4510
X1710Y5150
X1720Y5640
X2060Y5410
X4596Y5770
X4959
X6560Y5940
X6274Y6642
X6270Y7067
X6042Y9950
X5742
X5442
X6410Y12050
Y12350
X6710
Y12650
X6410
X5374Y16260
X4886Y16710
X4686Y17260
X7129Y15773
X8006Y15410
X10228
X10070Y13360
X9821Y13185
X9710Y12690
X9970
Y12300
X9710Y12310
X9310Y12530
X9333Y13407
X9000Y13230
X8733Y13233
X8210Y12901
Y12371
X7940Y12370
X7610Y12050
X7327Y12033
X7010Y12650
X8580Y11600
X8629Y11200
X8430Y10480
Y10130
X7610Y10250
Y10550
Y9950
Y9650
X6780Y9568
X7060Y8170
X7129Y6659
X7800Y6033
X7450Y5682
X7902Y5370
X8820Y5640
X9510Y5140
X9451Y4850
X9445Y4521
X11244
X11240Y4812
X11551Y4510
X11975Y4919
Y5221
X11676
X12200Y6210
X12312Y6900
X11940Y7200
X11280Y7320
X10700Y7220
X10690Y6950
X10433Y6779
X10879Y6471
X11440Y6780
X11660Y7730
X11950Y8020
X12319Y7690
X12490Y8980
X12425Y10020
X12229Y10191
X11710Y10070
X11500Y9915
X11314Y10096
X10629Y9956
X10140Y9820
X9860
X9595Y9820
X9597Y10664
X9875Y10655
X9710Y10979
X10092Y10310
X10150Y9530
X9945Y9324
X9717Y9000
X8726
X8730Y8330
X10350Y8090
X10668Y8595
X11190Y8571
X11450Y8580
X11710Y8573
X11920Y9810
X12905Y9880
X12986Y10226
X13290Y9940
X13863Y9830
X13480Y9350
X13400Y8480
X13857Y8593
X13844Y7947
X13450Y7280
X13440Y6900
X13907
Y6194
X13277
X13010Y6190
X13129Y5587
X13620Y4780
Y4440
X14315Y4778
X14768Y5587
X15238Y9000
X15240Y10304
Y10831
Y11290
X15094Y11871
X15476Y12075
X16040Y12275
X17210Y12350
X17510
X17810
X18110
Y12050
Y11750
Y11450
Y11150
Y10850
Y10550
Y10250
Y9950
Y9650
Y9350
Y9050
Y8750
Y8450
Y8150
Y7850
X17810
Y8150
Y8450
Y8750
Y9050
Y9350
Y9650
Y9950
Y10250
Y10550
Y10850
Y11150
Y11450
Y11750
Y12050
X17510
Y11750
Y11450
Y11150
Y10850
Y10550
Y10250
Y9950
Y9650
Y9350
Y9050
Y8750
Y8450
Y8150
Y7850
X17210
Y8150
Y8450
Y8750
Y9050
Y9350
Y9650
Y9950
Y10250
Y10550
Y10850
Y11150
Y11450
Y11750
Y12050
X16239Y11097
X16250Y10367
X14472Y11680
X14465Y12782
X13330Y12460
Y12080
X13120Y12265
Y12661
X13271Y13204
X12520Y13380
X12495Y12782
X12138Y12375
Y12075
Y11775
Y11475
Y11175
X11838
X11538
X11238
X10938
Y11475
X11238
X11538
X11838
Y11775
X11538
X11238
X10938
Y12075
X11238
X11538
X11838
Y12375
X11538
X11238
X10938
X11619Y13420
X12040Y13590
X12572Y11680
X12522Y11369
X12530Y10735
X13370Y11090
X13351Y11462
X9956Y7308
T02
X6780Y3550
X6200Y1121
X7060Y5186
X9554Y6319
X9707Y7138
X8728Y7980
T04
X10208Y1886
X12484
T05
X16460Y5950
X17460
X18460
X19460
X20460
T06
X5565Y896
Y1684
X4790Y8096
Y8884
T07
X18917Y8130
Y11272
T08
X7865Y16678
X10228
M30
