G04*
G04 #@! TF.GenerationSoftware,Altium Limited,Altium Designer,20.2.6 (244)*
G04*
G04 Layer_Color=16711935*
%FSLAX25Y25*%
%MOIN*%
G70*
G04*
G04 #@! TF.SameCoordinates,568CAEEB-50F0-44EC-8363-EC95FF72310B*
G04*
G04*
G04 #@! TF.FilePolarity,Positive*
G04*
G01*
G75*
%ADD12C,0.01000*%
%ADD134C,0.00000*%
D12*
X212502Y140500D02*
X212448Y141495D01*
X212287Y142478D01*
X212020Y143438D01*
X211652Y144364D01*
X211185Y145244D01*
X210626Y146069D01*
X209981Y146828D01*
X209257Y147514D01*
X208464Y148117D01*
X207610Y148630D01*
X206706Y149049D01*
X205762Y149367D01*
X204789Y149581D01*
X203798Y149689D01*
X202802D01*
X201811Y149581D01*
X200838Y149367D01*
X199894Y149049D01*
X198990Y148630D01*
X198136Y148117D01*
X197343Y147514D01*
X196619Y146828D01*
X195974Y146069D01*
X195415Y145244D01*
X194948Y144364D01*
X194580Y143438D01*
X194313Y142478D01*
X194152Y141495D01*
X194098Y140500D01*
X207800D02*
X207687Y141501D01*
X207354Y142453D01*
X206818Y143306D01*
X206106Y144018D01*
X205253Y144554D01*
X204301Y144887D01*
X203300Y145000D01*
X202299Y144887D01*
X201347Y144554D01*
X200494Y144018D01*
X199782Y143306D01*
X199246Y142453D01*
X198913Y141501D01*
X198800Y140500D01*
X198913Y139499D01*
X199246Y138548D01*
X199782Y137694D01*
X200494Y136982D01*
X201347Y136446D01*
X202299Y136113D01*
X203300Y136000D01*
X204301Y136113D01*
X205253Y136446D01*
X206106Y136982D01*
X206818Y137694D01*
X207354Y138548D01*
X207687Y139499D01*
X207800Y140500D01*
X9165Y165800D02*
X10191Y165981D01*
X11093Y166502D01*
X11763Y167300D01*
X12119Y168279D01*
Y169321D01*
X11763Y170300D01*
X11093Y171098D01*
X10191Y171619D01*
X9165Y171800D01*
X126665Y191400D02*
X126552Y192401D01*
X126219Y193352D01*
X125683Y194206D01*
X124971Y194918D01*
X124117Y195454D01*
X123166Y195787D01*
X122165Y195900D01*
X121164Y195787D01*
X120212Y195454D01*
X119359Y194918D01*
X118647Y194206D01*
X118111Y193352D01*
X117778Y192401D01*
X117665Y191400D01*
X117778Y190399D01*
X118111Y189447D01*
X118647Y188594D01*
X119359Y187882D01*
X120212Y187346D01*
X121164Y187013D01*
X122165Y186900D01*
X123166Y187013D01*
X124117Y187346D01*
X124971Y187882D01*
X125683Y188594D01*
X126219Y189447D01*
X126552Y190399D01*
X126665Y191400D01*
X122165Y182198D02*
X123160Y182252D01*
X124143Y182413D01*
X125103Y182679D01*
X126029Y183048D01*
X126909Y183515D01*
X127734Y184074D01*
X128493Y184719D01*
X129179Y185443D01*
X129781Y186236D01*
X130295Y187090D01*
X130714Y187994D01*
X131032Y188938D01*
X131246Y189911D01*
X131354Y190902D01*
X131354Y191898D01*
X131246Y192889D01*
X131032Y193862D01*
X130713Y194806D01*
X130295Y195710D01*
X129781Y196564D01*
X129179Y197357D01*
X128493Y198081D01*
X127734Y198726D01*
X126909Y199285D01*
X126029Y199752D01*
X125103Y200120D01*
X124143Y200387D01*
X123160Y200548D01*
X122165Y200602D01*
X24963Y140209D02*
X24850Y141210D01*
X24517Y142161D01*
X23981Y143014D01*
X23268Y143727D01*
X22415Y144263D01*
X21464Y144596D01*
X20463Y144709D01*
X19461Y144596D01*
X18510Y144263D01*
X17657Y143727D01*
X16944Y143014D01*
X16408Y142161D01*
X16076Y141210D01*
X15963Y140209D01*
X16076Y139207D01*
X16408Y138256D01*
X16944Y137403D01*
X17657Y136690D01*
X18510Y136154D01*
X19461Y135821D01*
X20463Y135709D01*
X21464Y135821D01*
X22415Y136154D01*
X23268Y136690D01*
X23981Y137403D01*
X24517Y138256D01*
X24850Y139207D01*
X24963Y140209D01*
X11816Y137061D02*
X12203Y136152D01*
X12685Y135290D01*
X13257Y134485D01*
X13912Y133746D01*
X14643Y133081D01*
X15441Y132498D01*
X16296Y132004D01*
X17200Y131604D01*
X18141Y131304D01*
X19109Y131107D01*
X20092Y131014D01*
X21080Y131027D01*
X22061Y131146D01*
X23023Y131370D01*
X23956Y131695D01*
X24848Y132119D01*
X25690Y132635D01*
X26472Y133239D01*
X27184Y133924D01*
X27819Y134680D01*
X28370Y135501D01*
X28829Y136376D01*
X29191Y137294D01*
X29453Y138247D01*
X29612Y139222D01*
X29665Y140209D01*
X18313Y100732D02*
X18259Y101726D01*
X18098Y102710D01*
X17831Y103670D01*
X17462Y104595D01*
X16996Y105476D01*
X16436Y106300D01*
X15791Y107060D01*
X15068Y107745D01*
X14275Y108348D01*
X13421Y108862D01*
X12517Y109280D01*
X11572Y109598D01*
X10599Y109812D01*
X9609Y109920D01*
X8612D01*
X7622Y109812D01*
X6649Y109598D01*
X5705Y109280D01*
X4800Y108862D01*
X3946Y108348D01*
X3153Y107745D01*
X2430Y107060D01*
X1785Y106300D01*
X1226Y105476D01*
X759Y104595D01*
X390Y103670D01*
X124Y102710D01*
X-38Y101726D01*
X-92Y100732D01*
X13611D02*
X13498Y101733D01*
X13165Y102684D01*
X12629Y103537D01*
X11916Y104250D01*
X11063Y104786D01*
X10112Y105119D01*
X9111Y105231D01*
X8109Y105119D01*
X7158Y104786D01*
X6305Y104250D01*
X5592Y103537D01*
X5056Y102684D01*
X4723Y101733D01*
X4611Y100732D01*
X4723Y99730D01*
X5056Y98779D01*
X5592Y97926D01*
X6305Y97213D01*
X7158Y96677D01*
X8109Y96344D01*
X9111Y96232D01*
X10112Y96344D01*
X11063Y96677D01*
X11916Y97213D01*
X12629Y97926D01*
X13165Y98779D01*
X13498Y99730D01*
X13611Y100732D01*
X13632Y16837D02*
X13519Y17838D01*
X13187Y18789D01*
X12650Y19643D01*
X11938Y20355D01*
X11085Y20891D01*
X10133Y21224D01*
X9132Y21337D01*
X8131Y21224D01*
X7180Y20891D01*
X6327Y20355D01*
X5614Y19643D01*
X5078Y18789D01*
X4745Y17838D01*
X4632Y16837D01*
X4745Y15836D01*
X5078Y14885D01*
X5614Y14031D01*
X6327Y13319D01*
X7180Y12783D01*
X8131Y12450D01*
X9132Y12337D01*
X10133Y12450D01*
X11085Y12783D01*
X11938Y13319D01*
X12650Y14031D01*
X13187Y14885D01*
X13519Y15836D01*
X13632Y16837D01*
X-70D02*
X-16Y15843D01*
X145Y14861D01*
X411Y13902D01*
X779Y12977D01*
X1244Y12098D01*
X1802Y11273D01*
X2446Y10514D01*
X3168Y9829D01*
X3960Y9226D01*
X4812Y8712D01*
X5715Y8293D01*
X6658Y7974D01*
X7629Y7758D01*
X8619Y7649D01*
X9614Y7648D01*
X10604Y7753D01*
X11576Y7965D01*
X12520Y8281D01*
X13424Y8697D01*
X14278Y9208D01*
X15072Y9808D01*
X15796Y10491D01*
X16443Y11248D01*
X17003Y12070D01*
X17472Y12948D01*
X192748Y139150D02*
X194098Y140500D01*
X81050Y139150D02*
X192835D01*
X212538Y24219D02*
X212538Y140500D01*
X212538Y1238D02*
Y24219D01*
X211362Y62D02*
X212538Y1238D01*
X30738Y62D02*
X211362Y62D01*
X365Y164824D02*
X1341Y165800D01*
X365Y172776D02*
X1341Y171800D01*
X81050Y146913D02*
X83595Y149458D01*
X365Y172776D02*
Y200602D01*
X1341Y165800D02*
X9165D01*
X1341Y171800D02*
X9165D01*
X29665Y147161D02*
X31841Y149338D01*
X119365Y182198D02*
X122165D01*
X119365Y149458D02*
Y182198D01*
Y149458D02*
Y182198D01*
X31841Y149338D02*
X54065D01*
X83595Y149458D02*
X119365D01*
X365Y200602D02*
X122165Y200602D01*
X365Y139604D02*
X2944Y137024D01*
X29665Y140209D02*
Y147161D01*
X365Y139604D02*
Y164824D01*
X2944Y137024D02*
X11762D01*
X54262Y149200D02*
X58600Y144862D01*
X81050Y139150D02*
Y146913D01*
X58600Y115100D02*
Y144862D01*
X18313Y100732D02*
X21808Y97236D01*
X40736D01*
X-70Y90930D02*
Y100531D01*
X40736Y97236D02*
X58600Y115100D01*
X-70Y16837D02*
Y90930D01*
X17600Y13200D02*
X30738Y62D01*
D134*
X106361Y54070D02*
Y55270D01*
Y54070D02*
Y55270D01*
Y52102D02*
Y53302D01*
Y52102D02*
Y53302D01*
Y50133D02*
Y51333D01*
Y50133D02*
Y51333D01*
Y48165D02*
Y49365D01*
Y48165D02*
Y49365D01*
Y46196D02*
Y47396D01*
Y46196D02*
Y47396D01*
Y44228D02*
Y45428D01*
Y44228D02*
Y45428D01*
Y42259D02*
Y43459D01*
Y42259D02*
Y43459D01*
X109705Y38915D02*
X110905D01*
X109705D02*
X110905D01*
X111674D02*
X112874D01*
X111674D02*
X112874D01*
X113642D02*
X114842D01*
X113642D02*
X114842D01*
X115611D02*
X116811D01*
X115611D02*
X116811D01*
X117579D02*
X118779D01*
X117579D02*
X118779D01*
X119548D02*
X120748D01*
X119548D02*
X120748D01*
X121516D02*
X122716D01*
X121516D02*
X122716D01*
X126061Y42259D02*
Y43459D01*
Y42259D02*
Y43459D01*
Y44228D02*
Y45428D01*
Y44228D02*
Y45428D01*
Y46196D02*
Y47396D01*
Y46196D02*
Y47396D01*
Y48165D02*
Y49365D01*
Y48165D02*
Y49365D01*
Y50133D02*
Y51333D01*
Y50133D02*
Y51333D01*
Y52102D02*
Y53302D01*
Y52102D02*
Y53302D01*
Y54070D02*
Y55270D01*
Y54070D02*
Y55270D01*
X121516Y58615D02*
X122716D01*
X121516D02*
X122716D01*
X119548D02*
X120748D01*
X119548D02*
X120748D01*
X117579D02*
X118779D01*
X117579D02*
X118779D01*
X115611D02*
X116811D01*
X115611D02*
X116811D01*
X113642D02*
X114842D01*
X113642D02*
X114842D01*
X111674D02*
X112874D01*
X111674D02*
X112874D01*
X109705D02*
X110905D01*
X109705D02*
X110905D01*
X126061Y38915D02*
Y58615D01*
X106361D02*
X126061D01*
X106361Y38915D02*
Y58615D01*
Y38915D02*
X126061D01*
M02*
