G04*
G04 #@! TF.GenerationSoftware,Altium Limited,Altium Designer,20.2.6 (244)*
G04*
G04 Layer_Color=255*
%FSLAX25Y25*%
%MOIN*%
G70*
G04*
G04 #@! TF.SameCoordinates,568CAEEB-50F0-44EC-8363-EC95FF72310B*
G04*
G04*
G04 #@! TF.FilePolarity,Positive*
G04*
G01*
G75*
%ADD22R,0.07087X0.08661*%
%ADD23R,0.01181X0.05118*%
G04:AMPARAMS|DCode=34|XSize=20mil|YSize=20mil|CornerRadius=5mil|HoleSize=0mil|Usage=FLASHONLY|Rotation=180.000|XOffset=0mil|YOffset=0mil|HoleType=Round|Shape=RoundedRectangle|*
%AMROUNDEDRECTD34*
21,1,0.02000,0.01000,0,0,180.0*
21,1,0.01000,0.02000,0,0,180.0*
1,1,0.01000,-0.00500,0.00500*
1,1,0.01000,0.00500,0.00500*
1,1,0.01000,0.00500,-0.00500*
1,1,0.01000,-0.00500,-0.00500*
%
%ADD34ROUNDEDRECTD34*%
%ADD38R,0.03543X0.03740*%
%ADD39R,0.03543X0.03740*%
G04:AMPARAMS|DCode=40|XSize=20mil|YSize=20mil|CornerRadius=5mil|HoleSize=0mil|Usage=FLASHONLY|Rotation=270.000|XOffset=0mil|YOffset=0mil|HoleType=Round|Shape=RoundedRectangle|*
%AMROUNDEDRECTD40*
21,1,0.02000,0.01000,0,0,270.0*
21,1,0.01000,0.02000,0,0,270.0*
1,1,0.01000,-0.00500,-0.00500*
1,1,0.01000,-0.00500,0.00500*
1,1,0.01000,0.00500,0.00500*
1,1,0.01000,0.00500,-0.00500*
%
%ADD40ROUNDEDRECTD40*%
%ADD44R,0.05118X0.01181*%
%ADD45R,0.08661X0.07087*%
%ADD46R,0.07000X0.13000*%
%ADD120C,0.06000*%
%ADD121R,0.06000X0.06000*%
%ADD122C,0.06299*%
%ADD123R,0.06299X0.06299*%
%ADD124C,0.02559*%
%ADD125O,0.03937X0.06299*%
%ADD126O,0.03937X0.08268*%
%ADD129C,0.03937*%
%ADD131R,0.02362X0.04528*%
D22*
X89446Y103500D02*
D03*
X66612Y103500D02*
D03*
X98104Y81000D02*
D03*
X128813Y81000D02*
D03*
D23*
X82950Y113331D02*
D03*
X80982D02*
D03*
X79013D02*
D03*
X77045D02*
D03*
X75076D02*
D03*
X73108D02*
D03*
X104600Y90831D02*
D03*
X110505D02*
D03*
X112474D02*
D03*
X114443D02*
D03*
X116411D02*
D03*
X118379D02*
D03*
X120348D02*
D03*
X122317D02*
D03*
X108537D02*
D03*
X106569D02*
D03*
D34*
X91500Y82800D02*
D03*
Y86800D02*
D03*
Y77100D02*
D03*
Y73100D02*
D03*
D38*
X77936Y81287D02*
D03*
X81676Y72035D02*
D03*
D39*
X74196Y72035D02*
D03*
D40*
X85793Y129724D02*
D03*
X89793D02*
D03*
X85793Y125751D02*
D03*
X89793D02*
D03*
X72536Y86879D02*
D03*
X68536D02*
D03*
D44*
X25631Y52810D02*
D03*
Y50842D02*
D03*
Y37062D02*
D03*
Y39031D02*
D03*
Y40999D02*
D03*
Y42968D02*
D03*
Y44936D02*
D03*
Y46905D02*
D03*
Y48873D02*
D03*
Y54779D02*
D03*
Y56747D02*
D03*
Y58716D02*
D03*
Y60684D02*
D03*
Y62653D02*
D03*
Y64621D02*
D03*
Y66590D02*
D03*
Y68558D02*
D03*
Y70527D02*
D03*
Y72495D02*
D03*
Y74464D02*
D03*
Y76432D02*
D03*
Y78401D02*
D03*
Y80369D02*
D03*
Y82338D02*
D03*
D45*
X15800Y30566D02*
D03*
X15800Y88834D02*
D03*
D46*
X56500Y69000D02*
D03*
D120*
X204600Y59500D02*
D03*
X194600D02*
D03*
X184600D02*
D03*
X174600D02*
D03*
D121*
X164600D02*
D03*
D122*
X47900Y80963D02*
D03*
X55648Y8963D02*
D03*
D123*
X47900Y88837D02*
D03*
X55648Y16837D02*
D03*
D124*
X102080Y18858D02*
D03*
X124836D02*
D03*
D125*
X130486Y5079D02*
D03*
X96431D02*
D03*
D126*
X130486Y20827D02*
D03*
X96431D02*
D03*
D129*
X50900Y44005D02*
D03*
X87400Y40900D02*
D03*
X80281Y19811D02*
D03*
X30300Y91700D02*
D03*
X136137Y64400D02*
D03*
X125600D02*
D03*
X109700Y134200D02*
D03*
X104300D02*
D03*
X147000Y97613D02*
D03*
X35805Y90000D02*
D03*
X144336Y34400D02*
D03*
X145500Y66500D02*
D03*
X58491Y87500D02*
D03*
X82788Y85926D02*
D03*
X159400Y66600D02*
D03*
X91700Y112900D02*
D03*
X103491Y40961D02*
D03*
D131*
X162240Y126918D02*
D03*
X154760D02*
D03*
Y116682D02*
D03*
X158500D02*
D03*
X162240D02*
D03*
M02*
