G04*
G04 #@! TF.GenerationSoftware,Altium Limited,Altium Designer,20.2.6 (244)*
G04*
G04 Layer_Color=16711935*
%FSLAX25Y25*%
%MOIN*%
G70*
G04*
G04 #@! TF.SameCoordinates,568CAEEB-50F0-44EC-8363-EC95FF72310B*
G04*
G04*
G04 #@! TF.FilePolarity,Negative*
G04*
G01*
G75*
%ADD65R,0.07887X0.09461*%
%ADD66R,0.01981X0.05918*%
G04:AMPARAMS|DCode=77|XSize=28mil|YSize=28mil|CornerRadius=9mil|HoleSize=0mil|Usage=FLASHONLY|Rotation=180.000|XOffset=0mil|YOffset=0mil|HoleType=Round|Shape=RoundedRectangle|*
%AMROUNDEDRECTD77*
21,1,0.02800,0.01000,0,0,180.0*
21,1,0.01000,0.02800,0,0,180.0*
1,1,0.01800,-0.00500,0.00500*
1,1,0.01800,0.00500,0.00500*
1,1,0.01800,0.00500,-0.00500*
1,1,0.01800,-0.00500,-0.00500*
%
%ADD77ROUNDEDRECTD77*%
%ADD81R,0.04343X0.04540*%
%ADD82R,0.04343X0.04540*%
G04:AMPARAMS|DCode=83|XSize=28mil|YSize=28mil|CornerRadius=9mil|HoleSize=0mil|Usage=FLASHONLY|Rotation=270.000|XOffset=0mil|YOffset=0mil|HoleType=Round|Shape=RoundedRectangle|*
%AMROUNDEDRECTD83*
21,1,0.02800,0.01000,0,0,270.0*
21,1,0.01000,0.02800,0,0,270.0*
1,1,0.01800,-0.00500,-0.00500*
1,1,0.01800,-0.00500,0.00500*
1,1,0.01800,0.00500,0.00500*
1,1,0.01800,0.00500,-0.00500*
%
%ADD83ROUNDEDRECTD83*%
%ADD87R,0.05918X0.01981*%
%ADD88R,0.09461X0.07887*%
%ADD89R,0.07800X0.13800*%
%ADD105C,0.06800*%
%ADD106R,0.06800X0.06800*%
%ADD107C,0.07099*%
%ADD108R,0.07099X0.07099*%
%ADD109C,0.03359*%
%ADD110O,0.04737X0.07099*%
%ADD111O,0.04737X0.09068*%
%ADD112C,0.06899*%
%ADD113C,0.04537*%
%ADD114C,0.02800*%
%ADD132C,0.04737*%
%ADD133R,0.03162X0.05328*%
D65*
X89446Y103500D02*
D03*
X66612Y103500D02*
D03*
X98104Y81000D02*
D03*
X128813Y81000D02*
D03*
D66*
X82950Y113331D02*
D03*
X80982D02*
D03*
X79013D02*
D03*
X77045D02*
D03*
X75076D02*
D03*
X73108D02*
D03*
X104600Y90831D02*
D03*
X110505D02*
D03*
X112474D02*
D03*
X114443D02*
D03*
X116411D02*
D03*
X118379D02*
D03*
X120348D02*
D03*
X122317D02*
D03*
X108537D02*
D03*
X106569D02*
D03*
D77*
X91500Y82800D02*
D03*
Y86800D02*
D03*
Y77100D02*
D03*
Y73100D02*
D03*
D81*
X77936Y81287D02*
D03*
X81676Y72035D02*
D03*
D82*
X74196Y72035D02*
D03*
D83*
X85793Y129724D02*
D03*
X89793D02*
D03*
X85793Y125751D02*
D03*
X89793D02*
D03*
X72536Y86879D02*
D03*
X68536D02*
D03*
D87*
X25631Y52810D02*
D03*
Y50842D02*
D03*
Y37062D02*
D03*
Y39031D02*
D03*
Y40999D02*
D03*
Y42968D02*
D03*
Y44936D02*
D03*
Y46905D02*
D03*
Y48873D02*
D03*
Y54779D02*
D03*
Y56747D02*
D03*
Y58716D02*
D03*
Y60684D02*
D03*
Y62653D02*
D03*
Y64621D02*
D03*
Y66590D02*
D03*
Y68558D02*
D03*
Y70527D02*
D03*
Y72495D02*
D03*
Y74464D02*
D03*
Y76432D02*
D03*
Y78401D02*
D03*
Y80369D02*
D03*
Y82338D02*
D03*
D88*
X15800Y30566D02*
D03*
X15800Y88834D02*
D03*
D89*
X56500Y69000D02*
D03*
D105*
X204600Y59500D02*
D03*
X194600D02*
D03*
X184600D02*
D03*
X174600D02*
D03*
D106*
X164600D02*
D03*
D107*
X47900Y80963D02*
D03*
X55648Y8963D02*
D03*
D108*
X47900Y88837D02*
D03*
X55648Y16837D02*
D03*
D109*
X102080Y18858D02*
D03*
X124836D02*
D03*
D110*
X130486Y5079D02*
D03*
X96431D02*
D03*
D111*
X130486Y20827D02*
D03*
X96431D02*
D03*
D112*
X78654Y166783D02*
D03*
X102276D02*
D03*
D113*
X189175Y112716D02*
D03*
Y81299D02*
D03*
D114*
X138629Y98300D02*
D03*
D132*
X50900Y44005D02*
D03*
X87400Y40900D02*
D03*
X80281Y19811D02*
D03*
X30300Y91700D02*
D03*
X136137Y64400D02*
D03*
X125600D02*
D03*
X109700Y134200D02*
D03*
X104300D02*
D03*
X147000Y97613D02*
D03*
X35805Y90000D02*
D03*
X144336Y34400D02*
D03*
X145500Y66500D02*
D03*
X58491Y87500D02*
D03*
X82788Y85926D02*
D03*
X159400Y66600D02*
D03*
X91700Y112900D02*
D03*
X103491Y40961D02*
D03*
D133*
X162240Y126918D02*
D03*
X154760D02*
D03*
Y116682D02*
D03*
X158500D02*
D03*
X162240D02*
D03*
M02*
